<?xml version="1.0" standalone="no"?>
<!DOCTYPE svg PUBLIC "-//W3C//DTD SVG 1.1//EN" "http://www.w3.org/Graphics/SVG/1.1/DTD/svg11.dtd" >
<svg xmlns="http://www.w3.org/2000/svg">
<metadata></metadata>
<defs>
<font id="velino_condensed_text_thinTh" horiz-adv-x="1044" >
<font-face units-per-em="2048" ascent="1536" descent="-512" />
<missing-glyph horiz-adv-x="419" />
<glyph unicode="&#xfb01;" horiz-adv-x="1085" d="M61 0v33l144 10q35 3 35 51v887h-154v27l154 16v102q0 53 9.5 102.5t33 99t59 86t93 59t130.5 22.5q104 0 182 -55t78 -99q0 -17 -11 -29t-28 -12q-19 0 -43.5 23t-48 50t-69 50t-101.5 23q-207 0 -207 -299v-123h326l238 20l14 -16q-14 -55 -14 -168v-766 q0 -25 7.5 -37.5t26.5 -13.5l144 -10v-33h-434v33l143 10q35 3 35 51v846q0 22 -7.5 31.5t-27.5 9.5h-451v-887q0 -48 35 -51l180 -10v-33h-471z" />
<glyph unicode="&#xfb02;" horiz-adv-x="1085" d="M61 0v33l144 10q35 3 35 51v887h-154v27l154 16v102q0 68 14.5 128.5t47 117t95.5 90t150 33.5q85 0 159 -33t105 -61l70 53l14 -16q-14 -55 -14 -168v-1176q0 -25 7.5 -37.5t26.5 -13.5l144 -10v-33h-434v33l143 10q35 3 35 51v1206q-1 1 -13 14.5t-20 21.5t-25 23.5 t-31.5 25.5t-37 22.5t-44 20t-50 13t-58.5 5.5q-207 0 -207 -299v-123h240v-43h-240v-887q0 -48 35 -51l180 -10v-33h-471z" />
<glyph unicode="&#xfb03;" horiz-adv-x="1679" d="M61 0v33l144 10q35 3 35 51v887h-154v27l154 16v94q0 67 16 125.5t48.5 106.5t88.5 76t129 28q48 0 87.5 -18t39.5 -50q0 -36 -37 -36q-26 0 -76.5 25t-80.5 26q-66 2 -102 -52t-36 -161v-164h517v102q0 53 9.5 102.5t33 99t59 86t93 59t130.5 22.5q104 0 182 -55t78 -99 q0 -17 -11 -29t-28 -12q-19 0 -43.5 23t-48 50t-69 50t-101.5 23q-207 0 -207 -299v-123h326l238 20l14 -16q-14 -55 -14 -168v-766q0 -25 7.5 -37.5t26.5 -13.5l144 -10v-33h-434v33l143 10q35 3 35 51v846q0 22 -7.5 31.5t-27.5 9.5h-451v-887q0 -48 35 -51l180 -10v-33 h-471v33l144 10q35 3 35 51v887h-517v-887q0 -48 35 -51l180 -10v-33h-471z" />
<glyph unicode="&#xfb04;" horiz-adv-x="1679" d="M61 0v33l144 10q35 3 35 51v887h-154v27l154 16v94q0 67 16 125.5t48.5 106.5t88.5 76t129 28q48 0 87.5 -18t39.5 -50q0 -36 -37 -36q-26 0 -76.5 25t-80.5 26q-66 2 -102 -52t-36 -161v-164h517v102q0 68 14.5 128.5t47 117t95.5 90t150 33.5q85 0 159 -33t105 -61 l70 53l14 -16q-14 -55 -14 -168v-1176q0 -25 7.5 -37.5t26.5 -13.5l144 -10v-33h-434v33l143 10q35 3 35 51v1206q-1 1 -13 14.5t-20 21.5t-25 23.5t-31.5 25.5t-37 22.5t-44 20t-50 13t-58.5 5.5q-207 0 -207 -299v-123h240v-43h-240v-887q0 -48 35 -51l180 -10v-33h-471 v33l144 10q35 3 35 51v887h-517v-887q0 -48 35 -51l180 -10v-33h-471z" />
<glyph horiz-adv-x="0" />
<glyph horiz-adv-x="682" />
<glyph unicode=" "  horiz-adv-x="419" />
<glyph unicode="&#x09;" horiz-adv-x="419" />
<glyph unicode="&#xa0;" horiz-adv-x="419" />
<glyph unicode="!" horiz-adv-x="475" d="M172 53q0 29 19 50.5t47 21.5q26 0 44.5 -21.5t18.5 -50.5q0 -31 -18.5 -52t-44.5 -21q-28 0 -47 21t-19 52zM180 1341q0 72 58 72q61 0 57 -72l-43 -1034h-27z" />
<glyph unicode="&#x22;" horiz-adv-x="772" d="M172 1393h80l-27 -471h-26zM520 1393h80l-27 -471h-26z" />
<glyph unicode="#" horiz-adv-x="1130" d="M174 377v45h246v242h-246v45h246v297h45v-297h201v297h45v-297h245v-45h-245v-242h245v-45h-245v-299h-45v299h-201v-299h-45v299h-246zM465 422h201v242h-201v-242z" />
<glyph unicode="$" horiz-adv-x="1024" d="M137 410h31q20 -107 51.5 -182.5t72.5 -119t86 -64.5t101 -26l15 678q-47 26 -68.5 38.5t-62.5 39t-61 45.5t-48.5 50t-41.5 61t-23.5 70t-10.5 85q0 62 20.5 118.5t60 103t104.5 75.5t147 31l4 123h43l-4 -123q61 -4 119 -21t91.5 -33.5t86.5 -47.5v-307h-31 q-6 98 -28 169.5t-58.5 112.5t-80 61.5t-99.5 24.5l-14 -608q6 -3 18 -10q143 -80 202 -131q126 -109 126 -265q0 -160 -99 -267.5t-266 -110.5l-2 -123h-43l2 125q-88 4 -157 30t-142 70zM258 1108q0 -47 13 -88t33.5 -72t53.5 -61.5t64 -52t74 -46.5l14 586 q-120 -3 -186 -82.5t-66 -183.5zM522 18q125 2 204 80t79 215q0 68 -20.5 123.5t-62 98.5t-82.5 72.5t-103 64.5z" />
<glyph unicode="%" horiz-adv-x="1681" d="M172 1085q0 129 66 224.5t176 95.5t175.5 -95.5t65.5 -224.5t-65.5 -224t-175.5 -95t-176 95t-66 224zM219 1085q0 -148 56.5 -222.5t138.5 -74.5q81 0 137.5 76.5t56.5 220.5q0 148 -56 222.5t-138 74.5t-138.5 -74.5t-56.5 -222.5zM633 -41l364 1475h41l-364 -1475h-41 zM1026 299q0 129 66 224t176 95q109 0 175 -95t66 -224t-66 -224t-175 -95q-110 0 -176 95t-66 224zM1073 299q0 -148 56.5 -222.5t138.5 -74.5q80 0 136 76.5t56 220.5q0 148 -55.5 222.5t-136.5 74.5q-84 0 -139.5 -74t-55.5 -223z" />
<glyph unicode="&#x26;" horiz-adv-x="1222" d="M102 334q0 255 283 430q-1 2 -29 45t-36 56.5t-30.5 55t-31 67.5t-17 64.5t-8.5 73.5q0 123 75 205t190 82q119 0 189.5 -65.5t70.5 -188.5q0 -221 -279 -387l336 -487q102 166 156 428q5 27 -4.5 43t-46.5 20l-101 10v33h350v-33l-82 -10q-66 -6 -77 -69 q-53 -273 -170 -459l96 -137q23 -33 48.5 -49t64.5 -19l108 -10v-33q-120 -10 -170 -10q-43 0 -69 14.5t-48 46.5l-84 121q-152 -192 -360 -192q-149 0 -236.5 97t-87.5 257zM184 350q0 -137 71.5 -223t201.5 -86q173 0 305 168l-352 520q-71 -46 -118 -94.5t-69.5 -98.5 t-30.5 -92.5t-8 -93.5zM299 1163q0 -47 12 -93t40 -97.5t46.5 -80.5t57.5 -87q135 84 183 163.5t48 194.5q0 53 -18.5 99.5t-62.5 79t-107 32.5q-91 0 -145 -66t-54 -145z" />
<glyph unicode="'" horiz-adv-x="423" d="M172 1393h80l-27 -471h-26z" />
<glyph unicode="(" horiz-adv-x="655" d="M256 696q0 508 256 860h41q-217 -320 -217 -860t217 -860h-41q-256 352 -256 860z" />
<glyph unicode=")" horiz-adv-x="655" d="M102 -164q215 322 215 860t-215 860h41q256 -357 256 -860t-256 -860h-41z" />
<glyph unicode="*" horiz-adv-x="768" d="M139 1122q0 22 11.5 37t29.5 15q7 0 91 -22t102 -22q-22 14 -88.5 65.5t-75.5 61.5q-12 15 -11.5 35t13.5 35q11 15 28 16t31 -14q5 -7 27 -47.5t48 -88.5t30 -56q0 21 -16.5 120t-16.5 107q0 22 12 35.5t31 13.5t31 -13t12 -36q0 -8 -17.5 -108t-17.5 -119q2 3 29.5 55 t49.5 91t28 46q12 15 29 15t30 -15q28 -36 0 -72q-12 -16 -162 -127q20 0 101 22t88 22q19 0 31 -15t12 -37t-12 -35.5t-31 -13.5q-6 0 -88 18.5t-99 18.5q139 -100 158 -119q12 -15 12 -36t-12 -35q-13 -15 -31 -15t-30 15q-4 5 -103 184q0 -18 17.5 -114t17.5 -103 q0 -22 -12 -36.5t-31 -14.5t-31 14.5t-12 36.5q0 7 16.5 103t16.5 116q-102 -185 -103 -186q-12 -15 -30.5 -15t-30.5 15q-13 15 -12.5 35.5t12.5 35.5q7 8 71 55t89 64q-19 0 -102 -18.5t-89 -18.5q-19 0 -30 13.5t-11 35.5z" />
<glyph unicode="+" horiz-adv-x="956" d="M174 520v45h283v336h45v-336h280v-45h-280v-336h-45v336h-283z" />
<glyph unicode="," horiz-adv-x="530" d="M170 -256q56 33 95.5 86t39.5 113q0 77 -57 77q-33 0 -52.5 22t-19.5 54t19.5 55t52.5 23q34 0 58 -19.5t34.5 -49t15 -54t4.5 -45.5q0 -57 -18 -107t-47 -85t-57 -58.5t-56 -38.5z" />
<glyph unicode="-" horiz-adv-x="956" d="M174 520v45h608v-45h-608z" />
<glyph unicode="." horiz-adv-x="471" d="M170 53q0 29 20 50.5t46 21.5t45.5 -21.5t19.5 -50.5q0 -30 -19 -51.5t-46 -21.5t-46.5 21.5t-19.5 51.5z" />
<glyph unicode="/" horiz-adv-x="765" d="M180 -41l365 1475h41l-365 -1475h-41z" />
<glyph unicode="0" d="M133 696q0 209 45.5 370t134.5 254t209 93t209 -93t134.5 -254t45.5 -370q0 -210 -45.5 -371t-134 -253t-209.5 -92t-209.5 92t-134 253t-45.5 371zM225 696q0 -323 77.5 -500.5t219.5 -177.5t219.5 177.5t77.5 500.5q0 322 -77.5 500t-219.5 178t-219.5 -178t-77.5 -500 z" />
<glyph unicode="1" horiz-adv-x="747" d="M86 0v33l211 10q35 3 35 51v1194q0 23 -8 33.5t-27 7.5l-205 -45l-6 33l303 86h25v-1309q0 -48 35 -51l210 -10v-33h-573z" />
<glyph unicode="2" horiz-adv-x="935" d="M82 0v27q145 117 253 229t173 207t104.5 191t53.5 175.5t14 167.5q0 104 -27 187t-87 136.5t-146 53.5q-78 0 -132.5 -29.5t-107.5 -80.5q-17 -19 -40 -10t-23 40q0 44 95 81.5t210 37.5q74 0 134.5 -27t99.5 -69.5t66 -99t38.5 -112.5t11.5 -112t-10 -115t-46 -151.5 t-95.5 -188t-168.5 -220.5t-255 -252v-5h522q46 0 51 41l29 164h30l-20 -266h-727z" />
<glyph unicode="3" horiz-adv-x="921" d="M102 98q0 31 23.5 40.5t40.5 -9.5q115 -111 250 -111q134 0 207 102.5t73 252.5q0 55 -11 105t-35 95t-59 77.5t-87 51.5t-115 19h-49v41h41q119 0 196.5 90.5t77.5 230.5q0 136 -65 211.5t-178 75.5q-146 0 -260 -131l-25 35q131 139 303 139q136 0 227 -91t91 -226 q0 -123 -70 -214.5t-182 -131.5v-5q126 -24 209 -118t83 -250q0 -98 -32.5 -175.5t-87.5 -125t-123 -72t-144 -24.5q-115 0 -207 36.5t-92 81.5z" />
<glyph unicode="4" horiz-adv-x="956" d="M51 315v27l613 1061h36v-1043h191v-45h-191v-221q0 -26 7.5 -38t27.5 -13l146 -10v-33h-441v33l144 10q34 3 34 51v221h-567zM113 360h505v879h-2z" />
<glyph unicode="5" horiz-adv-x="921" d="M102 98q0 31 24.5 40.5t39.5 -9.5q119 -111 250 -111q90 0 155 52.5t95 133t30 177.5q0 59 -10.5 112t-40 109.5t-76 98.5t-126 73.5t-183.5 40.5l-94 8l16 570h551v-62h-512l-12 -467l67 -6q143 -14 246.5 -58.5t159.5 -111t81 -141t25 -162.5q0 -98 -32.5 -176.5 t-87.5 -127.5t-123.5 -75t-143.5 -26q-115 0 -207 36.5t-92 81.5z" />
<glyph unicode="6" horiz-adv-x="987" d="M133 547q0 348 154 585.5t432 301.5l8 -37q-101 -29 -178.5 -75t-145 -123.5t-112.5 -197.5t-64 -282l2 -2q128 139 279 139q141 0 243.5 -108.5t102.5 -296.5q0 -213 -103 -342t-262 -129q-95 0 -165.5 44.5t-111 124.5t-60 179t-19.5 219zM225 662q-20 -320 48 -482 t219 -162q126 0 198 113t72 299q0 169 -71.5 273t-203.5 104q-70 0 -139.5 -38.5t-122.5 -106.5z" />
<glyph unicode="7" horiz-adv-x="833" d="M96 1085v308h703v-15q-175 -280 -301 -637t-176 -741h-99q150 738 502 1327v4h-528q-49 0 -54 -41l-16 -205h-31z" />
<glyph unicode="8" horiz-adv-x="1017" d="M133 332q0 114 70 227t205 176q-106 59 -163 145.5t-57 184.5q0 164 96 256t230 92q132 0 223.5 -92t91.5 -246q0 -110 -63 -202t-168 -158q147 -70 217 -162t70 -211q0 -88 -33 -159t-88 -114t-121.5 -66t-138.5 -23q-96 0 -179.5 39.5t-137.5 121.5t-54 191zM215 352 q0 -146 81.5 -240t213.5 -94q134 0 213.5 85.5t79.5 224.5q0 70 -22 124t-71.5 99.5t-108 81t-152.5 80.5q-115 -59 -174.5 -157t-59.5 -204zM266 1104q0 -135 65.5 -211t233.5 -160q95 72 141 156t46 201q0 121 -71 202.5t-175 81.5q-106 0 -173 -79.5t-67 -190.5z" />
<glyph unicode="9" horiz-adv-x="987" d="M133 942q0 213 103 342t262 129q95 0 165.5 -44.5t111 -124.5t60 -179t19.5 -219q0 -348 -154 -585.5t-432 -301.5q-4 26 -8 37q80 23 145.5 55.5t127 86.5t106 126t78 176t49.5 234l-2 2q-128 -139 -285 -139q-141 0 -243.5 108.5t-102.5 296.5zM219 963 q0 -168 74 -272.5t207 -104.5q72 0 143 38.5t125 106.5q20 319 -49.5 481t-222.5 162q-127 0 -202 -113.5t-75 -297.5z" />
<glyph unicode=":" horiz-adv-x="471" d="M170 53q0 29 20 50.5t46 21.5t45.5 -21.5t19.5 -50.5q0 -30 -19 -51.5t-46 -21.5t-46.5 21.5t-19.5 51.5zM170 737q0 29 20 50.5t46 21.5t45.5 -21.5t19.5 -50.5q0 -30 -19 -51.5t-46 -21.5t-46.5 21.5t-19.5 51.5z" />
<glyph unicode=";" horiz-adv-x="530" d="M170 -256q56 33 95.5 86t39.5 113q0 77 -57 77q-33 0 -52.5 22t-19.5 54t19.5 55t52.5 23q34 0 58 -19.5t34.5 -49t15 -54t4.5 -45.5q0 -57 -18 -107t-47 -85t-57 -58.5t-56 -38.5zM186 737q0 29 19 50.5t47 21.5q26 0 44.5 -21.5t18.5 -50.5q0 -31 -18.5 -52t-44.5 -21 q-28 0 -47 21t-19 52z" />
<glyph unicode="&#x3c;" horiz-adv-x="835" d="M174 543v20l488 389v-51l-429 -348l429 -348v-51z" />
<glyph unicode="=" horiz-adv-x="956" d="M174 377v45h608v-45h-608zM174 664v45h608v-45h-608z" />
<glyph unicode="&#x3e;" horiz-adv-x="835" d="M174 154v51l428 348l-428 348v51l488 -389v-20z" />
<glyph unicode="?" horiz-adv-x="837" d="M102 1294q0 44 96.5 81.5t213.5 37.5q65 0 119.5 -21t91.5 -56.5t63 -83t37.5 -100t11.5 -108.5q0 -58 -15 -111.5t-50 -108t-104.5 -98t-168.5 -67.5l-8 -352h-33l-6 377q299 69 299 360q0 91 -25 164t-80.5 119.5t-133.5 46.5q-130 0 -244 -110q-17 -19 -40.5 -10 t-23.5 40zM305 53q0 29 19 50.5t47 21.5q26 0 44.5 -21.5t18.5 -50.5q0 -31 -18.5 -52t-44.5 -21q-28 0 -47 21t-19 52z" />
<glyph unicode="@" horiz-adv-x="1458" d="M139 453q0 146 49 284.5t134 245t211 171.5t270 65q111 0 205 -41.5t163.5 -119t108.5 -195.5t39 -263q0 -143 -44 -271t-123 -208t-173 -80q-66 0 -106.5 46t-45.5 110q-27 -71 -76 -113.5t-112 -42.5q-66 0 -111 43t-64.5 112t-19 152.5t20.5 167.5q36 149 118 246.5 t195 97.5q48 0 88 -35t41 -106h6l60 110h20l-92 -581q-10 -71 13.5 -122.5t82.5 -51.5q48 0 99 38.5t94 104.5t70.5 167t27.5 214q0 124 -28 225t-74.5 167.5t-110 111.5t-132 64.5t-142.5 19.5q-175 0 -312.5 -99t-211.5 -265t-74 -365q0 -164 44.5 -293.5t123.5 -211.5 t182.5 -124.5t224.5 -42.5q105 0 217 50t199 134l10 -20q-207 -197 -467 -197q-123 0 -231.5 47.5t-190.5 135t-129 221.5t-47 297zM523.5 343.5q-1.5 -71.5 9.5 -132t40.5 -99t73.5 -38.5q70 0 119 68.5t65 176.5l48 308q10 52 3.5 88t-17 58t-29.5 34t-35 16t-33 4 q-82 0 -139.5 -95t-89.5 -247q-14 -70 -15.5 -141.5z" />
<glyph unicode="A" horiz-adv-x="1249" d="M31 0v33l108 10q17 2 27 5.5t20 15t15 30.5l358 1309h78l416 -1309q9 -28 22 -38.5t35 -12.5l109 -10v-33h-410v33l115 10q25 1 35 16.5t2 38.5l-123 398h-482l-108 -400q-6 -26 0.5 -39t30.5 -14l120 -10v-33h-368zM367 539h454l-239 774h-4z" />
<glyph unicode="B" horiz-adv-x="1075" d="M76 0v33l145 10q35 3 35 51v1204q0 49 -35 52l-145 10v33h477q190 0 289.5 -92.5t99.5 -247.5q0 -122 -72.5 -210t-205.5 -114v-4q81 -7 146.5 -41.5t105 -84.5t60.5 -108.5t21 -117.5q0 -172 -107 -272.5t-300 -100.5h-514zM338 43h240q168 0 247.5 85.5t79.5 240.5 q0 50 -10.5 95t-37.5 90t-69 78t-109 53t-153 20h-188v-662zM338 750h188q324 0 324 301q0 45 -7 84t-28 80t-54 69.5t-90 47t-132 18.5h-201v-600z" />
<glyph unicode="C" horiz-adv-x="1130" d="M102 696q0 204 75.5 369t203.5 256.5t281 91.5q213 0 385 -102v-307h-31q-6 90 -26.5 156t-50 107t-74 65t-92 33t-109.5 9q-93 0 -176.5 -43t-149.5 -124.5t-104.5 -213.5t-38.5 -297q0 -166 37 -297.5t100.5 -212.5t144 -123.5t170.5 -42.5q140 0 248 94t147 296l37 -9 q-19 -96 -54 -171t-76.5 -121t-94 -76t-103 -41.5t-106.5 -11.5q-154 0 -278 91t-194.5 255t-70.5 370z" />
<glyph unicode="D" horiz-adv-x="1290" d="M76 0v33l145 10q35 3 35 51v1204q0 49 -35 52l-145 10v33h518q281 0 437.5 -184.5t156.5 -512.5q0 -205 -70 -362t-205.5 -245.5t-318.5 -88.5h-518zM338 43h254q101 0 185.5 38t142.5 101.5t98.5 148t59 176.5t18.5 189q0 112 -19.5 209t-61 179.5t-102.5 141 t-147.5 91.5t-192.5 33h-235v-1307z" />
<glyph unicode="E" d="M76 0v33l145 10q35 3 35 51v1204q0 49 -35 52l-145 10v33h866v-308h-31l-37 224q-8 41 -53 41h-483v-621h293q46 0 51 41l20 172h29v-471h-29l-20 172q-5 41 -51 41h-293v-641h508q42 0 53 41l64 223h30l-35 -307h-882z" />
<glyph unicode="F" horiz-adv-x="993" d="M76 0v33l145 10q35 3 35 51v1204q0 49 -35 52l-145 10v33h866v-308h-31l-37 224q-8 41 -53 41h-483v-641h293q46 0 51 41l20 172h29v-471h-29l-20 172q-5 41 -51 41h-293v-570q0 -48 35 -51l180 -10v-33h-477z" />
<glyph unicode="G" horiz-adv-x="1253" d="M102 696q0 204 75.5 369t203.5 256.5t281 91.5q213 0 385 -102v-307h-31q-6 90 -26.5 156t-50 107t-74 65t-92 33t-109.5 9q-93 0 -176.5 -43t-149.5 -124.5t-104.5 -213.5t-38.5 -297t39.5 -297.5t106 -214t149 -124t172.5 -42.5q181 0 321 103v399q0 48 -35 51l-145 11 v32h399v-32l-102 -11q-20 -1 -27.5 -13t-7.5 -38v-520h-25l-51 74q-147 -94 -327 -94q-154 0 -282 91t-203 255.5t-75 369.5z" />
<glyph unicode="H" horiz-adv-x="1355" d="M76 0v33l145 10q35 3 35 51v1204q0 49 -35 52l-145 10v33h440v-33l-143 -10q-20 -1 -27.5 -13.5t-7.5 -38.5v-569h680v569q0 49 -35 52l-143 10v33h440v-33l-145 -10q-35 -3 -35 -52v-1204q0 -48 35 -51l145 -10v-33h-440v33l143 10q35 3 35 51v590h-680v-590 q0 -26 7.5 -38t27.5 -13l143 -10v-33h-440z" />
<glyph unicode="I" horiz-adv-x="593" d="M76 0v33l145 10q35 3 35 51v1204q0 49 -35 52l-145 10v33h440v-33l-143 -10q-20 -1 -27.5 -13.5t-7.5 -38.5v-1204q0 -26 7.5 -38t27.5 -13l143 -10v-33h-440z" />
<glyph unicode="J" horiz-adv-x="563" d="M61 1360v33h441v-33l-146 -10q-34 -3 -34 -52v-1251q0 -350 -240 -457l-12 29q55 31 91 74t52 97t21.5 100.5t5.5 109.5v1298q0 49 -35 52z" />
<glyph unicode="K" horiz-adv-x="1273" d="M76 0v33l145 10q35 3 35 51v1204q0 49 -35 52l-145 10v33h440v-33l-143 -10q-20 -1 -27.5 -13.5t-7.5 -38.5v-632l555 620q20 19 16.5 41t-28.5 23l-129 10v33h419v-33l-94 -8q-79 -9 -135 -74l-399 -449l471 -725q37 -59 112 -63l113 -8v-33h-471v33l106 10 q31 3 39.5 21t-6.5 40l-422 662l-147 -166v-506q0 -26 7.5 -38t27.5 -13l143 -10v-33h-440z" />
<glyph unicode="L" horiz-adv-x="1007" d="M76 0v33l145 10q35 3 35 51v1204q0 49 -35 52l-145 10v33h440v-33l-143 -10q-35 -3 -35 -52v-1255h491q43 0 54 41l65 223h29l-35 -307h-866z" />
<glyph unicode="M" horiz-adv-x="1525" d="M66 0v33l137 10q35 3 35 51v1204q0 49 -35 52l-137 10v33h266l430 -1233l418 1233h268v-33l-143 -10q-20 -1 -27.5 -13.5t-7.5 -38.5v-1204q0 -26 7.5 -38t27.5 -13l143 -10v-33h-440v33l145 10q35 3 35 51v1186l-440 -1290h-15l-450 1292v-1188q0 -26 7.5 -38t28.5 -13 l136 -10v-33h-389z" />
<glyph unicode="N" horiz-adv-x="1273" d="M66 0v33l137 10q35 3 35 51v1204q0 49 -35 52l-137 10v33h264l684 -1217v1122q0 49 -37 52l-137 10v33h383v-33l-129 -10q-37 -3 -37 -52v-1308h-33l-741 1308v-1204q0 -26 7.5 -38t28.5 -13l136 -10v-33h-389z" />
<glyph unicode="O" horiz-adv-x="1361" d="M102 696q0 153 44.5 287t122 228t184 148t227.5 54t228.5 -54t184.5 -148t122 -228t45 -287q0 -205 -76.5 -369.5t-208.5 -255.5t-295 -91q-121 0 -227.5 53.5t-184 147t-122 227.5t-44.5 288zM195 696q0 -156 40.5 -286.5t108.5 -214.5t155 -130.5t181 -46.5t181 46.5 t155.5 130.5t109.5 214.5t41 286.5q0 155 -41 285.5t-109.5 215t-155.5 131t-181 46.5t-181 -46.5t-155 -131t-108.5 -214.5t-40.5 -286z" />
<glyph unicode="P" horiz-adv-x="1064" d="M76 0v33l145 10q35 3 35 51v1204q0 49 -35 52l-145 10v33h502q197 0 308 -110t111 -279t-111 -279.5t-308 -110.5h-240v-520q0 -48 35 -51l180 -10v-33h-477zM338 657h219q95 0 165 29.5t108.5 81t56.5 110t18 126.5t-18 126.5t-56.5 109.5t-108.5 80.5t-165 29.5h-219 v-693z" />
<glyph unicode="Q" horiz-adv-x="1361" d="M102 696q0 153 44.5 287t122 228t184 148t227.5 54t228.5 -54t184.5 -148t122 -228t45 -287q0 -148 -41.5 -277t-113.5 -222t-172 -149.5t-214 -65.5q2 -95 40.5 -161t100.5 -93q45 -21 102 -21q20 0 41 3q82 9 168 59l11 -37q-51 -39 -123.5 -59.5t-138.5 -20.5 q-54 0 -101 17.5t-88 54t-65.5 103t-26.5 155.5q-152 11 -274 104.5t-192.5 253t-70.5 356.5zM195 696q0 -156 40.5 -286.5t108.5 -214.5t155 -130.5t181 -46.5t181 46.5t155.5 130.5t109.5 214.5t41 286.5q0 155 -41 285.5t-109.5 215t-155.5 131t-181 46.5t-181 -46.5 t-155 -131t-108.5 -214.5t-40.5 -286z" />
<glyph unicode="R" horiz-adv-x="1187" d="M76 0v33l145 10q35 3 35 51v1204q0 49 -35 52l-145 10v33h502q198 0 308.5 -105.5t110.5 -273.5q0 -161 -99 -262.5t-259 -110.5v-4q42 -14 67.5 -46.5t69.5 -129.5l166 -363q25 -52 80 -55l129 -10v-33q-117 -10 -184 -10q-77 0 -101 61l-211 475q-28 62 -57 85.5 t-92 23.5h-168v-541q0 -26 7.5 -38t27.5 -13l180 -10v-33h-477zM338 678h219q94 0 164 28t109 77t57 106.5t18 124.5t-18 124.5t-56.5 106.5t-108.5 77t-165 28h-219v-672z" />
<glyph unicode="S" horiz-adv-x="952" d="M102 410h29q21 -115 55.5 -193.5t81 -121t96.5 -60t113 -17.5q128 0 209.5 78t81.5 217q0 83 -27.5 148.5t-89 114.5t-96 70t-110.5 57q-2 2 -3.5 2.5t-3.5 1.5q-142 69 -218.5 160t-76.5 218q0 63 21 120.5t62 104.5t108.5 75t152.5 28q70 0 134 -16.5t100.5 -34.5 t91.5 -51v-307h-29q-6 106 -31 180.5t-67 115t-91 57.5t-112 17q-122 0 -190 -80t-68 -186q0 -112 71.5 -195.5t219.5 -150.5q334 -154 334 -404q0 -162 -101.5 -270t-271.5 -108q-101 0 -178 27t-158 75z" />
<glyph unicode="T" d="M51 1085v308h942v-308h-30l-37 224q-8 41 -54 41h-309v-1256q0 -26 7.5 -38t27.5 -13l143 -10v-33h-440v33l145 10q35 3 35 51v1256h-309q-45 0 -53 -41l-39 -224h-29z" />
<glyph unicode="U" horiz-adv-x="1325" d="M61 1360v33h441v-33l-146 -10q-34 -3 -34 -52v-802q0 -239 87.5 -353t272.5 -114q167 0 268 121.5t101 371.5v776q0 49 -35 52l-139 10v33h397v-33l-141 -10q-37 -3 -37 -52v-774q0 -262 -114.5 -403t-328.5 -141q-413 0 -413 546v772q0 49 -35 52z" />
<glyph unicode="V" horiz-adv-x="1253" d="M31 1360v33h409v-33l-114 -10q-26 -1 -35.5 -16.5t-1.5 -39.5l379 -1214h4l334 1216q4 13 4 23q0 29 -35 31l-121 10v33h369v-33l-107 -10q-26 -3 -40.5 -13.5t-22.5 -38.5l-363 -1308h-80l-413 1308q-15 49 -58 52z" />
<glyph unicode="W" horiz-adv-x="1826" d="M31 1360v33h409v-33l-112 -10q-24 -1 -34.5 -17.5t-4.5 -40.5l334 -1194h4l303 1063l-37 133q-13 52 -62 56l-104 10v33h410v-33l-111 -10q-24 -1 -35.5 -17.5t-5.5 -40.5l291 -1194h4l299 1198q2 10 2 18q0 33 -39 36l-119 10v33h373v-33l-106 -10q-56 -4 -68 -54 l-328 -1306h-73l-269 1089l-313 -1089h-72l-370 1304q-13 52 -62 56z" />
<glyph unicode="X" horiz-adv-x="1243" d="M35 0v33l104 10q48 5 88 72l355 598l-316 577q-28 54 -82 60l-108 10v33h409v-33l-77 -10q-32 -4 -42 -21.5t3 -40.5l268 -502l307 492q14 23 2 46t-43 26l-102 10v33h370v-33l-92 -10q-45 -5 -88 -72l-332 -535l365 -647q15 -27 32.5 -39.5t45.5 -15.5l106 -8v-33h-409 v33l82 10q33 4 43 21t-4 40l-314 566l-330 -555q-15 -23 -5.5 -46t40.5 -26l99 -10v-33h-375z" />
<glyph unicode="Y" horiz-adv-x="1218" d="M31 1360v33h409v-33l-106 -10q-24 -3 -33.5 -23.5t0.5 -40.5l328 -713h4l334 715q11 25 1.5 43t-34.5 19l-115 10v33h369v-33l-109 -10q-44 -3 -71 -62l-359 -766v-428q0 -26 7.5 -38t27.5 -13l145 -10v-33h-440v33l143 10q35 3 35 51v408l-358 786q-26 59 -66 62z" />
<glyph unicode="Z" horiz-adv-x="1013" d="M51 0v14l774 1332v4h-616q-45 0 -51 -41l-39 -224h-31v308h848v-15l-774 -1335h651q42 0 53 41l66 223h31l-37 -307h-875z" />
<glyph unicode="[" horiz-adv-x="647" d="M256 -164v1720h289v-45h-207v-1630h207v-45h-289z" />
<glyph unicode="\" horiz-adv-x="765" d="M180 1434h41l365 -1475h-41z" />
<glyph unicode="]" horiz-adv-x="647" d="M102 -119h207v1630h-207v45h287v-1720h-287v45z" />
<glyph unicode="^" horiz-adv-x="817" d="M172 717l229 327h15l229 -327h-35l-200 235l-201 -235h-37z" />
<glyph unicode="_" horiz-adv-x="1130" d="M174 -90h782v-45h-782v45z" />
<glyph unicode="`" horiz-adv-x="661" d="M172 1300q0 25 24 35.5t52 -8.5l244 -180l-13 -21l-276 125q-34 15 -31 49z" />
<glyph unicode="a" horiz-adv-x="905" d="M86 215q0 110 68 182t231 123l240 74v174q0 45 -10 83t-31.5 71t-62.5 52t-97 19q-120 0 -264 -106l-17 24q15 16 39.5 34.5t64.5 42.5t95 40t111 16q119 0 183 -64.5t64 -170.5v-715q0 -48 35 -51l146 -10v-33q-33 -4 -74 -9.5t-65.5 -8t-49.5 -2.5q-42 0 -54.5 18 t-12.5 55v158h-4q-38 -117 -116.5 -174t-178.5 -57q-112 0 -176 68.5t-64 166.5zM174 225q0 -192 176 -192q119 0 197 109t78 268v145l-258 -86q-193 -65 -193 -244z" />
<glyph unicode="b" horiz-adv-x="1007" d="M14 1395v32l256 27l15 -16q-15 -73 -15 -166v-438h6q22 63 58 107.5t76.5 65t75 29t67.5 8.5q171 0 270 -143t99 -389q0 -232 -111.5 -382t-288.5 -150q-136 0 -248 77h-4l-61 -77h-14v1374q0 22 -7.5 31.5t-27.5 9.5h-146zM270 109q124 -86 248 -86q133 0 224.5 125 t91.5 364q0 249 -76 369t-209 120q-126 0 -202.5 -107t-76.5 -269v-516z" />
<glyph unicode="c" horiz-adv-x="870" d="M86 516q0 126 35.5 228.5t95.5 166.5t134 98.5t155 34.5q115 0 202 -36t87 -80q0 -31 -23.5 -40.5t-40.5 7.5q-39 37 -61 55.5t-67 37t-97 18.5q-81 0 -145.5 -39t-104.5 -103.5t-61 -144.5t-21 -166q0 -260 96.5 -390t257.5 -130q135 0 256 131l19 -29 q-111 -155 -307 -155q-129 0 -223.5 74t-140.5 194t-46 268z" />
<glyph unicode="d" horiz-adv-x="1017" d="M86 512q0 232 111 382t288 150q138 0 248 -77h4v387q0 41 -35 41h-145v32l256 27l14 -16q-14 -68 -14 -168v-1176q0 -48 35 -51l145 -10v-33q-24 -3 -56.5 -7.5t-51 -6.5t-41 -4t-41.5 -2q-38 0 -52 19t-14 54v135h-4q-23 -63 -59.5 -107t-76.5 -64.5t-73.5 -28.5 t-66.5 -8q-174 0 -272.5 142.5t-98.5 389.5zM174 512q0 -249 77 -369t210 -120q126 0 201 107t75 269v516q-121 86 -248 86q-133 0 -224 -125t-91 -364z" />
<glyph unicode="e" horiz-adv-x="911" d="M86 516q0 118 33.5 218.5t90.5 167.5t131.5 104.5t156.5 37.5q52 0 100.5 -15t94 -50t76.5 -87t45 -132q9 -47 9 -101q0 -37 -4 -77h-645q-1 -26 -1 -51q-1 -228 91 -356q102 -142 264 -142q135 0 256 131l19 -29q-111 -155 -307 -155q-129 0 -223.5 74t-140.5 194 t-46 268zM178 625h563q3 32 3 61q0 136 -57 219q-69 101 -193 101q-123 0 -211 -106t-105 -275z" />
<glyph unicode="f" horiz-adv-x="593" d="M61 0v33l144 10q35 3 35 51v887h-154v27l154 16v94q0 67 16 125.5t48.5 106.5t88.5 76t129 28q48 0 87.5 -18t39.5 -50q0 -36 -37 -36q-26 0 -76.5 25t-80.5 26h-5q-62 0 -97 -52q-36 -54 -36 -161v-164h240v-43h-240v-887q0 -48 35 -51l180 -10v-33h-471z" />
<glyph unicode="g" horiz-adv-x="911" d="M82 -184q0 152 188 250v4q-73 36 -73 123q0 47 33 90.5t102 64.5v4q-101 36 -155 130.5t-54 203.5q0 153 91 255.5t226 102.5q94 0 160 -47q33 18 85 32.5t101 14.5q43 0 69 -15.5t26 -45.5t-25.5 -41t-50.5 4q-54 30 -94 37q-16 3 -31 3q-24 0 -47 -7v-4q57 -48 91 -123 t34 -166q0 -153 -91.5 -255.5t-226.5 -102.5q-81 0 -126.5 -23.5t-45.5 -83.5q0 -94 121 -98l215 -10q131 -6 195.5 -68t64.5 -147q0 -74 -36.5 -134t-98.5 -97.5t-140 -57t-165 -19.5q-99 0 -173 21.5t-121.5 73.5t-47.5 131zM158 -164q0 -38 13 -72t42.5 -65.5t85 -50.5 t131.5 -19t137 13.5t100.5 37t66 55.5t37.5 67t11 75q0 74 -45 113t-143 45l-289 16q-73 -46 -110 -95t-37 -120zM209 686q0 -146 61.5 -232.5t169.5 -86.5t169 86.5t61 232.5t-61 233t-169 87t-169.5 -87t-61.5 -233z" />
<glyph unicode="h" horiz-adv-x="1079" d="M61 0v33l144 10q35 3 35 51v1260q0 22 -7.5 31.5t-27.5 9.5h-144v32l256 27l15 -16q-15 -58 -15 -168v-527h2q104 301 328 301q97 0 162 -74.5t65 -232.5v-643q0 -48 35 -51l146 -10v-33h-402v33l111 10q35 3 35 51v623q0 126 -43.5 196t-147.5 70q-70 0 -127.5 -45.5 t-92 -116.5t-53 -151.5t-18.5 -157.5v-418q0 -48 35 -51l144 -10v-33h-435z" />
<glyph unicode="i" horiz-adv-x="522" d="M61 0v33l144 10q35 3 35 51v850q0 22 -7.5 31.5t-27.5 9.5h-144v33l256 26l15 -16q-15 -58 -15 -168v-766q0 -48 35 -51l144 -10v-33h-435zM217 1321q0 28 17.5 46.5t44.5 18.5q25 0 42 -18.5t17 -46.5q0 -29 -17 -48.5t-42 -19.5q-27 0 -44.5 19t-17.5 49z" />
<glyph unicode="j" horiz-adv-x="464" d="M35 985v33l256 26l14 -16q-14 -68 -14 -168v-819q0 -78 -11 -142.5t-36.5 -124.5t-72.5 -107t-114 -77l-12 25q52 29 87.5 73t52.5 98t23.5 104t6.5 110v944q0 22 -7.5 31.5t-27.5 9.5h-145zM188 1321q0 28 18 46.5t44 18.5t43.5 -18.5t17.5 -46.5q0 -29 -17.5 -48.5 t-43.5 -19.5t-44 19.5t-18 48.5z" />
<glyph unicode="k" horiz-adv-x="1064" d="M61 0v33l144 10q35 3 35 51v1260q0 22 -7.5 31.5t-27.5 9.5h-144v32l256 27l15 -16q-15 -58 -15 -168v-733l410 385q13 12 17 24.5t-2.5 22.5t-24.5 12l-88 10v33h368v-33l-94 -14q-66 -13 -139 -80l-272 -256l362 -549q27 -44 96 -51l88 -8v-33h-399v33l100 10 q32 3 32 24q0 14 -15 37l-322 484l-117 -111v-383q0 -48 35 -51l144 -10v-33h-435z" />
<glyph unicode="l" horiz-adv-x="522" d="M61 0v33l144 10q35 3 35 51v1260q0 22 -7.5 31.5t-27.5 9.5h-144v32l256 27l15 -16q-15 -58 -15 -168v-1176q0 -48 35 -51l144 -10v-33h-435z" />
<glyph unicode="m" horiz-adv-x="1638" d="M61 0v33l144 10q35 3 35 51v850q0 22 -7.5 31.5t-27.5 9.5h-144v33l256 26l15 -16q-15 -58 -15 -168v-117h2q104 301 328 301q97 0 160.5 -71.5t66.5 -229.5h5q102 301 325 301q98 0 164 -75t66 -232v-643q0 -25 7.5 -37.5t26.5 -13.5l144 -10v-33h-400v33l111 10 q33 3 33 51v623q0 126 -43.5 196t-147.5 70q-70 0 -127.5 -45.5t-92 -116.5t-53 -151.5t-18.5 -157.5v-418q0 -48 35 -51l146 -10v-33h-402v33l111 10q35 3 35 51v623q0 126 -43.5 196t-147.5 70q-70 0 -127.5 -45.5t-92 -116.5t-53 -151.5t-18.5 -157.5v-418q0 -48 35 -51 l144 -10v-33h-435z" />
<glyph unicode="n" horiz-adv-x="1079" d="M61 0v33l144 10q35 3 35 51v850q0 22 -7.5 31.5t-27.5 9.5h-144v33l256 26l15 -16q-15 -58 -15 -168v-117h2q104 301 328 301q97 0 162 -74.5t65 -232.5v-643q0 -48 35 -51l146 -10v-33h-402v33l111 10q35 3 35 51v623q0 126 -43.5 196t-147.5 70q-70 0 -127.5 -45.5 t-92 -116.5t-53 -151.5t-18.5 -157.5v-418q0 -48 35 -51l144 -10v-33h-435z" />
<glyph unicode="o" horiz-adv-x="976" d="M86 512q0 102 27 196.5t77 169.5t127 120.5t170 45.5q123 0 217 -78t140.5 -197.5t46.5 -256.5t-46.5 -256.5t-140.5 -197.5t-217 -78q-93 0 -170 45.5t-127 120.5t-77 169.5t-27 196.5zM174 512q0 -127 25 -224t69.5 -155t99.5 -86.5t119 -28.5q134 0 225 126.5 t91 367.5q0 127 -25.5 224t-70.5 155t-100.5 86.5t-119.5 28.5q-136 0 -224.5 -123t-88.5 -371z" />
<glyph unicode="p" horiz-adv-x="1028" d="M35 -377l145 10q35 3 35 52v1259q0 22 -7.5 31.5t-27.5 9.5h-145v33l256 26l14 -16q-14 -68 -14 -166v-28h6q22 63 58 107.5t76.5 65t74.5 29t67 8.5q171 0 270 -143t99 -389q0 -232 -111 -382t-288 -150q-136 0 -248 77h-4v-372q0 -49 35 -52l180 -10v-33h-471v33z M291 109q124 -86 248 -86q133 0 224 125t91 364q0 249 -76 369t-209 120q-126 0 -202 -107t-76 -269v-516z" />
<glyph unicode="q" horiz-adv-x="993" d="M86 512q0 232 111 382t288 150q138 0 248 -77h4l64 77h12v-1359q0 -49 35 -52l145 -10v-33h-471v33l180 10q35 3 35 52v499h-4q-19 -51 -47.5 -89.5t-57 -59.5t-62 -34t-58.5 -17t-51 -4q-174 0 -272.5 142.5t-98.5 389.5zM174 512q0 -249 77 -369t210 -120 q126 0 201 107t75 269v516q-121 86 -248 86q-133 0 -224 -125t-91 -364z" />
<glyph unicode="r" horiz-adv-x="679" d="M61 0v33l144 10q35 3 35 51v850q0 22 -7.5 31.5t-27.5 9.5h-144v33l256 26l15 -16q-15 -58 -15 -168v-131h2q41 145 120 230t147 85q69 0 69 -57q0 -28 -23 -41t-52 0q-19 9 -39 9q-41 0 -83 -40q-62 -59 -101.5 -171.5t-39.5 -231.5v-418q0 -48 35 -51l180 -10v-33h-471 z" />
<glyph unicode="s" horiz-adv-x="778" d="M92 276h29q58 -258 258 -258q101 0 163 58.5t62 165.5q0 26 -5.5 50.5t-13 43.5t-22.5 38t-25.5 31.5t-32 27t-32.5 22t-35 19t-32 15t-32 13t-26 10.5q-54 22 -90.5 42t-74.5 53t-57.5 80.5t-19.5 109.5q0 111 82.5 179t208.5 68q97 0 228 -61l8 -235h-29 q-38 258 -215 258q-95 0 -150 -54t-55 -139q0 -51 21.5 -92t61.5 -70t76 -47t87 -37q33 -12 62.5 -26t66.5 -40t63.5 -56.5t45 -76t18.5 -96.5q0 -136 -86 -214t-223 -78q-128 0 -250 61z" />
<glyph unicode="t" horiz-adv-x="587" d="M35 981v27l125 20q36 5 45 57l39 185h22v-246h266v-43h-266v-805q0 -86 28.5 -114.5t94.5 -28.5q69 0 146 49l12 -31q-90 -71 -193 -71q-81 0 -123.5 38t-42.5 146v817h-153z" />
<glyph unicode="u" horiz-adv-x="1054" d="M35 985v33l256 26l14 -16q-14 -68 -14 -168v-553q0 -61 9 -107t29.5 -83t58 -56.5t91.5 -19.5q70 0 127.5 45.5t92.5 116.5t54 151.5t19 157.5v432q0 22 -7.5 31.5t-27.5 9.5h-178v33l289 26l16 -16q-14 -55 -14 -168v-766q0 -48 35 -51l143 -10v-33q-24 -3 -69.5 -9 t-70.5 -8.5t-48 -2.5q-68 0 -68 73v228h-2q-102 -301 -332 -301q-97 0 -160 74.5t-63 232.5v657q0 22 -7.5 31.5t-27.5 9.5h-145z" />
<glyph unicode="v" horiz-adv-x="1028" d="M35 991v33h405v-33l-118 -10q-25 -2 -36.5 -17t-4.5 -38l280 -848h2l230 848q7 26 -0.5 39t-32.5 16l-101 10v33h334v-33l-86 -10q-54 -7 -67 -53l-258 -938h-72l-315 938q-15 49 -62 53z" />
<glyph unicode="w" horiz-adv-x="1519" d="M35 991v33h405v-33l-118 -10q-25 -1 -36 -16.5t-5 -38.5l243 -846h4l228 756l-29 94q-8 28 -23.5 38.5t-39.5 12.5l-97 10v33h406v-33l-119 -10q-24 -1 -34.5 -16t-4.5 -39l234 -846h2l233 846q3 11 3 20q0 31 -38 35l-98 10v33h334v-33l-88 -10q-18 -2 -28.5 -5.5 t-22 -15t-17.5 -30.5l-260 -940h-72l-219 772l-233 -772h-72l-278 940q-15 47 -64 51z" />
<glyph unicode="x" horiz-adv-x="972" d="M41 0v33l78 10q27 3 45.5 20t40.5 52l239 409l-213 404q-13 25 -28 37.5t-41 15.5l-101 10v33h402v-27l-101 -16q-44 -8 -44 -37q0 -11 6 -24l172 -336l192 325q14 23 3.5 44t-42.5 28l-84 16v27h346v-33l-86 -10q-47 -5 -90 -72l-217 -368l236 -445q13 -25 28 -37.5 t41 -15.5l109 -10v-33h-406v33l95 10q31 3 40.5 20.5t-2.5 40.5l-192 373l-213 -362q-14 -23 -5.5 -45.5t38.5 -26.5l90 -10v-33h-336z" />
<glyph unicode="y" horiz-adv-x="1028" d="M35 991v33h405v-33l-118 -10q-25 -2 -36.5 -17t-4.5 -38l280 -846h2l234 846q2 9 2 17q0 33 -39 38l-101 10v33h334v-33l-86 -10q-54 -7 -65 -53l-267 -959q-14 -53 -25 -87.5t-30 -84.5t-41.5 -82t-53 -63t-71.5 -46.5t-90 -15.5q-48 0 -87.5 18t-39.5 50 q0 25 19.5 33.5t44.5 -2.5q60 -31 112 -31q76 0 126 67.5t87 219.5l-331 983q-15 49 -62 53z" />
<glyph unicode="z" horiz-adv-x="860" d="M72 0v14l596 967v4h-465q-45 0 -53 -39l-39 -198h-25l18 276h672v-14l-598 -971h484q42 0 53 39l49 198h24l-28 -276h-688z" />
<glyph unicode="{" horiz-adv-x="657" d="M172 676v39q63 0 92 46t29 140q0 36 -25.5 170.5t-25.5 218.5q0 137 84 201.5t225 64.5v-38q-119 0 -174 -56.5t-55 -171.5q0 -73 25.5 -201.5t25.5 -187.5q0 -26 -5 -51.5t-17 -55.5t-37.5 -55t-61.5 -39v-4q35 -14 60.5 -39.5t38 -56t17.5 -57t5 -51.5 q0 -59 -25.5 -188t-25.5 -202q0 -115 55 -171t174 -56v-39q-141 0 -225 64.5t-84 201.5q0 84 25.5 219t25.5 171q0 94 -28.5 139t-92.5 45z" />
<glyph unicode="|" horiz-adv-x="368" d="M164 -41v1475h43v-1475h-43z" />
<glyph unicode="}" horiz-adv-x="657" d="M106 -125q118 0 174 56t56 171q0 73 -26.5 202t-26.5 188q0 24 5.5 51t18 57t38.5 56t61 40v4q-36 14 -62 39t-38.5 54.5t-17.5 56t-5 51.5q0 59 26.5 187.5t26.5 201.5q0 115 -56 171.5t-174 56.5v38q142 0 226 -64.5t84 -201.5q0 -84 -27 -218.5t-27 -170.5 q0 -94 29 -140t94 -46v-39q-65 0 -94 -45t-29 -139q0 -36 27 -171t27 -219q0 -137 -84 -201.5t-226 -64.5v39z" />
<glyph unicode="~" horiz-adv-x="907" d="M172 778q45 108 70 143q43 62 98 62q38 0 131 -58.5t129 -58.5q32 0 57 26.5t52 84.5l24 -14q-12 -35 -19 -52t-20.5 -44t-25.5 -40t-30.5 -23.5t-39.5 -10.5q-37 0 -88.5 29t-99 58t-74.5 29q-10 0 -19 -1.5t-17.5 -6t-14.5 -8t-14 -13t-12.5 -15t-13.5 -20t-13.5 -22.5 t-15.5 -27.5t-17 -29.5z" />
<glyph unicode="&#xa1;" horiz-adv-x="475" d="M172 971q0 31 19 52t47 21q26 0 44.5 -21t18.5 -52q0 -29 -18.5 -50.5t-44.5 -21.5q-28 0 -47 21.5t-19 50.5zM180 -317l45 1034h27l43 -1034q4 -72 -57 -72q-32 0 -46 20t-12 52z" />
<glyph unicode="&#xa2;" d="M117 557q0 240 127.5 402t316.5 171v99h39v-99q161 -5 297 -83v-248h-27q-10 85 -35 144.5t-62.5 91.5t-79 45.5t-93.5 15.5v-1076q104 10 183.5 86t109.5 226l33 -8q-18 -89 -52 -155t-79.5 -103.5t-93 -56.5t-101.5 -23v-101h-39v99q-194 3 -319 164t-125 409zM207 557 q0 -253 102 -392.5t252 -144.5v1076q-151 -10 -252.5 -150.5t-101.5 -388.5z" />
<glyph unicode="&#xa3;" horiz-adv-x="1013" d="M102 0v33q70 66 113 141t58 156t15 153.5t-12 159.5h-172v45h166q-6 38 -22.5 118t-22.5 120q-22 108 -9.5 189.5t42 138t76.5 92t94.5 51.5t95.5 16q70 0 134 -17t99 -34.5t91 -50.5v-307h-29q-7 107 -31.5 181t-66 114.5t-90 57.5t-111.5 17q-116 0 -184 -97t-39 -273 q3 -18 23.5 -135.5t27.5 -180.5h334v-45h-330q13 -174 -26.5 -320.5t-159.5 -273.5v-4h567q40 0 51 41l62 221h28l-34 -307h-738z" />
<glyph unicode="&#xa4;" horiz-adv-x="892" d="M121 928l14 16l137 -184q77 74 174 74q95 0 172 -74l138 184l14 -16l-135 -183q88 -98 88 -235q0 -138 -86 -234l131 -176l-14 -18l-136 178q-75 -72 -172 -72q-99 0 -174 72l-131 -178l-16 18l133 176q-84 94 -84 234q0 139 84 233zM195 510q0 -122 74 -209.5t177 -87.5 t178.5 88t75.5 209t-75.5 210t-178.5 89t-177 -88.5t-74 -210.5z" />
<glyph unicode="&#xa5;" horiz-adv-x="1218" d="M31 1360v33h409v-33l-106 -10q-24 -3 -33.5 -23.5t0.5 -40.5l328 -713h4l334 715q11 25 1.5 43t-34.5 19l-115 10v33h369v-33l-109 -10q-44 -3 -71 -62l-359 -766v-59h260v-45h-260v-324q0 -26 7.5 -38t27.5 -13l145 -10v-33h-440v33l143 10q35 3 35 51v324h-272v45h272 v39l-358 786q-26 59 -66 62z" />
<glyph unicode="&#xa6;" horiz-adv-x="368" d="M164 -41v655h43v-655h-43zM164 778v656h43v-656h-43z" />
<glyph unicode="&#xa7;" horiz-adv-x="888" d="M172 1411q0 112 78.5 180t202.5 68q94 0 227 -62l10 -235h-31q-38 258 -215 258q-82 0 -142 -54t-60 -139q0 -46 26 -93.5t66.5 -88.5t90.5 -84t96.5 -84t85.5 -84t57 -88t13 -92t-49.5 -100.5t-129.5 -108.5l-23 19q72 49 106.5 94.5t34 86t-22 79.5t-62 77.5t-87 76.5 t-95 81t-88 86.5t-64.5 97.5t-25 109zM199 276h30q35 -258 215 -258q83 0 144 54t61 139q0 46 -26 93.5t-66.5 88.5t-91 84t-97 84t-86 84t-57.5 88t-13 92t49.5 100.5t129.5 108.5l23 -18q-72 -49 -106.5 -94.5t-34 -86t22 -79.5t62 -78t87 -77t95 -81t88 -86.5t64.5 -97.5 t25 -109q0 -112 -78 -179.5t-203 -67.5q-96 0 -227 61z" />
<glyph unicode="&#xa8;" horiz-adv-x="813" d="M172 1280q0 28 16.5 47t42.5 19t44 -19t18 -47q0 -29 -18 -48.5t-44 -19.5t-42.5 19.5t-16.5 48.5zM520 1280q0 28 17 47t43 19t43.5 -19t17.5 -47q0 -29 -17.5 -48.5t-43.5 -19.5t-43 19.5t-17 48.5z" />
<glyph unicode="&#xa9;" horiz-adv-x="1392" d="M104 696q0 189 79 349.5t215.5 254t297.5 93.5t297.5 -93.5t215.5 -254t79 -349.5t-79 -349.5t-215.5 -253.5t-297.5 -93t-297.5 93t-215.5 253.5t-79 349.5zM137 696q0 -181 74.5 -333.5t203 -241t281.5 -88.5t281.5 88.5t203 241t74.5 333.5t-74.5 333.5t-203 241.5 t-281.5 89t-281.5 -89t-203 -241.5t-74.5 -333.5zM434 696q0 154 80.5 256.5t198.5 102.5q104 0 192 -51v-154h-14q-11 106 -56.5 145t-121.5 39q-98 0 -168 -88.5t-70 -249.5q0 -162 68 -250t164 -88q69 0 121.5 46t72.5 147l21 -4q-23 -113 -82 -161t-135 -48 q-117 0 -194 101t-77 257z" />
<glyph unicode="&#xaa;" horiz-adv-x="608" d="M68 614v33h473v-33h-473zM68 907q0 66 40.5 110t139.5 75l141 43v104q0 135 -119 135q-79 0 -157 -63l-11 14q21 24 72 52t113 28q71 0 110 -38.5t39 -102.5v-428q0 -28 21 -31l84 -6v-21q-20 -2 -43.5 -5.5t-37.5 -5t-30 -1.5q-25 0 -33 11.5t-8 33.5v94 q-52 -139 -178 -139q-66 0 -104.5 41t-38.5 100zM115 913q0 -57 29 -87.5t83 -30.5q71 0 116.5 66.5t45.5 162.5v88l-102 -35q-103 -39 -137.5 -73.5t-34.5 -90.5z" />
<glyph unicode="&#xab;" horiz-adv-x="1093" d="M174 537v32l375 383l20 -30l-315 -369l315 -369l-20 -30zM526 537v32l375 383l19 -30l-314 -369l314 -369l-19 -30z" />
<glyph unicode="&#xac;" horiz-adv-x="1017" d="M174 555v39h670v-404h-39v365h-631z" />
<glyph unicode="&#xad;" horiz-adv-x="956" d="M174 520v45h608v-45h-608z" />
<glyph unicode="&#xae;" horiz-adv-x="1392" d="M104 696q0 189 79 349.5t215.5 254t297.5 93.5t297.5 -93.5t215.5 -254t79 -349.5t-79 -349.5t-215.5 -253.5t-297.5 -93t-297.5 93t-215.5 253.5t-79 349.5zM137 696q0 -181 74.5 -333.5t203 -241t281.5 -88.5t281.5 88.5t203 241t74.5 333.5t-74.5 333.5t-203 241.5 t-281.5 89t-281.5 -89t-203 -241.5t-74.5 -333.5zM434 346v16l74 5q16 3 16 26v602q0 25 -16 25l-74 6v16h252q99 0 154 -53t55 -137q0 -81 -50 -131t-130 -53v-2q22 -9 35 -25.5t34 -65.5l84 -180q11 -24 39 -28l66 -5v-16q-53 -6 -92 -6t-52 31l-106 237q-13 32 -27.5 44 t-46.5 12h-84v-271q0 -23 19 -26l88 -5v-16h-238zM565 686h111q91 0 132.5 47.5t41.5 118.5q0 73 -41.5 120.5t-132.5 47.5h-111v-334z" />
<glyph unicode="&#xaf;" horiz-adv-x="817" d="M174 1217v45h469v-45h-469z" />
<glyph unicode="&#xb0;" horiz-adv-x="634" d="M174 1286q0 75 39 121.5t102 46.5q66 0 106 -46.5t40 -121.5t-40 -122.5t-106 -47.5q-63 0 -102 47.5t-39 122.5zM211 1286q0 -53 24.5 -93t79.5 -40q57 0 83 40t26 93t-26 92t-83 39q-55 0 -79.5 -39t-24.5 -92z" />
<glyph unicode="&#xb1;" horiz-adv-x="956" d="M174 86v45h608v-45h-608zM174 520v45h283v336h45v-336h280v-45h-280v-336h-45v336h-283z" />
<glyph unicode="&#xb2;" horiz-adv-x="550" d="M86 1055v16q119 95 187.5 185.5t89 156t20.5 139.5q0 63 -21.5 111.5t-62.5 65.5q-27 9 -57 6q-23 -2 -43.5 -12t-30.5 -18.5t-27 -25.5q-9 -11 -24 -5t-15 24q0 24 47.5 43.5t108.5 19.5q47 0 83.5 -20t56 -52.5t29 -67.5t9.5 -71q0 -213 -282 -454h254q24 0 26 20 l15 78h16l-8 -139h-371z" />
<glyph unicode="&#xb3;" horiz-adv-x="522" d="M86 1108q0 18 14 23.5t25 -5.5q59 -59 121 -59q64 0 100.5 50t36.5 124q0 73 -39.5 122.5t-112.5 49.5h-24v23h20q58 0 96.5 44.5t38.5 112.5t-32.5 105t-87.5 37q-65 0 -129 -64l-13 19q63 71 152 71q71 0 116.5 -45.5t45.5 -113.5q0 -62 -35 -108.5t-94 -63.5 q66 -15 108.5 -61.5t42.5 -125.5q0 -94 -57.5 -146.5t-138.5 -52.5q-61 0 -107.5 19.5t-46.5 44.5z" />
<glyph unicode="&#xb4;" horiz-adv-x="661" d="M170 1147l242 180q28 19 51.5 8.5t25.5 -35.5q2 -33 -30 -49l-279 -125z" />
<glyph unicode="&#xb5;" d="M35 985v33l256 26l14 -16q-14 -68 -14 -168v-553q0 -61 9 -107t29.5 -83t58 -56.5t91.5 -19.5q70 0 127.5 45.5t92.5 116.5t54 151.5t19 157.5v432q0 22 -7.5 31.5t-27.5 9.5h-178v33l289 26l16 -16q-14 -55 -14 -168v-766q0 -48 35 -51l143 -10v-33q-24 -3 -69.5 -9 t-70.5 -8.5t-48 -2.5q-68 0 -68 73v228h-2q-102 -301 -332 -301q-88 0 -145 57q-1 -77 -12.5 -141t-37.5 -123.5t-73 -106t-113 -76.5l-12 27q43 24 74 58t49.5 70.5t29 82t14 85t3.5 87.5v270v17v657q0 22 -7.5 31.5t-27.5 9.5h-145z" />
<glyph unicode="&#xb6;" horiz-adv-x="1173" d="M102 696q0 334 163 515.5t448 181.5h35v-1393h-35q-280 0 -445.5 189.5t-165.5 506.5zM852 0v1393h244v-33l-146 -10q-35 -3 -35 -52v-1204q0 -48 35 -51l146 -10v-33h-244z" />
<glyph unicode="&#xb7;" horiz-adv-x="464" d="M172 543q0 28 17.5 46.5t43.5 18.5q25 0 42.5 -18.5t17.5 -46.5q0 -29 -17.5 -48.5t-42.5 -19.5q-26 0 -43.5 19.5t-17.5 48.5z" />
<glyph unicode="&#xb8;" horiz-adv-x="626" d="M172 -385l8 27q55 -19 90 -19q56 0 82.5 39t26.5 88q0 54 -25 95.5t-84 52.5v102h29v-86q23 -3 48 -13t50.5 -28.5t41.5 -51t16 -73.5q0 -71 -45.5 -114.5t-118.5 -43.5q-60 0 -119 25z" />
<glyph unicode="&#xb9;" horiz-adv-x="514" d="M86 1055v18l127 6q18 0 18 25v588q0 11 -4.5 16t-13.5 4l-117 -20l-4 18l176 45h15v-651q0 -25 18 -25l127 -6v-18h-342z" />
<glyph unicode="&#xba;" horiz-adv-x="612" d="M68 1085q0 83 26.5 154.5t81.5 118.5t129 47q110 0 175 -95.5t65 -224.5t-65 -224t-175 -95q-74 0 -129 46.5t-81.5 118t-26.5 154.5zM72 614v33h473v-33h-473zM115 1085q0 -149 54.5 -223t135.5 -74t136 76.5t55 220.5q0 149 -54.5 223t-136.5 74t-136 -74t-54 -223z " />
<glyph unicode="&#xbb;" horiz-adv-x="1093" d="M174 184l315 369l-315 369l21 30l374 -383v-32l-374 -383zM526 184l316 369l-316 369l19 30l375 -383v-32l-375 -383z" />
<glyph unicode="&#xbc;" horiz-adv-x="1392" d="M86 696v19l127 6q18 0 18 24v588q0 11 -4.5 16.5t-13.5 4.5l-117 -21l-4 19l176 45h15v-652q0 -24 18 -24l127 -6v-19h-342zM528 -41l365 1475h39l-367 -1475h-37zM881 158v16l311 526h22v-518h91v-24h-91v-109q0 -24 19 -24l67 -7v-18h-223v18l68 7q18 0 18 24v109h-282 zM915 182h248v428l-248 -426v-2z" />
<glyph unicode="&#xbd;" horiz-adv-x="1392" d="M86 696v19l127 6q18 0 18 24v588q0 11 -4.5 16.5t-13.5 4.5l-117 -21l-4 19l176 45h15v-652q0 -24 18 -24l127 -6v-19h-342zM494 -41l366 1475h37l-365 -1475h-38zM928 0v16q90 73 150.5 140.5t90.5 128t42 110t12 103.5q0 79 -32 132.5t-93 53.5q-38 0 -63.5 -15.5 t-51.5 -43.5q-11 -11 -25 -5t-14 23q0 24 48 44t108 20q47 0 83.5 -20t56 -52.5t29 -67.5t9.5 -71q0 -211 -283 -455h254q22 0 27 20l12 78h17l-9 -139h-368z" />
<glyph unicode="&#xbe;" horiz-adv-x="1392" d="M86 750q0 18 14 23.5t25 -5.5q59 -59 121 -59q64 0 100.5 50t36.5 124q0 73 -39.5 122.5t-112.5 49.5h-24v22h20q57 0 96 45t39 113t-32.5 104.5t-87.5 36.5q-66 0 -129 -63l-13 18q64 72 152 72q71 0 116.5 -46t45.5 -114q0 -62 -35 -108.5t-94 -63.5q66 -15 108.5 -61 t42.5 -125q0 -94 -57.5 -146.5t-138.5 -52.5q-61 0 -107.5 19.5t-46.5 44.5zM532 -41l365 1475h39l-367 -1475h-37zM881 158v16l311 526h22v-518h91v-24h-91v-109q0 -24 19 -24l67 -7v-18h-223v18l68 7q18 0 18 24v109h-282zM915 182h248v428l-248 -426v-2z" />
<glyph unicode="&#xbf;" horiz-adv-x="837" d="M102 -20q0 46 8.5 88t31.5 89t59.5 85t98 71t142.5 52l9 352h32l4 -377q-299 -69 -299 -360q0 -91 25.5 -164t81 -119.5t133.5 -46.5q130 0 244 110q17 19 40 10t23 -40q0 -44 -96 -81.5t-211 -37.5q-82 0 -146 31.5t-102.5 85t-58 117.5t-19.5 135zM403 971q0 31 19 52 t45 21q28 0 46.5 -21t18.5 -52q0 -30 -19 -51t-46 -21q-26 0 -45 21.5t-19 50.5z" />
<glyph unicode="&#xc0;" horiz-adv-x="1249" d="M31 0v33l108 10q17 2 27 5.5t20 15t15 30.5l358 1309h78l416 -1309q9 -28 22 -38.5t35 -12.5l109 -10v-33h-410v33l115 10q25 1 35 16.5t2 38.5l-123 398h-482l-108 -400q-6 -26 0.5 -39t30.5 -14l120 -10v-33h-368zM319 1669q0 25 24 35.5t52 -8.5l244 -180l-12 -21 l-277 125q-34 15 -31 49zM367 539h454l-239 774h-4z" />
<glyph unicode="&#xc1;" horiz-adv-x="1249" d="M31 0v33l108 10q17 2 27 5.5t20 15t15 30.5l358 1309h78l416 -1309q9 -28 22 -38.5t35 -12.5l109 -10v-33h-410v33l115 10q25 1 35 16.5t2 38.5l-123 398h-482l-108 -400q-6 -26 0.5 -39t30.5 -14l120 -10v-33h-368zM367 539h454l-239 774h-4zM573 1516l242 180 q28 19 52 8.5t26 -35.5q2 -32 -31 -49l-278 -125z" />
<glyph unicode="&#xc2;" horiz-adv-x="1249" d="M31 0v33l108 10q17 2 27 5.5t20 15t15 30.5l358 1309h78l416 -1309q9 -28 22 -38.5t35 -12.5l109 -10v-33h-410v33l115 10q25 1 35 16.5t2 38.5l-123 398h-482l-108 -400q-6 -26 0.5 -39t30.5 -14l120 -10v-33h-368zM367 539h454l-239 774h-4zM379 1495l229 328h15 l229 -328h-35l-201 236l-200 -236h-37z" />
<glyph unicode="&#xc3;" horiz-adv-x="1249" d="M31 0v33l108 10q17 2 27 5.5t20 15t15 30.5l358 1309h78l416 -1309q9 -28 22 -38.5t35 -12.5l109 -10v-33h-410v33l115 10q25 1 35 16.5t2 38.5l-123 398h-482l-108 -400q-6 -26 0.5 -39t30.5 -14l120 -10v-33h-368zM344 1556q45 108 70 143q43 62 98 62q38 0 131 -58 t129 -58q32 0 57 26t52 84l24 -14q-12 -35 -19 -52t-20.5 -44t-25.5 -40t-30.5 -23.5t-39.5 -10.5q-30 0 -69 18.5t-70.5 40t-66 40t-56.5 18.5q-10 0 -19 -1.5t-17.5 -6t-14.5 -8t-14 -13t-13 -15.5t-13.5 -20.5t-13 -22.5t-15.5 -27t-17 -30zM367 539h454l-239 774h-4z " />
<glyph unicode="&#xc4;" horiz-adv-x="1249" d="M31 0v33l108 10q17 2 27 5.5t20 15t15 30.5l358 1309h78l416 -1309q9 -28 22 -38.5t35 -12.5l109 -10v-33h-410v33l115 10q25 1 35 16.5t2 38.5l-123 398h-482l-108 -400q-6 -26 0.5 -39t30.5 -14l120 -10v-33h-368zM367 539h454l-239 774h-4zM383 1649q0 28 16.5 46.5 t42.5 18.5t44 -18.5t18 -46.5q0 -29 -18 -48.5t-44 -19.5t-42.5 19.5t-16.5 48.5zM731 1649q0 28 17 46.5t43 18.5t43.5 -18.5t17.5 -46.5q0 -29 -17.5 -48.5t-43.5 -19.5t-43 19.5t-17 48.5z" />
<glyph unicode="&#xc5;" horiz-adv-x="1249" d="M31 0v33l108 10q17 2 27 5.5t20 15t15 30.5l358 1309h78l416 -1309q9 -28 22 -38.5t35 -12.5l109 -10v-33h-410v33l115 10q25 1 35 16.5t2 38.5l-123 398h-482l-108 -400q-6 -26 0.5 -39t30.5 -14l120 -10v-33h-368zM367 539h454l-239 774h-4zM459 1653q0 77 41 128.5 t110 51.5t111.5 -51.5t42.5 -128.5t-42.5 -127.5t-111.5 -50.5q-68 0 -109.5 50.5t-41.5 127.5zM508 1653q0 -66 27 -106t75 -40q50 0 76.5 40t26.5 106q0 68 -26.5 107.5t-76.5 39.5q-49 0 -75.5 -40t-26.5 -107z" />
<glyph unicode="&#xc6;" horiz-adv-x="1652" d="M31 0v33l106 10q22 2 35.5 12.5t26.5 38.5l639 1299h710v-308h-30l-37 224q-8 41 -54 41h-483v-621h293q48 0 53 41l21 172h28v-471h-28l-21 172q-5 41 -53 41h-293v-641h512q40 0 51 41l66 223h29l-35 -307h-885v33l145 10q35 3 35 51v402h-418l-196 -400 q-11 -22 -2.5 -37t33.5 -16l120 -10v-33h-368zM467 541h395v807h-2z" />
<glyph unicode="&#xc7;" horiz-adv-x="1130" d="M102 696q0 204 75.5 369t203.5 256.5t281 91.5q213 0 385 -102v-307h-31q-6 90 -26.5 156t-50 107t-74 65t-92 33t-109.5 9q-93 0 -176.5 -43t-149.5 -124.5t-104.5 -213.5t-38.5 -297q0 -166 37 -297.5t100.5 -212.5t144 -123.5t170.5 -42.5q140 0 248 94t147 296l37 -9 q-18 -94 -51.5 -167.5t-74 -119.5t-91 -76.5t-99.5 -43t-104 -14.5v-66q24 -2 49 -12.5t50 -29t41 -51t16 -73.5q0 -72 -45 -115t-119 -43q-57 0 -116 25l8 27q55 -19 90 -19q56 0 82 38.5t26 88.5q0 54 -25.5 95.5t-84.5 52.5v84q-151 4 -271.5 95.5t-189 253.5t-68.5 365z " />
<glyph unicode="&#xc8;" d="M76 0v33l145 10q35 3 35 51v1204q0 49 -35 52l-145 10v33h866v-308h-31l-37 224q-8 41 -53 41h-483v-621h293q46 0 51 41l20 172h29v-471h-29l-20 172q-5 41 -51 41h-293v-641h508q42 0 53 41l64 223h30l-35 -307h-882zM332 1669q0 25 24 35.5t52 -8.5l243 -180l-12 -21 l-277 125q-33 14 -30 49z" />
<glyph unicode="&#xc9;" d="M76 0v33l145 10q35 3 35 51v1204q0 49 -35 52l-145 10v33h866v-308h-31l-37 224q-8 41 -53 41h-483v-621h293q46 0 51 41l20 172h29v-471h-29l-20 172q-5 41 -51 41h-293v-641h508q42 0 53 41l64 223h30l-35 -307h-882zM528 1516l242 180q28 19 52 8.5t26 -35.5 q2 -32 -31 -49l-278 -125z" />
<glyph unicode="&#xca;" d="M76 0v33l145 10q35 3 35 51v1204q0 49 -35 52l-145 10v33h866v-308h-31l-37 224q-8 41 -53 41h-483v-621h293q46 0 51 41l20 172h29v-471h-29l-20 172q-5 41 -51 41h-293v-641h508q42 0 53 41l64 223h30l-35 -307h-882zM336 1495l229 328h15l229 -328h-35l-201 236 l-200 -236h-37z" />
<glyph unicode="&#xcb;" d="M76 0v33l145 10q35 3 35 51v1204q0 49 -35 52l-145 10v33h866v-308h-31l-37 224q-8 41 -53 41h-483v-621h293q46 0 51 41l20 172h29v-471h-29l-20 172q-5 41 -51 41h-293v-641h508q42 0 53 41l64 223h30l-35 -307h-882zM342 1649q0 28 16.5 46.5t42.5 18.5t44 -18.5 t18 -46.5q0 -29 -18 -48.5t-44 -19.5t-42.5 19.5t-16.5 48.5zM690 1649q0 28 17 46.5t43 18.5t43.5 -18.5t17.5 -46.5q0 -29 -17.5 -48.5t-43.5 -19.5t-43 19.5t-17 48.5z" />
<glyph unicode="&#xcc;" horiz-adv-x="593" d="M0 1669q0 25 24 35.5t52 -8.5l243 -180l-12 -21l-276 125q-34 15 -31 49zM76 0v33l145 10q35 3 35 51v1204q0 49 -35 52l-145 10v33h440v-33l-143 -10q-20 -1 -27.5 -13.5t-7.5 -38.5v-1204q0 -26 7.5 -38t27.5 -13l143 -10v-33h-440z" />
<glyph unicode="&#xcd;" horiz-adv-x="593" d="M76 0v33l145 10q35 3 35 51v1204q0 49 -35 52l-145 10v33h440v-33l-143 -10q-20 -1 -27.5 -13.5t-7.5 -38.5v-1204q0 -26 7.5 -38t27.5 -13l143 -10v-33h-440zM274 1516l242 180q28 19 52 8.5t26 -35.5q2 -32 -31 -49l-278 -125z" />
<glyph unicode="&#xce;" horiz-adv-x="593" d="M59 1495l230 328h14l229 -328h-34l-201 236l-201 -236h-37zM76 0v33l145 10q35 3 35 51v1204q0 49 -35 52l-145 10v33h440v-33l-143 -10q-20 -1 -27.5 -13.5t-7.5 -38.5v-1204q0 -26 7.5 -38t27.5 -13l143 -10v-33h-440z" />
<glyph unicode="&#xcf;" horiz-adv-x="593" d="M63 1649q0 28 17 46.5t43 18.5t43.5 -18.5t17.5 -46.5q0 -29 -17.5 -48.5t-43.5 -19.5t-43 19.5t-17 48.5zM76 0v33l145 10q35 3 35 51v1204q0 49 -35 52l-145 10v33h440v-33l-143 -10q-20 -1 -27.5 -13.5t-7.5 -38.5v-1204q0 -26 7.5 -38t27.5 -13l143 -10v-33h-440z M412 1649q0 28 16.5 46.5t42.5 18.5t43.5 -18.5t17.5 -46.5q0 -29 -17.5 -48.5t-43.5 -19.5t-42.5 19.5t-16.5 48.5z" />
<glyph unicode="&#xd0;" horiz-adv-x="1290" d="M76 0v33l145 10q35 3 35 51v570h-172v45h172v589q0 49 -35 52l-145 10v33h518q281 0 437.5 -184.5t156.5 -512.5q0 -205 -70 -362t-205.5 -245.5t-318.5 -88.5h-518zM338 43h254q101 0 185.5 38t142.5 101.5t98.5 148t59 176.5t18.5 189q0 112 -19.5 209t-61 179.5 t-102.5 141t-147.5 91.5t-192.5 33h-235v-641h190v-45h-190v-621z" />
<glyph unicode="&#xd1;" horiz-adv-x="1273" d="M66 0v33l137 10q35 3 35 51v1204q0 49 -35 52l-137 10v33h264l684 -1217v1122q0 49 -37 52l-137 10v33h383v-33l-129 -10q-37 -3 -37 -52v-1308h-33l-741 1308v-1204q0 -26 7.5 -38t28.5 -13l136 -10v-33h-389zM354 1556q45 108 70 143q43 62 98 62q38 0 131 -58t129 -58 q32 0 57 26t52 84l24 -14q-12 -35 -19 -52t-20.5 -44t-25.5 -40t-30.5 -23.5t-39.5 -10.5q-30 0 -69 18.5t-70.5 40t-66 40t-56.5 18.5q-10 0 -19 -1.5t-17.5 -6t-14.5 -8t-14 -13t-13 -15.5t-13.5 -20.5t-13 -22.5t-15.5 -27t-17 -30z" />
<glyph unicode="&#xd2;" horiz-adv-x="1361" d="M102 696q0 153 44.5 287t122 228t184 148t227.5 54t228.5 -54t184.5 -148t122 -228t45 -287q0 -205 -76.5 -369.5t-208.5 -255.5t-295 -91q-121 0 -227.5 53.5t-184 147t-122 227.5t-44.5 288zM195 696q0 -156 40.5 -286.5t108.5 -214.5t155 -130.5t181 -46.5t181 46.5 t155.5 130.5t109.5 214.5t41 286.5q0 155 -41 285.5t-109.5 215t-155.5 131t-181 46.5t-181 -46.5t-155 -131t-108.5 -214.5t-40.5 -286zM385 1669q0 25 24 35.5t52 -8.5l244 -180l-13 -21l-276 125q-34 15 -31 49z" />
<glyph unicode="&#xd3;" horiz-adv-x="1361" d="M102 696q0 153 44.5 287t122 228t184 148t227.5 54t228.5 -54t184.5 -148t122 -228t45 -287q0 -205 -76.5 -369.5t-208.5 -255.5t-295 -91q-121 0 -227.5 53.5t-184 147t-122 227.5t-44.5 288zM195 696q0 -156 40.5 -286.5t108.5 -214.5t155 -130.5t181 -46.5t181 46.5 t155.5 130.5t109.5 214.5t41 286.5q0 155 -41 285.5t-109.5 215t-155.5 131t-181 46.5t-181 -46.5t-155 -131t-108.5 -214.5t-40.5 -286zM639 1516l242 180q28 19 51.5 8.5t25.5 -35.5q2 -33 -30 -49l-279 -125z" />
<glyph unicode="&#xd4;" horiz-adv-x="1361" d="M102 696q0 153 44.5 287t122 228t184 148t227.5 54t228.5 -54t184.5 -148t122 -228t45 -287q0 -205 -76.5 -369.5t-208.5 -255.5t-295 -91q-121 0 -227.5 53.5t-184 147t-122 227.5t-44.5 288zM195 696q0 -156 40.5 -286.5t108.5 -214.5t155 -130.5t181 -46.5t181 46.5 t155.5 130.5t109.5 214.5t41 286.5q0 155 -41 285.5t-109.5 215t-155.5 131t-181 46.5t-181 -46.5t-155 -131t-108.5 -214.5t-40.5 -286zM442 1495l230 328h14l229 -328h-34l-201 236l-201 -236h-37z" />
<glyph unicode="&#xd5;" horiz-adv-x="1361" d="M102 696q0 153 44.5 287t122 228t184 148t227.5 54t228.5 -54t184.5 -148t122 -228t45 -287q0 -205 -76.5 -369.5t-208.5 -255.5t-295 -91q-121 0 -227.5 53.5t-184 147t-122 227.5t-44.5 288zM195 696q0 -156 40.5 -286.5t108.5 -214.5t155 -130.5t181 -46.5t181 46.5 t155.5 130.5t109.5 214.5t41 286.5q0 155 -41 285.5t-109.5 215t-155.5 131t-181 46.5t-181 -46.5t-155 -131t-108.5 -214.5t-40.5 -286zM397 1556q45 108 70 143q43 62 98 62q32 0 82 -29t99 -58t79 -29q32 0 57 26t52 84l24 -14q-12 -35 -19 -52t-20.5 -44t-25.5 -40 t-30.5 -23.5t-39.5 -10.5q-30 0 -69 18.5t-70.5 40t-66 40t-56.5 18.5q-10 0 -19 -1.5t-17.5 -6t-14.5 -8t-14 -13t-13 -15.5t-13.5 -20.5t-13 -22.5t-15.5 -27t-17 -30z" />
<glyph unicode="&#xd6;" horiz-adv-x="1361" d="M102 696q0 153 44.5 287t122 228t184 148t227.5 54t228.5 -54t184.5 -148t122 -228t45 -287q0 -205 -76.5 -369.5t-208.5 -255.5t-295 -91q-121 0 -227.5 53.5t-184 147t-122 227.5t-44.5 288zM195 696q0 -156 40.5 -286.5t108.5 -214.5t155 -130.5t181 -46.5t181 46.5 t155.5 130.5t109.5 214.5t41 286.5q0 155 -41 285.5t-109.5 215t-155.5 131t-181 46.5t-181 -46.5t-155 -131t-108.5 -214.5t-40.5 -286zM446 1649q0 28 17 46.5t43 18.5t43.5 -18.5t17.5 -46.5q0 -29 -17.5 -48.5t-43.5 -19.5t-43 19.5t-17 48.5zM795 1649q0 28 16.5 46.5 t42.5 18.5t43.5 -18.5t17.5 -46.5q0 -29 -17.5 -48.5t-43.5 -19.5t-42.5 19.5t-16.5 48.5z" />
<glyph unicode="&#xd7;" horiz-adv-x="892" d="M180 262l238 281l-238 280l29 33l237 -281l238 281l29 -33l-238 -280l238 -281l-29 -33l-238 279l-237 -279z" />
<glyph unicode="&#xd8;" horiz-adv-x="1361" d="M102 696q0 153 44.5 287t122 228t184 148t227.5 54q171 0 309 -104l74 143l33 -22l-76 -146q112 -98 176 -250.5t64 -337.5q0 -205 -76.5 -369.5t-208.5 -255.5t-295 -91q-156 0 -287 86l-63 -125l-33 22l65 127q-121 94 -190.5 252t-69.5 354zM193 696q0 -183 52.5 -324 t143.5 -229l572 1112q-128 119 -281 119q-94 0 -181.5 -46.5t-155.5 -131t-109 -215t-41 -285.5zM420 117q117 -99 260 -99q94 0 181 46.5t155.5 130.5t109.5 214.5t41 286.5q0 168 -47 303.5t-129 225.5z" />
<glyph unicode="&#xd9;" horiz-adv-x="1325" d="M61 1360v33h441v-33l-146 -10q-34 -3 -34 -52v-802q0 -239 87.5 -353t272.5 -114q167 0 268 121.5t101 371.5v776q0 49 -35 52l-139 10v33h397v-33l-141 -10q-37 -3 -37 -52v-774q0 -262 -114.5 -403t-328.5 -141q-413 0 -413 546v772q0 49 -35 52zM420 1669 q0 25 24 35.5t52 -8.5l243 -180l-12 -21l-276 125q-34 15 -31 49z" />
<glyph unicode="&#xda;" horiz-adv-x="1325" d="M61 1360v33h441v-33l-146 -10q-34 -3 -34 -52v-802q0 -239 87.5 -353t272.5 -114q167 0 268 121.5t101 371.5v776q0 49 -35 52l-139 10v33h397v-33l-141 -10q-37 -3 -37 -52v-774q0 -262 -114.5 -403t-328.5 -141q-413 0 -413 546v772q0 49 -35 52zM674 1516l241 180 q28 19 52 8.5t26 -35.5q2 -33 -30 -49l-279 -125z" />
<glyph unicode="&#xdb;" horiz-adv-x="1325" d="M61 1360v33h441v-33l-146 -10q-34 -3 -34 -52v-802q0 -239 87.5 -353t272.5 -114q167 0 268 121.5t101 371.5v776q0 49 -35 52l-139 10v33h397v-33l-141 -10q-37 -3 -37 -52v-774q0 -262 -114.5 -403t-328.5 -141q-413 0 -413 546v772q0 49 -35 52zM455 1495l229 328h14 l230 -328h-35l-201 236l-200 -236h-37z" />
<glyph unicode="&#xdc;" horiz-adv-x="1325" d="M61 1360v33h441v-33l-146 -10q-34 -3 -34 -52v-802q0 -239 87.5 -353t272.5 -114q167 0 268 121.5t101 371.5v776q0 49 -35 52l-139 10v33h397v-33l-141 -10q-37 -3 -37 -52v-774q0 -262 -114.5 -403t-328.5 -141q-413 0 -413 546v772q0 49 -35 52zM459 1649 q0 28 16.5 46.5t42.5 18.5t44 -18.5t18 -46.5q0 -29 -18 -48.5t-44 -19.5t-42.5 19.5t-16.5 48.5zM807 1649q0 28 16.5 46.5t42.5 18.5t44 -18.5t18 -46.5q0 -29 -18 -48.5t-44 -19.5t-42.5 19.5t-16.5 48.5z" />
<glyph unicode="&#xdd;" horiz-adv-x="1218" d="M31 1360v33h409v-33l-106 -10q-24 -3 -33.5 -23.5t0.5 -40.5l328 -713h4l334 715q11 25 1.5 43t-34.5 19l-115 10v33h369v-33l-109 -10q-44 -3 -71 -62l-359 -766v-428q0 -26 7.5 -38t27.5 -13l145 -10v-33h-440v33l143 10q35 3 35 51v408l-358 786q-26 59 -66 62z M610 1516l242 180q28 19 52 8.5t26 -35.5q2 -32 -31 -49l-278 -125z" />
<glyph unicode="&#xde;" horiz-adv-x="1064" d="M76 0v33l145 10q35 3 35 51v1204q0 49 -35 52l-145 10v33h440v-33l-143 -10q-20 -1 -27.5 -13.5t-7.5 -38.5v-213h240q197 0 308 -110t111 -279t-111 -279t-308 -110h-240v-213q0 -48 35 -51l143 -10v-33h-440zM338 350h219q95 0 165.5 29.5t109.5 80.5t57 109.5 t18 126.5t-18 126.5t-57 109.5t-109.5 80.5t-165.5 29.5h-219v-692z" />
<glyph unicode="&#xdf;" horiz-adv-x="1064" d="M61 0v33l144 10q35 3 35 51v883h-154v31l154 16v82q0 71 17.5 132.5t52 110.5t91.5 77t131 28q135 0 201 -65.5t66 -155.5q0 -55 -19 -102t-46.5 -80.5t-54.5 -65t-46 -68.5t-19 -77q0 -28 21.5 -68t54.5 -76l137 -147q47 -51 73.5 -85t49.5 -88.5t23 -111.5 q0 -127 -77 -205.5t-200 -78.5q-137 0 -241 61l-43 246h28q17 -75 46.5 -130t66 -84t72.5 -42t73 -13q90 0 144.5 59t54.5 154q0 53 -22.5 106t-45.5 83.5t-59 68.5l-135 144q-49 54 -70 99t-13 90t27 80.5t60 90.5q44 63 64.5 136t13 137t-57 106.5t-135.5 42.5 q-84 0 -145.5 -68t-61.5 -196v-1151h-256z" />
<glyph unicode="&#xe0;" horiz-adv-x="905" d="M86 215q0 110 68 182t231 123l240 74v174q0 45 -10 83t-31.5 71t-62.5 52t-97 19q-120 0 -264 -106l-17 24q15 16 39.5 34.5t64.5 42.5t95 40t111 16q119 0 183 -64.5t64 -170.5v-715q0 -48 35 -51l146 -10v-33q-33 -4 -74 -9.5t-65.5 -8t-49.5 -2.5q-42 0 -54.5 18 t-12.5 55v158h-4q-38 -117 -116.5 -174t-178.5 -57q-112 0 -176 68.5t-64 166.5zM174 225q0 -192 176 -192q119 0 197 109t78 268v145l-258 -86q-193 -65 -193 -244zM195 1300q0 25 23.5 35.5t51.5 -8.5l244 -180l-12 -21l-277 125q-33 14 -30 49z" />
<glyph unicode="&#xe1;" horiz-adv-x="905" d="M86 215q0 110 68 182t231 123l240 74v174q0 45 -10 83t-31.5 71t-62.5 52t-97 19q-120 0 -264 -106l-17 24q15 16 39.5 34.5t64.5 42.5t95 40t111 16q119 0 183 -64.5t64 -170.5v-715q0 -48 35 -51l146 -10v-33q-33 -4 -74 -9.5t-65.5 -8t-49.5 -2.5q-42 0 -54.5 18 t-12.5 55v158h-4q-38 -117 -116.5 -174t-178.5 -57q-112 0 -176 68.5t-64 166.5zM174 225q0 -192 176 -192q119 0 197 109t78 268v145l-258 -86q-193 -65 -193 -244zM377 1147l241 180q28 19 52 8.5t26 -35.5q2 -33 -30 -49l-279 -125z" />
<glyph unicode="&#xe2;" horiz-adv-x="905" d="M86 215q0 110 68 182t231 123l240 74v174q0 45 -10 83t-31.5 71t-62.5 52t-97 19q-120 0 -264 -106l-17 24q15 16 39.5 34.5t64.5 42.5t95 40t111 16q119 0 183 -64.5t64 -170.5v-715q0 -48 35 -51l146 -10v-33q-33 -4 -74 -9.5t-65.5 -8t-49.5 -2.5q-42 0 -54.5 18 t-12.5 55v158h-4q-38 -117 -116.5 -174t-178.5 -57q-112 0 -176 68.5t-64 166.5zM174 225q0 -192 176 -192q119 0 197 109t78 268v145l-258 -86q-193 -65 -193 -244zM213 1126l229 328h15l229 -328h-35l-200 236l-201 -236h-37z" />
<glyph unicode="&#xe3;" horiz-adv-x="905" d="M86 215q0 110 68 182t231 123l240 74v174q0 45 -10 83t-31.5 71t-62.5 52t-97 19q-120 0 -264 -106l-17 24q15 16 39.5 34.5t64.5 42.5t95 40t111 16q119 0 183 -64.5t64 -170.5v-715q0 -48 35 -51l146 -10v-33q-33 -4 -74 -9.5t-65.5 -8t-49.5 -2.5q-42 0 -54.5 18 t-12.5 55v158h-4q-38 -117 -116.5 -174t-178.5 -57q-112 0 -176 68.5t-64 166.5zM172 1188q45 108 70 143q43 62 98 62q38 0 131 -58.5t129 -58.5q32 0 57 26t52 84l24 -14q-12 -35 -19 -52t-20.5 -44t-25.5 -40t-30.5 -23.5t-39.5 -10.5q-37 0 -88.5 29t-99 58.5 t-74.5 29.5q-10 0 -19 -1.5t-17.5 -6t-14.5 -8t-14 -13t-12.5 -15t-13.5 -20t-13.5 -22.5t-15.5 -27.5t-17 -29.5zM174 225q0 -192 176 -192q119 0 197 109t78 268v145l-258 -86q-193 -65 -193 -244z" />
<glyph unicode="&#xe4;" horiz-adv-x="905" d="M86 215q0 110 68 182t231 123l240 74v174q0 45 -10 83t-31.5 71t-62.5 52t-97 19q-120 0 -264 -106l-17 24q15 16 39.5 34.5t64.5 42.5t95 40t111 16q119 0 183 -64.5t64 -170.5v-715q0 -48 35 -51l146 -10v-33q-33 -4 -74 -9.5t-65.5 -8t-49.5 -2.5q-42 0 -54.5 18 t-12.5 55v158h-4q-38 -117 -116.5 -174t-178.5 -57q-112 0 -176 68.5t-64 166.5zM174 225q0 -192 176 -192q119 0 197 109t78 268v145l-258 -86q-193 -65 -193 -244zM219 1280q0 28 17 47t43 19t43.5 -19t17.5 -47q0 -29 -17.5 -48.5t-43.5 -19.5t-43 19.5t-17 48.5z M567 1280q0 28 17 47t43 19t43.5 -19t17.5 -47q0 -29 -17.5 -48.5t-43.5 -19.5t-43 19.5t-17 48.5z" />
<glyph unicode="&#xe5;" horiz-adv-x="905" d="M86 215q0 110 68 182t231 123l240 74v174q0 45 -10 83t-31.5 71t-62.5 52t-97 19q-120 0 -264 -106l-17 24q15 16 39.5 34.5t64.5 42.5t95 40t111 16q119 0 183 -64.5t64 -170.5v-715q0 -48 35 -51l146 -10v-33q-33 -4 -74 -9.5t-65.5 -8t-49.5 -2.5q-42 0 -54.5 18 t-12.5 55v158h-4q-38 -117 -116.5 -174t-178.5 -57q-112 0 -176 68.5t-64 166.5zM174 225q0 -192 176 -192q119 0 197 109t78 268v145l-258 -86q-193 -65 -193 -244zM303 1284q0 77 41.5 128.5t110.5 51.5t111 -51.5t42 -128.5t-42 -127.5t-111 -50.5q-68 0 -110 51t-42 127 zM352 1284q0 -66 27 -105.5t76 -39.5q50 0 76 39.5t26 105.5q0 68 -26 108t-76 40q-49 0 -76 -40.5t-27 -107.5z" />
<glyph unicode="&#xe6;" horiz-adv-x="1447" d="M86 215q0 110 68.5 182t232.5 123l238 74v174q0 45 -9.5 83t-31 71.5t-62 52t-96.5 18.5q-120 0 -264 -106l-17 24q15 16 39.5 34.5t64.5 42.5t95 40t111 16q114 0 177.5 -59.5t69.5 -159.5q57 104 145.5 161.5t190.5 57.5q52 0 100.5 -15t93.5 -50t76 -87t45 -132 t3 -178h-649q-7 -135 20 -241.5t78.5 -172.5t119.5 -100.5t146 -34.5q133 0 254 131l18 -29q-111 -155 -305 -155q-147 0 -246 90.5t-139 242.5q-15 -78 -42 -138t-59 -96t-72 -59t-76.5 -31.5t-75.5 -8.5q-112 0 -177 68.5t-65 166.5zM166 225q0 -94 49.5 -146t136.5 -52 q118 0 195.5 112t77.5 271v145l-256 -86q-203 -69 -203 -244zM709 625h569q17 179 -51 280t-193 101q-123 0 -215.5 -107t-109.5 -274z" />
<glyph unicode="&#xe7;" horiz-adv-x="870" d="M86 516q0 126 35.5 228.5t95.5 166.5t134 98.5t155 34.5q115 0 202 -36t87 -80q0 -31 -23.5 -40.5t-40.5 7.5q-39 37 -61 55.5t-67 37t-97 18.5q-81 0 -145.5 -39t-104.5 -103.5t-61 -144.5t-21 -166q0 -260 96.5 -390t257.5 -130q135 0 256 131l19 -29 q-106 -149 -293 -155v-66q24 -3 49 -13t50.5 -28.5t42 -51t16.5 -73.5q0 -71 -45.5 -114.5t-118.5 -43.5q-62 0 -117 25l6 27q55 -19 90 -19q56 0 82.5 39t26.5 88q0 53 -26 95t-85 53v82q-125 5 -216 79.5t-135 192.5t-44 264z" />
<glyph unicode="&#xe8;" horiz-adv-x="911" d="M86 516q0 118 33.5 218.5t90.5 167.5t131.5 104.5t156.5 37.5q52 0 100.5 -15t94 -50t76.5 -87t45.5 -132t4.5 -178h-645q-11 -265 90.5 -407t263.5 -142q135 0 256 131l19 -29q-111 -155 -307 -155q-129 0 -223.5 74t-140.5 194t-46 268zM178 625h563q15 179 -54 280 t-193 101q-123 0 -211 -106t-105 -275zM266 1300q0 25 24 35.5t52 -8.5l244 -180l-13 -21l-276 125q-34 15 -31 49z" />
<glyph unicode="&#xe9;" horiz-adv-x="911" d="M86 516q0 118 33.5 218.5t90.5 167.5t131.5 104.5t156.5 37.5q52 0 100.5 -15t94 -50t76.5 -87t45.5 -132t4.5 -178h-645q-11 -265 90.5 -407t263.5 -142q135 0 256 131l19 -29q-111 -155 -307 -155q-129 0 -223.5 74t-140.5 194t-46 268zM178 625h563q15 179 -54 280 t-193 101q-123 0 -211 -106t-105 -275zM438 1147l242 180q28 19 52 8.5t26 -35.5q2 -32 -31 -49l-278 -125z" />
<glyph unicode="&#xea;" horiz-adv-x="911" d="M86 516q0 118 33.5 218.5t90.5 167.5t131.5 104.5t156.5 37.5q52 0 100.5 -15t94 -50t76.5 -87t45.5 -132t4.5 -178h-645q-11 -265 90.5 -407t263.5 -142q135 0 256 131l19 -29q-111 -155 -307 -155q-129 0 -223.5 74t-140.5 194t-46 268zM178 625h563q15 179 -54 280 t-193 101q-123 0 -211 -106t-105 -275zM223 1126l230 328h14l229 -328h-34l-201 236l-201 -236h-37z" />
<glyph unicode="&#xeb;" horiz-adv-x="911" d="M86 516q0 118 33.5 218.5t90.5 167.5t131.5 104.5t156.5 37.5q52 0 100.5 -15t94 -50t76.5 -87t45.5 -132t4.5 -178h-645q-11 -265 90.5 -407t263.5 -142q135 0 256 131l19 -29q-111 -155 -307 -155q-129 0 -223.5 74t-140.5 194t-46 268zM178 625h563q15 179 -54 280 t-193 101q-123 0 -211 -106t-105 -275zM229 1280q0 28 17 47t43 19t43.5 -19t17.5 -47q0 -29 -17.5 -48.5t-43.5 -19.5t-43 19.5t-17 48.5zM578 1280q0 28 16.5 47t42.5 19t43.5 -19t17.5 -47q0 -29 -17.5 -48.5t-43.5 -19.5t-42.5 19.5t-16.5 48.5z" />
<glyph unicode="&#xec;" horiz-adv-x="522" d="M-10 1300q0 25 24 35.5t52 -8.5l243 -180l-12 -21l-277 125q-33 14 -30 49zM61 0v33l144 10q35 3 35 51v850q0 22 -7.5 31.5t-27.5 9.5h-144v33l256 26l15 -16q-15 -58 -15 -168v-766q0 -48 35 -51l144 -10v-33h-435z" />
<glyph unicode="&#xed;" horiz-adv-x="522" d="M61 0v33l144 10q35 3 35 51v850q0 22 -7.5 31.5t-27.5 9.5h-144v33l256 26l15 -16q-15 -58 -15 -168v-766q0 -48 35 -51l144 -10v-33h-435zM193 1147l241 180q28 19 52 8.5t26 -35.5q2 -32 -31 -49l-278 -125z" />
<glyph unicode="&#xee;" horiz-adv-x="522" d="M18 1126l230 328h14l230 -328h-35l-201 236l-201 -236h-37zM61 0v33l144 10q35 3 35 51v850q0 22 -7.5 31.5t-27.5 9.5h-144v33l256 26l15 -16q-15 -58 -15 -168v-766q0 -48 35 -51l144 -10v-33h-435z" />
<glyph unicode="&#xef;" horiz-adv-x="522" d="M35 1280q0 28 16.5 47t42.5 19t44 -19t18 -47q0 -29 -18 -48.5t-44 -19.5t-42.5 19.5t-16.5 48.5zM59 0v33l144 10q35 3 35 51v850q0 22 -7.5 31.5t-27.5 9.5h-144v33l256 26l15 -16q-15 -58 -15 -168v-766q0 -48 35 -51l144 -10v-33h-435zM383 1280q0 28 16.5 47 t42.5 19t44 -19t18 -47q0 -29 -18 -48.5t-44 -19.5t-42.5 19.5t-16.5 48.5z" />
<glyph unicode="&#xf0;" horiz-adv-x="976" d="M86 512q0 102 27 196.5t77 169.5t127 120.5t170 45.5q145 0 252 -118l4 2q-63 193 -190 317l-205 -151l-16 39l190 143q-108 96 -262 141l8 37q168 -42 293 -149l156 114l16 -39l-139 -104q140 -134 218.5 -334.5t78.5 -429.5q0 -137 -46.5 -256.5t-140.5 -197.5 t-217 -78q-93 0 -170 45.5t-127 120.5t-77 169.5t-27 196.5zM174 512q0 -127 25 -224t69.5 -155t99.5 -86.5t119 -28.5q134 0 225 126.5t91 367.5q0 127 -25.5 224t-70.5 155t-100.5 86.5t-119.5 28.5q-136 0 -224.5 -123t-88.5 -371z" />
<glyph unicode="&#xf1;" horiz-adv-x="1079" d="M61 0v33l144 10q35 3 35 51v850q0 22 -7.5 31.5t-27.5 9.5h-144v33l256 26l15 -16q-15 -58 -15 -168v-117h2q104 301 328 301q97 0 162 -74.5t65 -232.5v-643q0 -48 35 -51l146 -10v-33h-402v33l111 10q35 3 35 51v623q0 126 -43.5 196t-147.5 70q-70 0 -127.5 -45.5 t-92 -116.5t-53 -151.5t-18.5 -157.5v-418q0 -48 35 -51l144 -10v-33h-435zM274 1188q45 108 70 143q43 62 98 62q38 0 131 -58.5t129 -58.5q32 0 57 26t52 84l25 -14q-15 -42 -24.5 -64.5t-26.5 -51t-38 -41.5t-47 -13q-37 0 -88.5 29t-99 58.5t-74.5 29.5q-10 0 -19 -1.5 t-17.5 -6t-14.5 -8t-14 -13t-12.5 -15t-13.5 -20t-13.5 -22.5t-15.5 -27.5t-17 -29.5z" />
<glyph unicode="&#xf2;" horiz-adv-x="976" d="M86 512q0 102 27 196.5t77 169.5t127 120.5t170 45.5q123 0 217 -78t140.5 -197.5t46.5 -256.5t-46.5 -256.5t-140.5 -197.5t-217 -78q-93 0 -170 45.5t-127 120.5t-77 169.5t-27 196.5zM174 512q0 -127 25 -224t69.5 -155t99.5 -86.5t119 -28.5q134 0 225 126.5 t91 367.5q0 127 -25.5 224t-70.5 155t-100.5 86.5t-119.5 28.5q-136 0 -224.5 -123t-88.5 -371zM256 1300q0 25 24 35.5t52 -8.5l243 -180l-12 -21l-276 125q-34 15 -31 49z" />
<glyph unicode="&#xf3;" horiz-adv-x="976" d="M86 512q0 102 27 196.5t77 169.5t127 120.5t170 45.5q123 0 217 -78t140.5 -197.5t46.5 -256.5t-46.5 -256.5t-140.5 -197.5t-217 -78q-93 0 -170 45.5t-127 120.5t-77 169.5t-27 196.5zM174 512q0 -127 25 -224t69.5 -155t99.5 -86.5t119 -28.5q134 0 225 126.5 t91 367.5q0 127 -25.5 224t-70.5 155t-100.5 86.5t-119.5 28.5q-136 0 -224.5 -123t-88.5 -371zM446 1147l242 180q28 19 52 8.5t26 -35.5q2 -32 -31 -49l-278 -125z" />
<glyph unicode="&#xf4;" horiz-adv-x="976" d="M86 512q0 102 27 196.5t77 169.5t127 120.5t170 45.5q123 0 217 -78t140.5 -197.5t46.5 -256.5t-46.5 -256.5t-140.5 -197.5t-217 -78q-93 0 -170 45.5t-127 120.5t-77 169.5t-27 196.5zM174 512q0 -127 25 -224t69.5 -155t99.5 -86.5t119 -28.5q134 0 225 126.5 t91 367.5q0 127 -25.5 224t-70.5 155t-100.5 86.5t-119.5 28.5q-136 0 -224.5 -123t-88.5 -371zM250 1126l229 328h15l229 -328h-35l-201 236l-200 -236h-37z" />
<glyph unicode="&#xf5;" horiz-adv-x="976" d="M86 512q0 102 27 196.5t77 169.5t127 120.5t170 45.5q123 0 217 -78t140.5 -197.5t46.5 -256.5t-46.5 -256.5t-140.5 -197.5t-217 -78q-93 0 -170 45.5t-127 120.5t-77 169.5t-27 196.5zM174 512q0 -127 25 -224t69.5 -155t99.5 -86.5t119 -28.5q134 0 225 126.5 t91 367.5q0 127 -25.5 224t-70.5 155t-100.5 86.5t-119.5 28.5q-136 0 -224.5 -123t-88.5 -371zM205 1188q45 108 70 143q43 62 98 62q32 0 82 -29.5t99 -58.5t79 -29q32 0 56.5 26t51.5 84l25 -14q-12 -35 -19 -52t-20.5 -44t-25.5 -40t-30.5 -23.5t-39.5 -10.5 q-37 0 -88.5 29t-99 58.5t-74.5 29.5q-9 0 -17.5 -1.5t-15.5 -3.5t-14.5 -8t-12.5 -9.5t-12.5 -13.5t-11.5 -15t-12 -19l-12 -21t-14.5 -25t-15.5 -27z" />
<glyph unicode="&#xf6;" horiz-adv-x="976" d="M86 512q0 102 27 196.5t77 169.5t127 120.5t170 45.5q123 0 217 -78t140.5 -197.5t46.5 -256.5t-46.5 -256.5t-140.5 -197.5t-217 -78q-93 0 -170 45.5t-127 120.5t-77 169.5t-27 196.5zM174 512q0 -127 25 -224t69.5 -155t99.5 -86.5t119 -28.5q134 0 225 126.5 t91 367.5q0 127 -25.5 224t-70.5 155t-100.5 86.5t-119.5 28.5q-136 0 -224.5 -123t-88.5 -371zM254 1280q0 28 16.5 47t42.5 19t44 -19t18 -47q0 -29 -18 -48.5t-44 -19.5t-42.5 19.5t-16.5 48.5zM602 1280q0 28 17 47t43 19t43.5 -19t17.5 -47q0 -29 -17.5 -48.5 t-43.5 -19.5t-43 19.5t-17 48.5z" />
<glyph unicode="&#xf7;" horiz-adv-x="991" d="M174 520v45h643v-45h-643zM432 256q0 29 19 50.5t47 21.5q26 0 44.5 -21.5t18.5 -50.5q0 -31 -18.5 -52.5t-44.5 -21.5q-28 0 -47 21.5t-19 52.5zM432 831q0 29 19 50.5t47 21.5q26 0 44.5 -21.5t18.5 -50.5q0 -31 -18.5 -52t-44.5 -21q-28 0 -47 21t-19 52z" />
<glyph unicode="&#xf8;" horiz-adv-x="976" d="M86 512q0 102 27 196.5t77 169.5t127 120.5t170 45.5q123 0 218 -79l61 118l37 -22l-66 -125q74 -75 114 -187.5t40 -236.5q0 -137 -46.5 -256.5t-140.5 -197.5t-217 -78q-115 0 -204 67l-54 -106l-36 22l57 111q-78 74 -121 191t-43 247zM174 512q0 -259 100 -387 l408 795q-83 86 -195 86q-136 0 -224.5 -123t-88.5 -371zM305 90q78 -72 182 -72q134 0 225 126.5t91 367.5q0 237 -92 371z" />
<glyph unicode="&#xf9;" horiz-adv-x="1054" d="M35 985v33l256 26l14 -16q-14 -68 -14 -168v-553q0 -61 9 -107t29.5 -83t58 -56.5t91.5 -19.5q70 0 127.5 45.5t92.5 116.5t54 151.5t19 157.5v432q0 22 -7.5 31.5t-27.5 9.5h-178v33l289 26l16 -16q-14 -55 -14 -168v-766q0 -48 35 -51l143 -10v-33q-24 -3 -69.5 -9 t-70.5 -8.5t-48 -2.5q-68 0 -68 73v228h-2q-102 -301 -332 -301q-97 0 -160 74.5t-63 232.5v657q0 22 -7.5 31.5t-27.5 9.5h-145zM199 1300q0 25 23.5 35.5t51.5 -8.5l244 -180l-12 -21l-277 125q-33 14 -30 49z" />
<glyph unicode="&#xfa;" horiz-adv-x="1054" d="M35 985v33l256 26l14 -16q-14 -68 -14 -168v-553q0 -61 9 -107t29.5 -83t58 -56.5t91.5 -19.5q70 0 127.5 45.5t92.5 116.5t54 151.5t19 157.5v432q0 22 -7.5 31.5t-27.5 9.5h-178v33l289 26l16 -16q-14 -55 -14 -168v-766q0 -48 35 -51l143 -10v-33q-24 -3 -69.5 -9 t-70.5 -8.5t-48 -2.5q-68 0 -68 73v228h-2q-102 -301 -332 -301q-97 0 -160 74.5t-63 232.5v657q0 22 -7.5 31.5t-27.5 9.5h-145zM432 1147l242 180q28 19 52 8.5t26 -35.5q2 -32 -31 -49l-279 -125z" />
<glyph unicode="&#xfb;" horiz-adv-x="1054" d="M35 985v33l256 26l14 -16q-14 -68 -14 -168v-553q0 -61 9 -107t29.5 -83t58 -56.5t91.5 -19.5q70 0 127.5 45.5t92.5 116.5t54 151.5t19 157.5v432q0 22 -7.5 31.5t-27.5 9.5h-178v33l289 26l16 -16q-14 -55 -14 -168v-766q0 -48 35 -51l143 -10v-33q-24 -3 -69.5 -9 t-70.5 -8.5t-48 -2.5q-68 0 -68 73v228h-2q-102 -301 -332 -301q-97 0 -160 74.5t-63 232.5v657q0 22 -7.5 31.5t-27.5 9.5h-145zM291 1126l229 328h15l229 -328h-35l-201 236l-200 -236h-37z" />
<glyph unicode="&#xfc;" horiz-adv-x="1054" d="M35 985v33l256 26l14 -16q-14 -68 -14 -168v-553q0 -61 9 -107t29.5 -83t58 -56.5t91.5 -19.5q70 0 127.5 45.5t92.5 116.5t54 151.5t19 157.5v432q0 22 -7.5 31.5t-27.5 9.5h-178v33l289 26l16 -16q-14 -55 -14 -168v-766q0 -48 35 -51l143 -10v-33q-24 -3 -69.5 -9 t-70.5 -8.5t-48 -2.5q-68 0 -68 73v228h-2q-102 -301 -332 -301q-97 0 -160 74.5t-63 232.5v657q0 22 -7.5 31.5t-27.5 9.5h-145zM293 1280q0 28 16.5 47t42.5 19t44 -19t18 -47q0 -29 -18 -48.5t-44 -19.5t-42.5 19.5t-16.5 48.5zM641 1280q0 28 16.5 47t42.5 19t44 -19 t18 -47q0 -29 -18 -48.5t-44 -19.5t-42.5 19.5t-16.5 48.5z" />
<glyph unicode="&#xfd;" horiz-adv-x="1028" d="M35 991v33h405v-33l-118 -10q-25 -2 -36.5 -17t-4.5 -38l280 -846h2l234 846q11 49 -37 55l-101 10v33h334v-33l-86 -10q-54 -7 -65 -53l-267 -959q-14 -53 -25 -87.5t-30 -84.5t-41.5 -82t-53 -63t-71.5 -46.5t-90 -15.5q-48 0 -87.5 18t-39.5 50q0 25 19.5 33.5 t44.5 -2.5q60 -31 112 -31q76 0 126 67.5t87 219.5l-331 983q-15 49 -62 53zM541 1147l241 180q28 19 52 8.5t26 -35.5q2 -32 -31 -49l-278 -125z" />
<glyph unicode="&#xfe;" horiz-adv-x="1028" d="M35 -377l145 10q35 3 35 52v1669q0 22 -7.5 31.5t-27.5 9.5h-145v32l256 27l14 -16q-14 -68 -14 -166v-438h6q22 63 58 107.5t76.5 65t74.5 29t67 8.5q171 0 270 -143t99 -389q0 -232 -111 -382t-288 -150q-136 0 -248 77h-4v-372q0 -49 35 -52l180 -10v-33h-471v33z M291 109q124 -86 248 -86q133 0 224 125t91 364q0 249 -76 369t-209 120q-126 0 -202 -107t-76 -269v-516z" />
<glyph unicode="&#xff;" horiz-adv-x="1028" d="M35 991v33h405v-33l-118 -10q-25 -2 -36.5 -17t-4.5 -38l280 -846h2l234 846q11 49 -37 55l-101 10v33h334v-33l-86 -10q-54 -7 -65 -53l-267 -959q-14 -53 -25 -87.5t-30 -84.5t-41.5 -82t-53 -63t-71.5 -46.5t-90 -15.5q-48 0 -87.5 18t-39.5 50q0 25 19.5 33.5 t44.5 -2.5q60 -31 112 -31q76 0 126 67.5t87 219.5l-331 983q-15 49 -62 53zM332 1280q0 28 16.5 47t42.5 19t44 -19t18 -47q0 -29 -18 -48.5t-44 -19.5t-42.5 19.5t-16.5 48.5zM680 1280q0 28 16.5 47t42.5 19t44 -19t18 -47q0 -29 -18 -48.5t-44 -19.5t-42.5 19.5 t-16.5 48.5z" />
<glyph unicode="&#x152;" horiz-adv-x="1658" d="M102 696q0 212 71.5 375.5t199 252.5t291.5 89q67 0 122 -20h768v-308h-28l-39 224q-8 41 -53 41h-484v-621h293q48 0 53 41l21 172h29v-471h-29l-21 172q-5 41 -53 41h-293v-641h510q42 0 53 41l64 223h31l-35 -307h-787q-55 -20 -122 -20q-249 0 -405.5 197.5 t-156.5 518.5zM193 696q0 -160 38.5 -290.5t104 -214t150 -128.5t178.5 -45q112 0 159 66t47 186v852q0 252 -206 252q-94 0 -178.5 -45t-150 -128.5t-104 -214t-38.5 -290.5z" />
<glyph unicode="&#x153;" horiz-adv-x="1640" d="M86 512q0 101 27.5 196t77.5 170t127.5 120.5t170.5 45.5q128 0 223 -83.5t142 -217.5q49 140 150.5 220.5t224.5 80.5q52 0 100.5 -15t93.5 -50t76 -87t45 -132t4 -178h-651q-7 -135 20 -241.5t79 -172.5t120 -100.5t146 -34.5q133 0 254 131l20 -29 q-116 -155 -307 -155q-138 0 -234.5 80t-142.5 216q-47 -133 -141 -214.5t-222 -81.5q-93 0 -170.5 45.5t-127.5 120.5t-77.5 170t-27.5 196zM172 512q0 -127 26 -224t70.5 -155t100.5 -86.5t120 -28.5q135 0 229.5 127t94.5 367q0 127 -27 224.5t-73 154.5t-103 86t-121 29 q-65 0 -120.5 -28.5t-100.5 -86.5t-70.5 -155t-25.5 -224zM901 625h569q15 179 -52.5 280t-190.5 101q-125 0 -218 -107t-108 -274z" />
<glyph unicode="&#x178;" horiz-adv-x="1218" d="M31 1360v33h409v-33l-106 -10q-24 -3 -33.5 -23.5t0.5 -40.5l328 -713h4l334 715q11 25 1.5 43t-34.5 19l-115 10v33h369v-33l-109 -10q-44 -3 -71 -62l-359 -766v-428q0 -26 7.5 -38t27.5 -13l145 -10v-33h-440v33l143 10q35 3 35 51v408l-358 786q-26 59 -66 62z M397 1649q0 28 17 46.5t43 18.5t43.5 -18.5t17.5 -46.5q0 -29 -17.5 -48.5t-43.5 -19.5t-43 19.5t-17 48.5zM745 1649q0 28 17 46.5t43 18.5t43.5 -18.5t17.5 -46.5q0 -29 -17.5 -48.5t-43.5 -19.5t-43 19.5t-17 48.5z" />
<glyph unicode="&#x2c6;" horiz-adv-x="817" d="M172 1126l229 328h15l229 -328h-35l-200 236l-201 -236h-37z" />
<glyph unicode="&#x2dc;" horiz-adv-x="907" d="M172 1188q45 108 70 143q43 62 98 62q38 0 131 -58.5t129 -58.5q32 0 57 26t52 84l24 -14q-12 -35 -19 -52t-20.5 -44t-25.5 -40t-30.5 -23.5t-39.5 -10.5q-37 0 -88.5 29t-99 58.5t-74.5 29.5q-10 0 -19 -1.5t-17.5 -6t-14.5 -8t-14 -13t-12.5 -15t-13.5 -20 t-13.5 -22.5t-15.5 -27.5t-17 -29.5z" />
<glyph unicode="&#x2000;" horiz-adv-x="916" />
<glyph unicode="&#x2001;" horiz-adv-x="1833" />
<glyph unicode="&#x2002;" horiz-adv-x="916" />
<glyph unicode="&#x2003;" horiz-adv-x="1833" />
<glyph unicode="&#x2004;" horiz-adv-x="611" />
<glyph unicode="&#x2005;" horiz-adv-x="458" />
<glyph unicode="&#x2006;" horiz-adv-x="305" />
<glyph unicode="&#x2007;" horiz-adv-x="305" />
<glyph unicode="&#x2008;" horiz-adv-x="229" />
<glyph unicode="&#x2009;" horiz-adv-x="366" />
<glyph unicode="&#x200a;" horiz-adv-x="101" />
<glyph unicode="&#x2010;" horiz-adv-x="956" d="M174 520v45h608v-45h-608z" />
<glyph unicode="&#x2011;" horiz-adv-x="956" d="M174 520v45h608v-45h-608z" />
<glyph unicode="&#x2012;" horiz-adv-x="956" d="M174 520v45h608v-45h-608z" />
<glyph unicode="&#x2013;" horiz-adv-x="1130" d="M174 520v45h782v-45h-782z" />
<glyph unicode="&#x2014;" horiz-adv-x="1304" d="M174 520v45h956v-45h-956z" />
<glyph unicode="&#x2018;" horiz-adv-x="530" d="M168 1145q0 57 18 107t47 85t57 58.5t56 38.5l14 -27q-57 -33 -97 -86t-40 -113q0 -33 14.5 -55.5t45.5 -22.5q33 0 52 -21.5t19 -53.5t-19.5 -55t-51.5 -23q-34 0 -59 19.5t-36 49t-15.5 54t-4.5 45.5z" />
<glyph unicode="&#x2019;" horiz-adv-x="530" d="M170 1004q56 33 95.5 85.5t39.5 112.5q0 78 -57 78q-33 0 -52.5 22t-19.5 54t19.5 55t52.5 23q34 0 58 -19.5t34.5 -49t15 -54t4.5 -45.5q0 -57 -18 -107t-47 -85t-57 -58.5t-56 -38.5z" />
<glyph unicode="&#x201a;" horiz-adv-x="530" d="M170 -256q56 33 95.5 86t39.5 113q0 77 -57 77q-33 0 -52.5 22t-19.5 54t19.5 55t52.5 23q34 0 58 -19.5t34.5 -49t15 -54t4.5 -45.5q0 -57 -18 -107t-47 -85t-57 -58.5t-56 -38.5z" />
<glyph unicode="&#x201c;" horiz-adv-x="878" d="M168 1145q0 57 18 107t47 85t57 58.5t56 38.5l14 -27q-57 -33 -97 -86t-40 -113q0 -33 14.5 -55.5t45.5 -22.5q33 0 52 -21.5t19 -53.5t-19.5 -55t-51.5 -23q-34 0 -59 19.5t-36 49t-15.5 54t-4.5 45.5zM516 1145q0 57 18 107t47 85t57 58.5t56 38.5l15 -27 q-57 -33 -97.5 -86t-40.5 -113q0 -33 14.5 -55.5t45.5 -22.5q33 0 52 -21.5t19 -53.5t-19.5 -55t-51.5 -23q-34 0 -59 19.5t-36 49t-15.5 54t-4.5 45.5z" />
<glyph unicode="&#x201d;" horiz-adv-x="878" d="M170 1004q56 33 95.5 85.5t39.5 112.5q0 78 -57 78q-33 0 -52.5 22t-19.5 54t19.5 55t52.5 23q34 0 58 -19.5t34.5 -49t15 -54t4.5 -45.5q0 -57 -18 -107t-47 -85t-57 -58.5t-56 -38.5zM518 1004q56 33 95.5 85.5t39.5 112.5q0 78 -57 78q-33 0 -52.5 22t-19.5 54 t19.5 55t52.5 23q34 0 58 -19.5t35 -49t15.5 -54t4.5 -45.5q0 -57 -18 -107t-47.5 -85t-57 -58.5t-56.5 -38.5z" />
<glyph unicode="&#x201e;" horiz-adv-x="878" d="M170 -256q56 33 95.5 86t39.5 113q0 77 -57 77q-33 0 -52.5 22t-19.5 54t19.5 55t52.5 23q34 0 58 -19.5t34.5 -49t15 -54t4.5 -45.5q0 -57 -18 -107t-47 -85t-57 -58.5t-56 -38.5zM518 -256q56 33 95.5 86t39.5 113q0 77 -57 77q-33 0 -52.5 22t-19.5 54t19.5 55 t52.5 23q34 0 58 -19.5t35 -49t15.5 -54t4.5 -45.5q0 -57 -18 -107t-47.5 -85t-57 -58.5t-56.5 -38.5z" />
<glyph unicode="&#x2022;" horiz-adv-x="690" d="M174 475q0 85 49 144t121 59t122 -59t50 -144t-50 -143t-122 -58t-121 58t-49 143z" />
<glyph unicode="&#x2026;" horiz-adv-x="1167" d="M170 53q0 29 20 50.5t46 21.5t45.5 -21.5t19.5 -50.5q0 -30 -19 -51.5t-46 -21.5t-46.5 21.5t-19.5 51.5zM518 53q0 29 20 50.5t46 21.5t45.5 -21.5t19.5 -50.5q0 -30 -19 -51.5t-46 -21.5t-46.5 21.5t-19.5 51.5zM866 53q0 29 20 50.5t46 21.5t45.5 -21.5t19.5 -50.5 q0 -30 -19 -51.5t-46 -21.5t-46.5 21.5t-19.5 51.5z" />
<glyph unicode="&#x202f;" horiz-adv-x="366" />
<glyph unicode="&#x2039;" horiz-adv-x="743" d="M174 537v32l375 383l20 -30l-315 -369l315 -369l-20 -30z" />
<glyph unicode="&#x203a;" horiz-adv-x="743" d="M174 184l315 369l-315 369l21 30l374 -383v-32l-374 -383z" />
<glyph unicode="&#x205f;" horiz-adv-x="458" />
<glyph unicode="&#x20ac;" horiz-adv-x="1290" d="M70 530v45h110q-6 59 -6 121t6 121h-110v45h118q41 245 193 398t352 153q213 0 385 -102v-307h-31q-4 76 -19.5 136t-41.5 99.5t-57 66.5t-71 41.5t-78.5 20.5t-84.5 6q-168 0 -297 -133t-164 -379h404v-45h-410q-4 -39 -4 -121q0 -84 4 -121h410v-45h-404 q34 -247 158 -378.5t287 -131.5q140 0 248 94t147 296l37 -9q-19 -96 -54 -171t-76.5 -121t-94 -76t-103 -41.5t-106.5 -11.5q-201 0 -346 151t-185 399h-116z" />
<glyph unicode="&#x2122;" horiz-adv-x="1290" d="M82 1253v140h424v-140h-12l-19 101q-3 18 -22 18h-142v-565q0 -20 17 -23l65 -4v-14h-198v14l65 4q14 3 14 23v565h-139q-19 0 -22 -18l-19 -101h-12zM588 766v14l59 4q17 3 17 23v543q0 22 -17 22l-59 6v15h119l192 -555l188 555h121v-15l-65 -6q-17 0 -17 -22v-543 q0 -20 17 -23l65 -4v-14h-198v14l65 4q15 3 15 23v534l-197 -581h-6l-203 581v-534q0 -20 14 -23l64 -4v-14h-174z" />
<glyph unicode="&#x25fc;" horiz-adv-x="1024" d="M0 0v1024h1024v-1024h-1024z" />
</font>
</defs>
</svg>
