<?xml version="1.0" standalone="no"?>
<!DOCTYPE svg PUBLIC "-//W3C//DTD SVG 1.1//EN" "http://www.w3.org/Graphics/SVG/1.1/DTD/svg11.dtd" >
<svg xmlns="http://www.w3.org/2000/svg">
<metadata></metadata>
<defs>
<font id="velino_condensed_text_lightLt" horiz-adv-x="995" >
<font-face units-per-em="2048" ascent="1536" descent="-512" />
<missing-glyph horiz-adv-x="419" />
<glyph unicode="&#xfb01;" horiz-adv-x="1112" d="M57 0v43l127 10q37 5 37 51v867h-143v35l143 18v88q0 73 19.5 138t60.5 121.5t114 90t169 33.5q121 0 202.5 -56t81.5 -110q0 -28 -18.5 -45.5t-42.5 -17.5t-45.5 17.5t-41.5 43t-43.5 51t-60.5 43t-84 17.5q-188 0 -188 -277v-137h326l254 20l14 -16q-14 -72 -14 -170 v-754q0 -46 37 -51l126 -10v-43h-450v43l129 10q35 6 35 51v826q0 41 -35 41h-422v-867q0 -46 35 -51l172 -10v-43h-494z" />
<glyph unicode="&#xfb02;" horiz-adv-x="1112" d="M57 0v43l127 10q37 5 37 51v867h-143v35l143 18v88q0 58 10.5 110.5t35.5 103.5t63.5 87.5t99.5 59t137 22.5q88 0 163.5 -31t111.5 -59l82 49l14 -16q-14 -72 -14 -170v-1164q0 -46 37 -51l126 -10v-43h-450v43l129 10q35 6 35 51v1162q-46 65 -76 93q-85 79 -193 79 q-188 0 -188 -277v-137h231v-53h-231v-867q0 -46 35 -51l172 -10v-43h-494z" />
<glyph unicode="&#xfb03;" horiz-adv-x="1718" d="M57 0v43l127 10q37 5 37 51v867h-143v35l143 18v82q0 97 33 174.5t104.5 125.5t171.5 48q59 0 106.5 -21.5t47.5 -62.5q0 -26 -14.5 -40.5t-36.5 -14.5q-34 0 -88.5 37t-81.5 37q-57 2 -88 -45t-31 -142v-178h481v88q0 73 20 138.5t61.5 121.5t114.5 89.5t169 33.5 q122 0 203.5 -56t81.5 -110q0 -28 -18.5 -45.5t-43.5 -17.5q-24 0 -45.5 17.5t-41 43t-43 51t-60.5 43t-84 17.5q-189 0 -189 -277v-137h326l254 20l14 -16q-14 -72 -14 -170v-754q0 -46 37 -51l127 -10v-43h-451v43l129 10q35 6 35 51v826q0 41 -35 41h-422v-867 q0 -46 35 -51l172 -10v-43h-495v43l129 10q34 5 34 51v867h-481v-867q0 -46 35 -51l172 -10v-43h-494z" />
<glyph unicode="&#xfb04;" horiz-adv-x="1718" d="M57 0v43l127 10q37 5 37 51v867h-143v35l143 18v82q0 97 33 174.5t104.5 125.5t171.5 48q59 0 106.5 -21.5t47.5 -62.5q0 -26 -14.5 -40.5t-36.5 -14.5q-34 0 -88.5 37t-81.5 37q-57 2 -88 -45t-31 -142v-178h481v88q0 58 10.5 111t36.5 103.5t65 87t100 59t137 22.5 q88 0 163 -30.5t111 -59.5l82 49l14 -16q-14 -72 -14 -170v-1164q0 -46 37 -51l127 -10v-43h-451v43l129 10q35 6 35 51v1162l-10 14q-10 15 -14 20t-16.5 21t-20.5 24t-23.5 22.5t-28.5 22.5t-32 18.5t-37 16t-40.5 9.5t-45.5 4q-189 0 -189 -277v-137h232v-53h-232v-867 q0 -46 35 -51l172 -10v-43h-495v43l129 10q34 5 34 51v867h-481v-867q0 -46 35 -51l172 -10v-43h-494z" />
<glyph horiz-adv-x="0" />
<glyph horiz-adv-x="682" />
<glyph unicode=" "  horiz-adv-x="419" />
<glyph unicode="&#x09;" horiz-adv-x="419" />
<glyph unicode="&#xa0;" horiz-adv-x="419" />
<glyph unicode="!" horiz-adv-x="481" d="M160 68q0 37 24 62.5t58 25.5q32 0 54.5 -25.5t22.5 -62.5t-22.5 -62.5t-54.5 -25.5q-34 0 -58 25.5t-24 62.5zM162 1321q-2 40 17 66t63 26q41 0 59.5 -26t15.5 -66l-57 -997h-37z" />
<glyph unicode="&#x22;" horiz-adv-x="821" d="M172 1393h125l-45 -471h-35zM524 1393h125l-45 -471h-35z" />
<glyph unicode="#" horiz-adv-x="1144" d="M176 373v53h246v233h-246v54h246v293h53v-293h195v293h53v-293h246v-54h-246v-233h246v-53h-246v-293h-53v293h-195v-293h-53v293h-246zM475 426h195v233h-195v-233z" />
<glyph unicode="$" horiz-adv-x="1042" d="M131 422h39q52 -207 129 -295t184 -98l17 639q-138 76 -190 118q-135 109 -142 267v18q0 67 23.5 127.5t67 108t111 76t150.5 30.5l4 123h43l-4 -123q65 -4 125.5 -22t94.5 -35.5t85 -48.5v-316h-39q-13 97 -37.5 168t-60 113.5t-76.5 63.5t-92 26l-16 -565l36 -21 q46 -27 69.5 -41t64.5 -42t63.5 -48.5t51 -53t43.5 -63.5t25.5 -71.5t10.5 -85.5q0 -168 -107.5 -277.5t-279.5 -113.5l-2 -123h-43l2 123q-97 5 -167.5 32.5t-143.5 73.5zM293 1122q0 -98 54.5 -166t156.5 -133l16 541q-105 -3 -166 -73.5t-61 -168.5zM526 29q118 3 190 76 t72 198q0 63 -18.5 115t-56 93t-75.5 69.5t-95 62.5z" />
<glyph unicode="%" horiz-adv-x="1701" d="M168 1085q0 131 69.5 225.5t182.5 94.5q112 0 182 -94.5t70 -225.5t-70 -225t-182 -94q-113 0 -182.5 94t-69.5 225zM246 1085q0 -145 48.5 -216.5t125.5 -71.5q75 0 123.5 73.5t48.5 214.5q0 145 -48 217t-124 72q-77 0 -125.5 -72t-48.5 -217zM637 -41l371 1475h47 l-369 -1475h-49zM1032 299q0 132 68.5 225.5t181.5 93.5t182.5 -94t69.5 -225t-69.5 -225t-182.5 -94t-181.5 93.5t-68.5 225.5zM1108 299q0 -144 49 -216.5t125 -72.5q75 0 124.5 74t49.5 215q0 144 -49 216.5t-125 72.5t-125 -72.5t-49 -216.5z" />
<glyph unicode="&#x26;" horiz-adv-x="1255" d="M96 332q0 251 285 422q-2 3 -18.5 27t-20.5 30.5t-19.5 31t-21 35t-18.5 34.5t-18 39t-14 38.5t-12.5 42t-6.5 41.5t-3 45q0 126 79.5 210.5t207.5 84.5q120 0 195 -68.5t75 -193.5q0 -224 -266 -375l328 -463q88 157 135 379q14 60 -51 70l-96 14v43h368v-43l-90 -16 q-36 -5 -56.5 -22.5t-27.5 -53.5q-52 -250 -151 -414l106 -147q24 -34 50 -50t67 -20l96 -10v-43q-156 -12 -197 -12q-51 0 -80.5 16.5t-54.5 52.5l-69 99q-152 -176 -363 -176q-154 0 -246 97t-92 255zM221 358q0 -134 70.5 -217.5t193.5 -83.5q160 0 283 142l-356 514 q-112 -80 -151.5 -166t-39.5 -189zM338 1165q0 -84 40 -165.5t114 -184.5q113 73 155.5 152.5t42.5 191.5q0 53 -17 98t-57.5 76t-97.5 31q-85 0 -132.5 -61t-47.5 -138z" />
<glyph unicode="'" horiz-adv-x="468" d="M172 1393h125l-45 -471h-35z" />
<glyph unicode="(" horiz-adv-x="673" d="M236 696q0 262 78 481t216 379h50q-209 -328 -209 -860t209 -860h-50q-138 160 -216 379t-78 481z" />
<glyph unicode=")" horiz-adv-x="673" d="M94 -164q209 328 209 860t-209 860h49q138 -161 216.5 -379.5t78.5 -480.5t-78.5 -480.5t-216.5 -379.5h-49z" />
<glyph unicode="*" horiz-adv-x="778" d="M141 1122q0 22 11.5 38t29.5 16q8 0 89.5 -22t103.5 -24q-28 18 -91.5 66.5t-72.5 58.5q-12 15 -11.5 36t13.5 36q12 15 29.5 16t31.5 -14q6 -8 51 -90t56 -100q-2 23 -19.5 119t-17.5 106q0 21 13 35t32 14q20 0 33.5 -13.5t13.5 -35.5q0 -10 -18.5 -106.5t-20.5 -118.5 q11 16 55.5 99t51.5 91q14 15 31.5 15t29.5 -15q14 -15 14.5 -36t-12.5 -38q-13 -15 -164 -125q25 1 104 23.5t87 22.5q18 0 30.5 -16t12.5 -38t-12 -36.5t-31 -14.5q-8 0 -87 18.5t-101 20.5q139 -97 159 -117q12 -15 11.5 -37.5t-13.5 -35.5q-12 -15 -30.5 -16t-32.5 14 q-6 8 -49.5 88t-53.5 96q2 -23 20.5 -115t18.5 -100q0 -21 -14 -36t-33 -15t-31 14.5t-12 36.5q0 7 16 100t17 117q-89 -172 -100 -186q-14 -15 -33 -14t-33 16q-12 15 -12.5 35t12.5 38q6 7 160 117q-23 -1 -104 -20t-87 -19q-18 0 -29.5 14.5t-11.5 36.5z" />
<glyph unicode="+" horiz-adv-x="968" d="M176 516v53h283v332h51v-332h283v-53h-283v-332h-51v332h-283z" />
<glyph unicode="," horiz-adv-x="536" d="M166 102q0 36 22.5 63.5t61.5 27.5q35 0 61.5 -19t39 -48t18.5 -56t6 -50q0 -60 -18.5 -113t-49.5 -90t-60.5 -61t-60.5 -41l-20 33q57 35 98 87.5t41 109.5q0 31 -14.5 51t-44.5 20q-37 0 -58.5 25t-21.5 61z" />
<glyph unicode="-" horiz-adv-x="968" d="M176 516v53h617v-53h-617z" />
<glyph unicode="." horiz-adv-x="477" d="M160 68q0 37 23 62.5t57 25.5q32 0 55.5 -25.5t23.5 -62.5t-23.5 -62.5t-55.5 -25.5q-34 0 -57 25.5t-23 62.5z" />
<glyph unicode="/" horiz-adv-x="774" d="M178 -41l371 1475h47l-369 -1475h-49z" />
<glyph unicode="0" horiz-adv-x="1064" d="M123 696q0 211 50 373.5t143.5 253t215.5 90.5t215.5 -90.5t144 -253.5t50.5 -373q0 -321 -112.5 -518.5t-297.5 -197.5t-297 197.5t-112 518.5zM264 696q0 -321 67.5 -494t200.5 -173t201 173t68 494q0 320 -68 494t-201 174t-200.5 -174t-67.5 -494z" />
<glyph unicode="1" horiz-adv-x="759" d="M84 0v43l197 10q36 5 36 51v1160q0 23 -8.5 33.5t-27.5 7.5l-189 -41l-8 45l328 94h32v-1299q0 -46 35 -51l197 -10v-43h-592z" />
<glyph unicode="2" horiz-adv-x="952" d="M76 0v39q145 116 251.5 229t169 206.5t100 189.5t50 171.5t12.5 159.5q0 159 -59.5 264t-175.5 105q-19 0 -36 -2t-33.5 -8t-28 -9.5t-27 -15t-22.5 -15.5t-23 -19t-19 -18.5t-20 -21t-18 -18.5q-14 -16 -36 -17.5t-38.5 14.5t-16.5 44q0 52 96 93.5t222 41.5 q81 0 147 -27t107.5 -69.5t70 -99t40.5 -112.5t12 -112q0 -55 -10 -113t-46 -147t-95.5 -180t-167.5 -209t-253 -238v-4h502q45 0 53 39l29 154h41l-23 -295h-755z" />
<glyph unicode="3" horiz-adv-x="940" d="M92 115q0 28 16 44t37.5 14.5t36.5 -17.5q29 -30 45.5 -45.5t48.5 -38t67 -33t77 -10.5q123 0 187.5 97t64.5 247q0 71 -17 132t-50.5 109t-88.5 75.5t-127 27.5h-45v51h37q115 0 185.5 85.5t70.5 223.5q0 133 -61 205t-168 72q-133 0 -254 -129l-31 43q127 145 311 145 q149 0 243.5 -91t94.5 -228q0 -125 -73.5 -218t-198.5 -128v-5q134 -22 224.5 -115t90.5 -249q0 -97 -33.5 -174t-90.5 -125.5t-130 -74t-155 -25.5q-127 0 -220.5 41.5t-93.5 93.5z" />
<glyph unicode="4" horiz-adv-x="976" d="M45 317v35l625 1051h61v-1028h178v-58h-178v-213q0 -46 37 -51l131 -10v-43h-463v43l133 10q35 5 35 51v213h-559zM121 375h483v815h-4z" />
<glyph unicode="5" horiz-adv-x="940" d="M92 115q0 28 16.5 44t38 14.5t35.5 -17.5q66 -64 97 -84q66 -43 141 -43q83 0 141.5 49.5t85.5 127.5t27 175q0 59 -11 112.5t-40 108.5t-73.5 96t-118 71t-167.5 38l-96 10l16 576h570v-103h-521l-10 -424l72 -6q144 -15 248.5 -59t162 -110t83.5 -140t26 -162 q0 -97 -33.5 -176t-90.5 -129t-130 -77t-155 -27q-126 0 -220 41.5t-94 93.5z" />
<glyph unicode="6" horiz-adv-x="1005" d="M123 547q0 348 166.5 587t462.5 300l10 -43q-101 -27 -181 -74t-147 -123.5t-110.5 -191.5t-59.5 -265q1 0 2 -1t2 -1q118 127 264 127q147 0 249 -112t102 -299q0 -212 -109.5 -341.5t-271.5 -129.5q-97 0 -171 45t-118.5 124t-67 179.5t-22.5 218.5zM264 668 q-19 -303 40.5 -471t197.5 -168q115 0 179 108.5t64 292.5q0 167 -63 267t-184 100q-63 0 -124.5 -34.5t-109.5 -94.5z" />
<glyph unicode="7" horiz-adv-x="858" d="M94 1065v328h733v-27q-358 -580 -462 -1366h-146q59 302 189.5 641t318.5 645v4h-522q-48 0 -53 -39l-19 -186h-39z" />
<glyph unicode="8" horiz-adv-x="1030" d="M123 330q0 112 71.5 221.5t202.5 167.5q-110 64 -164.5 152.5t-54.5 189.5q0 111 49.5 193t126 120.5t166.5 38.5q135 0 230.5 -91t95.5 -245q0 -107 -63 -197t-169 -147q152 -77 222.5 -171t70.5 -214q0 -89 -34 -160.5t-90.5 -116t-127 -68t-147.5 -23.5 q-76 0 -144.5 22.5t-122.5 65t-86 110.5t-32 152zM246 344q0 -140 74 -227.5t194 -87.5q122 0 193 80t71 210q0 53 -14.5 97t-39.5 79t-68 69t-91.5 62t-118.5 62q-97 -55 -148.5 -148t-51.5 -196zM297 1110q0 -126 63.5 -201.5t210.5 -150.5q81 65 122.5 145t41.5 191 q0 117 -63 193.5t-158 76.5q-97 0 -157 -74t-60 -180z" />
<glyph unicode="9" horiz-adv-x="1005" d="M123 942q0 212 110 341.5t273 129.5q97 0 171 -45t118 -124t66 -179.5t22 -218.5q0 -349 -165.5 -587.5t-461.5 -299.5l-12 43q101 27 181.5 74t148 123.5t111.5 191t60 264.5l-2 2q-118 -127 -270 -127q-147 0 -248.5 112.5t-101.5 299.5zM256 963q0 -166 66 -266.5 t186 -100.5q64 0 127.5 34.5t109.5 94.5q21 301 -40.5 470t-200.5 169q-116 0 -182 -109t-66 -292z" />
<glyph unicode=":" horiz-adv-x="477" d="M160 68q0 37 23 62.5t57 25.5q32 0 55.5 -25.5t23.5 -62.5t-23.5 -62.5t-55.5 -25.5q-34 0 -57 25.5t-23 62.5zM160 737q0 36 23.5 62t56.5 26q32 0 55.5 -26.5t23.5 -61.5q0 -37 -23.5 -62.5t-55.5 -25.5q-34 0 -57 25.5t-23 62.5z" />
<glyph unicode=";" horiz-adv-x="536" d="M166 102q0 36 22.5 63.5t61.5 27.5q35 0 61.5 -19t39 -48t18.5 -56t6 -50q0 -60 -18.5 -113t-49.5 -90t-60.5 -61t-60.5 -41l-20 33q57 35 98 87.5t41 109.5q0 31 -14.5 51t-44.5 20q-37 0 -58.5 25t-21.5 61zM178 737q0 36 23.5 62t56.5 26q32 0 56 -26.5t24 -61.5 q0 -36 -23.5 -62t-56.5 -26q-34 0 -57 25.5t-23 62.5z" />
<glyph unicode="&#x3c;" horiz-adv-x="845" d="M176 543v20l494 389v-59l-422 -340l422 -340v-59z" />
<glyph unicode="=" horiz-adv-x="968" d="M176 373v53h617v-53h-617zM176 659v54h617v-54h-617z" />
<glyph unicode="&#x3e;" horiz-adv-x="845" d="M176 154v59l422 340l-422 340v59l494 -389v-20z" />
<glyph unicode="?" horiz-adv-x="860" d="M92 1278q0 52 99.5 93.5t232.5 41.5q88 0 156 -31.5t108 -85t60 -117.5t20 -135q0 -46 -8 -88.5t-31.5 -90.5t-61.5 -86t-102.5 -70.5t-148.5 -49.5l-10 -335h-44l-6 364q279 71 279 356q0 139 -56.5 229.5t-160.5 90.5q-41 0 -76 -10.5t-66.5 -33t-48 -38t-45.5 -45.5 q-15 -16 -36.5 -17.5t-37.5 14.5t-16 44zM301 68q0 37 24 62.5t58 25.5q32 0 55 -25.5t23 -62.5t-23 -62.5t-55 -25.5q-34 0 -58 25.5t-24 62.5z" />
<glyph unicode="@" horiz-adv-x="1503" d="M141 453q0 117 31 229.5t91.5 209t143 170t191.5 115.5t231 42q114 0 211 -41.5t169 -119t112.5 -195.5t40.5 -263q0 -143 -45 -271t-125.5 -208t-175.5 -80q-67 0 -110 46t-48 110q-27 -71 -76.5 -113.5t-111.5 -42.5q-68 0 -115 43t-66.5 112t-19.5 152.5t20 167.5 q38 149 121.5 246.5t196.5 97.5q48 0 88 -35t43 -104h4l78 108h29l-93 -573q-12 -71 8.5 -121.5t75.5 -50.5q48 0 98.5 39t92 105t68 164t26.5 206q0 104 -21 191.5t-57.5 149.5t-84.5 109t-105 75t-114.5 41.5t-117.5 13.5q-168 0 -303 -97t-208.5 -261.5t-73.5 -362.5 q0 -164 45 -292.5t123 -208t179 -120.5t218 -41q106 0 219 48.5t201 131.5l14 -26q-210 -197 -475 -197q-127 0 -240 47.5t-198.5 135t-135 221.5t-49.5 297zM571.5 345.5q-2.5 -69.5 7 -128t37 -95t70.5 -36.5q66 0 113.5 67t62.5 171l45 294q6 62 1 100t-25.5 60t-40 29.5 t-41.5 7.5q-75 0 -128 -90t-85 -240q-14 -70 -16.5 -139.5z" />
<glyph unicode="A" horiz-adv-x="1267" d="M29 0v43l106 16q26 3 43 16t25 44l346 1284h121l413 -1294q16 -49 60 -56l98 -10v-43h-453v43l109 10q25 3 33 20t2 40l-119 376h-453l-98 -370q-2 -11 -2 -19q0 -34 37 -41l119 -16v-43h-387zM375 547h420l-222 719h-4z" />
<glyph unicode="B" horiz-adv-x="1099" d="M72 0v43l133 10q35 5 35 51v1184q0 46 -35 51l-133 11v43h506q192 0 293.5 -92.5t101.5 -247.5q0 -123 -76.5 -211t-220.5 -113v-4q170 -13 262 -118t92 -234q0 -171 -109.5 -272t-304.5 -101h-544zM377 53h209q151 0 223 83t72 235q0 51 -10 96t-34.5 88.5t-62.5 75 t-98.5 50.5t-138.5 19h-160v-647zM377 756h160q154 0 221 75t67 218q0 290 -278 290h-170v-583z" />
<glyph unicode="C" horiz-adv-x="1148" d="M98 696q0 153 44.5 287t122 228t184 148t227.5 54q218 0 393 -106v-316h-39q-16 110 -47.5 184.5t-78.5 115t-100 57t-124 16.5q-188 0 -310 -175.5t-122 -492.5q0 -161 33.5 -288.5t91.5 -208t134 -122.5t165 -42q134 0 239 93.5t144 293.5l49 -12q-24 -120 -70.5 -207 t-108 -134t-126 -68t-137.5 -21q-163 0 -292 91.5t-200.5 254.5t-71.5 370z" />
<glyph unicode="D" horiz-adv-x="1318" d="M72 0v43l133 10q35 5 35 51v1184q0 46 -35 51l-133 11v43h536q285 0 449 -185.5t164 -511.5q0 -205 -73.5 -362t-213.5 -245.5t-326 -88.5h-536zM377 53h221q97 0 177 37t134 98.5t91 145t54 174.5t17 188q0 139 -28.5 253.5t-86.5 203t-153 137.5t-221 49h-205v-1286z " />
<glyph unicode="E" horiz-adv-x="1062" d="M72 0v43l133 10q35 5 35 51v1184q0 46 -35 51l-133 11v43h893v-320h-39l-58 227q-11 39 -53 39h-438v-606h248q45 0 53 39l35 174h39v-479h-39l-35 174q-8 39 -53 39h-248v-627h463q39 0 53 39l84 227h39l-35 -319h-909z" />
<glyph unicode="F" horiz-adv-x="1009" d="M72 0v43l133 10q35 5 35 51v1184q0 46 -35 51l-133 11v43h893v-320h-39l-58 227q-11 39 -53 39h-438v-626h248q45 0 53 39l35 174h39v-480h-39l-35 175q-7 38 -53 38h-248v-555q0 -46 35 -51l168 -10v-43h-508z" />
<glyph unicode="G" horiz-adv-x="1271" d="M98 696q0 153 44.5 287t122 228t184 148t227.5 54q218 0 393 -106v-316h-39q-16 110 -47.5 184.5t-78.5 115t-100 57t-124 16.5q-188 0 -310 -175.5t-122 -492.5q0 -161 33 -289.5t91.5 -210t135 -124.5t166.5 -43q160 0 282 90v399q0 25 -7.5 37.5t-26.5 13.5l-129 11 v43h432v-43l-97 -11q-20 -1 -28 -13.5t-8 -37.5v-518h-31l-68 68q-157 -88 -323 -88q-121 0 -227.5 53.5t-182 147.5t-119 227.5t-43.5 287.5z" />
<glyph unicode="H" horiz-adv-x="1380" d="M72 0v43l133 10q35 5 35 51v1184q0 46 -35 51l-133 11v43h471v-43l-131 -11q-35 -5 -35 -51v-553h629v553q0 46 -37 51l-133 11v43h473v-43l-133 -11q-35 -6 -35 -51v-1184q0 -45 35 -51l133 -10v-43h-473v43l133 10q37 5 37 51v574h-629v-574q0 -46 35 -51l131 -10v-43 h-471z" />
<glyph unicode="I" horiz-adv-x="616" d="M72 0v43l133 10q35 5 35 51v1184q0 46 -35 51l-133 11v43h471v-43l-131 -11q-35 -5 -35 -51v-1184q0 -46 35 -51l131 -10v-43h-471z" />
<glyph unicode="J" horiz-adv-x="585" d="M57 1350v43h471v-43l-133 -11q-35 -6 -35 -51v-1231q0 -368 -280 -467l-19 35q52 30 85.5 70.5t49.5 92t21.5 99.5t5.5 113v1288q0 46 -35 51z" />
<glyph unicode="K" horiz-adv-x="1314" d="M72 0v43l133 10q35 5 35 51v1184q0 46 -35 51l-133 11v43h471v-43l-131 -11q-35 -5 -35 -51v-612l524 590q18 19 14.5 41t-28.5 26l-121 17v43h440v-43l-100 -17q-83 -12 -143 -80l-359 -405l469 -731q38 -60 109 -64l100 -10v-43h-502v43l92 10q29 4 35.5 23t-8.5 41 l-391 626l-131 -149v-490q0 -46 35 -51l131 -10v-43h-471z" />
<glyph unicode="L" horiz-adv-x="1030" d="M72 0v43l133 10q35 5 35 51v1184q0 46 -35 51l-133 11v43h471v-43l-131 -11q-35 -5 -35 -51v-1235h446q37 0 51 39l87 227h38l-34 -319h-893z" />
<glyph unicode="M" horiz-adv-x="1552" d="M61 0v43l136 16q39 8 39 58v1171q0 46 -35 51l-140 11v43h326l397 -1145l381 1145h316v-43l-133 -11q-35 -6 -35 -51v-1184q0 -45 35 -51l133 -10v-43h-471v43l131 10q37 5 37 51v1141l-416 -1255h-29l-440 1257v-1130q0 -26 8.5 -40t30.5 -18l137 -16v-43h-408z" />
<glyph unicode="N" horiz-adv-x="1304" d="M61 0v43l136 16q39 8 39 58v1171q0 46 -35 51l-140 11v43h324l647 -1127v1008q0 49 -39 57l-137 19v43h404v-43l-132 -19q-38 -8 -38 -57v-1284h-50l-747 1284v-1157q0 -26 8.5 -40t30.5 -18l135 -16v-43h-406z" />
<glyph unicode="O" horiz-adv-x="1390" d="M98 696q0 156 47 290.5t127 227.5t189.5 146t232.5 53q165 0 301 -90t215.5 -254.5t79.5 -372.5q0 -156 -46.5 -291t-126.5 -227.5t-190 -145t-233 -52.5t-232.5 52.5t-189.5 145t-127 227.5t-47 291zM248 696q0 -308 127 -487.5t319 -179.5q191 0 320 180t129 487 q0 154 -35.5 281t-96.5 211t-143 130t-174 46q-93 0 -174.5 -46t-141.5 -130t-95 -211t-35 -281z" />
<glyph unicode="P" horiz-adv-x="1089" d="M72 0v43l133 10q35 5 35 51v1184q0 46 -35 51l-133 11v43h532q200 0 313 -111t113 -281t-113 -282.5t-313 -112.5h-227v-502q0 -46 35 -51l168 -10v-43h-508zM377 662h192q86 0 148.5 28t97 77t50.5 107t16 127t-16 127t-50.5 107t-97 76.5t-148.5 27.5h-192v-677z" />
<glyph unicode="Q" horiz-adv-x="1390" d="M98 696q0 156 47 290.5t127 227.5t189.5 146t232.5 53q165 0 301 -90t215.5 -254.5t79.5 -372.5q0 -294 -152 -490.5t-382 -221.5q1 -89 38.5 -151.5t96.5 -88.5q45 -21 100 -21q18 0 37 3q77 8 156 53l14 -43q-53 -42 -129 -65t-145 -23q-55 0 -104.5 17.5t-92.5 55 t-69.5 105t-28.5 158.5q-229 27 -380 223.5t-151 488.5zM248 696q0 -308 127 -487.5t319 -179.5q191 0 320 180t129 487q0 154 -35.5 281t-96.5 211t-143 130t-174 46q-93 0 -174.5 -46t-141.5 -130t-95 -211t-35 -281z" />
<glyph unicode="R" horiz-adv-x="1218" d="M72 0v43l133 10q35 5 35 51v1184q0 46 -35 51l-133 11v43h530q202 0 315 -104.5t113 -272.5q0 -159 -102 -259.5t-260 -109.5v-4q58 -17 96 -53.5t78 -128.5l155 -350q22 -52 76 -58l113 -10v-43q-152 -12 -205 -12q-58 0 -84 21.5t-41 60.5l-197 458q-25 62 -52.5 83.5 t-86.5 21.5h-143v-529q0 -46 35 -51l168 -10v-43h-508zM377 688h192q85 0 147.5 26.5t97.5 73.5t51 103t16 123t-16 122.5t-50.5 102.5t-97 73.5t-148.5 26.5h-192v-651z" />
<glyph unicode="S" horiz-adv-x="964" d="M92 422h39q29 -115 66.5 -194t82.5 -121.5t92 -60t105 -17.5q122 0 196.5 73t74.5 201q0 62 -20.5 116t-48.5 90t-74.5 70t-80 52.5t-84.5 42.5q-148 74 -229.5 167.5t-81.5 229.5q0 144 97.5 243t267.5 99q74 0 141.5 -18t102.5 -36t93 -52v-316h-40 q-14 106 -41.5 180.5t-68 115.5t-87 59t-105.5 18q-109 0 -171 -71t-62 -171q0 -107 69.5 -186.5t219.5 -149.5q68 -32 124 -71t103 -90t73.5 -116t26.5 -138q0 -172 -110 -281.5t-287 -109.5q-76 0 -144.5 17.5t-107 36.5t-92.5 52z" />
<glyph unicode="T" horiz-adv-x="1060" d="M45 1073v320h969v-320h-39l-57 227q-11 39 -54 39h-266v-1235q0 -46 35 -51l133 -10v-43h-471v43l131 10q37 5 37 51v1235h-266q-46 0 -54 -39l-57 -227h-41z" />
<glyph unicode="U" horiz-adv-x="1345" d="M57 1350v43h471v-43l-133 -11q-19 -3 -27 -14.5t-8 -36.5v-788q0 -232 83 -342.5t262 -110.5q164 0 261 119t97 356v752q0 50 -41 57l-137 19v43h413v-43l-139 -19q-22 -4 -30.5 -17.5t-8.5 -39.5v-750q0 -262 -118.5 -403t-335.5 -141q-225 0 -334 140.5t-109 405.5v762 q0 46 -35 51z" />
<glyph unicode="V" horiz-adv-x="1280" d="M29 1350v43h450v-43l-106 -11q-26 -3 -35 -20t0 -39l360 -1155h4l318 1149q2 10 2 18q0 34 -39 41l-119 17v43h389v-43l-106 -17q-28 -3 -44.5 -15.5t-23.5 -43.5l-358 -1284h-119l-418 1294q-13 48 -57 55z" />
<glyph unicode="W" horiz-adv-x="1869" d="M29 1350v43h450v-43l-102 -11q-42 -7 -42 -42q0 -9 3 -21l319 -1129h5l276 963l-49 172q-16 50 -60 57l-96 11v43h449v-43l-103 -11q-42 -7 -42 -42q0 -9 3 -21l281 -1129h4l281 1125q6 28 -3.5 42t-35.5 19l-123 17v43h397v-43l-110 -17q-55 -11 -70 -61l-322 -1282 h-114l-260 1022l-295 -1022h-109l-375 1292q-14 50 -61 57z" />
<glyph unicode="X" horiz-adv-x="1273" d="M33 0v43l106 16q56 9 97 78l333 565l-313 576q-30 55 -82 61l-100 11v43h458v-43l-73 -11q-45 -8 -45 -37q0 -12 8 -26l250 -467l280 453q14 23 3.5 45t-40.5 26l-102 17v43h391v-43l-100 -19q-49 -8 -92 -74l-312 -503l367 -643q25 -52 76 -58l98 -10v-43h-457v43l78 10 q31 4 40.5 22.5t-3.5 41.5l-299 528l-303 -512q-15 -24 -6 -47t41 -29l96 -14v-43h-395z" />
<glyph unicode="Y" horiz-adv-x="1243" d="M29 1350v43h446v-43l-94 -11q-26 -4 -34 -25.5t3 -41.5l314 -678h2l309 674q10 25 1 42.5t-34 22.5l-117 17v43h392v-43l-111 -17q-51 -9 -76 -67l-340 -742v-420q0 -46 35 -51l133 -10v-43h-473v43l133 10q35 5 35 51v400l-356 772q-27 58 -66 61z" />
<glyph unicode="Z" horiz-adv-x="1032" d="M45 0v27l746 1308v4h-558q-45 0 -53 -39l-57 -227h-39v320h879v-27l-746 -1313h592q39 0 53 39l86 227h39l-35 -319h-907z" />
<glyph unicode="[" horiz-adv-x="669" d="M242 -164v1720h331v-55h-196v-1610h196v-55h-331z" />
<glyph unicode="\" horiz-adv-x="774" d="M178 1434h49l369 -1475h-47z" />
<glyph unicode="]" horiz-adv-x="669" d="M96 -109h197v1610h-197v55h334v-1720h-334v55z" />
<glyph unicode="^" horiz-adv-x="827" d="M172 717l227 336h31l227 -336h-47l-196 219l-197 -219h-45z" />
<glyph unicode="_" horiz-adv-x="1144" d="M176 -90h793v-53h-793v53z" />
<glyph unicode="`" horiz-adv-x="669" d="M168 1303q2 33 33 45.5t63 -11.5l238 -186l-15 -27l-274 117q-45 20 -45 62z" />
<glyph unicode="a" horiz-adv-x="925" d="M80 219q0 112 68 184t223 119l241 74v156q0 94 -47.5 154.5t-146.5 60.5q-123 0 -258 -103l-21 31q21 27 60.5 58t113.5 61t152 30q126 0 198 -69t72 -189v-682q0 -25 8 -37.5t29 -13.5l129 -10v-43q-30 -3 -79.5 -9t-77.5 -8.5t-56 -2.5q-41 0 -58.5 19t-17.5 56v146h-2 q-40 -112 -116.5 -166.5t-176.5 -54.5q-110 0 -173.5 69t-63.5 170zM215 242q0 -87 40.5 -133t117.5 -46q105 0 172 97t67 241v148l-219 -74q-178 -64 -178 -233z" />
<glyph unicode="b" horiz-adv-x="1026" d="M12 1376v41l287 37l14 -16q-14 -55 -14 -164v-436h6q22 61 56.5 104t74.5 64t74 29.5t68 8.5q173 0 270.5 -142t97.5 -390q0 -232 -110 -382t-287 -150q-134 0 -246 79h-4l-98 -79h-25v1355q0 22 -7.5 31.5t-27.5 9.5h-129zM299 117q110 -74 221 -74q60 0 111 27.5t92 82 t64.5 147t23.5 212.5q0 239 -69 352t-191 113q-110 0 -181 -98.5t-71 -257.5v-504z" />
<glyph unicode="c" horiz-adv-x="888" d="M80 514q0 126 37.5 229t100 167.5t140.5 99t162 34.5q124 0 212.5 -42t88.5 -93q0 -43 -33.5 -56t-56.5 13q-4 5 -26 29t-29.5 31.5t-29 25t-37 24t-40 13t-51.5 6.5q-98 0 -168.5 -64.5t-102.5 -161.5t-32 -212q0 -247 91.5 -372.5t248.5 -125.5q131 0 250 125l22 -34 q-51 -75 -132.5 -122.5t-190.5 -47.5q-130 0 -227.5 71.5t-147 191.5t-49.5 271z" />
<glyph unicode="d" horiz-adv-x="1040" d="M80 512q0 232 111 382t288 150q136 0 246 -79h2v370q0 22 -7.5 31.5t-27.5 9.5h-129v41l289 37l14 -16q-14 -57 -14 -170v-1164q0 -48 35 -51l129 -10v-43q-180 -20 -213 -20q-76 0 -76 75v133h-2q-22 -62 -57.5 -105.5t-75 -64.5t-73.5 -29.5t-68 -8.5q-173 0 -272 142 t-99 390zM215 512q0 -239 70.5 -352t193.5 -113q108 0 178 98t70 258v504q-104 74 -219 74q-60 0 -111.5 -27.5t-92.5 -82t-65 -147t-24 -212.5z" />
<glyph unicode="e" horiz-adv-x="929" d="M80 514q0 121 36 222.5t96 167.5t137.5 103t160.5 37q55 0 105.5 -15t98 -50.5t80 -88t46.5 -134.5q8 -46 9 -98q0 -40 -5 -83h-629q-1 -23 -1 -45q0 -212 87 -335q96 -136 254 -136q134 0 250 125l22 -34q-51 -75 -133 -122.5t-190 -47.5q-130 0 -227 71t-147 191.5 t-50 271.5zM219 627h506q4 38 4 72q0 123 -48 199q-61 97 -175 97t-193.5 -104t-93.5 -264z" />
<glyph unicode="f" horiz-adv-x="608" d="M57 0v43l127 10q37 5 37 51v867h-143v35l143 18v82q0 97 33 174.5t104.5 125.5t171.5 48q59 0 106.5 -21.5t47.5 -62.5q0 -26 -14.5 -40.5t-36.5 -14.5q-34 0 -88.5 37t-81.5 37h-5q-53 0 -83 -45q-31 -47 -31 -142v-178h231v-53h-231v-867q0 -46 35 -51l172 -10v-43 h-494z" />
<glyph unicode="g" horiz-adv-x="931" d="M74 -193q0 143 188 232v4q-84 40 -84 135q0 55 40.5 102t113.5 68v4q-105 38 -160 131.5t-55 202.5q0 154 94 256t240 102q91 0 159 -43q32 21 87.5 37.5t105.5 16.5q47 0 72.5 -18.5t25.5 -49.5q0 -35 -28 -48t-56 3q-71 39 -128 39q-19 0 -36 -4v-4q59 -46 94 -120.5 t35 -166.5q0 -154 -93.5 -256t-237.5 -102q-77 0 -121.5 -21t-44.5 -76q0 -88 112 -92l217 -10q138 -6 208.5 -67.5t70.5 -159.5q0 -100 -67.5 -172.5t-170.5 -106t-225 -33.5q-74 0 -135.5 11t-112.5 35.5t-79.5 68t-28.5 102.5zM182 -166q0 -36 13 -68t40.5 -61.5t80 -47 t122.5 -17.5q177 0 256.5 63.5t79.5 161.5q0 69 -44.5 104t-135.5 41l-291 17q-60 -41 -90.5 -85.5t-30.5 -107.5zM244 686q0 -140 54 -224.5t153 -84.5t151.5 84t52.5 225t-52.5 225t-151.5 84t-153 -84.5t-54 -224.5z" />
<glyph unicode="h" horiz-adv-x="1095" d="M57 0v43l127 10q37 5 37 51v1231q0 22 -8.5 31.5t-28.5 9.5h-127v41l287 37l14 -16q-14 -57 -14 -170v-516h4q98 292 326 292q101 0 168 -76.5t67 -234.5v-629q0 -46 35 -51l129 -10v-43h-418v43l97 10q19 3 25.5 15t6.5 36v607q0 239 -174 239q-83 0 -146 -70 t-91.5 -165.5t-28.5 -192.5v-418q0 -46 35 -51l129 -10v-43h-451z" />
<glyph unicode="i" horiz-adv-x="532" d="M57 0v43l127 10q37 5 37 51v822q0 22 -8.5 31.5t-28.5 9.5h-127v41l287 36l14 -16q-14 -57 -14 -170v-754q0 -46 35 -51l129 -10v-43h-451zM199 1319q0 37 23.5 61.5t60.5 24.5q34 0 58 -25t24 -61q0 -38 -24 -62t-58 -24q-37 0 -60.5 24t-23.5 62z" />
<glyph unicode="j" horiz-adv-x="479" d="M33 967v41l289 36l12 -16q-12 -62 -12 -170v-807q0 -80 -11.5 -145t-40 -128.5t-84 -111.5t-135.5 -76l-14 33q39 22 68 54t46.5 67t28 79.5t14 85.5t3.5 91v926q0 22 -7.5 31.5t-27.5 9.5h-129zM172 1319q0 37 24.5 61.5t59.5 24.5t59.5 -24.5t24.5 -61.5q0 -38 -24 -62 t-60 -24t-60 24t-24 62z" />
<glyph unicode="k" horiz-adv-x="1091" d="M57 0v43l127 10q37 5 37 51v1231q0 22 -8.5 31.5t-28.5 9.5h-127v41l287 37l14 -16q-14 -57 -14 -170v-731l391 364q21 18 18.5 39t-34.5 27l-84 14v43h391v-43l-96 -20q-73 -13 -150 -84l-231 -218l350 -555q24 -42 90 -53l80 -8v-43h-424v43l88 10q29 3 29 24 q0 15 -14 38l-293 454l-111 -102v-363q0 -46 35 -51l129 -10v-43h-451z" />
<glyph unicode="l" horiz-adv-x="532" d="M57 0v43l127 10q37 5 37 51v1231q0 22 -8.5 31.5t-28.5 9.5h-127v41l287 37l14 -16q-14 -57 -14 -170v-1164q0 -46 35 -51l129 -10v-43h-451z" />
<glyph unicode="m" horiz-adv-x="1660" d="M57 0v43l127 10q37 5 37 51v822q0 22 -8.5 31.5t-28.5 9.5h-127v41l287 36l14 -16q-14 -57 -14 -170v-106h4q98 292 326 292q99 0 164 -71t69 -221h4q98 292 326 292q102 0 169 -76.5t67 -234.5v-629q0 -24 7.5 -36t26.5 -15l131 -10v-43h-417v43l96 10q31 5 31 51v607 q0 239 -174 239q-63 0 -115 -40.5t-84 -105t-49 -138t-17 -144.5v-418q0 -46 35 -51l129 -10v-43h-418v43l97 10q19 3 25.5 15t6.5 36v607q0 239 -174 239q-83 0 -146 -70t-91.5 -165.5t-28.5 -192.5v-418q0 -46 35 -51l129 -10v-43h-451z" />
<glyph unicode="n" horiz-adv-x="1095" d="M57 0v43l127 10q37 5 37 51v822q0 22 -8.5 31.5t-28.5 9.5h-127v41l287 36l14 -16q-14 -57 -14 -170v-106h4q98 292 326 292q101 0 168 -76.5t67 -234.5v-629q0 -46 35 -51l129 -10v-43h-418v43l97 10q19 3 25.5 15t6.5 36v607q0 239 -174 239q-83 0 -146 -70 t-91.5 -165.5t-28.5 -192.5v-418q0 -46 35 -51l129 -10v-43h-451z" />
<glyph unicode="o" d="M80 512q0 141 49 261t146 195.5t223 75.5t222.5 -75.5t145.5 -195.5t49 -261t-49 -261t-145.5 -195.5t-222.5 -75.5t-223 75.5t-146 195.5t-49 261zM215 512q0 -240 78.5 -361.5t204.5 -121.5q125 0 203.5 123.5t78.5 359.5q0 241 -78 362t-204 121q-127 0 -205 -121 t-78 -362z" />
<glyph unicode="p" horiz-adv-x="1048" d="M33 -367l129 11q35 5 35 51v1231q0 22 -7.5 31.5t-27.5 9.5h-129v41l289 36l12 -16q-12 -47 -12 -164v-26h4q22 61 56.5 104t74 64t73.5 29.5t68 8.5q173 0 272 -142t99 -390q0 -232 -111.5 -382t-288.5 -150q-133 0 -245 79h-2v-364q0 -24 7.5 -36t26.5 -15l164 -11v-43 h-487v43zM322 117q107 -74 219 -74q60 0 111.5 27.5t92.5 82t65 147t24 212.5q0 238 -70.5 351.5t-192.5 113.5q-110 0 -179.5 -98t-69.5 -258v-504z" />
<glyph unicode="q" horiz-adv-x="1015" d="M80 512q0 232 111 382t288 150q136 0 246 -79h2l100 79h25v-1349q0 -45 35 -51l129 -11v-43h-488v43l164 11q35 5 35 51v487h-2q-22 -61 -57 -103.5t-75 -62.5t-74 -28t-68 -8q-173 0 -272 142t-99 390zM215 512q0 -239 70 -352t192 -113q111 0 180.5 98t69.5 258v504 q-104 74 -219 74q-60 0 -111.5 -27.5t-92.5 -82t-65 -147t-24 -212.5z" />
<glyph unicode="r" horiz-adv-x="716" d="M57 0v43l127 10q37 5 37 51v822q0 22 -8.5 31.5t-28.5 9.5h-127v41l287 36l14 -16q-14 -57 -14 -170v-119h4q41 147 116.5 226t143.5 79q40 0 62 -20t22 -57q0 -39 -32 -59q-16 -10 -35 -10q-18 0 -37 9q-21 11 -42 11l-74 -33q-58 -51 -93 -152t-35 -211v-418 q0 -46 35 -51l174 -10v-43h-496z" />
<glyph unicode="s" horiz-adv-x="790" d="M86 283h39q68 -254 256 -254q91 0 147 52.5t56 149.5q0 37 -10 69t-29 56t-40.5 43.5t-49.5 35t-50.5 26.5t-50.5 23q-8 3 -12 5q-57 24 -95.5 47t-75.5 57.5t-55 82t-18 108.5q0 116 84.5 188t220.5 72q94 0 240 -57l8 -246h-39q-25 130 -77 192t-136 62 q-86 0 -135 -49.5t-49 -126.5q0 -38 14 -71t34 -55t52 -42.5t58 -32.5t63 -26q55 -23 95 -46t83.5 -60t67 -89t23.5 -116q0 -138 -91 -219.5t-233 -81.5q-120 0 -262 57z" />
<glyph unicode="t" horiz-adv-x="606" d="M33 971v35l117 18q39 5 55 59l63 187h31v-246h254v-53h-254v-781q0 -84 28.5 -112.5t92.5 -28.5q61 0 137 43l10 -41q-102 -71 -211 -71q-89 0 -134.5 40t-45.5 152v799h-143z" />
<glyph unicode="u" horiz-adv-x="1073" d="M33 967v41l289 36l12 -16q-12 -62 -12 -170v-545q0 -114 38 -176.5t132 -62.5q64 0 116.5 40.5t84.5 105t49.5 138t17.5 144.5v424q0 22 -7.5 31.5t-27.5 9.5h-164v41l322 36l16 -16q-14 -57 -14 -170v-754q0 -48 35 -51l131 -10v-43q-184 -20 -215 -20q-76 0 -76 75v217 h-2q-100 -292 -330 -292q-100 0 -165.5 76.5t-65.5 234.5v635q0 22 -7.5 31.5t-27.5 9.5h-129z" />
<glyph unicode="v" horiz-adv-x="1048" d="M33 981v43h432v-43l-107 -10q-26 -1 -35 -19t-1 -43l262 -786h4l215 782q3 12 3 22q0 33 -40 40l-96 14v43h346v-43l-86 -14q-57 -11 -72 -64l-260 -913h-98l-320 925q-16 49 -59 56z" />
<glyph unicode="w" horiz-adv-x="1548" d="M33 981v43h432v-43l-107 -10q-25 -1 -33.5 -19t-2.5 -43l225 -782h4l207 680l-33 108q-12 49 -59 56l-86 10v43h436v-43l-109 -10q-25 -3 -34 -20t-3 -42l215 -782h2l216 778q3 12 3 21q0 34 -42 41l-93 14v43h345v-43l-89 -14q-57 -11 -71 -62l-256 -915h-103l-211 735 l-225 -735h-102l-279 925q-15 49 -61 56z" />
<glyph unicode="x" d="M37 0v43l84 16q45 7 90 74l225 377l-219 405q-15 27 -30 40t-40 16l-90 10v43h428v-37l-88 -16q-40 -8 -40 -35q0 -12 8 -27l159 -307l176 291q14 23 5.5 44t-37.5 28l-78 22v37h348v-43l-90 -18q-52 -8 -90 -72l-205 -338l240 -444q25 -51 69 -56l96 -10v-43h-432v43 l82 10q29 3 38 21t-3 41l-180 342l-195 -326q-14 -23 -6 -44.5t37 -27.5l84 -16v-43h-346z" />
<glyph unicode="y" horiz-adv-x="1048" d="M33 981v43h432v-43l-107 -10q-26 -1 -35 -19t-1 -43l262 -786h4l217 782q3 11 3 20q0 34 -44 42l-94 14v43h346v-43l-86 -14q-57 -11 -72 -64l-258 -915q-21 -71 -37 -117.5t-45 -105t-61 -93t-80 -58.5t-107 -24q-51 0 -94 21t-43 61q0 36 31 48q9 3 19 3q21 0 42 -16 q68 -37 107 -37q67 1 112 61.5t80 194.5l-344 989q-19 50 -59 56z" />
<glyph unicode="z" horiz-adv-x="876" d="M66 0v25l573 948v4h-410q-42 0 -53 -39l-59 -199h-33l18 285h695v-25l-574 -952h428q43 0 54 39l73 199h33l-31 -285h-714z" />
<glyph unicode="{" horiz-adv-x="688" d="M166 672v49q65 0 94 43.5t29 136.5q0 36 -25.5 170.5t-25.5 218.5q0 140 86 203t249 63v-49q-106 0 -156 -54t-50 -163q0 -72 26.5 -200.5t26.5 -192.5q0 -63 -35 -118t-117 -79v-6q56 -15 92 -51t48 -72.5t12 -74.5q0 -64 -26.5 -193t-26.5 -201q0 -109 50 -163t156 -54 v-49q-163 0 -249 63t-86 203q0 84 25.5 219t25.5 171q0 93 -29 136.5t-94 43.5z" />
<glyph unicode="|" horiz-adv-x="395" d="M172 -41v1475h51v-1475h-51z" />
<glyph unicode="}" horiz-adv-x="688" d="M115 -115q106 0 155 54t49 163q0 72 -25.5 201t-25.5 193q0 38 12 74.5t48 72.5t92 51v6q-82 24 -117 79t-35 118q0 64 25.5 192.5t25.5 200.5q0 109 -49 163t-155 54v49q164 0 250 -63t86 -203q0 -84 -27 -218.5t-27 -170.5q0 -93 29.5 -136.5t95.5 -43.5v-49 q-66 0 -95.5 -43.5t-29.5 -136.5q0 -36 27 -171t27 -219q0 -140 -86 -203t-250 -63v49z" />
<glyph unicode="~" horiz-adv-x="929" d="M172 772q15 45 29 76.5t35.5 67.5t49 55.5t60.5 19.5q34 0 86 -28.5t103 -57t83 -28.5q34 0 57.5 24t51.5 80l31 -18q-14 -44 -26.5 -73t-30 -58t-40.5 -43.5t-51 -14.5q-39 0 -91.5 29t-101.5 57.5t-79 28.5q-22 0 -38 -6.5t-32 -26t-25 -34t-29 -50.5q-6 -11 -9 -16z " />
<glyph unicode="&#xa1;" horiz-adv-x="481" d="M160 956q0 37 24 62.5t58 25.5q32 0 54.5 -25.5t22.5 -62.5t-22.5 -62.5t-54.5 -25.5q-34 0 -58 25.5t-24 62.5zM162 -297l61 997h37l57 -997q3 -40 -15.5 -66t-59.5 -26q-43 0 -63 26t-17 66z" />
<glyph unicode="&#xa2;" horiz-adv-x="1056" d="M111 557q0 243 131.5 404t332.5 169v99h39v-99q163 -5 304 -88v-256h-37q-31 162 -99.5 228t-167.5 71v-1050q102 8 180 82.5t107 226.5l45 -12q-18 -90 -52 -157.5t-80 -106.5t-95 -58.5t-105 -23.5v-101h-39v99q-208 3 -336 162.5t-128 410.5zM256 557 q0 -242 88.5 -378t230.5 -144v1050q-142 -9 -230.5 -148t-88.5 -380z" />
<glyph unicode="&#xa3;" horiz-adv-x="1044" d="M102 0v63q70 58 112.5 127t56.5 146t13 147t-14 156h-166v53h158q-6 34 -21 110.5t-22 115.5q-14 91 -9 163.5t29 127.5t57.5 93.5t77 63t86 36t85.5 11.5q74 0 141 -18t102 -36t91 -52v-316h-39q-14 106 -41.5 180t-67 115.5t-85.5 59.5t-105 18q-110 0 -173 -94.5 t-34 -265.5q4 -24 24 -137.5t27 -174.5h320v-53h-314q12 -166 -32 -303.5t-175 -257.5v-4h574q40 0 53 39l61 206h41l-36 -319h-775z" />
<glyph unicode="&#xa4;" horiz-adv-x="903" d="M123 928l14 16l139 -184q77 74 177 74q97 0 174 -74l137 184l16 -16l-137 -183q88 -98 88 -235q0 -138 -86 -234l133 -176l-16 -18l-135 178q-75 -72 -174 -72q-102 0 -177 72l-133 -178l-16 18l133 176q-84 97 -84 234q0 136 84 233zM197 510q0 -121 76 -209t180 -88 q105 0 181.5 88t76.5 209t-77 210t-181 89t-180 -88.5t-76 -210.5z" />
<glyph unicode="&#xa5;" horiz-adv-x="1243" d="M29 1350v43h446v-43l-94 -11q-26 -4 -34 -25.5t3 -41.5l314 -678h2l309 674q10 25 1 42.5t-34 22.5l-117 17v43h392v-43l-111 -17q-51 -9 -76 -67l-340 -742v-57h250v-51h-250v-312q0 -46 35 -51l133 -10v-43h-473v43l133 10q35 5 35 51v312h-258v51h258v37l-356 772 q-27 58 -66 61z" />
<glyph unicode="&#xa6;" horiz-adv-x="395" d="M172 -41v655h51v-655h-51zM172 778v656h51v-656h-51z" />
<glyph unicode="&#xa7;" horiz-adv-x="907" d="M162 1399q0 116 81 188t216 72q93 0 239 -57l11 -246h-41q-23 129 -75.5 191.5t-137.5 62.5q-75 0 -129 -48.5t-54 -127.5q0 -45 26 -90.5t66.5 -85t90 -80.5t96 -80.5t85.5 -81.5t56 -87t11 -93.5t-51.5 -105.5t-131.5 -118l-28 23q65 47 95 91.5t26 83t-27.5 76t-65 75 t-88 74t-95 78.5t-87.5 84t-63.5 95t-24.5 107zM199 283h39q25 -129 77.5 -191.5t137.5 -62.5q74 0 128 49.5t54 126.5q0 56 -42 114.5t-100.5 107.5t-123.5 101.5t-109 106.5t-58 112.5t30.5 130t154.5 148.5l29 -22q-65 -47 -95 -91.5t-26.5 -83t27.5 -76t65.5 -75t88 -74 t94.5 -78.5t87 -84t63.5 -95t24.5 -107q0 -117 -80.5 -188.5t-215.5 -71.5q-97 0 -240 57z" />
<glyph unicode="&#xa8;" horiz-adv-x="835" d="M164 1286q0 35 22 57.5t56 22.5q33 0 55 -22.5t22 -57.5q0 -36 -22 -59t-55 -23q-34 0 -56 23t-22 59zM516 1286q0 35 22 57.5t56 22.5q33 0 55.5 -22.5t22.5 -57.5q0 -36 -22.5 -59t-55.5 -23q-34 0 -56 23t-22 59z" />
<glyph unicode="&#xa9;" horiz-adv-x="1409" d="M106 696q0 189 80 349.5t218 254t301 93.5t301 -93.5t217.5 -253.5t79.5 -350q0 -142 -47 -271t-127 -222t-191 -148t-233 -55q-163 0 -301 93t-218 253.5t-80 349.5zM143 696q0 -135 44 -257t119 -210t179.5 -140t219.5 -52q153 0 282 88t204 239.5t75 331.5t-75 332 t-204 240t-282 88q-154 0 -283.5 -88.5t-204 -240t-74.5 -331.5zM434 696q0 155 82 257t207 102q106 0 195 -54v-157h-19q-20 106 -64 146t-110 40q-96 0 -158.5 -87.5t-62.5 -246.5t61 -244t154 -85q68 0 119 45t71 145l27 -4q-23 -116 -83 -165.5t-138 -49.5 q-124 0 -202.5 100.5t-78.5 257.5z" />
<glyph unicode="&#xaa;" horiz-adv-x="612" d="M61 612v39h490v-39h-490zM61 909q0 68 41.5 112t135.5 71l143 43v94q0 56 -29 92.5t-88 36.5q-76 0 -153 -62l-15 19q22 29 76 59.5t121 30.5q74 0 118 -42t44 -114v-409q0 -28 22 -31l74 -6v-25q-114 -12 -125 -12q-25 0 -35 11t-10 34v88q-52 -133 -176 -133 q-67 0 -105.5 41t-38.5 102zM137 924q0 -53 26.5 -82t74.5 -29q62 0 102.5 59.5t40.5 145.5v90l-88 -31q-91 -35 -123.5 -67.5t-32.5 -85.5z" />
<glyph unicode="&#xab;" horiz-adv-x="1142" d="M176 530v45l389 377l27 -37l-297 -362l297 -363l-27 -36zM551 530v45l391 377l25 -37l-297 -362l297 -363l-25 -36z" />
<glyph unicode="&#xac;" horiz-adv-x="1030" d="M176 545v49h678v-404h-49v355h-629z" />
<glyph unicode="&#xad;" horiz-adv-x="968" d="M176 516v53h617v-53h-617z" />
<glyph unicode="&#xae;" horiz-adv-x="1409" d="M106 696q0 189 80 349.5t218 254t301 93.5t301 -93.5t217.5 -253.5t79.5 -350q0 -142 -47 -271t-127 -222t-191 -148t-233 -55q-163 0 -301 93t-218 253.5t-80 349.5zM143 696q0 -135 44 -257t119 -210t179.5 -140t219.5 -52q153 0 282 88t204 239.5t75 331.5t-75 332 t-204 240t-282 88q-154 0 -283.5 -88.5t-204 -240t-74.5 -331.5zM438 346v21l66 4q18 3 18 26v592q0 25 -18 25l-66 6v22h264q101 0 157 -52.5t56 -137.5q0 -80 -50.5 -128.5t-129.5 -53.5v-2q30 -10 49 -28.5t39 -64.5l76 -176q12 -21 39 -28l57 -4v-21q-52 -8 -102 -8 q-48 0 -64 41l-98 229q-12 31 -26 42.5t-43 11.5h-72v-265q0 -23 18 -26l82 -4v-21h-252zM590 688h96q82 0 119 46.5t37 117.5t-36.5 116.5t-119.5 45.5h-96v-326z" />
<glyph unicode="&#xaf;" horiz-adv-x="827" d="M176 1212v54h475v-54h-475z" />
<glyph unicode="&#xb0;" horiz-adv-x="643" d="M176 1286q0 75 40 121.5t103 46.5q65 0 106.5 -46.5t41.5 -121.5t-41.5 -122.5t-106.5 -47.5q-63 0 -103 47.5t-40 122.5zM217 1286q0 -51 24.5 -90t77.5 -39q56 0 81.5 39t25.5 90q0 52 -25.5 89.5t-81.5 37.5q-54 0 -78 -37.5t-24 -89.5z" />
<glyph unicode="&#xb1;" horiz-adv-x="968" d="M176 82v53h617v-53h-617zM176 516v53h283v332h51v-332h283v-53h-283v-332h-51v332h-283z" />
<glyph unicode="&#xb2;" horiz-adv-x="567" d="M88 1055v22q89 71 149 139t88.5 128t39 107.5t10.5 98.5q0 60 -18.5 106t-53.5 64q-27 14 -53 11q-18 -1 -34 -9.5t-22.5 -13.5t-22.5 -23.5t-17 -19.5q-14 -17 -34 -5.5t-16 34.5q2 27 48 47t110 20q52 0 91 -20t60.5 -52.5t31.5 -67.5t10 -71q0 -204 -281 -434h244 q21 0 26 19l15 75h20l-8 -155h-383z" />
<glyph unicode="&#xb3;" horiz-adv-x="542" d="M88 1116q0 24 19 31.5t32 -6.5q22 -26 30 -34.5t32.5 -22t50.5 -13.5q59 0 91 48t32 122q0 73 -35.5 121.5t-101.5 48.5h-23v29h18q56 0 90.5 42t34.5 109q0 66 -30.5 102t-81.5 36q-69 0 -125 -64l-17 21q59 75 156 75q77 0 124.5 -45t47.5 -114q0 -64 -37 -111 t-102 -64q70 -13 116 -58t46 -124q0 -95 -60.5 -148t-148.5 -53q-65 0 -111.5 22.5t-46.5 49.5z" />
<glyph unicode="&#xb4;" horiz-adv-x="669" d="M166 1151l240 186q31 24 61.5 11.5t32.5 -45.5q2 -42 -43 -62l-275 -117z" />
<glyph unicode="&#xb5;" horiz-adv-x="1064" d="M33 967v41l289 36l12 -16q-12 -62 -12 -170v-545q0 -114 38 -176.5t132 -62.5q64 0 116.5 40.5t84.5 105t49.5 138t17.5 144.5v424q0 22 -7.5 31.5t-27.5 9.5h-164v41l322 36l16 -16q-14 -57 -14 -170v-754q0 -48 35 -51l131 -10v-43q-184 -20 -215 -20q-76 0 -76 75v217 h-2q-100 -292 -330 -292q-58 0 -104 24q-2 -72 -16 -132.5t-44 -118t-83.5 -102t-129.5 -71.5l-14 33q39 22 68 54t46.5 67t28 79.5t14 85.5t3.5 91v936q0 22 -7.5 31.5t-27.5 9.5h-129z" />
<glyph unicode="&#xb6;" horiz-adv-x="1224" d="M98 696q0 334 164.5 515.5t452.5 181.5h35v-1393h-35q-283 0 -450 189.5t-167 506.5zM856 0v1393h295v-43l-133 -11q-35 -6 -35 -51v-1184q0 -45 35 -51l133 -10v-43h-295z" />
<glyph unicode="&#xb7;" horiz-adv-x="491" d="M170 549q0 34 22 57t54 23t54 -23t22 -57q0 -35 -21.5 -57.5t-54.5 -22.5t-54.5 22.5t-21.5 57.5z" />
<glyph unicode="&#xb8;" horiz-adv-x="638" d="M172 -385l8 31q55 -19 90 -19q54 0 81.5 37.5t27.5 87.5q0 54 -27 94t-82 50v104h35v-86q61 -6 112.5 -47.5t51.5 -116.5q0 -74 -47 -117t-129 -43q-66 0 -121 25z" />
<glyph unicode="&#xb9;" horiz-adv-x="522" d="M88 1055v24l117 4q18 3 18 27v569q0 11 -4.5 16.5t-13.5 4.5l-109 -19l-4 27l187 49h20v-647q0 -24 18 -27l117 -4v-24h-346z" />
<glyph unicode="&#xba;" horiz-adv-x="618" d="M61 1085q0 132 67.5 226t180.5 94t181.5 -94t68.5 -226t-68.5 -225.5t-181.5 -93.5t-180.5 93.5t-67.5 225.5zM66 612v39h489v-39h-489zM139 1085q0 -145 47.5 -216.5t122.5 -71.5t122.5 73.5t47.5 214.5q0 145 -47.5 217t-122.5 72q-77 0 -123.5 -72t-46.5 -217z" />
<glyph unicode="&#xbb;" horiz-adv-x="1142" d="M176 190l297 363l-297 362l25 37l391 -377v-45l-391 -376zM551 190l297 363l-297 362l24 37l392 -377v-45l-392 -376z" />
<glyph unicode="&#xbc;" horiz-adv-x="1402" d="M88 696v25l117 4q18 3 18 27v569q0 11 -4.5 16t-13.5 4l-109 -18l-4 27l187 49h20v-647q0 -24 18 -27l117 -4v-25h-346zM530 -41l365 1475h43l-365 -1475h-43zM879 160v20l317 522h37v-512h82v-30h-82v-105q0 -23 16 -26l64 -4v-25h-236v25l62 4q18 3 18 26v105h-278z M920 190h237v396l-237 -393v-3z" />
<glyph unicode="&#xbd;" horiz-adv-x="1402" d="M88 696v25l117 4q18 3 18 27v569q0 11 -4.5 16t-13.5 4l-109 -18l-4 27l187 49h20v-647q0 -24 18 -27l117 -4v-25h-346zM492 -41l364 1475h43l-364 -1475h-43zM924 0v23q89 71 148.5 139t88 128t39 107.5t10.5 98.5q0 80 -27.5 131t-82.5 51q-14 0 -26.5 -3.5t-20.5 -7 t-19 -12.5t-15.5 -13t-15.5 -16.5t-14 -15.5q-14 -15 -33 -5.5t-18 32.5q2 27 50 48.5t112 21.5q51 0 89.5 -20t59.5 -52.5t31 -67.5t10 -71q0 -207 -280 -435h243q24 0 27 19l14 76h21l-8 -156h-383z" />
<glyph unicode="&#xbe;" horiz-adv-x="1402" d="M88 758q0 24 19 31t32 -7q21 -25 30 -34t33 -22t50 -13q59 0 91 48t32 122t-35.5 122t-101.5 48h-23v28h18q56 0 90.5 42.5t34.5 109.5q0 66 -30.5 101.5t-81.5 35.5q-70 0 -125 -63l-17 20q60 76 156 76q77 0 124.5 -45.5t47.5 -114.5q0 -64 -37 -110.5t-102 -63.5 q70 -13 116 -58t46 -124q0 -95 -60.5 -148t-148.5 -53q-65 0 -111.5 22.5t-46.5 49.5zM537 -41l364 1475h43l-366 -1475h-41zM879 160v20l317 522h37v-512h82v-30h-82v-105q0 -23 16 -26l64 -4v-25h-236v25l62 4q18 3 18 26v105h-278zM920 190h237v396l-237 -393v-3z" />
<glyph unicode="&#xbf;" horiz-adv-x="860" d="M92 -20q0 46 8 88.5t31.5 90.5t61.5 86t102.5 70.5t148.5 49.5l11 335h41l8 -364q-281 -71 -281 -356q0 -139 57 -229.5t162 -90.5q41 0 76 10.5t66.5 33t48 38t45.5 45.5q15 16 36.5 17.5t37.5 -14.5t16 -44q0 -52 -99.5 -93.5t-232.5 -41.5q-88 0 -156 31.5t-108 85 t-60 117.5t-20 135zM399 956q0 37 23 62.5t55 25.5q34 0 57 -25.5t23 -62.5t-23 -62.5t-57 -25.5q-32 0 -55 25.5t-23 62.5z" />
<glyph unicode="&#xc0;" horiz-adv-x="1267" d="M29 0v43l106 16q26 3 43 16t25 44l346 1284h121l413 -1294q16 -49 60 -56l98 -10v-43h-453v43l109 10q25 3 33 20t2 40l-119 376h-453l-98 -370q-12 -52 35 -60l119 -16v-43h-387zM319 1671q2 33 33.5 46t63.5 -11l237 -186l-14 -27l-274 117q-46 20 -46 61zM375 547h420 l-222 719h-4z" />
<glyph unicode="&#xc1;" horiz-adv-x="1267" d="M29 0v43l106 16q26 3 43 16t25 44l346 1284h121l413 -1294q16 -49 60 -56l98 -10v-43h-453v43l109 10q25 3 33 20t2 40l-119 376h-453l-98 -370q-12 -52 35 -60l119 -16v-43h-387zM375 547h420l-222 719h-4zM575 1520l240 186q31 24 61.5 11t32.5 -46q2 -41 -43 -61 l-274 -117z" />
<glyph unicode="&#xc2;" horiz-adv-x="1267" d="M29 0v43l106 16q26 3 43 16t25 44l346 1284h121l413 -1294q16 -49 60 -56l98 -10v-43h-453v43l109 10q25 3 33 20t2 40l-119 376h-453l-98 -370q-12 -52 35 -60l119 -16v-43h-387zM375 547h420l-222 719h-4zM385 1495l227 336h31l227 -336h-47l-196 219l-197 -219h-45z " />
<glyph unicode="&#xc3;" horiz-adv-x="1267" d="M29 0v43l106 16q26 3 43 16t25 44l346 1284h121l413 -1294q16 -49 60 -56l98 -10v-43h-453v43l109 10q25 3 33 20t2 40l-119 376h-453l-98 -370q-12 -52 35 -60l119 -16v-43h-387zM342 1550q15 45 29 76.5t35.5 67.5t49 55.5t60.5 19.5q34 0 86 -28.5t103 -57t83 -28.5 q34 0 57.5 24t51.5 80l31 -18q-14 -44 -26.5 -73t-30 -58t-40.5 -43.5t-51 -14.5q-39 0 -91.5 29t-101.5 57.5t-79 28.5q-22 0 -38 -6.5t-32 -26t-25 -34t-29 -50.5q-6 -11 -9 -16zM375 547h420l-222 719h-4z" />
<glyph unicode="&#xc4;" horiz-adv-x="1267" d="M29 0v43l106 16q26 3 43 16t25 44l346 1284h121l413 -1294q16 -49 60 -56l98 -10v-43h-453v43l109 10q25 3 33 20t2 40l-119 376h-453l-98 -370q-12 -52 35 -60l119 -16v-43h-387zM373 1655q0 35 22 57.5t56 22.5q33 0 55 -22.5t22 -57.5q0 -36 -22 -59t-55 -23 q-34 0 -56 23t-22 59zM375 547h420l-222 719h-4zM725 1655q0 35 22 57.5t56 22.5q33 0 55.5 -22.5t22.5 -57.5q0 -36 -22.5 -59t-55.5 -23q-34 0 -56 23t-22 59z" />
<glyph unicode="&#xc5;" horiz-adv-x="1267" d="M29 0v43l106 16q26 3 43 16t25 44l346 1284h121l413 -1294q16 -49 60 -56l98 -10v-43h-453v43l109 10q25 3 33 20t2 40l-119 376h-453l-98 -370q-12 -52 35 -60l119 -16v-43h-387zM375 547h420l-222 719h-4zM467 1653q0 77 43 128.5t113 51.5q69 0 112 -51.5t43 -128.5 q0 -78 -42.5 -128t-112.5 -50q-69 0 -112.5 50.5t-43.5 127.5zM526 1653q0 -64 26 -104t71 -40q46 0 71 39.5t25 104.5q0 66 -25 105.5t-71 39.5q-45 0 -71 -40t-26 -105z" />
<glyph unicode="&#xc6;" horiz-adv-x="1679" d="M29 0v43l106 16q23 5 38 18t28 42l620 1274h758v-320h-39l-57 227q-11 39 -53 39h-439v-606h250q45 0 53 39l33 174h41v-479h-41l-33 174q-8 39 -53 39h-250v-627h465q39 0 53 39l84 227h39l-35 -319h-911v43l133 10q35 5 35 51v388h-410l-180 -373q-11 -23 -1.5 -39 t36.5 -21l117 -16v-43h-387zM473 549h381v784h-2z" />
<glyph unicode="&#xc7;" horiz-adv-x="1148" d="M98 696q0 153 44.5 287t122 228t184 148t227.5 54q218 0 393 -106v-316h-39q-16 110 -47.5 184.5t-78.5 115t-100 57t-124 16.5q-188 0 -310 -175.5t-122 -492.5q0 -161 33.5 -288.5t91.5 -208t134 -122.5t165 -42q134 0 239 93.5t144 293.5l49 -12q-18 -94 -51.5 -168 t-74.5 -121.5t-92 -79.5t-101.5 -45.5t-106.5 -15.5v-66q61 -6 112.5 -47.5t51.5 -116.5q0 -74 -47 -117t-129 -43q-66 0 -121 25l8 31q55 -19 90 -19q54 0 81.5 37.5t27.5 87.5q0 55 -26.5 94.5t-82.5 49.5v86q-240 8 -392.5 207.5t-152.5 506.5z" />
<glyph unicode="&#xc8;" horiz-adv-x="1062" d="M72 0v43l133 10q35 5 35 51v1184q0 46 -35 51l-133 11v43h893v-320h-39l-58 227q-11 39 -53 39h-438v-606h248q45 0 53 39l35 174h39v-479h-39l-35 174q-8 39 -53 39h-248v-627h463q39 0 53 39l84 227h39l-35 -319h-909zM332 1671q2 33 33 46t63 -11l238 -186l-15 -27 l-274 117q-45 20 -45 61z" />
<glyph unicode="&#xc9;" horiz-adv-x="1062" d="M72 0v43l133 10q35 5 35 51v1184q0 46 -35 51l-133 11v43h893v-320h-39l-58 227q-11 39 -53 39h-438v-606h248q45 0 53 39l35 174h39v-479h-39l-35 174q-8 39 -53 39h-248v-627h463q39 0 53 39l84 227h39l-35 -319h-909zM528 1520l240 186q31 24 61.5 11t32.5 -46 q2 -41 -43 -61l-274 -117z" />
<glyph unicode="&#xca;" horiz-adv-x="1062" d="M72 0v43l133 10q35 5 35 51v1184q0 46 -35 51l-133 11v43h893v-320h-39l-58 227q-11 39 -53 39h-438v-606h248q45 0 53 39l35 174h39v-479h-39l-35 174q-8 39 -53 39h-248v-627h463q39 0 53 39l84 227h39l-35 -319h-909zM336 1495l227 336h31l227 -336h-47l-196 219 l-197 -219h-45z" />
<glyph unicode="&#xcb;" horiz-adv-x="1062" d="M72 0v43l133 10q35 5 35 51v1184q0 46 -35 51l-133 11v43h893v-320h-39l-58 227q-11 39 -53 39h-438v-606h248q45 0 53 39l35 174h39v-479h-39l-35 174q-8 39 -53 39h-248v-627h463q39 0 53 39l84 227h39l-35 -319h-909zM332 1655q0 35 22 57.5t56 22.5q33 0 55 -22.5 t22 -57.5q0 -36 -22 -59t-55 -23q-34 0 -56 23t-22 59zM684 1655q0 35 22 57.5t56 22.5q33 0 55.5 -22.5t22.5 -57.5q0 -36 -22.5 -59t-55.5 -23q-34 0 -56 23t-22 59z" />
<glyph unicode="&#xcc;" horiz-adv-x="616" d="M2 1671q2 33 33 46t63 -11l238 -186l-14 -27l-275 117q-45 20 -45 61zM72 0v43l133 10q35 5 35 51v1184q0 46 -35 51l-133 11v43h471v-43l-131 -11q-35 -5 -35 -51v-1184q0 -46 35 -51l131 -10v-43h-471z" />
<glyph unicode="&#xcd;" horiz-adv-x="616" d="M72 0v43l133 10q35 5 35 51v1184q0 46 -35 51l-133 11v43h471v-43l-131 -11q-35 -5 -35 -51v-1184q0 -46 35 -51l131 -10v-43h-471zM279 1520l239 186q31 24 61.5 11t32.5 -46q2 -41 -43 -61l-274 -117z" />
<glyph unicode="&#xce;" horiz-adv-x="616" d="M68 1495l227 336h31l227 -336h-47l-197 219l-196 -219h-45zM72 0v43l133 10q35 5 35 51v1184q0 46 -35 51l-133 11v43h471v-43l-131 -11q-35 -5 -35 -51v-1184q0 -46 35 -51l131 -10v-43h-471z" />
<glyph unicode="&#xcf;" horiz-adv-x="616" d="M55 1655q0 35 22 57.5t56 22.5q33 0 55.5 -22.5t22.5 -57.5q0 -36 -22.5 -59t-55.5 -23q-34 0 -56 23t-22 59zM72 0v43l133 10q35 5 35 51v1184q0 46 -35 51l-133 11v43h471v-43l-131 -11q-35 -5 -35 -51v-1184q0 -46 35 -51l131 -10v-43h-471zM408 1655q0 35 21.5 57.5 t55.5 22.5q33 0 55.5 -22.5t22.5 -57.5q0 -36 -22.5 -59t-55.5 -23q-34 0 -55.5 22.5t-21.5 59.5z" />
<glyph unicode="&#xd0;" horiz-adv-x="1318" d="M72 0v43l133 10q35 5 35 51v555h-162v54h162v575q0 46 -35 51l-133 11v43h536q285 0 449 -185.5t164 -511.5q0 -205 -73.5 -362t-213.5 -245.5t-326 -88.5h-536zM377 53h221q97 0 177.5 37t134.5 98.5t91.5 145t54.5 174.5t17 188q0 139 -29 254t-87 203t-153.5 137 t-221.5 49h-205v-626h188v-54h-188v-606z" />
<glyph unicode="&#xd1;" horiz-adv-x="1304" d="M61 0v43l136 16q39 8 39 58v1171q0 46 -35 51l-140 11v43h324l647 -1127v1008q0 49 -39 57l-137 19v43h404v-43l-132 -19q-38 -8 -38 -57v-1284h-50l-747 1284v-1157q0 -26 8.5 -40t30.5 -18l135 -16v-43h-406zM360 1550q15 44 29 76t35.5 68t49.5 55.5t61 19.5 q41 0 137 -57t135 -57q33 0 56.5 24t51.5 80l31 -18q-15 -44 -26.5 -72.5t-29.5 -58t-40.5 -44t-50.5 -14.5q-39 0 -91.5 29t-102 57.5t-79.5 28.5q-22 0 -38 -6.5t-32 -26t-25 -34t-29 -50.5q-6 -11 -9 -16z" />
<glyph unicode="&#xd2;" horiz-adv-x="1390" d="M98 696q0 156 47 290.5t127 227.5t189.5 146t232.5 53q165 0 301 -90t215.5 -254.5t79.5 -372.5q0 -156 -46.5 -291t-126.5 -227.5t-190 -145t-233 -52.5t-232.5 52.5t-189.5 145t-127 227.5t-47 291zM248 696q0 -308 127 -487.5t319 -179.5q191 0 320 180t129 487 q0 154 -35.5 281t-96.5 211t-143 130t-174 46q-93 0 -174.5 -46t-141.5 -130t-95 -211t-35 -281zM389 1671q2 33 33 46t63 -11l238 -186l-14 -27l-275 117q-45 20 -45 61z" />
<glyph unicode="&#xd3;" horiz-adv-x="1390" d="M98 696q0 156 47 290.5t127 227.5t189.5 146t232.5 53q165 0 301 -90t215.5 -254.5t79.5 -372.5q0 -156 -46.5 -291t-126.5 -227.5t-190 -145t-233 -52.5t-232.5 52.5t-189.5 145t-127 227.5t-47 291zM248 696q0 -308 127 -487.5t319 -179.5q191 0 320 180t129 487 q0 154 -35.5 281t-96.5 211t-143 130t-174 46q-93 0 -174.5 -46t-141.5 -130t-95 -211t-35 -281zM647 1520l240 186q31 24 61.5 11t32.5 -46q2 -41 -43 -61l-274 -117z" />
<glyph unicode="&#xd4;" horiz-adv-x="1390" d="M98 696q0 156 47 290.5t127 227.5t189.5 146t232.5 53q165 0 301 -90t215.5 -254.5t79.5 -372.5q0 -156 -46.5 -291t-126.5 -227.5t-190 -145t-233 -52.5t-232.5 52.5t-189.5 145t-127 227.5t-47 291zM248 696q0 -308 127 -487.5t319 -179.5q191 0 320 180t129 487 q0 154 -35.5 281t-96.5 211t-143 130t-174 46q-93 0 -174.5 -46t-141.5 -130t-95 -211t-35 -281zM453 1495l227 336h31l227 -336h-47l-197 219l-196 -219h-45z" />
<glyph unicode="&#xd5;" horiz-adv-x="1390" d="M98 696q0 156 47 290.5t127 227.5t189.5 146t232.5 53q165 0 301 -90t215.5 -254.5t79.5 -372.5q0 -156 -46.5 -291t-126.5 -227.5t-190 -145t-233 -52.5t-232.5 52.5t-189.5 145t-127 227.5t-47 291zM248 696q0 -308 127 -487.5t319 -179.5q191 0 320 180t129 487 q0 154 -35.5 281t-96.5 211t-143 130t-174 46q-93 0 -174.5 -46t-141.5 -130t-95 -211t-35 -281zM401 1550q15 45 29 76.5t35.5 67.5t49 55.5t60.5 19.5q41 0 138 -57t135 -57q33 0 56.5 24t51.5 80l31 -18q-15 -44 -26.5 -72.5t-29.5 -58t-40.5 -44t-50.5 -14.5 q-39 0 -91.5 29t-102 57.5t-79.5 28.5q-22 0 -38 -6.5t-32 -26t-25 -34t-29 -50.5q-6 -11 -9 -16z" />
<glyph unicode="&#xd6;" horiz-adv-x="1390" d="M98 696q0 156 47 290.5t127 227.5t189.5 146t232.5 53q165 0 301 -90t215.5 -254.5t79.5 -372.5q0 -156 -46.5 -291t-126.5 -227.5t-190 -145t-233 -52.5t-232.5 52.5t-189.5 145t-127 227.5t-47 291zM248 696q0 -308 127 -487.5t319 -179.5q191 0 320 180t129 487 q0 154 -35.5 281t-96.5 211t-143 130t-174 46q-93 0 -174.5 -46t-141.5 -130t-95 -211t-35 -281zM440 1655q0 35 22 57.5t56 22.5q33 0 55.5 -22.5t22.5 -57.5q0 -36 -22.5 -59t-55.5 -23q-34 0 -56 23t-22 59zM793 1655q0 35 21.5 57.5t55.5 22.5q33 0 55.5 -22.5 t22.5 -57.5q0 -36 -22.5 -59t-55.5 -23q-34 0 -55.5 22.5t-21.5 59.5z" />
<glyph unicode="&#xd7;" horiz-adv-x="911" d="M184 264l240 279l-240 278l33 37l238 -278l239 278l33 -37l-240 -278l240 -279l-33 -37l-239 279l-238 -279z" />
<glyph unicode="&#xd8;" horiz-adv-x="1390" d="M98 696q0 156 47 290.5t127 227.5t189.5 146t232.5 53q165 0 307 -96l70 135l41 -25l-72 -139q117 -94 183.5 -248t66.5 -344q0 -156 -46.5 -291t-126.5 -227.5t-190 -145t-233 -52.5q-163 0 -293 83l-63 -122l-41 24l65 127q-123 93 -193.5 250t-70.5 354zM246 696 q0 -341 157 -526l560 1075q-113 119 -269 119q-192 0 -320 -181t-128 -487zM438 133q110 -104 256 -104q191 0 320 180t129 487q0 321 -148 510z" />
<glyph unicode="&#xd9;" horiz-adv-x="1345" d="M57 1350v43h471v-43l-133 -11q-19 -3 -27 -14.5t-8 -36.5v-788q0 -232 83 -342.5t262 -110.5q164 0 261 119t97 356v752q0 50 -41 57l-137 19v43h413v-43l-139 -19q-22 -4 -30.5 -17.5t-8.5 -39.5v-750q0 -262 -118.5 -403t-335.5 -141q-225 0 -334 140.5t-109 405.5v762 q0 46 -35 51zM420 1671q2 33 33 46t63 -11l238 -186l-15 -27l-274 117q-45 20 -45 61z" />
<glyph unicode="&#xda;" horiz-adv-x="1345" d="M57 1350v43h471v-43l-133 -11q-19 -3 -27 -14.5t-8 -36.5v-788q0 -232 83 -342.5t262 -110.5q164 0 261 119t97 356v752q0 50 -41 57l-137 19v43h413v-43l-139 -19q-22 -4 -30.5 -17.5t-8.5 -39.5v-750q0 -262 -118.5 -403t-335.5 -141q-225 0 -334 140.5t-109 405.5v762 q0 46 -35 51zM684 1520l240 186q31 24 61.5 11t32.5 -46q2 -41 -43 -61l-275 -117z" />
<glyph unicode="&#xdb;" horiz-adv-x="1345" d="M57 1350v43h471v-43l-133 -11q-19 -3 -27 -14.5t-8 -36.5v-788q0 -232 83 -342.5t262 -110.5q164 0 261 119t97 356v752q0 50 -41 57l-137 19v43h413v-43l-139 -19q-22 -4 -30.5 -17.5t-8.5 -39.5v-750q0 -262 -118.5 -403t-335.5 -141q-225 0 -334 140.5t-109 405.5v762 q0 46 -35 51zM463 1495l227 336h31l227 -336h-47l-196 219l-197 -219h-45z" />
<glyph unicode="&#xdc;" horiz-adv-x="1345" d="M57 1350v43h471v-43l-133 -11q-19 -3 -27 -14.5t-8 -36.5v-788q0 -232 83 -342.5t262 -110.5q164 0 261 119t97 356v752q0 50 -41 57l-137 19v43h413v-43l-139 -19q-22 -4 -30.5 -17.5t-8.5 -39.5v-750q0 -262 -118.5 -403t-335.5 -141q-225 0 -334 140.5t-109 405.5v762 q0 46 -35 51zM451 1655q0 35 21.5 57.5t55.5 22.5q33 0 55.5 -22.5t22.5 -57.5q0 -36 -22.5 -59t-55.5 -23q-34 0 -55.5 22.5t-21.5 59.5zM803 1655q0 35 22 57.5t56 22.5q33 0 55 -22.5t22 -57.5q0 -36 -22 -59t-55 -23q-34 0 -56 23t-22 59z" />
<glyph unicode="&#xdd;" horiz-adv-x="1243" d="M29 1350v43h446v-43l-94 -11q-26 -4 -34 -25.5t3 -41.5l314 -678h2l309 674q10 25 1 42.5t-34 22.5l-117 17v43h392v-43l-111 -17q-51 -9 -76 -67l-340 -742v-420q0 -46 35 -51l133 -10v-43h-473v43l133 10q35 5 35 51v400l-356 772q-27 58 -66 61zM625 1520l239 186 q31 24 61.5 11t32.5 -46q2 -41 -43 -61l-274 -117z" />
<glyph unicode="&#xde;" horiz-adv-x="1089" d="M72 0v43l133 10q35 5 35 51v1184q0 46 -35 51l-133 11v43h471v-43l-131 -11q-35 -5 -35 -51v-203h227q200 0 313 -111t113 -280t-113 -280t-313 -111h-227v-199q0 -46 35 -51l131 -10v-43h-471zM377 356h192q86 0 148.5 27.5t97 76.5t50.5 107t16 127t-16 127t-50.5 107 t-97 76.5t-148.5 27.5h-192v-676z" />
<glyph unicode="&#xdf;" horiz-adv-x="1095" d="M57 0v43l127 10q37 5 37 51v863h-143v39l143 18v72q0 157 87 257.5t235 100.5q145 0 221 -67.5t76 -165.5q0 -56 -20 -102.5t-49 -78t-57.5 -61t-48.5 -64.5t-20 -73q0 -57 80 -137l141 -146q69 -69 107 -137.5t37 -149.5q0 -127 -81.5 -209.5t-211.5 -82.5 q-133 0 -250 57l-39 258h39q36 -139 104.5 -202.5t149.5 -63.5t129.5 53.5t48.5 140.5q0 71 -33.5 127.5t-87.5 112.5l-139 141q-29 30 -47.5 59t-27 53.5t-7 53t7 50t21 52t29 52t36.5 55.5q41 62 60 135.5t12.5 138.5t-53 108.5t-127.5 43.5q-84 0 -141.5 -67t-57.5 -187 v-1151h-287z" />
<glyph unicode="&#xe0;" horiz-adv-x="925" d="M80 219q0 112 68 184t223 119l241 74v156q0 94 -47.5 154.5t-146.5 60.5q-123 0 -258 -103l-21 31q21 27 60.5 58t113.5 61t152 30q126 0 198 -69t72 -189v-682q0 -25 8 -37.5t29 -13.5l129 -10v-43q-30 -3 -79.5 -9t-77.5 -8.5t-56 -2.5q-41 0 -58.5 19t-17.5 56v146h-2 q-40 -112 -116.5 -166.5t-176.5 -54.5q-110 0 -173.5 69t-63.5 170zM195 1303q2 33 33 45.5t63 -11.5l237 -186l-14 -27l-274 117q-45 20 -45 62zM215 242q0 -87 40.5 -133t117.5 -46q105 0 172 97t67 241v148l-219 -74q-178 -64 -178 -233z" />
<glyph unicode="&#xe1;" horiz-adv-x="925" d="M80 219q0 112 68 184t223 119l241 74v156q0 94 -47.5 154.5t-146.5 60.5q-123 0 -258 -103l-21 31q21 27 60.5 58t113.5 61t152 30q126 0 198 -69t72 -189v-682q0 -25 8 -37.5t29 -13.5l129 -10v-43q-30 -3 -79.5 -9t-77.5 -8.5t-56 -2.5q-41 0 -58.5 19t-17.5 56v146h-2 q-40 -112 -116.5 -166.5t-176.5 -54.5q-110 0 -173.5 69t-63.5 170zM215 242q0 -87 40.5 -133t117.5 -46q105 0 172 97t67 241v148l-219 -74q-178 -64 -178 -233zM377 1151l239 186q31 24 62 11.5t33 -45.5q2 -42 -43 -62l-275 -117z" />
<glyph unicode="&#xe2;" horiz-adv-x="925" d="M80 219q0 112 68 184t223 119l241 74v156q0 94 -47.5 154.5t-146.5 60.5q-123 0 -258 -103l-21 31q21 27 60.5 58t113.5 61t152 30q126 0 198 -69t72 -189v-682q0 -25 8 -37.5t29 -13.5l129 -10v-43q-30 -3 -79.5 -9t-77.5 -8.5t-56 -2.5q-41 0 -58.5 19t-17.5 56v146h-2 q-40 -112 -116.5 -166.5t-176.5 -54.5q-110 0 -173.5 69t-63.5 170zM215 242q0 -87 40.5 -133t117.5 -46q105 0 172 97t67 241v148l-219 -74q-178 -64 -178 -233zM219 1126l227 336h31l228 -336h-48l-196 220l-197 -220h-45z" />
<glyph unicode="&#xe3;" horiz-adv-x="925" d="M80 219q0 112 68 184t223 119l241 74v156q0 94 -47.5 154.5t-146.5 60.5q-123 0 -258 -103l-21 31q21 27 60.5 58t113.5 61t152 30q126 0 198 -69t72 -189v-682q0 -25 8 -37.5t29 -13.5l129 -10v-43q-30 -3 -79.5 -9t-77.5 -8.5t-56 -2.5q-41 0 -58.5 19t-17.5 56v146h-2 q-40 -112 -116.5 -166.5t-176.5 -54.5q-110 0 -173.5 69t-63.5 170zM170 1182q15 45 29 76.5t35.5 67.5t49 55.5t60.5 19.5q27 0 66 -18t71.5 -39.5t70.5 -39.5t64 -18q34 0 57.5 24.5t51.5 80.5l31 -19q-30 -91 -62.5 -139.5t-85.5 -48.5q-39 0 -91.5 28.5t-101.5 57 t-79 28.5q-22 0 -38 -6.5t-32 -26t-25 -34t-29 -50.5q-6 -11 -9 -16zM215 242q0 -87 40.5 -133t117.5 -46q105 0 172 97t67 241v148l-219 -74q-178 -64 -178 -233z" />
<glyph unicode="&#xe4;" horiz-adv-x="925" d="M80 219q0 112 68 184t223 119l241 74v156q0 94 -47.5 154.5t-146.5 60.5q-123 0 -258 -103l-21 31q21 27 60.5 58t113.5 61t152 30q126 0 198 -69t72 -189v-682q0 -25 8 -37.5t29 -13.5l129 -10v-43q-30 -3 -79.5 -9t-77.5 -8.5t-56 -2.5q-41 0 -58.5 19t-17.5 56v146h-2 q-40 -112 -116.5 -166.5t-176.5 -54.5q-110 0 -173.5 69t-63.5 170zM209 1286q0 35 22 57.5t56 22.5q33 0 55.5 -22.5t22.5 -57.5q0 -36 -22.5 -59t-55.5 -23q-34 0 -56 23t-22 59zM215 242q0 -87 40.5 -133t117.5 -46q105 0 172 97t67 241v148l-219 -74q-178 -64 -178 -233 zM561 1286q0 35 22 57.5t56 22.5q33 0 55.5 -22.5t22.5 -57.5q0 -36 -22.5 -59t-55.5 -23q-34 0 -56 23t-22 59z" />
<glyph unicode="&#xe5;" horiz-adv-x="925" d="M80 219q0 112 68 184t223 119l241 74v156q0 94 -47.5 154.5t-146.5 60.5q-123 0 -258 -103l-21 31q21 27 60.5 58t113.5 61t152 30q126 0 198 -69t72 -189v-682q0 -25 8 -37.5t29 -13.5l129 -10v-43q-30 -3 -79.5 -9t-77.5 -8.5t-56 -2.5q-41 0 -58.5 19t-17.5 56v146h-2 q-40 -112 -116.5 -166.5t-176.5 -54.5q-110 0 -173.5 69t-63.5 170zM215 242q0 -87 40.5 -133t117.5 -46q105 0 172 97t67 241v148l-219 -74q-178 -64 -178 -233zM311 1284q0 77 43 128.5t113 51.5q69 0 112.5 -51.5t43.5 -128.5t-43 -127.5t-113 -50.5q-69 0 -112.5 50.5 t-43.5 127.5zM371 1284q0 -64 25.5 -103.5t70.5 -39.5q46 0 71 39t25 104q0 66 -25 106t-71 40q-45 0 -70.5 -40t-25.5 -106z" />
<glyph unicode="&#xe6;" horiz-adv-x="1460" d="M80 219q0 112 68.5 184t224.5 119l239 74v156q0 93 -46.5 153t-145.5 60q-126 0 -258 -101l-23 31q16 20 43 42t68 48t98 42.5t117 16.5q99 0 167 -45t93 -125q59 82 142.5 126t176.5 44q55 0 105.5 -15t97.5 -50.5t79 -88t46 -134t2 -181.5h-635q-10 -244 90.5 -380 t260.5 -136q133 0 249 125l25 -34q-52 -75 -134.5 -122.5t-189.5 -47.5q-146 0 -247.5 85.5t-145.5 231.5q-20 -94 -57.5 -160t-84.5 -98.5t-91.5 -45.5t-94.5 -13q-110 0 -174.5 69t-64.5 170zM207 242q0 -87 44.5 -136t121.5 -49q105 0 172 99.5t67 244.5v148l-217 -74 q-188 -66 -188 -233zM743 627h514q17 175 -42.5 271.5t-174.5 96.5t-199 -104.5t-98 -263.5z" />
<glyph unicode="&#xe7;" horiz-adv-x="888" d="M80 514q0 126 37.5 229t100 167.5t140.5 99t162 34.5q124 0 212.5 -42t88.5 -93q0 -43 -33.5 -56t-56.5 13q-4 5 -26 29t-29.5 31.5t-29 25t-37 24t-40 13t-51.5 6.5q-98 0 -168.5 -64.5t-102.5 -161.5t-32 -212q0 -247 91.5 -372.5t248.5 -125.5q131 0 250 125l22 -34 q-49 -72 -126 -119t-179 -51v-66q61 -6 112.5 -47.5t51.5 -116.5q0 -74 -47 -117t-129 -43q-66 0 -121 25l8 31q55 -19 92 -19q53 0 80 37.5t27 87.5q0 54 -27 94t-82 50v84q-126 5 -219.5 77.5t-140.5 190.5t-47 266z" />
<glyph unicode="&#xe8;" horiz-adv-x="929" d="M80 514q0 121 36 222.5t96 167.5t137.5 103t160.5 37q55 0 105.5 -15t98 -50.5t80 -88t47 -134t3.5 -181.5h-629q-10 -244 86 -380t254 -136q134 0 250 125l22 -34q-51 -75 -133 -122.5t-190 -47.5q-130 0 -227 71t-147 191.5t-50 271.5zM219 627h506q17 174 -44 271 t-175 97t-193.5 -104t-93.5 -264zM264 1303q2 33 33 45.5t63 -11.5l238 -186l-14 -27l-275 117q-45 20 -45 62z" />
<glyph unicode="&#xe9;" horiz-adv-x="929" d="M80 514q0 121 36 222.5t96 167.5t137.5 103t160.5 37q55 0 105.5 -15t98 -50.5t80 -88t47 -134t3.5 -181.5h-629q-10 -244 86 -380t254 -136q134 0 250 125l22 -34q-51 -75 -133 -122.5t-190 -47.5q-130 0 -227 71t-147 191.5t-50 271.5zM219 627h506q17 174 -44 271 t-175 97t-193.5 -104t-93.5 -264zM438 1151l240 186q31 24 61.5 11.5t32.5 -45.5q2 -42 -43 -62l-274 -117z" />
<glyph unicode="&#xea;" horiz-adv-x="929" d="M80 514q0 121 36 222.5t96 167.5t137.5 103t160.5 37q55 0 105.5 -15t98 -50.5t80 -88t47 -134t3.5 -181.5h-629q-10 -244 86 -380t254 -136q134 0 250 125l22 -34q-51 -75 -133 -122.5t-190 -47.5q-130 0 -227 71t-147 191.5t-50 271.5zM219 627h506q17 174 -44 271 t-175 97t-193.5 -104t-93.5 -264zM227 1126l228 336h30l228 -336h-47l-197 220l-197 -220h-45z" />
<glyph unicode="&#xeb;" horiz-adv-x="929" d="M80 514q0 121 36 222.5t96 167.5t137.5 103t160.5 37q55 0 105.5 -15t98 -50.5t80 -88t47 -134t3.5 -181.5h-629q-10 -244 86 -380t254 -136q134 0 250 125l22 -34q-51 -75 -133 -122.5t-190 -47.5q-130 0 -227 71t-147 191.5t-50 271.5zM217 1286q0 35 22 57.5t56 22.5 q33 0 55.5 -22.5t22.5 -57.5q0 -36 -22.5 -59t-55.5 -23q-34 0 -56 23t-22 59zM219 627h506q17 174 -44 271t-175 97t-193.5 -104t-93.5 -264zM569 1286q0 35 22 57.5t56 22.5q33 0 55.5 -22.5t22.5 -57.5q0 -36 -22.5 -59t-55.5 -23q-34 0 -56 23t-22 59z" />
<glyph unicode="&#xec;" horiz-adv-x="532" d="M-12 1303q2 33 33 45.5t63 -11.5l238 -186l-15 -27l-274 117q-45 20 -45 62zM57 0v43l127 10q37 5 37 51v822q0 22 -8.5 31.5t-28.5 9.5h-127v41l287 36l14 -16q-14 -57 -14 -170v-754q0 -46 35 -51l129 -10v-43h-451z" />
<glyph unicode="&#xed;" horiz-adv-x="532" d="M57 0v43l127 10q37 5 37 51v822q0 22 -8.5 31.5t-28.5 9.5h-127v41l287 36l14 -16q-14 -57 -14 -170v-754q0 -46 35 -51l129 -10v-43h-451zM190 1151l240 186q31 24 61.5 11.5t32.5 -45.5q2 -42 -43 -62l-274 -117z" />
<glyph unicode="&#xee;" horiz-adv-x="532" d="M20 1126l228 336h31l227 -336h-47l-197 220l-196 -220h-46zM57 0v43l127 10q37 5 37 51v822q0 22 -8.5 31.5t-28.5 9.5h-127v41l287 36l14 -16q-14 -57 -14 -170v-754q0 -46 35 -51l129 -10v-43h-451z" />
<glyph unicode="&#xef;" horiz-adv-x="532" d="M18 1286q0 35 22 57.5t56 22.5q33 0 55.5 -22.5t22.5 -57.5q0 -36 -22.5 -59t-55.5 -23q-34 0 -56 23t-22 59zM55 0v43l127 10q37 5 37 51v822q0 22 -8.5 31.5t-28.5 9.5h-127v41l287 36l14 -16q-14 -57 -14 -170v-754q0 -46 35 -51l129 -10v-43h-451zM371 1286 q0 35 22 57.5t56 22.5q33 0 55 -22.5t22 -57.5q0 -36 -22 -59t-55 -23q-34 0 -56 23t-22 59z" />
<glyph unicode="&#xf0;" d="M80 512q0 141 49 261t146 195.5t223 75.5q125 0 217 -96l4 2q-59 169 -176 289l-209 -149l-21 43l195 139q-118 101 -266 139l12 43q171 -37 307 -143l156 112l20 -43l-139 -100q150 -134 233.5 -336t83.5 -432q0 -141 -49 -261t-145.5 -195.5t-222.5 -75.5t-223 75.5 t-146 195.5t-49 261zM215 512q0 -240 78.5 -361.5t204.5 -121.5q125 0 203.5 123.5t78.5 359.5q0 241 -78 362t-204 121q-127 0 -205 -121t-78 -362z" />
<glyph unicode="&#xf1;" horiz-adv-x="1095" d="M57 0v43l127 10q37 5 37 51v822q0 22 -8.5 31.5t-28.5 9.5h-127v41l287 36l14 -16q-14 -57 -14 -170v-106h4q98 292 326 292q101 0 168 -76.5t67 -234.5v-629q0 -46 35 -51l129 -10v-43h-418v43l97 10q19 3 25.5 15t6.5 36v607q0 239 -174 239q-83 0 -146 -70 t-91.5 -165.5t-28.5 -192.5v-418q0 -46 35 -51l129 -10v-43h-451zM270 1182q15 45 29 76.5t35.5 67.5t49 55.5t60.5 19.5q42 0 138 -57.5t135 -57.5q33 0 56.5 24t51.5 81l31 -19q-15 -44 -26.5 -72.5t-29.5 -58t-40.5 -43.5t-50.5 -14q-39 0 -91.5 28.5t-102 57t-79.5 28.5 q-22 0 -38 -6.5t-32 -26t-25 -34t-29 -50.5q-6 -11 -9 -16z" />
<glyph unicode="&#xf2;" d="M80 512q0 141 49 261t146 195.5t223 75.5t222.5 -75.5t145.5 -195.5t49 -261t-49 -261t-145.5 -195.5t-222.5 -75.5t-223 75.5t-146 195.5t-49 261zM215 512q0 -240 78.5 -361.5t204.5 -121.5q125 0 203.5 123.5t78.5 359.5q0 241 -78 362t-204 121q-127 0 -205 -121 t-78 -362zM256 1303q2 33 33 45.5t63 -11.5l238 -186l-15 -27l-274 117q-45 20 -45 62z" />
<glyph unicode="&#xf3;" d="M80 512q0 141 49 261t146 195.5t223 75.5t222.5 -75.5t145.5 -195.5t49 -261t-49 -261t-145.5 -195.5t-222.5 -75.5t-223 75.5t-146 195.5t-49 261zM215 512q0 -240 78.5 -361.5t204.5 -121.5q125 0 203.5 123.5t78.5 359.5q0 241 -78 362t-204 121q-127 0 -205 -121 t-78 -362zM446 1151l240 186q31 24 61.5 11.5t32.5 -45.5q2 -42 -43 -62l-274 -117z" />
<glyph unicode="&#xf4;" d="M80 512q0 141 49 261t146 195.5t223 75.5t222.5 -75.5t145.5 -195.5t49 -261t-49 -261t-145.5 -195.5t-222.5 -75.5t-223 75.5t-146 195.5t-49 261zM215 512q0 -240 78.5 -361.5t204.5 -121.5q125 0 203.5 123.5t78.5 359.5q0 241 -78 362t-204 121q-127 0 -205 -121 t-78 -362zM256 1126l227 336h31l227 -336h-47l-196 220l-197 -220h-45z" />
<glyph unicode="&#xf5;" d="M80 512q0 141 49 261t146 195.5t223 75.5t222.5 -75.5t145.5 -195.5t49 -261t-49 -261t-145.5 -195.5t-222.5 -75.5t-223 75.5t-146 195.5t-49 261zM205 1182q15 45 29 76.5t35.5 67.5t49 55.5t60.5 19.5q41 0 137 -57.5t135 -57.5q33 0 57 24.5t52 80.5l31 -19 q-30 -91 -62.5 -139.5t-85.5 -48.5q-39 0 -91.5 28.5t-101.5 57t-79 28.5q-22 0 -38 -6.5t-32 -26t-25 -34t-29 -50.5q-6 -11 -9 -16zM215 512q0 -240 78.5 -361.5t204.5 -121.5q125 0 203.5 123.5t78.5 359.5q0 241 -78 362t-204 121q-127 0 -205 -121t-78 -362z" />
<glyph unicode="&#xf6;" d="M80 512q0 141 49 261t146 195.5t223 75.5t222.5 -75.5t145.5 -195.5t49 -261t-49 -261t-145.5 -195.5t-222.5 -75.5t-223 75.5t-146 195.5t-49 261zM215 512q0 -240 78.5 -361.5t204.5 -121.5q125 0 203.5 123.5t78.5 359.5q0 241 -78 362t-204 121q-127 0 -205 -121 t-78 -362zM244 1286q0 35 22 57.5t56 22.5q33 0 55 -22.5t22 -57.5q0 -36 -22 -59t-55 -23q-34 0 -56 23t-22 59zM596 1286q0 35 22 57.5t56 22.5q33 0 55.5 -22.5t22.5 -57.5q0 -36 -22.5 -59t-55.5 -23q-34 0 -56 23t-22 59z" />
<glyph unicode="&#xf7;" horiz-adv-x="1003" d="M176 516v53h651v-53h-651zM424 240q0 35 23 60.5t57 25.5q32 0 56 -25.5t24 -60.5q0 -37 -24 -63.5t-56 -26.5q-34 0 -57 26.5t-23 63.5zM424 848q0 36 23.5 62t56.5 26q32 0 56 -26.5t24 -61.5q0 -36 -23.5 -62t-56.5 -26q-34 0 -57 25.5t-23 62.5z" />
<glyph unicode="&#xf8;" d="M80 512q0 141 49 261t146 195.5t223 75.5q121 0 217 -71l57 110l41 -24l-61 -117q78 -75 120.5 -188.5t42.5 -241.5q0 -141 -49 -261t-145.5 -195.5t-222.5 -75.5q-115 0 -209 65l-53 -104l-43 24l57 111q-81 73 -125.5 188.5t-44.5 247.5zM215 512q0 -229 76 -358 l389 751q-72 90 -182 90q-127 0 -205 -121t-78 -362zM322 111q73 -82 176 -82q125 0 203.5 123.5t78.5 359.5q0 223 -71 346z" />
<glyph unicode="&#xf9;" horiz-adv-x="1073" d="M33 967v41l289 36l12 -16q-12 -62 -12 -170v-545q0 -114 38 -176.5t132 -62.5q64 0 116.5 40.5t84.5 105t49.5 138t17.5 144.5v424q0 22 -7.5 31.5t-27.5 9.5h-164v41l322 36l16 -16q-14 -57 -14 -170v-754q0 -48 35 -51l131 -10v-43q-184 -20 -215 -20q-76 0 -76 75v217 h-2q-100 -292 -330 -292q-100 0 -165.5 76.5t-65.5 234.5v635q0 22 -7.5 31.5t-27.5 9.5h-129zM199 1303q2 33 33 45.5t63 -11.5l237 -186l-14 -27l-274 117q-45 20 -45 62z" />
<glyph unicode="&#xfa;" horiz-adv-x="1073" d="M33 967v41l289 36l12 -16q-12 -62 -12 -170v-545q0 -114 38 -176.5t132 -62.5q64 0 116.5 40.5t84.5 105t49.5 138t17.5 144.5v424q0 22 -7.5 31.5t-27.5 9.5h-164v41l322 36l16 -16q-14 -57 -14 -170v-754q0 -48 35 -51l131 -10v-43q-184 -20 -215 -20q-76 0 -76 75v217 h-2q-100 -292 -330 -292q-100 0 -165.5 76.5t-65.5 234.5v635q0 22 -7.5 31.5t-27.5 9.5h-129zM438 1151l240 186q31 24 61.5 11.5t32.5 -45.5q2 -42 -43 -62l-274 -117z" />
<glyph unicode="&#xfb;" horiz-adv-x="1073" d="M33 967v41l289 36l12 -16q-12 -62 -12 -170v-545q0 -114 38 -176.5t132 -62.5q64 0 116.5 40.5t84.5 105t49.5 138t17.5 144.5v424q0 22 -7.5 31.5t-27.5 9.5h-164v41l322 36l16 -16q-14 -57 -14 -170v-754q0 -48 35 -51l131 -10v-43q-184 -20 -215 -20q-76 0 -76 75v217 h-2q-100 -292 -330 -292q-100 0 -165.5 76.5t-65.5 234.5v635q0 22 -7.5 31.5t-27.5 9.5h-129zM295 1126l227 336h31l227 -336h-47l-196 220l-197 -220h-45z" />
<glyph unicode="&#xfc;" horiz-adv-x="1073" d="M33 967v41l289 36l12 -16q-12 -62 -12 -170v-545q0 -114 38 -176.5t132 -62.5q64 0 116.5 40.5t84.5 105t49.5 138t17.5 144.5v424q0 22 -7.5 31.5t-27.5 9.5h-164v41l322 36l16 -16q-14 -57 -14 -170v-754q0 -48 35 -51l131 -10v-43q-184 -20 -215 -20q-76 0 -76 75v217 h-2q-100 -292 -330 -292q-100 0 -165.5 76.5t-65.5 234.5v635q0 22 -7.5 31.5t-27.5 9.5h-129zM283 1286q0 35 21.5 57.5t55.5 22.5q33 0 55.5 -22.5t22.5 -57.5q0 -36 -22.5 -59t-55.5 -23q-34 0 -55.5 22.5t-21.5 59.5zM635 1286q0 35 22 57.5t56 22.5q33 0 55.5 -22.5 t22.5 -57.5q0 -36 -22.5 -59t-55.5 -23q-34 0 -56 23t-22 59z" />
<glyph unicode="&#xfd;" horiz-adv-x="1048" d="M33 981v43h432v-43l-107 -10q-26 -1 -35 -19t-1 -43l262 -786h4l217 782q15 52 -41 62l-94 14v43h346v-43l-86 -14q-57 -11 -72 -64l-258 -915q-21 -71 -37 -117.5t-45 -105t-61 -93t-80 -58.5t-107 -24q-51 0 -94 21t-43 61q0 36 30.5 47.5t61.5 -12.5q68 -37 107 -37 q67 1 112 61.5t80 194.5l-344 989q-19 50 -59 56zM545 1151l239 186q31 24 62 11.5t33 -45.5q2 -42 -43 -62l-275 -117z" />
<glyph unicode="&#xfe;" horiz-adv-x="1048" d="M33 -367l129 11q35 5 35 51v1640q0 22 -7.5 31.5t-27.5 9.5h-129v41l289 37l12 -16q-12 -47 -12 -164v-436h4q22 61 56.5 104t74 64t73.5 29.5t68 8.5q173 0 272 -142t99 -390q0 -232 -111.5 -382t-288.5 -150q-133 0 -245 79h-2v-364q0 -24 7.5 -36t26.5 -15l164 -11 v-43h-487v43zM322 117q107 -74 219 -74q60 0 111.5 27.5t92.5 82t65 147t24 212.5q0 238 -70.5 351.5t-192.5 113.5q-110 0 -179.5 -98t-69.5 -258v-504z" />
<glyph unicode="&#xff;" horiz-adv-x="1048" d="M33 981v43h432v-43l-107 -10q-26 -1 -35 -19t-1 -43l262 -786h4l217 782q15 52 -41 62l-94 14v43h346v-43l-86 -14q-57 -11 -72 -64l-258 -915q-21 -71 -37 -117.5t-45 -105t-61 -93t-80 -58.5t-107 -24q-51 0 -94 21t-43 61q0 36 30.5 47.5t61.5 -12.5q68 -37 107 -37 q67 1 112 61.5t80 194.5l-344 989q-19 50 -59 56zM322 1286q0 35 21.5 57.5t55.5 22.5q33 0 55.5 -22.5t22.5 -57.5q0 -36 -22.5 -59t-55.5 -23q-34 0 -55.5 22.5t-21.5 59.5zM674 1286q0 35 22 57.5t56 22.5q33 0 55 -22.5t22 -57.5q0 -36 -22 -59t-55 -23q-34 0 -56 23 t-22 59z" />
<glyph unicode="&#x152;" horiz-adv-x="1701" d="M98 696q0 321 161.5 519t420.5 198q76 0 131 -20h791v-320h-39l-58 227q-11 39 -53 39h-438v-606h250q45 0 53 39l35 174h39v-479h-39l-35 174q-8 39 -53 39h-250v-627h465q39 0 53 39l84 227h39l-35 -319h-809q-55 -20 -131 -20q-259 0 -420.5 197.5t-161.5 518.5z M246 696q0 -160 34 -288.5t93 -210t137.5 -125t169.5 -43.5q109 0 154 68.5t45 189.5v817q0 260 -199 260q-91 0 -169.5 -43.5t-137.5 -125.5t-93 -210.5t-34 -288.5z" />
<glyph unicode="&#x153;" horiz-adv-x="1642" d="M80 512q0 141 49.5 261t147 195.5t223.5 75.5q119 0 210 -66.5t146 -180.5q58 117 157.5 182t213.5 65q55 0 105.5 -15t97 -50.5t78.5 -88t46 -133.5t2 -182h-634q-10 -244 90 -380t260 -136q134 0 250 125l22 -34q-51 -75 -133 -122.5t-190 -47.5q-124 0 -218.5 64.5 t-148.5 178.5q-55 -112 -146 -177.5t-208 -65.5q-126 0 -223.5 75.5t-147 195.5t-49.5 261zM215 512q0 -240 79.5 -361.5t205.5 -121.5q124 0 206 124t82 359q0 239 -81 361t-207 122q-127 0 -206 -121t-79 -362zM926 627h514q17 174 -43.5 271t-173.5 97 q-115 0 -199 -104.5t-98 -263.5z" />
<glyph unicode="&#x178;" horiz-adv-x="1243" d="M29 1350v43h446v-43l-94 -11q-26 -4 -34 -25.5t3 -41.5l314 -678h2l309 674q10 25 1 42.5t-34 22.5l-117 17v43h392v-43l-111 -17q-51 -9 -76 -67l-340 -742v-420q0 -46 35 -51l133 -10v-43h-473v43l133 10q35 5 35 51v400l-356 772q-27 58 -66 61zM397 1655 q0 35 22 57.5t56 22.5q33 0 55.5 -22.5t22.5 -57.5q0 -36 -22.5 -59t-55.5 -23q-34 0 -56 23t-22 59zM750 1655q0 35 21.5 57.5t55.5 22.5q33 0 55.5 -22.5t22.5 -57.5q0 -36 -22.5 -59t-55.5 -23q-34 0 -55.5 22.5t-21.5 59.5z" />
<glyph unicode="&#x2c6;" horiz-adv-x="827" d="M172 1126l227 336h31l227 -336h-47l-196 220l-197 -220h-45z" />
<glyph unicode="&#x2dc;" horiz-adv-x="929" d="M172 1182q15 45 29 76.5t35.5 67.5t49 55.5t60.5 19.5q27 0 66 -18t71.5 -39.5t70.5 -39.5t64 -18q34 0 57.5 24.5t51.5 80.5l31 -19q-30 -91 -62.5 -139.5t-85.5 -48.5q-39 0 -91.5 28.5t-101.5 57t-79 28.5q-22 0 -38 -6.5t-32 -26t-25 -34t-29 -50.5q-6 -11 -9 -16z " />
<glyph unicode="&#x2000;" horiz-adv-x="916" />
<glyph unicode="&#x2001;" horiz-adv-x="1833" />
<glyph unicode="&#x2002;" horiz-adv-x="916" />
<glyph unicode="&#x2003;" horiz-adv-x="1833" />
<glyph unicode="&#x2004;" horiz-adv-x="611" />
<glyph unicode="&#x2005;" horiz-adv-x="458" />
<glyph unicode="&#x2006;" horiz-adv-x="305" />
<glyph unicode="&#x2007;" horiz-adv-x="305" />
<glyph unicode="&#x2008;" horiz-adv-x="229" />
<glyph unicode="&#x2009;" horiz-adv-x="366" />
<glyph unicode="&#x200a;" horiz-adv-x="101" />
<glyph unicode="&#x2010;" horiz-adv-x="968" d="M176 516v53h617v-53h-617z" />
<glyph unicode="&#x2011;" horiz-adv-x="968" d="M176 516v53h617v-53h-617z" />
<glyph unicode="&#x2012;" horiz-adv-x="968" d="M176 516v53h617v-53h-617z" />
<glyph unicode="&#x2013;" horiz-adv-x="1144" d="M176 516v53h793v-53h-793z" />
<glyph unicode="&#x2014;" horiz-adv-x="1320" d="M176 516v53h969v-53h-969z" />
<glyph unicode="&#x2018;" horiz-adv-x="536" d="M162 1128q0 59 18.5 112t49 90.5t60 62t60.5 41.5l21 -35q-57 -33 -98.5 -85.5t-41.5 -109.5q0 -71 60 -71q37 0 58.5 -25t21.5 -61t-22.5 -63.5t-61.5 -27.5q-35 0 -61.5 19t-39 48t-18.5 55.5t-6 49.5z" />
<glyph unicode="&#x2019;" horiz-adv-x="536" d="M166 989q57 35 98 87.5t41 109.5q0 30 -14.5 50.5t-44.5 20.5q-37 0 -58.5 25t-21.5 61t22.5 63.5t61.5 27.5q35 0 61 -19t39 -48t19 -56t6 -51q0 -59 -19 -112t-49.5 -90t-60 -61.5t-60.5 -40.5z" />
<glyph unicode="&#x201a;" horiz-adv-x="536" d="M166 102q0 36 22.5 63.5t61.5 27.5q35 0 61.5 -19t39 -48t18.5 -56t6 -50q0 -60 -18.5 -113t-49.5 -90t-60.5 -61t-60.5 -41l-20 33q57 35 98 87.5t41 109.5q0 31 -14.5 51t-44.5 20q-37 0 -58.5 25t-21.5 61z" />
<glyph unicode="&#x201c;" horiz-adv-x="888" d="M162 1128q0 59 18.5 112t49 90.5t60 62t60.5 41.5l21 -35q-57 -33 -98.5 -85.5t-41.5 -109.5q0 -71 60 -71q37 0 58.5 -25t21.5 -61t-22.5 -63.5t-61.5 -27.5q-35 0 -61.5 19t-39 48t-18.5 55.5t-6 49.5zM514 1128q0 59 18.5 112t49 90.5t60 62t60.5 41.5l21 -35 q-57 -33 -98 -85.5t-41 -109.5q0 -71 59 -71q37 0 58.5 -25t21.5 -61t-22.5 -63.5t-61.5 -27.5q-35 0 -61.5 19t-39 48t-18.5 55.5t-6 49.5z" />
<glyph unicode="&#x201d;" horiz-adv-x="888" d="M166 989q57 35 98 87.5t41 109.5q0 30 -14.5 50.5t-44.5 20.5q-37 0 -58.5 25t-21.5 61t22.5 63.5t61.5 27.5q35 0 61 -19t39 -48t19 -56t6 -51q0 -59 -19 -112t-49.5 -90t-60 -61.5t-60.5 -40.5zM518 989q57 35 98 87.5t41 109.5q0 30 -14.5 50.5t-44.5 20.5 q-37 0 -58.5 25t-21.5 61t22.5 63.5t61.5 27.5q35 0 61 -19t39 -48t19 -56t6 -51q0 -59 -18.5 -112t-49 -90t-60 -61.5t-60.5 -40.5z" />
<glyph unicode="&#x201e;" horiz-adv-x="888" d="M166 102q0 36 22.5 63.5t61.5 27.5q35 0 61.5 -19t39 -48t18.5 -56t6 -50q0 -60 -18.5 -113t-49.5 -90t-60.5 -61t-60.5 -41l-20 33q57 35 98 87.5t41 109.5q0 31 -14.5 51t-44.5 20q-37 0 -58.5 25t-21.5 61zM518 102q0 36 22.5 63.5t61.5 27.5q35 0 61.5 -19t39 -48 t18.5 -56t6 -50q0 -60 -18.5 -113t-49 -90t-60 -61t-60.5 -41l-21 33q57 35 98 87.5t41 109.5q0 31 -14.5 51t-44.5 20q-37 0 -58.5 25t-21.5 61z" />
<glyph unicode="&#x2022;" horiz-adv-x="698" d="M176 475q0 85 50 144t122 59q73 0 124.5 -59t51.5 -144t-51 -143t-125 -58q-72 0 -122 58t-50 143z" />
<glyph unicode="&#x2026;" horiz-adv-x="1181" d="M160 68q0 37 23 62.5t57 25.5q32 0 55.5 -25.5t23.5 -62.5t-23.5 -62.5t-55.5 -25.5q-34 0 -57 25.5t-23 62.5zM512 68q0 37 23 62.5t57 25.5q33 0 56.5 -26t23.5 -62t-23.5 -62t-56.5 -26q-34 0 -57 25.5t-23 62.5zM864 68q0 37 23 62.5t57 25.5q33 0 56.5 -26t23.5 -62 t-23.5 -62t-56.5 -26q-34 0 -57 25.5t-23 62.5z" />
<glyph unicode="&#x202f;" horiz-adv-x="366" />
<glyph unicode="&#x2039;" horiz-adv-x="768" d="M176 530v45l389 377l27 -37l-297 -362l297 -363l-27 -36z" />
<glyph unicode="&#x203a;" horiz-adv-x="768" d="M176 190l297 363l-297 362l25 37l391 -377v-45l-391 -376z" />
<glyph unicode="&#x205f;" horiz-adv-x="458" />
<glyph unicode="&#x20ac;" horiz-adv-x="1308" d="M70 526v54h106q-6 55 -6 116q0 58 6 117h-106v53h114q43 245 198.5 396t365.5 151q218 0 393 -106v-316h-39q-12 90 -37.5 157.5t-57.5 108t-75.5 65t-86 33.5t-93.5 9q-160 0 -275.5 -129.5t-148.5 -368.5h358v-53h-364q-5 -92 -5 -117q0 -70 5 -116h364v-54h-358 q31 -238 144.5 -364.5t270.5 -126.5q134 0 239 93.5t144 293.5l48 -12q-23 -120 -69 -207t-107.5 -134t-126.5 -68t-138 -21q-211 0 -360 149t-191 397h-112z" />
<glyph unicode="&#x2122;" horiz-adv-x="1308" d="M80 1247v146h436v-146h-16l-27 103q-5 18 -24 18h-121v-555q0 -22 16 -25l59 -4v-18h-213v18l62 4q14 3 14 25v555h-119q-19 0 -24 -16l-25 -105h-18zM592 766v18l59 9q19 3 19 24v529q0 22 -17 22l-61 4v21h145l178 -519l172 519h142v-21l-60 -4q-18 -3 -18 -22v-533 q0 -22 18 -25l60 -4v-18h-213v18l59 4q17 3 17 25v514l-187 -567h-14l-197 567v-510q0 -21 17 -24l63 -9v-18h-182z" />
<glyph unicode="&#x25fc;" horiz-adv-x="1024" d="M0 0v1024h1024v-1024h-1024z" />
</font>
</defs>
</svg>
