<?xml version="1.0" standalone="no"?>
<!DOCTYPE svg PUBLIC "-//W3C//DTD SVG 1.1//EN" "http://www.w3.org/Graphics/SVG/1.1/DTD/svg11.dtd" >
<svg xmlns="http://www.w3.org/2000/svg">
<metadata></metadata>
<defs>
<font id="velino_condensed_textbook" horiz-adv-x="978" >
<font-face units-per-em="2048" ascent="1536" descent="-512" />
<missing-glyph horiz-adv-x="419" />
<glyph unicode="&#xfb01;" horiz-adv-x="1138" d="M51 0v53l113 13q35 5 35 51v841h-133v46l133 20v74q0 79 23.5 148t70 126t126 90t183.5 33q140 0 223.5 -56t83.5 -122q0 -38 -25.5 -62t-56.5 -24q-32 0 -58 20.5t-45.5 49.5t-41.5 58.5t-57.5 50t-81.5 20.5q-172 0 -172 -254v-152h323l275 20l14 -16q-14 -57 -14 -172 v-739q0 -45 35 -51l112 -13v-53h-467v53l113 13q35 5 35 51v801q0 23 -7.5 31.5t-27.5 8.5h-391v-841q0 -48 35 -51l165 -13v-53h-520z" />
<glyph unicode="&#xfb02;" horiz-adv-x="1138" d="M51 0v53l113 13q35 5 35 51v841h-133v46l133 20v74q0 80 21.5 148.5t65.5 125.5t121 90t179 33q90 0 167 -29.5t119 -58.5l97 47l14 -16q-14 -57 -14 -172v-1149q0 -45 35 -51l112 -13v-53h-467v53l113 13q35 5 35 51v1114q-13 26 -22.5 42.5t-34 49.5t-49.5 53.5 t-64.5 37t-83.5 16.5q-172 0 -172 -254v-152h223v-66h-223v-841q0 -48 35 -51l165 -13v-53h-520z" />
<glyph unicode="&#xfb03;" horiz-adv-x="1757" d="M51 0v53l113 13q35 5 35 51v841h-133v46l133 20v70q0 160 92 260t248 100q71 0 125.5 -25t54.5 -77q0 -34 -19 -52t-47 -18q-33 0 -66.5 23.5t-63 47.5t-52.5 25q-100 0 -100 -161v-193h446v74q0 79 23.5 148t70.5 126t126.5 90t183.5 33q140 0 223.5 -56t83.5 -122 q0 -38 -25.5 -62t-56.5 -24q-32 0 -58 20.5t-46 49.5t-41.5 58.5t-57.5 50t-82 20.5q-172 0 -172 -254v-152h324l274 20l15 -16q-15 -61 -15 -172v-739q0 -45 35 -51l115 -13v-53h-469v53l112 13q37 5 37 51v801q0 23 -8 31.5t-29 8.5h-391v-841q0 -48 35 -51l166 -13v-53 h-520v53l112 13q35 5 35 51v841h-446v-841q0 -48 35 -51l165 -13v-53h-520z" />
<glyph unicode="&#xfb04;" horiz-adv-x="1757" d="M51 0v53l113 13q35 5 35 51v841h-133v46l133 20v70q0 160 92 260t248 100q71 0 125.5 -25t54.5 -77q0 -34 -19 -52t-47 -18q-33 0 -66.5 23.5t-63 47.5t-52.5 25q-100 0 -100 -161v-193h446v74q0 80 21.5 148.5t65.5 125.5t121 90t179 33q63 0 128.5 -18.5t100.5 -36 t58 -33.5l96 47l15 -16q-15 -62 -15 -172v-1149q0 -45 35 -51l115 -13v-53h-469v53l112 13q37 5 37 51v1114q-49 89 -92 130q-72 69 -164 69q-172 0 -172 -254v-152h223v-66h-223v-841q0 -48 35 -51l166 -13v-53h-520v53l112 13q35 5 35 51v841h-446v-841q0 -48 35 -51 l165 -13v-53h-520z" />
<glyph horiz-adv-x="0" />
<glyph horiz-adv-x="682" />
<glyph unicode=" "  horiz-adv-x="419" />
<glyph unicode="&#x09;" horiz-adv-x="419" />
<glyph unicode="&#xa0;" horiz-adv-x="419" />
<glyph unicode="!" horiz-adv-x="485" d="M143 1303q-3 45 22.5 77.5t78.5 32.5q52 0 77.5 -32.5t20.5 -77.5l-76 -963h-47zM147 84q0 41 28.5 71.5t68.5 30.5q38 0 66 -30.5t28 -71.5q0 -43 -28 -73.5t-66 -30.5q-40 0 -68.5 30.5t-28.5 73.5z" />
<glyph unicode="&#x22;" horiz-adv-x="868" d="M170 1393h172l-63 -471h-46zM526 1393h172l-63 -471h-45z" />
<glyph unicode="#" horiz-adv-x="1157" d="M178 369v61h246v225h-246v62h246v289h59v-289h191v289h59v-289h246v-62h-246v-225h246v-61h-246v-289h-59v289h-191v-289h-59v289h-246zM483 430h191v225h-191v-225z" />
<glyph unicode="$" horiz-adv-x="1062" d="M123 434h49q45 -141 96.5 -227.5t103.5 -123t117 -42.5l17 594q-135 78 -168 101q-134 94 -168 214q-14 49 -14 105q0 152 102.5 253t271.5 105l5 123h40l-4 -123q52 -2 98 -12t89 -29t66.5 -31.5t64.5 -37.5v-324h-49q-38 190 -105 276t-166 95l-14 -516q18 -11 65 -40 t68.5 -43t62 -43t61.5 -50t49.5 -54t42 -63.5t24 -71t10.5 -84.5q0 -181 -114.5 -290.5t-293.5 -114.5l-4 -123h-43l4 123q-73 3 -139 22t-100 37t-86 51zM328 1135q0 -87 48.5 -151t137.5 -124l14 492q-91 -3 -145.5 -64.5t-54.5 -152.5zM532 41q109 3 173.5 70t64.5 182 q0 58 -17 106.5t-50 86.5t-68 65.5t-86 58.5z" />
<glyph unicode="%" horiz-adv-x="1722" d="M164 1085q0 134 72 227t188 93q115 0 188.5 -93.5t73.5 -226.5t-73.5 -226t-188.5 -93q-116 0 -188 92.5t-72 226.5zM270 1085q0 -140 42 -211t112 -71t110.5 72.5t40.5 209.5q0 140 -41 211.5t-110 71.5q-70 0 -112 -71.5t-42 -211.5zM641 -41l375 1475h55l-373 -1475 h-57zM1036 299q0 134 72 226.5t188 92.5t189.5 -92.5t73.5 -226.5t-73.5 -226.5t-189.5 -92.5t-188 92.5t-72 226.5zM1145 299q0 -140 41 -211.5t110 -71.5q70 0 112 73t42 210q0 139 -42.5 211t-111.5 72q-70 0 -110.5 -71.5t-40.5 -211.5z" />
<glyph unicode="&#x26;" horiz-adv-x="1290" d="M90 330q0 246 287 411q-32 47 -41.5 61t-38 62.5t-40 78.5t-23 76.5t-11.5 90.5q0 128 84.5 215.5t224.5 87.5q124 0 202.5 -70.5t78.5 -199.5q0 -227 -252 -363l318 -436q68 131 114 326q17 67 -49 78l-94 18v53h389v-53l-98 -21q-39 -8 -59.5 -26t-30.5 -57 q-47 -215 -133 -369l114 -156q29 -37 55 -53.5t66 -20.5l84 -10v-53q-147 -14 -221 -14q-58 0 -91.5 18t-64.5 57l-55 78q-153 -159 -363 -159q-157 0 -254.5 97.5t-97.5 252.5zM256 365q0 -128 71 -208.5t189 -80.5q144 0 252 114l-354 504q-90 -71 -124 -151.5t-34 -177.5 zM377 1165q0 -81 39 -162t110 -178q91 65 128.5 143t37.5 185q0 83 -39.5 141t-117.5 58q-74 0 -116 -56t-42 -131z" />
<glyph unicode="'" horiz-adv-x="512" d="M170 1393h172l-63 -471h-46z" />
<glyph unicode="(" horiz-adv-x="694" d="M215 696q0 261 89 481.5t245 378.5h59q-202 -331 -202 -860t202 -860h-59q-156 158 -245 378.5t-89 481.5z" />
<glyph unicode=")" horiz-adv-x="694" d="M84 -164q205 331 205 860t-205 860h61q155 -158 244.5 -379t89.5 -481t-89.5 -481t-244.5 -379h-61z" />
<glyph unicode="*" horiz-adv-x="788" d="M143 1122q0 23 12 39.5t31 16.5q6 0 84.5 -21.5t106.5 -23.5q-31 19 -93 64.5t-71 55.5q-13 15 -12.5 37t14.5 37q12 15 31.5 17t34.5 -13q5 -7 24.5 -43.5t43 -82t34.5 -64.5q-2 30 -19.5 121.5t-17.5 101.5q0 21 14 35t33 14q21 0 35 -14t14 -35q0 -10 -18 -103 t-21 -120q10 16 34 61.5t44.5 83.5t26.5 45q14 15 32.5 14t30.5 -16q14 -16 15 -37t-13 -39q-17 -22 -163 -123q29 3 106 25.5t84 22.5q18 0 31.5 -17t13.5 -39t-13 -37.5t-32 -15.5q-7 0 -84 19t-104 22q143 -99 161 -117q12 -15 11 -37t-13 -36q-14 -16 -33 -17.5 t-32 15.5q-6 6 -25.5 41t-43.5 79.5t-34 61.5q3 -26 21 -115t18 -98q0 -22 -14.5 -36.5t-34.5 -14.5q-19 0 -33 15t-14 36q0 7 17.5 96.5t19.5 118.5q-9 -16 -32.5 -61t-43.5 -82.5t-24 -43.5q-14 -15 -34 -12.5t-34 17.5q-12 15 -12.5 36.5t12.5 36.5q13 18 160 117 q-27 -3 -104.5 -22t-84.5 -19q-20 0 -31.5 15t-11.5 38z" />
<glyph unicode="+" d="M178 512v61h283v328h59v-328h281v-61h-281v-328h-59v328h-283z" />
<glyph unicode="," horiz-adv-x="542" d="M156 109q0 40 26 71t72 31q35 0 62.5 -18t42.5 -46.5t22.5 -57.5t7.5 -56q0 -62 -20 -117.5t-52 -94t-64 -64.5t-65 -44l-24 41q57 35 98 86t41 105q0 67 -59 67q-39 0 -63.5 29t-24.5 68z" />
<glyph unicode="-" d="M178 512v61h623v-61h-623z" />
<glyph unicode="." horiz-adv-x="483" d="M147 84q0 41 28.5 71.5t66.5 30.5t67 -30.5t29 -71.5q0 -42 -28.5 -73t-67.5 -31q-38 0 -66.5 30.5t-28.5 73.5z" />
<glyph unicode="/" horiz-adv-x="784" d="M176 -41l375 1475h55l-373 -1475h-57z" />
<glyph unicode="0" horiz-adv-x="1085" d="M115 696q0 322 119 519.5t309 197.5q189 0 308.5 -197.5t119.5 -519.5q0 -323 -119.5 -519.5t-308.5 -196.5q-190 0 -309 196.5t-119 519.5zM305 696q0 -655 238 -655q124 0 180.5 167t56.5 488q0 656 -237 656q-238 0 -238 -656z" />
<glyph unicode="1" horiz-adv-x="772" d="M80 0v53l184 13q37 3 37 51v1122q0 23 -8.5 33.5t-28.5 7.5l-174 -37l-10 57l352 103h41v-1286q0 -48 37 -51l180 -13v-53h-610z" />
<glyph unicode="2" horiz-adv-x="968" d="M70 0v53q144 114 250 227t166 205t95.5 188t46.5 167t11 151q0 101 -20 179.5t-68.5 130t-120.5 51.5q-28 0 -53 -7t-42.5 -16t-37 -26.5t-29.5 -29t-28.5 -34t-26.5 -31.5q-18 -21 -46 -22.5t-49.5 19.5t-21.5 57q0 57 97.5 104t232.5 47q87 0 157.5 -27t115 -69.5 t75 -99t43 -112.5t12.5 -112q0 -408 -567 -846v-4h481q46 0 54 37l30 144h50l-21 -324h-786z" />
<glyph unicode="3" horiz-adv-x="956" d="M82 131q0 36 21 56.5t49 19t47 -22.5q5 -6 23 -27.5t25.5 -29.5t25.5 -25.5t31 -25t32.5 -17.5t40.5 -14t45 -4q113 0 169 91.5t56 240.5t-66 243.5t-192 94.5h-43v61h35q111 0 174 82t63 219q0 129 -56.5 197.5t-155.5 68.5q-131 0 -250 -129l-37 52q131 151 321 151 q160 0 258.5 -91.5t98.5 -227.5q0 -128 -78 -222t-217 -124v-7q68 -10 127.5 -36.5t108 -69.5t76.5 -108.5t28 -145.5q0 -126 -60.5 -219t-157.5 -137.5t-216 -44.5q-135 0 -230.5 46.5t-95.5 104.5z" />
<glyph unicode="4" horiz-adv-x="995" d="M37 319v46l639 1038h86v-1014h166v-70h-166v-202q0 -48 37 -51l121 -13v-53h-488v53l121 13q35 3 35 51v202h-551zM129 389h459v752h-2z" />
<glyph unicode="5" horiz-adv-x="956" d="M82 131q0 36 21.5 56.5t49 19t44.5 -22.5q5 -5 28 -30.5t32 -34.5t32 -28.5t40 -27t43 -15t54 -7.5q111 0 168 95.5t57 244.5q0 75 -19.5 141.5t-61.5 127t-119.5 101t-182.5 50.5l-98 10l16 582h588v-144h-528l-10 -381l77 -8q145 -15 251 -59t165 -109t86 -139.5 t27 -161.5q0 -127 -59.5 -222t-156 -142t-214.5 -47q-137 0 -233.5 46.5t-96.5 104.5z" />
<glyph unicode="6" horiz-adv-x="1024" d="M115 547q0 349 177 589t492 298l13 -48q-208 -52 -337.5 -205.5t-156.5 -422.5q1 0 2 -1t2 -1q109 112 250 112q153 0 252.5 -115t99.5 -302q0 -211 -116 -341t-281 -130q-79 0 -144.5 29.5t-112 81.5t-78.5 124t-47 155.5t-15 176.5zM300.5 422q8.5 -116 32.5 -201 t70.5 -132.5t110.5 -47.5q103 0 159 103.5t56 285.5q0 163 -57 259.5t-164 96.5q-55 0 -109 -29.5t-96 -80.5q-11 -138 -2.5 -254z" />
<glyph unicode="7" horiz-adv-x="882" d="M90 1044v349h766v-41q-339 -548 -450 -1352h-191q51 279 190.5 616.5t325.5 628.5v4h-518q-48 0 -53 -37l-21 -168h-49z" />
<glyph unicode="8" horiz-adv-x="1044" d="M115 328q0 111 72.5 216.5t199.5 155.5q-221 137 -221 357q0 111 52 194t132 122.5t174 39.5q140 0 240 -90t100 -242q0 -105 -62.5 -191t-170.5 -140q158 -83 227.5 -178.5t69.5 -217.5q0 -118 -59.5 -205t-152.5 -128t-204 -41q-107 0 -195 37.5t-145 118t-57 192.5z M274 338q0 -134 68.5 -215.5t175.5 -81.5q109 0 172.5 74.5t63.5 195.5q0 116 -71 191.5t-239 163.5q-81 -54 -125.5 -142t-44.5 -186zM326 1116q0 -116 61.5 -191t190.5 -145q141 128 141 318q0 112 -55.5 183t-143.5 71t-141 -68t-53 -168z" />
<glyph unicode="9" horiz-adv-x="1024" d="M115 942q0 106 32 195t86.5 149t127 93.5t153.5 33.5q98 0 174.5 -45t124 -123.5t72 -180t24.5 -218.5q0 -350 -176 -589.5t-491 -297.5l-15 47q210 52 340.5 206t157.5 423q-1 0 -2 1t-2 1q-54 -55 -120.5 -84t-131.5 -29q-154 0 -254 115.5t-100 302.5zM293 963 q0 -163 58 -260t167 -97q54 0 110 30t97 81q12 189 -5 328.5t-70 223t-138 83.5q-104 0 -161.5 -104t-57.5 -285z" />
<glyph unicode=":" horiz-adv-x="483" d="M147 84q0 41 28.5 71.5t66.5 30.5t67 -30.5t29 -71.5q0 -42 -28.5 -73t-67.5 -31q-38 0 -66.5 30.5t-28.5 73.5zM147 737q0 41 28.5 72t66.5 31t67 -31t29 -72q0 -42 -28.5 -73t-67.5 -31q-38 0 -66.5 30.5t-28.5 73.5z" />
<glyph unicode=";" horiz-adv-x="542" d="M156 109q0 40 26 71t72 31q35 0 62.5 -18t42.5 -46.5t22.5 -57.5t7.5 -56q0 -62 -20 -117.5t-52 -94t-64 -64.5t-65 -44l-24 41q57 35 98 86t41 105q0 67 -59 67q-39 0 -63.5 29t-24.5 68zM168 737q0 42 28.5 72.5t67.5 30.5q38 0 66 -31t28 -72q0 -43 -28 -73.5 t-66 -30.5q-40 0 -68 30.5t-28 73.5z" />
<glyph unicode="&#x3c;" horiz-adv-x="856" d="M178 543v20l500 389v-69l-416 -330l416 -330v-69z" />
<glyph unicode="=" d="M178 369v61h623v-61h-623zM178 655v62h623v-62h-623z" />
<glyph unicode="&#x3e;" horiz-adv-x="856" d="M178 154v69l414 330l-414 330v69l500 -389v-20z" />
<glyph unicode="?" horiz-adv-x="880" d="M82 1262q0 58 103 104.5t253 46.5q93 0 164.5 -31.5t113 -85t62.5 -117.5t21 -135q0 -47 -8.5 -89.5t-32.5 -91t-63 -86.5t-106 -71t-155 -49l-12 -317h-51l-11 352q76 21 129.5 60t81.5 89t40 99.5t12 103.5q0 136 -52.5 222t-146.5 86q-28 0 -54 -7.5t-42.5 -14.5 t-40 -27.5t-31 -28t-32 -35t-27.5 -31.5q-18 -21 -45.5 -22.5t-48.5 19.5t-21 57zM299 84q0 41 28 71.5t66 30.5q39 0 66.5 -30t27.5 -72q0 -43 -27.5 -73.5t-66.5 -30.5q-38 0 -66 30.5t-28 73.5z" />
<glyph unicode="@" horiz-adv-x="1546" d="M143 453q0 117 32 229.5t94 209t147 170t198 115.5t240 42q118 0 218.5 -41.5t174.5 -119t116 -195.5t42 -263q0 -143 -46.5 -271.5t-128 -208t-177.5 -79.5q-69 0 -114 46.5t-50 109.5q-26 -71 -78 -113.5t-113 -42.5q-68 0 -116 43t-68.5 112t-20.5 152.5t21 167.5 q37 148 123 246t201 98q49 0 88.5 -35.5t40.5 -101.5h6l94 106h35l-90 -563q-12 -73 4 -122.5t67 -49.5q48 0 98 40t90.5 106t66.5 161t26 197q0 123 -32 223t-83.5 163t-120 105.5t-137.5 60t-141 17.5q-163 0 -295 -94t-205.5 -256.5t-73.5 -359.5q0 -163 45 -290.5 t122.5 -205t175.5 -117t210 -39.5q110 0 224.5 47t201.5 130l17 -33q-213 -197 -484 -197q-131 0 -247.5 47.5t-205.5 135t-140.5 221.5t-51.5 297zM617 304q-2 -86 25.5 -146t80.5 -60q62 0 108 64.5t60 165.5l43 284q15 102 -17 146.5t-81 44.5q-132 0 -199 -318 q-18 -95 -20 -181z" />
<glyph unicode="A" horiz-adv-x="1288" d="M25 0v53l106 23q60 11 72 67l338 1260h161l412 -1280q17 -51 60 -57l90 -13v-53h-494v53l98 13q38 6 38 38q0 11 -5 25l-110 356h-424l-91 -342q-3 -11 -3 -21q0 -36 42 -44l117 -25v-53h-407zM383 553h385l-203 668h-4z" />
<glyph unicode="B" horiz-adv-x="1126" d="M66 0v53l122 13q35 3 35 51v1159q0 48 -35 51l-122 12v54h534q194 0 299 -93t105 -247q0 -123 -81.5 -211.5t-232.5 -112.5v-4q93 -6 166.5 -40.5t116 -85t64.5 -108.5t22 -118q0 -172 -109 -272.5t-307 -100.5h-577zM414 63h180q133 0 196.5 81.5t63.5 228.5 q0 66 -15 121t-48.5 102.5t-95 74.5t-146.5 27h-135v-635zM414 762h135q136 0 193 72t57 215q0 60 -10.5 106.5t-36 88t-75.5 63.5t-122 22h-141v-567z" />
<glyph unicode="C" horiz-adv-x="1165" d="M94 696q0 205 77 369t213 256t306 92q122 0 225.5 -32.5t174.5 -77.5v-324h-48q-25 109 -59 182.5t-78.5 115t-94 58.5t-114.5 17q-181 0 -289 -172.5t-108 -483.5q0 -310 108.5 -478.5t286.5 -168.5q61 0 117 20.5t107.5 64t90.5 120.5t58 180l57 -16 q-18 -98 -52.5 -174.5t-77.5 -125.5t-96.5 -80.5t-107 -44.5t-112.5 -13q-172 0 -305.5 91.5t-206 254.5t-72.5 370z" />
<glyph unicode="D" horiz-adv-x="1347" d="M66 0v53l122 13q35 3 35 51v1159q0 48 -35 51l-122 12v54h557q289 0 459.5 -186t170.5 -511q0 -204 -77 -361.5t-220.5 -246t-332.5 -88.5h-557zM414 63h190q94 0 170 36t126.5 96.5t84.5 142.5t49 171.5t15 186.5q0 110 -16 204t-51.5 174t-88.5 136t-130.5 87.5 t-174.5 31.5h-174v-1266z" />
<glyph unicode="E" horiz-adv-x="1081" d="M66 0v53l122 13q35 3 35 51v1159q0 48 -35 51l-122 12v54h921v-332h-49l-78 231q-10 37 -53 37h-393v-590h207q46 0 53 37l49 174h47v-487h-47l-49 174q-7 37 -53 37h-207v-611h417q40 0 56 37l104 232h49l-34 -332h-940z" />
<glyph unicode="F" horiz-adv-x="1028" d="M66 0v53l122 13q35 3 35 51v1159q0 48 -35 51l-122 12v54h921v-332h-49l-76 231q-13 37 -55 37h-393v-610h207q46 0 53 37l49 174h47v-488h-47l-49 174q-7 37 -53 37h-207v-536q0 -48 35 -51l157 -13v-53h-540z" />
<glyph unicode="G" horiz-adv-x="1290" d="M94 696q0 205 77 369t213 256t306 92q122 0 225.5 -32.5t174.5 -77.5v-324h-48q-25 109 -59 182.5t-78.5 115t-94 58.5t-114.5 17q-181 0 -289 -172.5t-108 -483.5q0 -316 103.5 -485.5t283.5 -169.5q142 0 244 76v399q0 45 -35 51l-115 11v51h465v-51l-90 -11 q-35 -6 -35 -51v-516h-41l-82 61q-153 -81 -319 -81q-170 0 -303 91.5t-207 254.5t-74 370z" />
<glyph unicode="H" horiz-adv-x="1402" d="M66 0v53l122 13q35 3 35 51v1159q0 48 -35 51l-122 12v54h503v-54l-120 -12q-35 -3 -35 -51v-535h575v535q0 48 -35 51l-120 12v54h503v-54l-120 -12q-37 -3 -37 -51v-1159q0 -48 37 -51l120 -13v-53h-503v53l120 13q35 3 35 51v555h-575v-555q0 -48 35 -51l120 -13v-53 h-503z" />
<glyph unicode="I" horiz-adv-x="636" d="M66 0v53l122 13q35 3 35 51v1159q0 48 -35 51l-122 12v54h503v-54l-120 -12q-35 -3 -35 -51v-1159q0 -48 35 -51l120 -13v-53h-503z" />
<glyph unicode="J" horiz-adv-x="606" d="M51 1339v54h504v-54l-121 -12q-37 -3 -37 -51v-1208q0 -387 -321 -478l-21 41q90 54 121 143.5t31 225.5v1276q0 48 -35 51z" />
<glyph unicode="K" horiz-adv-x="1353" d="M66 0v53l122 13q35 3 35 51v1159q0 48 -35 51l-122 12v54h503v-54l-120 -12q-35 -3 -35 -51v-588l493 557q12 13 15 27.5t-4.5 26.5t-24.5 16l-115 24v54h461v-54l-106 -22q-92 -20 -150 -88l-317 -363l469 -739q36 -57 100 -64l90 -10v-53h-532v53l77 10q26 6 31 25.5 t-10 42.5l-359 590l-118 -133v-471q0 -48 35 -51l120 -13v-53h-503z" />
<glyph unicode="L" horiz-adv-x="1048" d="M66 0v53l122 13q35 3 35 51v1159q0 48 -35 51l-122 12v54h503v-54l-120 -12q-35 -3 -35 -51v-1213h401q37 0 53 37l107 232h47l-35 -332h-921z" />
<glyph unicode="M" horiz-adv-x="1579" d="M55 0v53l135 25q46 11 46 61l-3 1137q0 25 -7.5 37.5t-26.5 13.5l-144 12v54h387l367 -1057l342 1057h360v-54l-120 -12q-35 -3 -35 -51v-1159q0 -48 35 -51l120 -13v-53h-503v53l122 13q35 3 35 51v1093l-391 -1220h-43l-428 1222v-1073q0 -27 9 -41t34 -20l133 -25v-53 h-424z" />
<glyph unicode="N" horiz-adv-x="1335" d="M55 0v53l133 25q45 10 45 61v1137q0 48 -34 51l-144 12v54h385l613 -1037v895q0 52 -45 62l-136 26v54h424v-54l-131 -26q-45 -10 -45 -62v-1261h-65l-752 1261v-1112q0 -27 9 -41t34 -20l133 -25v-53h-424z" />
<glyph unicode="O" horiz-adv-x="1417" d="M94 696q0 158 49 293.5t132.5 227.5t196 144t237.5 52t237 -52t195.5 -144t132.5 -227.5t49 -293.5q0 -159 -49 -294.5t-132.5 -227t-195.5 -143t-237 -51.5t-237.5 51.5t-196 143t-132.5 227t-49 294.5zM299 696q0 -307 111.5 -481t298.5 -174q185 0 297 174.5 t112 480.5q0 305 -112.5 480.5t-296.5 175.5q-187 0 -298.5 -175t-111.5 -481z" />
<glyph unicode="P" horiz-adv-x="1114" d="M66 0v53l122 13q35 3 35 51v1159q0 48 -35 51l-122 12v54h565q103 0 185 -31t134.5 -85.5t80.5 -126t28 -153.5t-28 -153.5t-80.5 -126t-134.5 -86t-185 -31.5h-217v-483q0 -48 35 -51l157 -13v-53h-540zM414 664h166q76 0 131 26.5t85.5 74t44 104.5t13.5 128 q0 332 -274 332h-166v-665z" />
<glyph unicode="Q" horiz-adv-x="1417" d="M94 696q0 158 49 293.5t132.5 227.5t196 144t237.5 52t237 -52t195.5 -144t132.5 -227.5t49 -293.5q0 -291 -152 -484.5t-380 -225.5q1 -84 37 -144t92 -85q45 -20 101 -20q14 0 29 1q73 7 146 49l16 -47q-52 -45 -131.5 -70.5t-152.5 -25.5q-56 0 -107.5 18.5t-97.5 57 t-75 107.5t-32 161q-226 35 -374 227t-148 481zM299 696q0 -307 111.5 -481t298.5 -174q185 0 297 174.5t112 480.5q0 305 -112.5 480.5t-296.5 175.5q-187 0 -298.5 -175t-111.5 -481z" />
<glyph unicode="R" horiz-adv-x="1249" d="M66 0v53l122 13q35 3 35 51v1159q0 48 -35 51l-122 12v54h561q205 0 318.5 -103.5t113.5 -271.5q0 -158 -104 -256t-261 -109v-4q73 -17 123.5 -56.5t89.5 -131.5l144 -338q21 -51 71 -57l99 -13v-53q-143 -14 -226 -14q-38 0 -65 8t-43.5 24t-25 31t-17.5 39l-180 444 q-23 59 -49.5 80t-77.5 21h-123v-516q0 -48 35 -51l157 -13v-53h-540zM414 696h166q76 0 131 25.5t85.5 71.5t44 100.5t13.5 122.5q0 65 -13.5 118.5t-44 99t-85.5 70.5t-131 25h-166v-633z" />
<glyph unicode="S" d="M82 434h49q36 -115 76 -193t84 -121t89 -61t99 -18q114 0 181 66.5t67 185.5q0 56 -18 105t-43 82.5t-67 66t-75 51.5t-82 43q-73 36 -127 73t-102 87t-73 114t-25 140q0 155 106 256.5t281 101.5q76 0 146 -19t108 -38.5t90 -52.5v-324h-47q-29 140 -74.5 224 t-100 116.5t-128.5 32.5q-95 0 -152 -61.5t-57 -155.5q0 -102 66.5 -177.5t217.5 -148.5q67 -32 123 -72t103 -92.5t73.5 -119t26.5 -140.5q0 -184 -119 -294.5t-303 -110.5q-62 0 -115.5 9t-98.5 27.5t-73.5 34t-66.5 39.5z" />
<glyph unicode="T" horiz-adv-x="1075" d="M41 1061v332h993v-332h-49l-78 231q-10 37 -53 37h-221v-1212q0 -48 35 -51l123 -13v-53h-504v53l121 13q34 3 34 51v1212h-223q-40 0 -53 -37l-76 -231h-49z" />
<glyph unicode="U" horiz-adv-x="1363" d="M51 1339v54h504v-54l-121 -12q-37 -3 -37 -51v-774q0 -223 80 -331t252 -108q160 0 252 117t92 342v727q0 26 -9 41.5t-36 22.5l-135 26v54h432v-54l-139 -26q-45 -12 -45 -64v-725q0 -262 -121 -403t-344 -141q-237 0 -353 141t-116 405v750q0 48 -35 51z" />
<glyph unicode="V" horiz-adv-x="1306" d="M25 1339v54h493v-54l-98 -12q-38 -6 -38 -38q0 -11 5 -25l342 -1096h4l299 1081q2 10 2 18q0 39 -41 48l-119 24v54h408v-54l-106 -22q-57 -10 -72 -68l-350 -1259h-162l-418 1280q-17 51 -59 57z" />
<glyph unicode="W" horiz-adv-x="1908" d="M25 1339v54h495v-52l-96 -14q-39 -6 -39 -41q0 -11 4 -24l303 -1063h2l250 860l-61 211q-13 50 -58 57l-84 12v54h488v-54l-96 -12q-39 -6 -39 -44q0 -9 2 -21l270 -1063h4l264 1050q2 11 2 19q0 39 -43 47l-127 24v54h418v-54l-110 -24q-58 -11 -74 -68l-318 -1257h-155 l-250 954l-277 -954h-147l-379 1278q-14 53 -57 59z" />
<glyph unicode="X" horiz-adv-x="1304" d="M29 0v53l110 23q62 15 103 82l315 532l-313 576q-28 55 -80 61l-92 12v54h508v-54l-72 -12q-41 -6 -41 -34q0 -12 8 -29l230 -430l256 411q14 22 4 44t-39 28l-99 22v54h408v-54l-109 -26q-53 -11 -94 -76l-291 -471l367 -641q29 -53 76 -62l92 -10v-53h-504v53l72 13 q41 6 41 34q0 12 -8 29l-281 494l-281 -473q-15 -25 -5.5 -47t40.5 -29l94 -21v-53h-415z" />
<glyph unicode="Y" horiz-adv-x="1269" d="M25 1339v54h487v-54l-84 -10q-27 -6 -34.5 -29t3.5 -43l299 -641h4l283 631q10 26 0.5 44t-35.5 24l-114 24v54h411v-54l-115 -24q-51 -12 -77 -70l-324 -721v-407q0 -48 37 -51l121 -13v-53h-504v53l121 13q35 3 35 51v391l-355 754q-26 58 -63 63z" />
<glyph unicode="Z" horiz-adv-x="1052" d="M41 0v41l713 1284v4h-496q-43 0 -53 -37l-78 -231h-49v332h909v-41l-715 -1289h531q37 0 53 37l107 232h49l-37 -332h-934z" />
<glyph unicode="[" horiz-adv-x="692" d="M225 -164v1720h379v-65h-188v-1589h188v-66h-379z" />
<glyph unicode="\" horiz-adv-x="784" d="M176 1434h57l373 -1475h-55z" />
<glyph unicode="]" horiz-adv-x="692" d="M90 -98h189v1589h-189v65h379v-1720h-379v66z" />
<glyph unicode="^" horiz-adv-x="837" d="M170 717l225 344h47l226 -344h-58l-190 203l-193 -203h-57z" />
<glyph unicode="_" horiz-adv-x="1157" d="M178 -90h801v-62h-801v62z" />
<glyph unicode="`" horiz-adv-x="677" d="M166 1307q2 39 40.5 54t72.5 -13l233 -195l-18 -33l-273 113q-57 21 -55 74z" />
<glyph unicode="a" horiz-adv-x="942" d="M72 223q0 115 68 187t218 116l242 72v139q0 89 -48 145t-138 56q-126 0 -254 -94l-27 35q44 58 133.5 111.5t208.5 53.5q132 0 213.5 -74t81.5 -206v-649q0 -49 37 -52l115 -10v-53q-204 -20 -238 -20q-84 0 -84 77v136h-4q-37 -109 -111.5 -161t-173.5 -52 q-110 0 -174.5 69.5t-64.5 173.5zM256 258q0 -81 35.5 -123.5t103.5 -42.5q91 0 148 84.5t57 216.5v148l-180 -62q-164 -60 -164 -221z" />
<glyph unicode="b" horiz-adv-x="1044" d="M8 1356v53l320 45l14 -16q-14 -57 -14 -160v-438h4q22 60 55.5 102.5t72.5 63t73 29.5t69 9q174 0 272.5 -141.5t98.5 -390.5q0 -232 -111.5 -382t-288.5 -150q-131 0 -241 79h-4l-135 -79h-35v1335q0 23 -8 32t-27 9h-115zM328 125q92 -62 196 -62q115 0 189.5 109.5 t74.5 339.5q0 438 -235 438q-95 0 -160 -88.5t-65 -245.5v-491z" />
<glyph unicode="c" horiz-adv-x="907" d="M72 510q0 126 39.5 229.5t105.5 168.5t148 100.5t170 35.5q133 0 223 -46.5t90 -106.5q0 -36 -21.5 -56.5t-49 -19t-44.5 22.5q-12 13 -39 47t-43.5 50t-49.5 32t-73 16q-88 0 -151.5 -61.5t-92 -154.5t-28.5 -206q0 -234 87 -355.5t239 -121.5q124 0 243 119l27 -39 q-51 -77 -138 -130.5t-202 -53.5q-200 0 -320 148t-120 382z" />
<glyph unicode="d" horiz-adv-x="1060" d="M72 512q0 232 112 382t289 150q135 0 242 -79h4v350q0 23 -8 32t-27 9h-115v53l320 45l16 -16q-16 -66 -16 -172v-1151q0 -49 37 -52l114 -10v-53q-192 -20 -237 -20q-84 0 -84 77v129h-4q-21 -60 -55 -103t-72.5 -64t-73 -30t-68.5 -9q-175 0 -274.5 141.5t-99.5 390.5z M256 512q0 -228 64 -333t176 -105q94 0 158.5 88.5t64.5 245.5v491q-92 62 -195 62q-117 0 -192.5 -109.5t-75.5 -339.5z" />
<glyph unicode="e" horiz-adv-x="946" d="M72 510q0 124 38.5 227t102 169t143 102t164.5 36q57 0 110.5 -15t103 -50.5t83 -88.5t47.5 -136q8 -44 9 -93q0 -44 -7 -92h-610q-1 -20 -1 -40q0 -197 82 -315q90 -130 245 -130q124 0 243 119l27 -39q-50 -78 -138 -131t-202 -53q-198 0 -319 148t-121 382zM260 629 h451q5 42 5 79q0 112 -41 182q-54 93 -159 93q-104 0 -174 -101t-82 -253z" />
<glyph unicode="f" horiz-adv-x="622" d="M51 0v53l113 13q35 5 35 51v841h-133v46l133 20v70q0 160 92 260t248 100q71 0 125.5 -25t54.5 -77q0 -34 -19 -52t-47 -18q-33 0 -66.5 23.5t-63 47.5t-52.5 25q-100 0 -100 -161v-193h223v-66h-223v-841q0 -48 35 -51l165 -13v-53h-520z" />
<glyph unicode="g" horiz-adv-x="950" d="M68 -201q0 44 17.5 80t48.5 62t58 42t62 31v4q-94 38 -94 144q0 64 47.5 114t122.5 74v4q-108 38 -163.5 130.5t-55.5 201.5q0 155 97 256.5t251 101.5q96 0 162 -38q37 23 93 41t107 18q50 0 76.5 -21.5t26.5 -54.5q0 -38 -32 -54q-15 -7 -29 -7q-17 0 -34 10 q-72 40 -133 40q-11 0 -22 -1v-4q61 -46 97 -120.5t36 -166.5q0 -155 -97 -256.5t-251 -101.5q-48 0 -79.5 -5.5t-55 -26t-23.5 -56.5q0 -80 105 -84l219 -11q144 -6 220.5 -67.5t76.5 -169.5q0 -103 -72 -177t-179 -107.5t-233 -33.5q-370 0 -370 209zM207 -168 q0 -74 57 -127t182 -53q172 0 246 56t74 147q0 121 -172 131l-291 16q-96 -72 -96 -170zM276 686q0 -135 46.5 -217t136.5 -82q91 0 135.5 81t44.5 218t-44.5 218t-135.5 81q-90 0 -136.5 -82t-46.5 -217z" />
<glyph unicode="h" horiz-adv-x="1112" d="M51 0v53l113 13q35 5 35 51v1198q0 23 -7.5 32t-27.5 9h-113v53l320 45l14 -16q-14 -57 -14 -172v-506h4q98 284 325 284q103 0 171.5 -78.5t68.5 -236.5v-612q0 -46 37 -51l115 -13v-53h-435v53l82 13q18 3 24.5 14.5t6.5 36.5v590q0 211 -156 211q-58 0 -106 -36 t-77 -93.5t-44.5 -124t-15.5 -132.5v-415q0 -45 35 -51l114 -13v-53h-469z" />
<glyph unicode="i" horiz-adv-x="540" d="M51 0v53l113 13q35 5 35 51v788q0 23 -7.5 32t-27.5 9h-113v53l320 45l14 -16q-14 -57 -14 -172v-739q0 -45 35 -51l112 -13v-53h-467zM178 1317q0 46 31 75t76 29t75.5 -29t30.5 -75q0 -47 -30.5 -77t-75.5 -30t-76 30t-31 77z" />
<glyph unicode="j" horiz-adv-x="493" d="M29 946v53l319 45l14 -16q-14 -72 -14 -172v-795q0 -65 -6 -117.5t-25 -110.5t-51.5 -102t-88 -82t-130.5 -59l-16 39q85 50 116 142t31 229v905q0 23 -8 32t-27 9h-114zM156 1317q0 46 30.5 75t75.5 29t76 -29t31 -75q0 -47 -31 -77t-76 -30t-75.5 30t-30.5 77z" />
<glyph unicode="k" horiz-adv-x="1120" d="M51 0v53l113 13q35 3 35 51v1198q0 23 -7.5 32t-27.5 9h-113v53l320 45l14 -16q-14 -57 -14 -172v-729l372 346q12 12 16.5 25t-4 25t-32.5 19l-84 19v53h414v-53l-99 -25q-82 -20 -155 -90l-193 -180l338 -559q27 -45 86 -56l68 -8v-53h-449v53l76 10q27 3 27 23 q0 14 -13 37l-264 428l-104 -96v-338q0 -46 37 -51l110 -13v-53h-467z" />
<glyph unicode="l" horiz-adv-x="540" d="M51 0v53l113 13q35 5 35 51v1198q0 23 -7.5 32t-27.5 9h-113v53l320 45l14 -16q-14 -57 -14 -172v-1149q0 -45 35 -51l112 -13v-53h-467z" />
<glyph unicode="m" horiz-adv-x="1683" d="M51 0v53l113 13q35 3 35 51v788q0 23 -7.5 32t-27.5 9h-113v53l320 45l14 -16q-14 -57 -14 -172v-96h4q98 284 325 284q100 0 166.5 -70.5t73.5 -213.5h4q98 284 326 284q104 0 172.5 -78t68.5 -237v-612q0 -45 35 -51l115 -13v-53h-434v53l82 13q19 3 24.5 14t5.5 37 v590q0 211 -155 211q-58 0 -106 -36t-77 -93.5t-45 -124t-16 -132.5v-415q0 -46 37 -51l115 -13v-53h-435v53l82 13q18 3 24.5 14.5t6.5 36.5v590q0 211 -158 211q-76 0 -132.5 -62.5t-82.5 -148t-26 -175.5v-415q0 -45 35 -51l112 -13v-53h-467z" />
<glyph unicode="n" horiz-adv-x="1112" d="M51 0v53l113 13q35 5 35 51v788q0 23 -7.5 32t-27.5 9h-113v53l320 45l14 -16q-14 -57 -14 -172v-96h4q98 284 325 284q103 0 171.5 -78.5t68.5 -236.5v-612q0 -46 37 -51l115 -13v-53h-435v53l82 13q18 3 24.5 14.5t6.5 36.5v590q0 211 -156 211q-58 0 -106 -36 t-77 -93.5t-44.5 -124t-15.5 -132.5v-415q0 -45 35 -51l112 -13v-53h-467z" />
<glyph unicode="o" horiz-adv-x="1011" d="M72 512q0 145 53 265.5t154 193.5t229 73q127 0 227 -73t152.5 -193.5t52.5 -265.5t-52.5 -265.5t-152.5 -193.5t-227 -73q-128 0 -229 73t-154 193.5t-53 265.5zM256 512q0 -234 67.5 -352.5t184.5 -118.5q114 0 182 120.5t68 350.5q0 234 -67.5 352.5t-182.5 118.5 q-117 0 -184.5 -118.5t-67.5 -352.5z" />
<glyph unicode="p" horiz-adv-x="1064" d="M29 -356l114 12q35 3 35 51v1198q0 23 -8 32t-27 9h-114v53l319 45l14 -16q-14 -57 -14 -160v-28h4q22 60 56 102.5t72.5 63t73 29.5t69.5 9q174 0 272 -141t98 -391q0 -232 -111 -382t-288 -150q-132 0 -242 79h-4v-352q0 -48 37 -51l150 -12v-54h-506v54zM348 125 q92 -62 197 -62q115 0 189.5 109.5t74.5 339.5q0 438 -236 438q-95 0 -160 -88.5t-65 -245.5v-491z" />
<glyph unicode="q" horiz-adv-x="1040" d="M72 512q0 232 112 382t289 150q135 0 242 -79h4l135 79h35v-1337q0 -46 37 -51l114 -12v-54h-505v54l149 12q35 3 35 51v475h-4q-21 -60 -55 -102.5t-73 -63t-72.5 -28.5t-68.5 -8q-175 0 -274.5 141.5t-99.5 390.5zM256 512q0 -228 64 -333t176 -105q95 0 159 88t64 246 v491q-92 62 -195 62q-117 0 -192.5 -109.5t-75.5 -339.5z" />
<glyph unicode="r" horiz-adv-x="751" d="M51 0v53l113 13q35 5 35 51v788q0 23 -7.5 32t-27.5 9h-113v53l320 45l14 -16q-14 -57 -14 -172v-106h4q42 149 114.5 221.5t139.5 72.5q46 0 74 -26.5t28 -71.5q1 -53 -41 -77q-20 -12 -43 -12t-49 13q-22 11 -44 11q-34 0 -66 -26q-54 -43 -85.5 -132t-31.5 -191v-415 q0 -48 35 -51l165 -13v-53h-520z" />
<glyph unicode="s" horiz-adv-x="800" d="M78 289h49q38 -117 97.5 -182.5t156.5 -65.5q81 0 131.5 47.5t50.5 134.5q0 49 -18.5 88t-56.5 68.5t-70 47t-84 40.5q-60 28 -99.5 53t-75 60.5t-52.5 83t-17 108.5q0 119 86.5 195.5t231.5 76.5q92 0 251 -53l11 -256h-49q-30 127 -79.5 187.5t-131.5 60.5 q-76 0 -121 -44.5t-45 -115.5q0 -43 16.5 -77.5t48.5 -59.5t60.5 -40t70.5 -32q66 -30 110 -55.5t87 -64t64.5 -90t21.5 -117.5q0 -140 -94.5 -223.5t-243.5 -83.5q-123 0 -274 53z" />
<glyph unicode="t" horiz-adv-x="624" d="M29 958v48l110 16q46 6 68 57l84 191h43v-246h239v-66h-239v-753q0 -84 28 -111.5t89 -27.5q64 0 127 38l10 -53q-107 -71 -232 -71q-97 0 -144.5 42t-47.5 158v778h-135z" />
<glyph unicode="u" horiz-adv-x="1091" d="M29 946v53l319 45l17 -16q-17 -70 -17 -172v-539q0 -211 156 -211q58 0 106.5 36t78 93.5t45.5 124t16 132.5v413q0 23 -8.5 32t-28.5 9h-150v53l355 45l16 -16q-14 -57 -14 -172v-741q0 -49 34 -52l115 -10v-53q-192 -20 -238 -20q-81 0 -81 77v207h-5 q-98 -284 -327 -284q-104 0 -172 78t-68 237v610q0 23 -8 32t-27 9h-114z" />
<glyph unicode="v" horiz-adv-x="1067" d="M27 971v53h462v-53l-94 -10q-27 -3 -36 -23.5t1 -42.5l248 -725h2l201 715q4 13 4 23q0 34 -45 44l-90 19v53h360v-53l-88 -19q-60 -11 -78 -71l-258 -891h-129l-321 911q-20 51 -57 57z" />
<glyph unicode="w" horiz-adv-x="1574" d="M27 971v53h462v-53l-94 -10q-27 -3 -35 -23.5t0 -42.5l209 -721h4l189 606l-37 123q-16 48 -57 55l-76 13v53h465v-53l-94 -10q-41 -4 -41 -41q0 -11 4 -25l196 -721h2l195 711q4 13 4 23q0 34 -45 44l-88 19v53h358v-53l-88 -19q-63 -15 -76 -71l-251 -891h-138 l-202 696l-218 -696h-131l-278 913q-17 49 -60 55z" />
<glyph unicode="x" horiz-adv-x="1019" d="M35 0v53l88 23q48 9 94 78l211 340l-227 409q-15 27 -30 41t-38 17l-80 10v53h455v-49l-74 -14q-36 -7 -36 -32q0 -12 8 -28l147 -280l160 256q13 23 5.5 42.5t-32.5 28.5l-74 27v49h353v-53l-95 -25q-52 -13 -92 -76l-192 -305l245 -444q27 -53 70 -58l84 -10v-53h-459 v53l70 10q28 4 36 21t-5 39l-166 311l-176 -289q-15 -21 -9.5 -41.5t33.5 -29.5l82 -21v-53h-356z" />
<glyph unicode="y" horiz-adv-x="1067" d="M27 971v53h462v-53l-94 -10q-27 -3 -36 -23.5t1 -42.5l248 -727h2l203 717q4 12 4 22q0 35 -47 45l-90 19v53h360v-53l-88 -19q-57 -10 -75 -71l-254 -877q-23 -76 -42 -129t-49.5 -111t-64 -93t-82 -58t-106.5 -23q-57 0 -103.5 23t-46.5 72q0 51 43 63q10 4 21 4 q31 0 59 -28q60 -39 96 -39q59 0 99.5 53t74.5 172l-356 991q-19 51 -60 57z" />
<glyph unicode="z" horiz-adv-x="892" d="M59 0v33l553 932v4h-354q-42 0 -53 -37l-82 -201h-41l16 293h719v-33l-549 -936h375q37 0 53 37l95 201h43l-33 -293h-742z" />
<glyph unicode="{" horiz-adv-x="718" d="M162 666v61q66 0 94.5 40.5t28.5 133.5q0 36 -27 170.5t-27 218.5q0 141 90 203.5t275 62.5v-61q-95 0 -138.5 -51t-43.5 -154q0 -70 26.5 -198t26.5 -199q0 -67 -43 -120t-139 -73v-6q95 -19 138.5 -73t43.5 -121q0 -70 -26.5 -199t-26.5 -199q0 -103 43.5 -153.5 t138.5 -50.5v-62q-185 0 -275 62.5t-90 203.5q0 84 27 219t27 171q0 93 -28.5 133.5t-94.5 40.5z" />
<glyph unicode="|" horiz-adv-x="419" d="M182 -41v1475h58v-1475h-58z" />
<glyph unicode="}" horiz-adv-x="718" d="M125 -102q94 0 137 50.5t43 153.5q0 70 -26.5 199t-26.5 199q0 67 43.5 121t138.5 73v6q-96 20 -139 73t-43 120q0 71 26.5 199t26.5 198q0 103 -43 154t-137 51v61q183 0 272.5 -62.5t89.5 -203.5q0 -84 -27.5 -218.5t-27.5 -170.5q0 -92 29.5 -133t95.5 -41v-61 q-66 0 -95.5 -41t-29.5 -133q0 -36 27.5 -171t27.5 -219q0 -141 -89.5 -203.5t-272.5 -62.5v62z" />
<glyph unicode="~" horiz-adv-x="952" d="M170 768q70 231 180 231q47 0 147 -55t142 -55q33 0 55.5 22t53.5 74l34 -22q-30 -99 -66 -152t-93 -53q-40 0 -94 27.5t-104.5 55t-84.5 27.5q-12 0 -23 -3t-19 -6t-17.5 -11.5t-14.5 -13.5t-14.5 -19t-13 -20t-14.5 -24.5t-15 -25.5z" />
<glyph unicode="&#xa1;" horiz-adv-x="485" d="M143 -279l76 963h47l76 -963q5 -45 -20.5 -77.5t-77.5 -32.5q-53 0 -79.5 33t-21.5 77zM147 940q0 43 28.5 73.5t68.5 30.5q38 0 66 -30.5t28 -73.5q0 -41 -28 -71.5t-66 -30.5q-40 0 -68.5 30.5t-28.5 71.5z" />
<glyph unicode="&#xa2;" horiz-adv-x="1069" d="M104 557q0 245 136.5 406t349.5 167v99h41v-99q93 -4 173 -31t132 -61v-264h-45q-43 159 -108 225.5t-152 73.5v-1026q99 7 175 82t105 227l54 -16q-33 -175 -123 -259.5t-211 -94.5v-101h-41v99q-145 1 -256 74.5t-170.5 203t-59.5 295.5zM305 557q0 -234 75.5 -366.5 t209.5 -143.5v1028q-134 -9 -209.5 -145t-75.5 -373z" />
<glyph unicode="&#xa3;" horiz-adv-x="1075" d="M102 0v94q69 49 111 112t55.5 136.5t12 141t-14.5 151.5h-162v61h150q-34 179 -39 213q-19 110 -4 193.5t49 142.5t86.5 96.5t107 54.5t111.5 17q77 0 147 -19t105.5 -37.5t91.5 -53.5v-324h-49q-41 205 -114 289t-185 84q-104 0 -161.5 -91t-28.5 -257q6 -36 26 -143 t27 -165h303v-61h-297q10 -157 -39 -287.5t-190 -243.5v-4h581q40 0 54 37l65 195h47l-35 -332h-811z" />
<glyph unicode="&#xa4;" horiz-adv-x="913" d="M125 928l14 16l142 -184q77 74 178 74q95 0 176 -74l139 184l14 -16l-137 -183q88 -98 88 -235q0 -139 -88 -234l137 -176l-16 -18l-137 178q-78 -72 -176 -72q-103 0 -178 72l-136 -178l-16 18l135 176q-86 96 -86 234q0 137 86 233zM199 510q0 -121 77 -209t183 -88 q105 0 181.5 88t76.5 209t-77 210t-181 89q-106 0 -183 -88.5t-77 -210.5z" />
<glyph unicode="&#xa5;" horiz-adv-x="1269" d="M25 1339v54h487v-54l-84 -10q-27 -6 -34.5 -29t3.5 -43l299 -641h4l283 631q10 26 0.5 44t-35.5 24l-114 24v54h411v-54l-115 -24q-51 -12 -77 -70l-324 -721v-53h240v-59h-240v-295q0 -48 37 -51l121 -13v-53h-504v53l121 13q35 3 35 51v295h-244v59h244v37l-355 754 q-26 58 -63 63z" />
<glyph unicode="&#xa6;" horiz-adv-x="419" d="M182 -41v655h58v-655h-58zM182 778v656h58v-656h-58z" />
<glyph unicode="&#xa7;" horiz-adv-x="925" d="M154 1386q0 120 82.5 196.5t226.5 76.5q92 0 254 -53l8 -256h-49q-28 124 -78.5 185.5t-130.5 61.5q-69 0 -116.5 -43.5t-47.5 -115.5q0 -43 26 -86.5t66.5 -80.5t90 -75.5t95.5 -76.5t85 -78.5t56 -86t10 -95.5t-53.5 -111t-133.5 -127l-39 26q59 45 84 88t18.5 80 t-32 73t-67 72t-88.5 71t-94.5 75.5t-86 82t-62.5 93t-24 104.5zM193 780q7 50 54 111t134 127l37 -27q-59 -45 -84 -88t-18.5 -80t32 -73t67.5 -72t89 -71t95 -75.5t86.5 -82t62.5 -93t24 -104.5q0 -120 -83.5 -196t-227.5 -76q-92 0 -254 53l-8 256h49q28 -125 79 -186.5 t132 -61.5q67 0 115.5 44t48.5 116q0 43 -26 86.5t-66.5 80.5t-90.5 75.5t-96 76.5t-85 78.5t-56 86t-10 95.5z" />
<glyph unicode="&#xa8;" horiz-adv-x="858" d="M156 1292q0 42 27 69.5t69 27.5q40 0 68 -27.5t28 -69.5q0 -43 -27.5 -69.5t-68.5 -26.5q-42 0 -69 26t-27 70zM512 1292q0 42 27 69.5t69 27.5q40 0 68.5 -27.5t28.5 -69.5q0 -43 -28 -69.5t-69 -26.5q-42 0 -69 26t-27 70z" />
<glyph unicode="&#xa9;" horiz-adv-x="1425" d="M106 696q0 189 81 349.5t221 254t305 93.5t304.5 -93.5t220.5 -254t81 -349.5t-81 -349.5t-220.5 -253.5t-304.5 -93t-305 93t-221 253.5t-81 349.5zM150 696q0 -178 75 -328.5t204.5 -237.5t283.5 -87t283.5 87t204.5 237.5t75 328.5t-75 328.5t-204.5 238t-283.5 87.5 t-283.5 -87.5t-204.5 -238t-75 -328.5zM432 696q0 155 85 257t214 102q112 0 199 -56v-161h-23q-29 104 -71 145t-101 41q-93 0 -148 -86.5t-55 -241.5t55 -239t146 -84q65 0 114 45t68 145l33 -6q-23 -117 -83.5 -168t-139.5 -51q-131 0 -212 100t-81 258z" />
<glyph unicode="&#xaa;" horiz-adv-x="616" d="M53 913q0 68 41.5 111.5t130.5 69.5l146 43v84q0 53 -29 86.5t-84 33.5q-78 0 -152 -57l-16 23q26 35 80.5 66.5t126.5 31.5q78 0 127 -44.5t49 -123.5v-391q0 -28 23 -31l65 -6v-31q-122 -12 -141 -12q-49 0 -49 47v80q-52 -127 -174 -127q-65 0 -104.5 42t-39.5 105z M55 612v43h506v-43h-506zM158 934q0 -49 23 -76t65 -27q56 0 90.5 52t34.5 131v90l-74 -27q-79 -32 -109 -62t-30 -81z" />
<glyph unicode="&#xab;" horiz-adv-x="1189" d="M178 524v58l406 370l28 -45l-276 -354l276 -354l-28 -45zM578 524v58l403 370l31 -45l-277 -354l277 -354l-31 -45z" />
<glyph unicode="&#xac;" horiz-adv-x="1042" d="M178 532v62h686v-404h-61v342h-625z" />
<glyph unicode="&#xad;" d="M178 512v61h623v-61h-623z" />
<glyph unicode="&#xae;" horiz-adv-x="1425" d="M106 696q0 189 81 349.5t221 254t305 93.5t304.5 -93.5t220.5 -254t81 -349.5t-81 -349.5t-220.5 -253.5t-304.5 -93t-305 93t-221 253.5t-81 349.5zM150 696q0 -178 75 -328.5t204.5 -237.5t283.5 -87t283.5 87t204.5 237.5t75 328.5t-75 328.5t-204.5 238t-283.5 87.5 t-283.5 -87.5t-204.5 -238t-75 -328.5zM440 344v27l60 6q18 3 18 24v582q0 22 -18 25l-60 6v26h279q103 0 160 -52t57 -136q0 -79 -52 -127t-130 -53v-2q37 -11 61.5 -31t44.5 -66l72 -167q11 -26 37 -29l49 -6v-27q-86 -8 -113 -8q-37 0 -52.5 13.5t-23.5 37.5l-92 223 q-10 29 -23.5 39t-39.5 10h-60v-258q0 -21 17 -24l78 -6v-27h-269zM614 692h82q73 0 105.5 44.5t32.5 115.5q0 69 -32.5 113.5t-105.5 44.5h-82v-318z" />
<glyph unicode="&#xaf;" horiz-adv-x="837" d="M178 1208v62h481v-62h-481z" />
<glyph unicode="&#xb0;" horiz-adv-x="651" d="M178 1286q0 75 40.5 121.5t105.5 46.5t107 -47t42 -121q0 -75 -42 -122.5t-107 -47.5q-64 0 -105 47.5t-41 122.5zM223 1286q0 -50 24.5 -87.5t76.5 -37.5q55 0 79.5 37t24.5 88q0 50 -24.5 86.5t-79.5 36.5q-52 0 -76.5 -36.5t-24.5 -86.5z" />
<glyph unicode="&#xb1;" d="M178 78v61h623v-61h-623zM178 512v61h283v328h59v-328h281v-61h-281v-328h-59v328h-283z" />
<glyph unicode="&#xb2;" horiz-adv-x="581" d="M86 1055v30q89 70 148.5 137t86.5 127t36.5 105.5t9.5 95.5q0 127 -60 162q-21 15 -49 12q-18 0 -33 -7.5t-22.5 -16.5t-20 -24.5t-18.5 -22.5q-19 -23 -43.5 -7.5t-16.5 44.5q3 29 49.5 50t112.5 21q56 0 97.5 -20t64 -52.5t33 -67.5t10.5 -71q0 -202 -276 -413h233 q22 0 27 18l14 68h27l-11 -168h-399z" />
<glyph unicode="&#xb3;" horiz-adv-x="561" d="M86 1124q0 30 25.5 39.5t40.5 -10.5q1 -2 15 -19.5t19 -22.5t18 -16t26.5 -14.5t29.5 -3.5q53 0 81 45.5t28 118.5t-33.5 120.5t-93.5 47.5h-21v33h17q55 0 85.5 40t30.5 107q0 65 -28 99t-76 34q-68 0 -123 -63l-21 24q69 78 162 78q83 0 133 -45.5t50 -113.5 q0 -65 -39.5 -112.5t-112.5 -62.5q76 -13 125 -58t49 -124q0 -93 -63 -147t-158 -54q-70 0 -118 24.5t-48 55.5z" />
<glyph unicode="&#xb4;" horiz-adv-x="677" d="M164 1153l233 195q35 28 73 13t40 -54q2 -53 -55 -74l-273 -113z" />
<glyph unicode="&#xb5;" horiz-adv-x="1085" d="M29 -391q85 49 117 140.5t32 227.5v928q0 23 -8 32t-27 9h-114v53l319 45l17 -16q-17 -70 -17 -172v-539q0 -211 156 -211q58 0 106.5 36t78 93.5t45.5 124t16 132.5v413q0 23 -8.5 32t-28.5 9h-150v53l355 45l16 -16q-14 -57 -14 -172v-741q0 -49 34 -52l115 -10v-53 q-192 -20 -238 -20q-81 0 -81 77v207h-5q-98 -284 -327 -284q-32 0 -70 10q-3 -73 -17.5 -132.5t-47 -118.5t-92.5 -102.5t-146 -68.5z" />
<glyph unicode="&#xb6;" horiz-adv-x="1273" d="M94 696q0 334 166.5 515.5t458.5 181.5h35v-1393h-35q-288 0 -456.5 189t-168.5 507zM860 0v1393h346v-54l-121 -12q-20 -1 -28 -13.5t-8 -37.5v-1159q0 -25 8 -37.5t28 -13.5l121 -13v-53h-346z" />
<glyph unicode="&#xb7;" horiz-adv-x="518" d="M168 555q0 41 26 66.5t66 25.5q38 0 65 -26t27 -66q0 -42 -27 -68t-65 -26q-40 0 -66 26t-26 68z" />
<glyph unicode="&#xb8;" horiz-adv-x="651" d="M170 -385l8 37q52 -21 92 -21q52 0 80.5 35.5t28.5 85.5q0 54 -28.5 93t-80.5 49v106h43v-86q41 -4 77.5 -21t64.5 -54t28 -87q0 -75 -48.5 -118.5t-139.5 -43.5q-67 0 -125 25z" />
<glyph unicode="&#xb9;" horiz-adv-x="528" d="M86 1055v28l111 7q18 3 18 26v551q0 11 -4.5 16.5t-13.5 4.5l-101 -17l-4 33l199 51h22v-639q0 -23 19 -26l110 -7v-28h-356z" />
<glyph unicode="&#xba;" horiz-adv-x="626" d="M53 1085q0 134 72 227t188 93q114 0 186 -93t72 -227t-72 -226.5t-186 -92.5q-116 0 -188 92.5t-72 226.5zM59 612v43h506v-43h-506zM162 1085q0 -140 40.5 -211t110.5 -71q68 0 109 72.5t41 209.5q0 140 -40.5 211.5t-109.5 71.5q-70 0 -110.5 -71.5t-40.5 -211.5z" />
<glyph unicode="&#xbb;" horiz-adv-x="1189" d="M178 199l277 354l-277 354l31 45l403 -370v-58l-403 -370zM578 199l276 354l-276 354l28 45l406 -370v-58l-406 -370z" />
<glyph unicode="&#xbc;" horiz-adv-x="1413" d="M86 696v29l111 6q18 0 18 27v551q0 11 -4.5 16t-13.5 4l-101 -16l-4 33l199 51h22v-639q0 -27 19 -27l110 -6v-29h-356zM532 -41l365 1475h49l-366 -1475h-48zM877 160v24l325 516h47v-503h76v-37h-76v-99q0 -23 17 -26l57 -6v-29h-248v29l58 6q16 3 16 26v99h-272z M924 197h225v364l-225 -362v-2z" />
<glyph unicode="&#xbd;" horiz-adv-x="1413" d="M86 696v29l111 6q18 0 18 27v551q0 11 -4.5 16t-13.5 4l-101 -16l-4 33l199 51h22v-639q0 -27 19 -27l110 -6v-29h-356zM487 -41l367 1475h47l-364 -1475h-50zM918 0v31q89 70 148.5 137t86 127t36 105t9.5 96q0 78 -23.5 128t-74.5 50q-20 0 -37 -8.5t-25.5 -17 t-22.5 -26t-20 -24.5q-17 -23 -41.5 -8.5t-19.5 43.5q2 29 49.5 51.5t114.5 22.5q56 0 97.5 -20t64 -52.5t33 -67.5t10.5 -71q0 -202 -279 -414h236q21 0 26 18l14 68h25l-8 -168h-399z" />
<glyph unicode="&#xbe;" horiz-adv-x="1413" d="M86 766q0 30 25.5 39.5t40.5 -10.5q1 -2 15 -19.5t19 -22.5t18 -16t26.5 -14.5t29.5 -3.5q53 0 81 45.5t28 118.5t-33.5 120.5t-93.5 47.5h-21v32h17q55 0 85.5 40.5t30.5 107.5q0 65 -28 99t-76 34q-67 0 -123 -64l-21 25q69 78 162 78q83 0 133 -46t50 -114 q0 -65 -39.5 -112t-112.5 -62q76 -13 125 -58t49 -124q0 -93 -63 -147t-158 -54q-70 0 -118 24.5t-48 55.5zM539 -41l366 1475h47l-366 -1475h-47zM877 160v24l325 516h47v-503h76v-37h-76v-99q0 -23 17 -26l57 -6v-29h-248v29l58 6q16 3 16 26v99h-272zM924 197h225v364 l-225 -362v-2z" />
<glyph unicode="&#xbf;" horiz-adv-x="880" d="M82 -20q0 47 8 89.5t32.5 91t63.5 86.5t105.5 71t154.5 49l15 317h49l10 -352q-76 -21 -129.5 -60t-81 -89t-39.5 -99t-12 -104q0 -136 52.5 -222t146.5 -86q21 0 41 4t35 9t32.5 16.5t27 18.5t26 23.5t22.5 23t22.5 26t20.5 23.5q18 21 45.5 22.5t48.5 -19.5t21 -57 q0 -58 -103.5 -104.5t-253.5 -46.5q-93 0 -164.5 31.5t-113 85t-62 117.5t-20.5 135zM393 940q0 43 27.5 73.5t66.5 30.5q38 0 66.5 -30.5t28.5 -73.5q0 -41 -28.5 -71.5t-66.5 -30.5q-39 0 -66.5 30t-27.5 72z" />
<glyph unicode="&#xc0;" horiz-adv-x="1288" d="M25 0v53l106 23q60 11 72 67l338 1260h161l412 -1280q17 -51 60 -57l90 -13v-53h-494v53l98 13q51 8 33 63l-110 356h-424l-91 -342q-14 -54 39 -65l117 -25v-53h-407zM322 1675q2 39 40 54t72 -13l234 -194l-19 -33l-272 113q-57 21 -55 73zM383 553h385l-203 668h-4z " />
<glyph unicode="&#xc1;" horiz-adv-x="1288" d="M25 0v53l106 23q60 11 72 67l338 1260h161l412 -1280q17 -51 60 -57l90 -13v-53h-494v53l98 13q51 8 33 63l-110 356h-424l-91 -342q-14 -54 39 -65l117 -25v-53h-407zM383 553h385l-203 668h-4zM582 1522l233 194q35 28 73 13t40 -54q2 -51 -56 -73l-272 -113z" />
<glyph unicode="&#xc2;" horiz-adv-x="1288" d="M25 0v53l106 23q60 11 72 67l338 1260h161l412 -1280q17 -51 60 -57l90 -13v-53h-494v53l98 13q51 8 33 63l-110 356h-424l-91 -342q-14 -54 39 -65l117 -25v-53h-407zM383 553h385l-203 668h-4zM389 1495l225 344h48l225 -344h-58l-190 203l-193 -203h-57z" />
<glyph unicode="&#xc3;" horiz-adv-x="1288" d="M25 0v53l106 23q60 11 72 67l338 1260h161l412 -1280q17 -51 60 -57l90 -13v-53h-494v53l98 13q51 8 33 63l-110 356h-424l-91 -342q-14 -54 39 -65l117 -25v-53h-407zM338 1546q71 232 180 232q47 0 147 -55.5t142 -55.5q33 0 55 21.5t53 74.5l35 -22q-30 -99 -66 -152 t-93 -53q-40 0 -94 28t-104.5 55.5t-84.5 27.5q-12 0 -23 -3t-19 -6t-17.5 -11.5t-14.5 -13.5t-14.5 -19t-13 -20t-14.5 -24.5t-15 -25.5zM383 553h385l-203 668h-4z" />
<glyph unicode="&#xc4;" horiz-adv-x="1288" d="M25 0v53l106 23q60 11 72 67l338 1260h161l412 -1280q17 -51 60 -57l90 -13v-53h-494v53l98 13q51 8 33 63l-110 356h-424l-91 -342q-14 -54 39 -65l117 -25v-53h-407zM365 1661q0 42 27 69t69 27q40 0 68 -27t28 -69q0 -43 -27.5 -69.5t-68.5 -26.5q-42 0 -69 26t-27 70 zM383 553h385l-203 668h-4zM721 1661q0 42 27 69t69 27q40 0 68 -27t28 -69q0 -43 -27.5 -69.5t-68.5 -26.5q-42 0 -69 26t-27 70z" />
<glyph unicode="&#xc5;" horiz-adv-x="1288" d="M25 0v53l106 23q60 11 72 67l338 1260h161l412 -1280q17 -51 60 -57l90 -13v-53h-494v53l98 13q51 8 33 63l-110 356h-424l-91 -342q-14 -54 39 -65l117 -25v-53h-407zM383 553h385l-203 668h-4zM477 1653q0 78 44 129t116 51q71 0 115.5 -51t44.5 -129 q0 -77 -44.5 -127.5t-115.5 -50.5t-115.5 50.5t-44.5 127.5zM547 1653q0 -64 23.5 -103t66.5 -39t65.5 39t22.5 103q0 65 -22.5 104t-65.5 39t-66.5 -39t-23.5 -104z" />
<glyph unicode="&#xc6;" horiz-adv-x="1703" d="M25 0v53l108 25q47 11 72 65l600 1250h805v-332h-49l-78 231q-10 37 -53 37h-394v-590h209q22 0 34.5 7.5t18.5 29.5l48 174h49v-487h-49l-48 174q-6 22 -18.5 29.5t-34.5 7.5h-209v-611h420q37 0 53 37l107 232h47l-35 -332h-940v53l123 13q35 3 35 51v370h-402 l-165 -344q-21 -52 40 -65l113 -25v-53h-407zM477 557h369v764h-2z" />
<glyph unicode="&#xc7;" horiz-adv-x="1165" d="M94 696q0 205 77 369t213 256t306 92q122 0 225.5 -32.5t174.5 -77.5v-324h-48q-25 109 -59 182.5t-78.5 115t-94 58.5t-114.5 17q-181 0 -289 -172.5t-108 -483.5q0 -310 108.5 -478.5t286.5 -168.5q61 0 117 20.5t107.5 64t90.5 120.5t58 180l57 -16q-18 -95 -51 -170 t-73.5 -123.5t-92 -81t-103 -47t-108.5 -16.5v-66q67 -7 118.5 -48t51.5 -114q0 -75 -48.5 -118.5t-139.5 -43.5q-67 0 -125 25l10 37q48 -21 92 -21q52 0 79.5 35.5t27.5 85.5q0 55 -27.5 93.5t-79.5 48.5v88q-252 9 -406.5 207t-154.5 507z" />
<glyph unicode="&#xc8;" horiz-adv-x="1081" d="M66 0v53l122 13q35 3 35 51v1159q0 48 -35 51l-122 12v54h921v-332h-49l-78 231q-10 37 -53 37h-393v-590h207q46 0 53 37l49 174h47v-487h-47l-49 174q-7 37 -53 37h-207v-611h417q40 0 56 37l104 232h49l-34 -332h-940zM334 1675q2 39 40 54t72 -13l234 -194l-18 -33 l-273 113q-57 21 -55 73z" />
<glyph unicode="&#xc9;" horiz-adv-x="1081" d="M66 0v53l122 13q35 3 35 51v1159q0 48 -35 51l-122 12v54h921v-332h-49l-78 231q-10 37 -53 37h-393v-590h207q46 0 53 37l49 174h47v-487h-47l-49 174q-7 37 -53 37h-207v-611h417q40 0 56 37l104 232h49l-34 -332h-940zM530 1522l234 194q35 28 73 13t40 -54 q2 -51 -56 -73l-272 -113z" />
<glyph unicode="&#xca;" horiz-adv-x="1081" d="M66 0v53l122 13q35 3 35 51v1159q0 48 -35 51l-122 12v54h921v-332h-49l-78 231q-10 37 -53 37h-393v-590h207q46 0 53 37l49 174h47v-487h-47l-49 174q-7 37 -53 37h-207v-611h417q40 0 56 37l104 232h49l-34 -332h-940zM336 1495l225 344h47l226 -344h-58l-190 203 l-193 -203h-57z" />
<glyph unicode="&#xcb;" horiz-adv-x="1081" d="M66 0v53l122 13q35 3 35 51v1159q0 48 -35 51l-122 12v54h921v-332h-49l-78 231q-10 37 -53 37h-393v-590h207q46 0 53 37l49 174h47v-487h-47l-49 174q-7 37 -53 37h-207v-611h417q40 0 56 37l104 232h49l-34 -332h-940zM322 1661q0 42 27 69t69 27q40 0 68 -27t28 -69 q0 -43 -27.5 -69.5t-68.5 -26.5q-42 0 -69 26t-27 70zM678 1661q0 42 27 69t69 27q40 0 68 -27t28 -69q0 -43 -27.5 -69.5t-68.5 -26.5q-42 0 -69 26t-27 70z" />
<glyph unicode="&#xcc;" horiz-adv-x="636" d="M6 1675q2 39 40.5 54t72.5 -13l233 -194l-18 -33l-273 113q-57 21 -55 73zM66 0v53l122 13q35 3 35 51v1159q0 48 -35 51l-122 12v54h503v-54l-120 -12q-35 -3 -35 -51v-1159q0 -48 35 -51l120 -13v-53h-503z" />
<glyph unicode="&#xcd;" horiz-adv-x="636" d="M66 0v53l122 13q35 3 35 51v1159q0 48 -35 51l-122 12v54h503v-54l-120 -12q-35 -3 -35 -51v-1159q0 -48 35 -51l120 -13v-53h-503zM285 1522l233 194q35 28 73 13t40 -54q2 -51 -56 -73l-272 -113z" />
<glyph unicode="&#xce;" horiz-adv-x="636" d="M66 0v53l122 13q35 3 35 51v1159q0 48 -35 51l-122 12v54h503v-54l-120 -12q-35 -3 -35 -51v-1159q0 -48 35 -51l120 -13v-53h-503zM72 1495l225 344h47l225 -344h-57l-190 203l-193 -203h-57z" />
<glyph unicode="&#xcf;" horiz-adv-x="636" d="M47 1661q0 42 27 69t69 27q41 0 69 -27t28 -69q0 -43 -28 -69.5t-69 -26.5q-42 0 -69 26t-27 70zM66 0v53l122 13q35 3 35 51v1159q0 48 -35 51l-122 12v54h503v-54l-120 -12q-35 -3 -35 -51v-1159q0 -48 35 -51l120 -13v-53h-503zM403 1661q0 42 27.5 69t69.5 27 q40 0 68 -27t28 -69q0 -43 -27.5 -69.5t-68.5 -26.5q-42 0 -69.5 26.5t-27.5 69.5z" />
<glyph unicode="&#xd0;" horiz-adv-x="1347" d="M66 0v53l122 13q35 3 35 51v538h-151v62h151v559q0 48 -35 51l-122 12v54h557q289 0 459.5 -186t170.5 -511q0 -204 -77 -361.5t-220.5 -246t-332.5 -88.5h-557zM414 63h190q94 0 170 36t126.5 96.5t84.5 142.5t49 171.5t15 186.5q0 110 -16 204t-51.5 174t-88.5 136 t-130.5 87.5t-174.5 31.5h-174v-612h188v-62h-188v-592z" />
<glyph unicode="&#xd1;" horiz-adv-x="1335" d="M55 0v53l133 25q45 10 45 61v1137q0 48 -34 51l-144 12v54h385l613 -1037v895q0 52 -45 62l-136 26v54h424v-54l-131 -26q-45 -10 -45 -62v-1261h-65l-752 1261v-1112q0 -27 9 -41t34 -20l133 -25v-53h-424zM362 1546q71 232 181 232q47 0 146.5 -55.5t141.5 -55.5 q33 0 55.5 22t53.5 74l35 -22q-30 -99 -66.5 -152t-93.5 -53q-40 0 -94 28t-104.5 55.5t-84.5 27.5q-12 0 -23 -3t-19 -6t-17.5 -11.5t-14.5 -13.5t-14.5 -19t-13 -20t-14.5 -24.5t-15 -25.5z" />
<glyph unicode="&#xd2;" horiz-adv-x="1417" d="M94 696q0 158 49 293.5t132.5 227.5t196 144t237.5 52t237 -52t195.5 -144t132.5 -227.5t49 -293.5q0 -159 -49 -294.5t-132.5 -227t-195.5 -143t-237 -51.5t-237.5 51.5t-196 143t-132.5 227t-49 294.5zM299 696q0 -307 111.5 -481t298.5 -174q185 0 297 174.5 t112 480.5q0 305 -112.5 480.5t-296.5 175.5q-187 0 -298.5 -175t-111.5 -481zM397 1675q2 39 40.5 54t72.5 -13l233 -194l-18 -33l-272 113q-58 22 -56 73z" />
<glyph unicode="&#xd3;" horiz-adv-x="1417" d="M94 696q0 158 49 293.5t132.5 227.5t196 144t237.5 52t237 -52t195.5 -144t132.5 -227.5t49 -293.5q0 -159 -49 -294.5t-132.5 -227t-195.5 -143t-237 -51.5t-237.5 51.5t-196 143t-132.5 227t-49 294.5zM299 696q0 -307 111.5 -481t298.5 -174q185 0 297 174.5 t112 480.5q0 305 -112.5 480.5t-296.5 175.5q-187 0 -298.5 -175t-111.5 -481zM655 1522l234 194q35 28 72.5 13t39.5 -54q2 -52 -55 -73l-272 -113z" />
<glyph unicode="&#xd4;" horiz-adv-x="1417" d="M94 696q0 158 49 293.5t132.5 227.5t196 144t237.5 52t237 -52t195.5 -144t132.5 -227.5t49 -293.5q0 -159 -49 -294.5t-132.5 -227t-195.5 -143t-237 -51.5t-237.5 51.5t-196 143t-132.5 227t-49 294.5zM299 696q0 -307 111.5 -481t298.5 -174q185 0 297 174.5 t112 480.5q0 305 -112.5 480.5t-296.5 175.5q-187 0 -298.5 -175t-111.5 -481zM459 1495l225 344h47l225 -344h-57l-190 203l-193 -203h-57z" />
<glyph unicode="&#xd5;" horiz-adv-x="1417" d="M94 696q0 158 49 293.5t132.5 227.5t196 144t237.5 52t237 -52t195.5 -144t132.5 -227.5t49 -293.5q0 -159 -49 -294.5t-132.5 -227t-195.5 -143t-237 -51.5t-237.5 51.5t-196 143t-132.5 227t-49 294.5zM299 696q0 -307 111.5 -481t298.5 -174q185 0 297 174.5 t112 480.5q0 305 -112.5 480.5t-296.5 175.5q-187 0 -298.5 -175t-111.5 -481zM401 1546q71 232 181 232q47 0 146.5 -55.5t141.5 -55.5q33 0 55.5 22t53.5 74l35 -22q-30 -99 -66.5 -152t-93.5 -53q-40 0 -94 28t-104.5 55.5t-84.5 27.5q-12 0 -23 -3t-19 -6t-17.5 -11.5 t-14.5 -13.5t-14.5 -19t-13 -20t-14.5 -24.5t-15 -25.5z" />
<glyph unicode="&#xd6;" horiz-adv-x="1417" d="M94 696q0 158 49 293.5t132.5 227.5t196 144t237.5 52t237 -52t195.5 -144t132.5 -227.5t49 -293.5q0 -159 -49 -294.5t-132.5 -227t-195.5 -143t-237 -51.5t-237.5 51.5t-196 143t-132.5 227t-49 294.5zM299 696q0 -307 111.5 -481t298.5 -174q185 0 297 174.5 t112 480.5q0 305 -112.5 480.5t-296.5 175.5q-187 0 -298.5 -175t-111.5 -481zM434 1661q0 42 27 69t69 27q41 0 69 -27t28 -69q0 -43 -28 -69.5t-69 -26.5q-42 0 -69 26t-27 70zM791 1661q0 42 27 69t69 27q40 0 68 -27t28 -69q0 -43 -27.5 -69.5t-68.5 -26.5q-42 0 -69 26 t-27 70z" />
<glyph unicode="&#xd7;" horiz-adv-x="929" d="M186 268l240 275l-240 274l39 43l238 -274l239 274l39 -43l-239 -274l239 -275l-39 -43l-239 275l-238 -275z" />
<glyph unicode="&#xd8;" horiz-adv-x="1417" d="M94 696q0 158 49 293.5t132.5 227.5t196 144t237.5 52q166 0 305 -88l67 129l45 -29l-69 -131q123 -95 194.5 -250t71.5 -348q0 -159 -49 -294.5t-132.5 -227t-195.5 -143t-237 -51.5q-165 0 -299 81l-66 -122l-45 28l66 125q-125 94 -198 250.5t-73 353.5zM299 696 q0 -322 121 -497l545 1032q-105 121 -256 121q-187 0 -298.5 -175t-111.5 -481zM457 154q104 -113 252 -113q185 0 297 174.5t112 480.5q0 311 -119 488z" />
<glyph unicode="&#xd9;" horiz-adv-x="1363" d="M51 1339v54h504v-54l-121 -12q-37 -3 -37 -51v-774q0 -223 80 -331t252 -108q160 0 252 117t92 342v727q0 26 -9 41.5t-36 22.5l-135 26v54h432v-54l-139 -26q-45 -12 -45 -64v-725q0 -262 -121 -403t-344 -141q-237 0 -353 141t-116 405v750q0 48 -35 51zM424 1675 q2 39 40.5 54t72.5 -13l233 -194l-18 -33l-273 113q-57 21 -55 73z" />
<glyph unicode="&#xda;" horiz-adv-x="1363" d="M51 1339v54h504v-54l-121 -12q-37 -3 -37 -51v-774q0 -223 80 -331t252 -108q160 0 252 117t92 342v727q0 26 -9 41.5t-36 22.5l-135 26v54h432v-54l-139 -26q-45 -12 -45 -64v-725q0 -262 -121 -403t-344 -141q-237 0 -353 141t-116 405v750q0 48 -35 51zM694 1522 l234 194q35 28 72.5 13t39.5 -54q2 -52 -55 -73l-272 -113z" />
<glyph unicode="&#xdb;" horiz-adv-x="1363" d="M51 1339v54h504v-54l-121 -12q-37 -3 -37 -51v-774q0 -223 80 -331t252 -108q160 0 252 117t92 342v727q0 26 -9 41.5t-36 22.5l-135 26v54h432v-54l-139 -26q-45 -12 -45 -64v-725q0 -262 -121 -403t-344 -141q-237 0 -353 141t-116 405v750q0 48 -35 51zM467 1495 l225 344h47l226 -344h-58l-190 203l-193 -203h-57z" />
<glyph unicode="&#xdc;" horiz-adv-x="1363" d="M51 1339v54h504v-54l-121 -12q-37 -3 -37 -51v-774q0 -223 80 -331t252 -108q160 0 252 117t92 342v727q0 26 -9 41.5t-36 22.5l-135 26v54h432v-54l-139 -26q-45 -12 -45 -64v-725q0 -262 -121 -403t-344 -141q-237 0 -353 141t-116 405v750q0 48 -35 51zM442 1661 q0 42 27.5 69t69.5 27q40 0 68 -27t28 -69q0 -43 -27.5 -69.5t-68.5 -26.5q-42 0 -69.5 26.5t-27.5 69.5zM799 1661q0 42 27 69t69 27q40 0 68 -27t28 -69q0 -43 -27.5 -69.5t-68.5 -26.5q-42 0 -69 26t-27 70z" />
<glyph unicode="&#xdd;" horiz-adv-x="1269" d="M25 1339v54h487v-54l-84 -10q-27 -6 -34.5 -29t3.5 -43l299 -641h4l283 631q10 26 0.5 44t-35.5 24l-114 24v54h411v-54l-115 -24q-51 -12 -77 -70l-324 -721v-407q0 -48 37 -51l121 -13v-53h-504v53l121 13q35 3 35 51v391l-355 754q-26 58 -63 63zM643 1522l234 194 q35 28 72.5 13t39.5 -54q2 -52 -55 -73l-272 -113z" />
<glyph unicode="&#xde;" horiz-adv-x="1114" d="M66 0v53l122 13q35 3 35 51v1159q0 48 -35 51l-122 12v54h503v-54l-120 -12q-35 -3 -35 -51v-191h217q103 0 185 -31t134.5 -85t80.5 -125.5t28 -153.5q0 -170 -112.5 -281.5t-315.5 -111.5h-217v-180q0 -48 35 -51l120 -13v-53h-503zM414 360h166q76 0 131.5 26t86 73 t44.5 104t14 127q0 71 -14 128.5t-44.5 104.5t-86 73t-131.5 26h-166v-662z" />
<glyph unicode="&#xdf;" horiz-adv-x="1126" d="M51 0v53l113 13q35 5 35 51v841h-133v46l133 20v61q0 166 101 267.5t255 101.5q153 0 238.5 -70t85.5 -176q0 -56 -21 -102t-51 -76.5t-60.5 -57.5t-51.5 -59.5t-21 -68.5q0 -56 84 -133l145 -140q146 -136 146 -288q-2 -129 -89.5 -216t-222.5 -87q-138 0 -256 53 l-37 270h50q40 -134 105 -198t144 -64q71 0 114.5 48t43.5 126q0 66 -31 117t-84 104l-143 137q-41 40 -59 82t-21.5 71.5t16 79t32 71t49.5 79.5q3 5 4 7q38 62 55 136t10.5 139.5t-50.5 110t-120 44.5q-85 0 -136.5 -64t-51.5 -176v-1153h-320z" />
<glyph unicode="&#xe0;" horiz-adv-x="942" d="M72 223q0 115 68 187t218 116l242 72v139q0 89 -48 145t-138 56q-126 0 -254 -94l-27 35q44 58 133.5 111.5t208.5 53.5q132 0 213.5 -74t81.5 -206v-649q0 -49 37 -52l115 -10v-53q-204 -20 -238 -20q-84 0 -84 77v136h-4q-37 -109 -111.5 -161t-173.5 -52 q-110 0 -174.5 69.5t-64.5 173.5zM197 1307q2 39 40 54t72 -13l234 -195l-19 -33l-272 113q-57 21 -55 74zM256 258q0 -81 35.5 -123.5t103.5 -42.5q91 0 148 84.5t57 216.5v148l-180 -62q-164 -60 -164 -221z" />
<glyph unicode="&#xe1;" horiz-adv-x="942" d="M72 223q0 115 68 187t218 116l242 72v139q0 89 -48 145t-138 56q-126 0 -254 -94l-27 35q44 58 133.5 111.5t208.5 53.5q132 0 213.5 -74t81.5 -206v-649q0 -49 37 -52l115 -10v-53q-204 -20 -238 -20q-84 0 -84 77v136h-4q-37 -109 -111.5 -161t-173.5 -52 q-110 0 -174.5 69.5t-64.5 173.5zM256 258q0 -81 35.5 -123.5t103.5 -42.5q91 0 148 84.5t57 216.5v148l-180 -62q-164 -60 -164 -221zM379 1153l233 195q35 28 73 13t40 -54q2 -53 -55 -74l-273 -113z" />
<glyph unicode="&#xe2;" horiz-adv-x="942" d="M72 223q0 115 68 187t218 116l242 72v139q0 89 -48 145t-138 56q-126 0 -254 -94l-27 35q44 58 133.5 111.5t208.5 53.5q132 0 213.5 -74t81.5 -206v-649q0 -49 37 -52l115 -10v-53q-204 -20 -238 -20q-84 0 -84 77v136h-4q-37 -109 -111.5 -161t-173.5 -52 q-110 0 -174.5 69.5t-64.5 173.5zM223 1126l226 344h47l225 -344h-57l-191 203l-192 -203h-58zM256 258q0 -81 35.5 -123.5t103.5 -42.5q91 0 148 84.5t57 216.5v148l-180 -62q-164 -60 -164 -221z" />
<glyph unicode="&#xe3;" horiz-adv-x="942" d="M72 223q0 115 68 187t218 116l242 72v139q0 89 -48 145t-138 56q-126 0 -254 -94l-27 35q44 58 133.5 111.5t208.5 53.5q132 0 213.5 -74t81.5 -206v-649q0 -49 37 -52l115 -10v-53q-204 -20 -238 -20q-84 0 -84 77v136h-4q-37 -109 -111.5 -161t-173.5 -52 q-110 0 -174.5 69.5t-64.5 173.5zM166 1178q70 231 180 231q47 0 147 -55.5t142 -55.5q33 0 55 22t53 75l35 -23q-30 -99 -66.5 -152t-93.5 -53q-40 0 -93.5 27.5t-104 55.5t-84.5 28q-12 0 -23 -3t-19 -6t-17.5 -11.5t-14.5 -13.5t-14.5 -19t-13 -20t-14.5 -24.5t-15 -25.5 zM256 258q0 -81 35.5 -123.5t103.5 -42.5q91 0 148 84.5t57 216.5v148l-180 -62q-164 -60 -164 -221z" />
<glyph unicode="&#xe4;" horiz-adv-x="942" d="M72 223q0 115 68 187t218 116l242 72v139q0 89 -48 145t-138 56q-126 0 -254 -94l-27 35q44 58 133.5 111.5t208.5 53.5q132 0 213.5 -74t81.5 -206v-649q0 -49 37 -52l115 -10v-53q-204 -20 -238 -20q-84 0 -84 77v136h-4q-37 -109 -111.5 -161t-173.5 -52 q-110 0 -174.5 69.5t-64.5 173.5zM201 1292q0 42 27.5 69.5t68.5 27.5q40 0 68 -27.5t28 -69.5q0 -43 -27.5 -69.5t-68.5 -26.5q-42 0 -69 26t-27 70zM256 258q0 -81 35.5 -123.5t103.5 -42.5q91 0 148 84.5t57 216.5v148l-180 -62q-164 -60 -164 -221zM557 1292 q0 42 27.5 69.5t68.5 27.5q40 0 68.5 -27.5t28.5 -69.5q0 -43 -28 -69.5t-69 -26.5q-42 0 -69 26t-27 70z" />
<glyph unicode="&#xe5;" horiz-adv-x="942" d="M72 223q0 115 68 187t218 116l242 72v139q0 89 -48 145t-138 56q-126 0 -254 -94l-27 35q44 58 133.5 111.5t208.5 53.5q132 0 213.5 -74t81.5 -206v-649q0 -49 37 -52l115 -10v-53q-204 -20 -238 -20q-84 0 -84 77v136h-4q-37 -109 -111.5 -161t-173.5 -52 q-110 0 -174.5 69.5t-64.5 173.5zM256 258q0 -81 35.5 -123.5t103.5 -42.5q91 0 148 84.5t57 216.5v148l-180 -62q-164 -60 -164 -221zM319 1284q0 78 44 129t116 51q71 0 115.5 -51t44.5 -129q0 -77 -44.5 -127.5t-115.5 -50.5t-115.5 50.5t-44.5 127.5zM389 1284 q0 -63 23.5 -102t66.5 -39t65.5 38.5t22.5 102.5q0 65 -22.5 104t-65.5 39t-66.5 -39t-23.5 -104z" />
<glyph unicode="&#xe6;" horiz-adv-x="1472" d="M72 223q0 115 68.5 186.5t217.5 116.5l242 72v137q0 91 -47.5 147t-138.5 56q-126 0 -254 -94l-25 35q44 58 133.5 111.5t208.5 53.5q90 0 159.5 -36.5t104.5 -104.5q62 68 143 104.5t167 36.5q57 0 109.5 -15t101.5 -50.5t82 -88.5t47.5 -136t1.5 -185h-619 q-9 -223 86 -354t250 -131q121 0 246 119l26 -39q-52 -78 -140 -131t-202 -53q-144 0 -248.5 80.5t-152.5 220.5q-75 -301 -328 -301q-110 0 -174.5 69.5t-64.5 173.5zM246 258q0 -81 39.5 -125.5t107.5 -44.5q93 0 150 86.5t57 218.5v148l-180 -62q-174 -64 -174 -221z M778 629h459q18 169 -34.5 261.5t-158.5 92.5t-180.5 -102t-85.5 -252z" />
<glyph unicode="&#xe7;" horiz-adv-x="907" d="M72 510q0 126 39.5 229.5t105.5 168.5t148 100.5t170 35.5q133 0 223 -47t90 -106q0 -36 -21.5 -56.5t-49 -19t-44.5 22.5q-12 13 -39 47t-43.5 50t-49.5 32t-73 16q-88 0 -151.5 -61.5t-92 -154.5t-28.5 -206q0 -234 87 -355.5t239 -121.5q124 0 243 119l27 -39 q-49 -73 -129.5 -124.5t-187.5 -57.5v-68q41 -4 77.5 -21t64.5 -54t28 -87q0 -75 -49 -118.5t-140 -43.5q-67 0 -125 25l10 37q48 -21 93 -21q52 0 79 35.5t27 85.5q0 54 -27.5 93t-78.5 49v86q-128 5 -224 74.5t-147 187.5t-51 268z" />
<glyph unicode="&#xe8;" horiz-adv-x="946" d="M72 510q0 124 38.5 227t102 169t143 102t164.5 36q57 0 110.5 -15t103 -50.5t83 -88.5t48 -136t1.5 -185h-610q-9 -224 81 -354.5t245 -130.5q124 0 243 119l27 -39q-50 -78 -138 -131t-202 -53q-198 0 -319 148t-121 382zM260 629h451q18 168 -36 261t-159 93 q-104 0 -174 -101t-82 -253zM264 1307q2 39 40.5 54t72.5 -13l233 -195l-18 -33l-273 113q-57 21 -55 74z" />
<glyph unicode="&#xe9;" horiz-adv-x="946" d="M72 510q0 124 38.5 227t102 169t143 102t164.5 36q57 0 110.5 -15t103 -50.5t83 -88.5t48 -136t1.5 -185h-610q-9 -224 81 -354.5t245 -130.5q124 0 243 119l27 -39q-50 -78 -138 -131t-202 -53q-198 0 -319 148t-121 382zM260 629h451q18 168 -36 261t-159 93 q-104 0 -174 -101t-82 -253zM440 1153l234 195q35 28 72.5 13t39.5 -54q2 -53 -55 -74l-272 -113z" />
<glyph unicode="&#xea;" horiz-adv-x="946" d="M72 510q0 124 38.5 227t102 169t143 102t164.5 36q57 0 110.5 -15t103 -50.5t83 -88.5t48 -136t1.5 -185h-610q-9 -224 81 -354.5t245 -130.5q124 0 243 119l27 -39q-50 -78 -138 -131t-202 -53q-198 0 -319 148t-121 382zM229 1126l226 344h47l225 -344h-57l-191 203 l-192 -203h-58zM260 629h451q18 168 -36 261t-159 93q-104 0 -174 -101t-82 -253z" />
<glyph unicode="&#xeb;" horiz-adv-x="946" d="M72 510q0 124 38.5 227t102 169t143 102t164.5 36q57 0 110.5 -15t103 -50.5t83 -88.5t48 -136t1.5 -185h-610q-9 -224 81 -354.5t245 -130.5q124 0 243 119l27 -39q-50 -78 -138 -131t-202 -53q-198 0 -319 148t-121 382zM207 1292q0 42 27.5 69.5t68.5 27.5 q40 0 68 -27.5t28 -69.5q0 -43 -27.5 -69.5t-68.5 -26.5q-42 0 -69 26t-27 70zM260 629h451q18 168 -36 261t-159 93q-104 0 -174 -101t-82 -253zM563 1292q0 42 27.5 69.5t68.5 27.5q40 0 68.5 -27.5t28.5 -69.5q0 -43 -28 -69.5t-69 -26.5q-42 0 -69 26t-27 70z" />
<glyph unicode="&#xec;" horiz-adv-x="540" d="M-12 1307q2 39 40 54t72 -13l234 -195l-19 -33l-272 113q-57 21 -55 74zM51 0v53l113 13q35 5 35 51v788q0 23 -7.5 32t-27.5 9h-113v53l320 45l14 -16q-14 -57 -14 -172v-739q0 -45 35 -51l112 -13v-53h-467z" />
<glyph unicode="&#xed;" horiz-adv-x="540" d="M51 0v53l113 13q35 5 35 51v788q0 23 -7.5 32t-27.5 9h-113v53l320 45l14 -16q-14 -57 -14 -172v-739q0 -45 35 -51l112 -13v-53h-467zM190 1153l234 195q35 28 73 13t40 -54q2 -52 -56 -74l-272 -113z" />
<glyph unicode="&#xee;" horiz-adv-x="540" d="M20 1126l226 344h47l225 -344h-57l-191 203l-192 -203h-58zM51 0v53l113 13q35 5 35 51v788q0 23 -7.5 32t-27.5 9h-113v53l320 45l14 -16q-14 -57 -14 -172v-739q0 -45 35 -51l112 -13v-53h-467z" />
<glyph unicode="&#xef;" horiz-adv-x="540" d="M4 1292q0 42 27 69.5t69 27.5q40 0 68.5 -27.5t28.5 -69.5q0 -43 -28 -69.5t-69 -26.5q-42 0 -69 26t-27 70zM51 0v53l113 13q35 5 35 51v788q0 23 -7.5 32t-27.5 9h-113v53l320 45l14 -16q-14 -57 -14 -172v-739q0 -45 35 -51l112 -13v-53h-467zM360 1292 q0 42 27.5 69.5t69.5 27.5q40 0 68 -27.5t28 -69.5q0 -43 -27.5 -69.5t-68.5 -26.5q-42 0 -69.5 26.5t-27.5 69.5z" />
<glyph unicode="&#xf0;" horiz-adv-x="1011" d="M72 512q0 145 53 265.5t154 193.5t229 73q109 0 182 -75l4 2q-57 155 -164 262l-213 -148l-24 50l196 135q-117 99 -266 137l15 47q177 -34 319 -137l160 110l22 -49l-137 -96q159 -132 248.5 -335.5t89.5 -434.5q0 -145 -52.5 -265.5t-152.5 -193.5t-227 -73 q-128 0 -229 73t-154 193.5t-53 265.5zM256 512q0 -234 67.5 -352.5t184.5 -118.5q114 0 182 120.5t68 350.5q0 234 -67.5 352.5t-182.5 118.5q-117 0 -184.5 -118.5t-67.5 -352.5z" />
<glyph unicode="&#xf1;" horiz-adv-x="1112" d="M51 0v53l113 13q35 5 35 51v788q0 23 -7.5 32t-27.5 9h-113v53l320 45l14 -16q-14 -57 -14 -172v-96h4q98 284 325 284q103 0 171.5 -78.5t68.5 -236.5v-612q0 -46 37 -51l115 -13v-53h-435v53l82 13q18 3 24.5 14.5t6.5 36.5v590q0 211 -156 211q-58 0 -106 -36 t-77 -93.5t-44.5 -124t-15.5 -132.5v-415q0 -45 35 -51l112 -13v-53h-467zM264 1178q70 231 180 231q47 0 147 -55.5t142 -55.5q33 0 55.5 22t53.5 75l35 -23q-30 -99 -66.5 -152t-93.5 -53q-32 0 -73 17.5t-73.5 38t-71 38t-65.5 17.5q-12 0 -23 -3t-19 -6t-17.5 -11.5 t-14.5 -13.5t-14.5 -19t-13 -20t-14.5 -24.5t-15 -25.5z" />
<glyph unicode="&#xf2;" horiz-adv-x="1011" d="M72 512q0 145 53 265.5t154 193.5t229 73q127 0 227 -73t152.5 -193.5t52.5 -265.5t-52.5 -265.5t-152.5 -193.5t-227 -73q-128 0 -229 73t-154 193.5t-53 265.5zM256 512q0 -234 67.5 -352.5t184.5 -118.5q114 0 182 120.5t68 350.5q0 234 -67.5 352.5t-182.5 118.5 q-117 0 -184.5 -118.5t-67.5 -352.5zM258 1307q2 39 40.5 54t72.5 -13l233 -195l-18 -33l-273 113q-57 21 -55 74z" />
<glyph unicode="&#xf3;" horiz-adv-x="1011" d="M72 512q0 145 53 265.5t154 193.5t229 73q127 0 227 -73t152.5 -193.5t52.5 -265.5t-52.5 -265.5t-152.5 -193.5t-227 -73q-128 0 -229 73t-154 193.5t-53 265.5zM256 512q0 -234 67.5 -352.5t184.5 -118.5q114 0 182 120.5t68 350.5q0 234 -67.5 352.5t-182.5 118.5 q-117 0 -184.5 -118.5t-67.5 -352.5zM449 1153l233 195q35 28 73 13t40 -54q2 -52 -56 -74l-272 -113z" />
<glyph unicode="&#xf4;" horiz-adv-x="1011" d="M72 512q0 145 53 265.5t154 193.5t229 73q127 0 227 -73t152.5 -193.5t52.5 -265.5t-52.5 -265.5t-152.5 -193.5t-227 -73q-128 0 -229 73t-154 193.5t-53 265.5zM256 512q0 -234 67.5 -352.5t184.5 -118.5q114 0 182 120.5t68 350.5q0 234 -67.5 352.5t-182.5 118.5 q-117 0 -184.5 -118.5t-67.5 -352.5zM258 1126l225 344h47l226 -344h-58l-190 203l-193 -203h-57z" />
<glyph unicode="&#xf5;" horiz-adv-x="1011" d="M72 512q0 145 53 265.5t154 193.5t229 73q127 0 227 -73t152.5 -193.5t52.5 -265.5t-52.5 -265.5t-152.5 -193.5t-227 -73q-128 0 -229 73t-154 193.5t-53 265.5zM201 1178q70 231 180 231q47 0 147 -55.5t142 -55.5q33 0 55 22t53 75l35 -23q-30 -99 -66.5 -152 t-93.5 -53q-40 0 -93.5 27.5t-104 55.5t-84.5 28q-12 0 -23 -3t-19 -6t-17.5 -11.5t-14.5 -13.5t-14.5 -19t-13 -20t-14.5 -24.5t-15 -25.5zM256 512q0 -234 67.5 -352.5t184.5 -118.5q114 0 182 120.5t68 350.5q0 234 -67.5 352.5t-182.5 118.5q-117 0 -184.5 -118.5 t-67.5 -352.5z" />
<glyph unicode="&#xf6;" horiz-adv-x="1011" d="M72 512q0 145 53 265.5t154 193.5t229 73q127 0 227 -73t152.5 -193.5t52.5 -265.5t-52.5 -265.5t-152.5 -193.5t-227 -73q-128 0 -229 73t-154 193.5t-53 265.5zM233 1292q0 42 27.5 69.5t69.5 27.5q40 0 68 -27.5t28 -69.5q0 -43 -27.5 -69.5t-68.5 -26.5 q-42 0 -69.5 26.5t-27.5 69.5zM256 512q0 -234 67.5 -352.5t184.5 -118.5q114 0 182 120.5t68 350.5q0 234 -67.5 352.5t-182.5 118.5q-117 0 -184.5 -118.5t-67.5 -352.5zM590 1292q0 42 27 69.5t69 27.5q40 0 68 -27.5t28 -69.5q0 -43 -27.5 -69.5t-68.5 -26.5 q-42 0 -69 26t-27 70z" />
<glyph unicode="&#xf7;" horiz-adv-x="1015" d="M178 512v61h660v-61h-660zM414 223q0 42 28.5 72.5t67.5 30.5q38 0 66 -31t28 -72q0 -43 -28 -73.5t-66 -30.5q-40 0 -68 30.5t-28 73.5zM414 864q0 42 28.5 72.5t67.5 30.5q38 0 66 -31t28 -72q0 -43 -28 -73.5t-66 -30.5q-40 0 -68 30.5t-28 73.5z" />
<glyph unicode="&#xf8;" horiz-adv-x="1011" d="M72 512q0 145 53 265.5t154 193.5t229 73q118 0 215 -65l55 106l47 -28l-59 -113q83 -72 128.5 -185.5t45.5 -246.5q0 -145 -52.5 -265.5t-152.5 -193.5t-227 -73q-120 0 -215 61l-53 -102l-47 28l57 109q-84 72 -131 187t-47 249zM256 512q0 -206 53 -324l367 701 q-64 94 -168 94q-117 0 -184.5 -118.5t-67.5 -352.5zM340 131q63 -90 168 -90q114 0 182 120.5t68 350.5q0 200 -51 317z" />
<glyph unicode="&#xf9;" horiz-adv-x="1091" d="M29 946v53l319 45l17 -16q-17 -70 -17 -172v-539q0 -211 156 -211q58 0 106.5 36t78 93.5t45.5 124t16 132.5v413q0 23 -8.5 32t-28.5 9h-150v53l355 45l16 -16q-14 -57 -14 -172v-741q0 -49 34 -52l115 -10v-53q-192 -20 -238 -20q-81 0 -81 77v207h-5 q-98 -284 -327 -284q-104 0 -172 78t-68 237v610q0 23 -8 32t-27 9h-114zM199 1307q2 39 40 54t72 -13l234 -195l-19 -33l-272 113q-57 21 -55 74z" />
<glyph unicode="&#xfa;" horiz-adv-x="1091" d="M29 946v53l319 45l17 -16q-17 -70 -17 -172v-539q0 -211 156 -211q58 0 106.5 36t78 93.5t45.5 124t16 132.5v413q0 23 -8.5 32t-28.5 9h-150v53l355 45l16 -16q-14 -57 -14 -172v-741q0 -49 34 -52l115 -10v-53q-192 -20 -238 -20q-81 0 -81 77v207h-5 q-98 -284 -327 -284q-104 0 -172 78t-68 237v610q0 23 -8 32t-27 9h-114zM444 1153l234 195q35 28 73 13t40 -54q2 -52 -56 -74l-272 -113z" />
<glyph unicode="&#xfb;" horiz-adv-x="1091" d="M29 946v53l319 45l17 -16q-17 -70 -17 -172v-539q0 -211 156 -211q58 0 106.5 36t78 93.5t45.5 124t16 132.5v413q0 23 -8.5 32t-28.5 9h-150v53l355 45l16 -16q-14 -57 -14 -172v-741q0 -49 34 -52l115 -10v-53q-192 -20 -238 -20q-81 0 -81 77v207h-5 q-98 -284 -327 -284q-104 0 -172 78t-68 237v610q0 23 -8 32t-27 9h-114zM297 1126l225 344h47l226 -344h-58l-190 203l-193 -203h-57z" />
<glyph unicode="&#xfc;" horiz-adv-x="1091" d="M29 946v53l319 45l17 -16q-17 -70 -17 -172v-539q0 -211 156 -211q58 0 106.5 36t78 93.5t45.5 124t16 132.5v413q0 23 -8.5 32t-28.5 9h-150v53l355 45l16 -16q-14 -57 -14 -172v-741q0 -49 34 -52l115 -10v-53q-192 -20 -238 -20q-81 0 -81 77v207h-5 q-98 -284 -327 -284q-104 0 -172 78t-68 237v610q0 23 -8 32t-27 9h-114zM272 1292q0 42 27.5 69.5t69.5 27.5q40 0 68 -27.5t28 -69.5q0 -43 -27.5 -69.5t-68.5 -26.5q-42 0 -69.5 26.5t-27.5 69.5zM629 1292q0 42 27.5 69.5t68.5 27.5q40 0 68 -27.5t28 -69.5 q0 -43 -27.5 -69.5t-68.5 -26.5q-42 0 -69 26t-27 70z" />
<glyph unicode="&#xfd;" horiz-adv-x="1067" d="M27 971v53h462v-53l-94 -10q-27 -3 -36 -23.5t1 -42.5l248 -727h2l203 717q17 54 -43 67l-90 19v53h360v-53l-88 -19q-57 -10 -75 -71l-254 -877q-23 -76 -42 -129t-49.5 -111t-64 -93t-82 -58t-106.5 -23q-57 0 -103.5 23t-46.5 72q0 51 42.5 63.5t80.5 -24.5 q60 -39 96 -39q59 0 99.5 53t74.5 172l-356 991q-19 51 -60 57zM551 1153l233 195q35 28 73 13t40 -54q2 -53 -55 -74l-273 -113z" />
<glyph unicode="&#xfe;" horiz-adv-x="1064" d="M29 -356l114 12q35 3 35 51v1608q0 23 -8 32t-27 9h-114v53l319 45l14 -16q-14 -57 -14 -160v-438h4q22 60 56 102.5t72.5 63t73 29.5t69.5 9q174 0 272 -141t98 -391q0 -232 -111 -382t-288 -150q-132 0 -242 79h-4v-352q0 -48 37 -51l150 -12v-54h-506v54zM348 125 q92 -62 197 -62q115 0 189.5 109.5t74.5 339.5q0 438 -236 438q-95 0 -160 -88.5t-65 -245.5v-491z" />
<glyph unicode="&#xff;" horiz-adv-x="1067" d="M27 971v53h462v-53l-94 -10q-27 -3 -36 -23.5t1 -42.5l248 -727h2l203 717q17 54 -43 67l-90 19v53h360v-53l-88 -19q-57 -10 -75 -71l-254 -877q-23 -76 -42 -129t-49.5 -111t-64 -93t-82 -58t-106.5 -23q-57 0 -103.5 23t-46.5 72q0 51 42.5 63.5t80.5 -24.5 q60 -39 96 -39q59 0 99.5 53t74.5 172l-356 991q-19 51 -60 57zM311 1292q0 42 27.5 69.5t69.5 27.5q40 0 68 -27.5t28 -69.5q0 -43 -27.5 -69.5t-68.5 -26.5q-42 0 -69.5 26.5t-27.5 69.5zM668 1292q0 42 27 69.5t69 27.5q40 0 68 -27.5t28 -69.5q0 -43 -27.5 -69.5 t-68.5 -26.5q-42 0 -69 26t-27 70z" />
<glyph unicode="&#x152;" horiz-adv-x="1744" d="M94 696q0 322 167 519.5t437 197.5q78 0 140 -20h811v-332h-50l-75 231q-13 37 -54 37h-393v-590h207q46 0 53 37l49 174h48v-487h-48l-49 174q-7 37 -53 37h-207v-611h420q37 0 53 37l105 232h49l-35 -332h-831q-62 -20 -140 -20q-270 0 -437 197t-167 519zM299 696 q0 -318 108 -486.5t291 -168.5q44 0 77.5 14t54.5 37t34 57.5t18 71t5 82.5v782q0 60 -8.5 105.5t-29 83.5t-59 58t-92.5 20q-182 0 -290.5 -169t-108.5 -487z" />
<glyph unicode="&#x153;" horiz-adv-x="1646" d="M72 512q0 145 53.5 265.5t154 193.5t228.5 73q112 0 202.5 -56t149.5 -154q63 101 160 155.5t203 54.5q57 0 110 -15t102 -50.5t82 -88.5t47.5 -136t2.5 -185h-619q-10 -223 84.5 -354t249.5 -131q71 0 129.5 31.5t116.5 87.5l26 -39q-52 -78 -139 -131t-201 -53 q-237 0 -358 202q-58 -95 -148 -148.5t-200 -53.5q-128 0 -228.5 73t-154 193.5t-53.5 265.5zM258 512q0 -234 67.5 -352.5t182.5 -118.5t184.5 121t69.5 350q0 233 -69.5 352t-184.5 119q-116 0 -183 -118.5t-67 -352.5zM950 629h461q17 169 -35 261.5t-157 92.5 q-106 0 -181.5 -102t-87.5 -252z" />
<glyph unicode="&#x178;" horiz-adv-x="1269" d="M25 1339v54h487v-54l-84 -10q-27 -6 -34.5 -29t3.5 -43l299 -641h4l283 631q10 26 0.5 44t-35.5 24l-114 24v54h411v-54l-115 -24q-51 -12 -77 -70l-324 -721v-407q0 -48 37 -51l121 -13v-53h-504v53l121 13q35 3 35 51v391l-355 754q-26 58 -63 63zM395 1661 q0 42 27.5 69t69.5 27q40 0 68 -27t28 -69q0 -43 -27.5 -69.5t-68.5 -26.5q-42 0 -69.5 26.5t-27.5 69.5zM752 1661q0 42 27 69t69 27q40 0 68 -27t28 -69q0 -43 -27.5 -69.5t-68.5 -26.5q-42 0 -69 26t-27 70z" />
<glyph unicode="&#x2c6;" horiz-adv-x="837" d="M170 1126l225 344h47l226 -344h-58l-190 203l-193 -203h-57z" />
<glyph unicode="&#x2dc;" horiz-adv-x="952" d="M170 1178q70 231 180 231q47 0 147 -55.5t142 -55.5q33 0 55.5 22t53.5 75l34 -23q-30 -99 -66 -152t-93 -53q-32 0 -73 17.5t-73.5 38t-71 38t-65.5 17.5q-12 0 -23 -3t-19 -6t-17.5 -11.5t-14.5 -13.5t-14.5 -19t-13 -20t-14.5 -24.5t-15 -25.5z" />
<glyph unicode="&#x2000;" horiz-adv-x="919" />
<glyph unicode="&#x2001;" horiz-adv-x="1839" />
<glyph unicode="&#x2002;" horiz-adv-x="919" />
<glyph unicode="&#x2003;" horiz-adv-x="1839" />
<glyph unicode="&#x2004;" horiz-adv-x="613" />
<glyph unicode="&#x2005;" horiz-adv-x="459" />
<glyph unicode="&#x2006;" horiz-adv-x="306" />
<glyph unicode="&#x2007;" horiz-adv-x="306" />
<glyph unicode="&#x2008;" horiz-adv-x="229" />
<glyph unicode="&#x2009;" horiz-adv-x="367" />
<glyph unicode="&#x200a;" horiz-adv-x="102" />
<glyph unicode="&#x2010;" d="M178 512v61h623v-61h-623z" />
<glyph unicode="&#x2011;" d="M178 512v61h623v-61h-623z" />
<glyph unicode="&#x2012;" d="M178 512v61h623v-61h-623z" />
<glyph unicode="&#x2013;" horiz-adv-x="1157" d="M178 512v61h801v-61h-801z" />
<glyph unicode="&#x2014;" horiz-adv-x="1335" d="M178 512v61h979v-61h-979z" />
<glyph unicode="&#x2018;" horiz-adv-x="542" d="M154 1112q0 63 19.5 118.5t52 94.5t63.5 64.5t65 44.5l25 -41q-56 -35 -97.5 -86.5t-41.5 -104.5q0 -67 59 -67q41 0 64.5 -29t23.5 -68q0 -41 -25.5 -72.5t-72.5 -31.5q-46 0 -78.5 32.5t-44.5 71t-12 74.5z" />
<glyph unicode="&#x2019;" horiz-adv-x="542" d="M156 1331q0 41 26 72t72 31q35 0 63 -18.5t42.5 -47.5t22 -58t7.5 -55q0 -50 -13.5 -96.5t-34.5 -80t-49 -63.5t-53 -48.5t-51 -32.5l-24 41q57 35 98 86.5t41 105.5q0 29 -14.5 48.5t-44.5 19.5q-40 0 -64 28.5t-24 67.5z" />
<glyph unicode="&#x201a;" horiz-adv-x="542" d="M156 109q0 40 26 71t72 31q35 0 62.5 -18t42.5 -46.5t22.5 -57.5t7.5 -56q0 -62 -20 -117.5t-52 -94t-64 -64.5t-65 -44l-24 41q57 35 98 86t41 105q0 67 -59 67q-39 0 -63.5 29t-24.5 68z" />
<glyph unicode="&#x201c;" horiz-adv-x="899" d="M154 1112q0 63 19.5 118.5t52 94.5t63.5 64.5t65 44.5l25 -41q-56 -35 -97.5 -86.5t-41.5 -104.5q0 -67 59 -67q41 0 64.5 -29t23.5 -68q0 -41 -25.5 -72.5t-72.5 -31.5q-46 0 -78.5 32.5t-44.5 71t-12 74.5zM510 1112q0 63 19.5 118.5t52.5 94.5t64 64.5t65 44.5l24 -41 q-56 -35 -97.5 -86.5t-41.5 -104.5q0 -67 59 -67q41 0 64.5 -29t23.5 -68q0 -41 -25.5 -72.5t-72.5 -31.5q-46 0 -78.5 32.5t-44.5 71t-12 74.5z" />
<glyph unicode="&#x201d;" horiz-adv-x="899" d="M156 1331q0 41 26 72t72 31q35 0 63 -18.5t42.5 -47.5t22 -58t7.5 -55q0 -50 -13.5 -96.5t-34.5 -80t-49 -63.5t-53 -48.5t-51 -32.5l-24 41q57 35 98 86.5t41 105.5q0 29 -14.5 48.5t-44.5 19.5q-40 0 -64 28.5t-24 67.5zM512 1331q0 41 26 72t72 31q35 0 63 -18.5 t42.5 -47.5t22 -58t7.5 -55q0 -62 -19.5 -117t-52 -94t-63.5 -65t-65 -45l-25 41q57 35 98 86.5t41 105.5q0 29 -14.5 48.5t-44.5 19.5q-40 0 -64 28.5t-24 67.5z" />
<glyph unicode="&#x201e;" horiz-adv-x="899" d="M156 109q0 40 26 71t72 31q35 0 62.5 -18t42.5 -46.5t22.5 -57.5t7.5 -56q0 -62 -20 -117.5t-52 -94t-64 -64.5t-65 -44l-24 41q57 35 98 86t41 105q0 67 -59 67q-39 0 -63.5 29t-24.5 68zM512 109q0 40 26 71t72 31q35 0 62.5 -18t42.5 -46.5t22.5 -57.5t7.5 -56 q0 -62 -19.5 -117.5t-52 -94t-64 -65t-64.5 -43.5l-25 41q57 35 98 86t41 105q0 67 -59 67q-39 0 -63.5 29t-24.5 68z" />
<glyph unicode="&#x2022;" horiz-adv-x="706" d="M178 475q0 85 50.5 144t123.5 59t124.5 -59t51.5 -144t-51 -143t-125 -58q-73 0 -123.5 58t-50.5 143z" />
<glyph unicode="&#x2026;" horiz-adv-x="1196" d="M147 84q0 41 28.5 71.5t66.5 30.5t67 -30.5t29 -71.5q0 -42 -28.5 -73t-67.5 -31q-38 0 -66.5 30.5t-28.5 73.5zM504 84q0 41 28 71.5t66 30.5t67 -30.5t29 -71.5q0 -42 -28.5 -73t-67.5 -31q-38 0 -66 30.5t-28 73.5zM860 84q0 41 28 71.5t66 30.5t67.5 -30.5 t29.5 -71.5q0 -42 -29 -73t-68 -31q-38 0 -66 30.5t-28 73.5z" />
<glyph unicode="&#x202f;" horiz-adv-x="367" />
<glyph unicode="&#x2039;" horiz-adv-x="790" d="M178 524v58l406 370l28 -45l-276 -354l276 -354l-28 -45z" />
<glyph unicode="&#x203a;" horiz-adv-x="790" d="M178 199l277 354l-277 354l31 45l403 -370v-58l-403 -370z" />
<glyph unicode="&#x205f;" horiz-adv-x="459" />
<glyph unicode="&#x20ac;" horiz-adv-x="1325" d="M72 522v62h100q-6 55 -6 112q0 58 6 113h-100v61h108q44 244 203 393.5t379 149.5q226 0 399 -110v-324h-47q-19 88 -47.5 155t-61 107.5t-72.5 66t-79 35t-84 9.5q-155 0 -257.5 -125.5t-131.5 -356.5h313v-61h-319q-4 -37 -4 -113q0 -77 4 -112h319v-62h-313 q29 -229 131 -351t254 -122q61 0 117 20.5t107.5 64t90.5 120.5t58 180l57 -16q-18 -98 -52.5 -174.5t-77.5 -125.5t-96.5 -80.5t-107 -44.5t-112.5 -13q-222 0 -375 147.5t-195 394.5h-108z" />
<glyph unicode="&#x2122;" horiz-adv-x="1327" d="M78 1243v150h448v-150h-22l-35 105q-5 16 -23 16h-102v-547q0 -19 16 -22l56 -7v-22h-228v22l56 7q16 3 16 22v547h-102q-18 0 -23 -16l-35 -105h-22zM596 766v22l59 13q21 6 21 26v512q0 23 -17 23l-63 6v25h172l166 -480l153 480h162v-25l-55 -6q-16 0 -16 -23v-522 q0 -19 16 -22l55 -7v-22h-227v22l55 7q17 3 17 22v496l-176 -553h-21l-192 555v-488q0 -21 18 -26l61 -13v-22h-188z" />
<glyph unicode="&#x25fc;" horiz-adv-x="1024" d="M0 0v1024h1024v-1024h-1024z" />
</font>
</defs>
</svg>
