<?xml version="1.0" encoding="utf-8"?>
<!-- Generator: Adobe Illustrator 18.1.1, SVG Export Plug-In . SVG Version: 6.00 Build 0)  -->
<svg version="1.1" id="Capa_1" xmlns="http://www.w3.org/2000/svg" xmlns:xlink="http://www.w3.org/1999/xlink" x="0px" y="0px"
	 viewBox="0 0 612 792" enable-background="new 0 0 612 792" xml:space="preserve">
<g>
	<path fill="#FF9700" d="M291.8,418.9c0,0-71.5,69.7-99.5,149.7v21.8h227.3v-21.8c-36.3-88.4-99.5-149.7-99.5-149.7H291.8z"/>
	<path fill="#FF9700" d="M501.6,189.9v-34.4h32.6V90H77.8v65.6h32.6v34.4c0,52.5,94.2,195.8,98.6,206.2
		c-4.4,10.4-98.6,153.7-98.6,206v34.3H77.8V702h456.4v-65.6h-32.6v-34.3c0-52.5-94.3-194.9-99.3-206
		C407.3,384.9,501.6,242.4,501.6,189.9z M469,602.1v34.3H143v-34.3c0-37.8,99.9-187.2,99.9-206c0-18.9-99.9-168.4-99.9-206.1v-34.4
		h326v34.4c0,37.7-100.7,187.1-100.7,206.1C368.3,414.9,469,564.3,469,602.1z"/>
</g>
</svg>
