<?xml version="1.0" encoding="utf-8"?>
<!-- Generator: Adobe Illustrator 18.1.1, SVG Export Plug-In . SVG Version: 6.00 Build 0)  -->
<svg version="1.1" id="Capa_1" xmlns="http://www.w3.org/2000/svg" xmlns:xlink="http://www.w3.org/1999/xlink" x="0px" y="0px"
	 viewBox="-297 389 16 16" enable-background="new -297 389 16 16" xml:space="preserve">
<path fill="#919191" d="M-282.5,390h-6.3c-0.2,0-0.5,0.2-0.5,0.3l-7.4,7.4c-0.4,0.4-0.4,1,0,1.4l5.6,5.6c0.2,0.2,0.5,0.3,0.7,0.3
	c0.3,0,0.5-0.1,0.7-0.3l7.4-7.4c0,0,0.3-0.4,0.3-0.5v-6.3C-282,390.2-282.2,390-282.5,390z M-283,396.6L-283,396.6l-7.4,7.4
	l-5.6-5.6l7.3-7.3l0.1,0h5.6V396.6z M-285,392.5c0-0.3,0.2-0.5,0.5-0.5s0.5,0.2,0.5,0.5s-0.2,0.5-0.5,0.5S-285,392.8-285,392.5z"/>
</svg>
