<?xml version="1.0" encoding="utf-8"?>
<!-- Generator: Adobe Illustrator 18.1.1, SVG Export Plug-In . SVG Version: 6.00 Build 0)  -->
<svg version="1.1" id="Capa_1" xmlns="http://www.w3.org/2000/svg" xmlns:xlink="http://www.w3.org/1999/xlink" x="0px" y="0px"
	 viewBox="-297 389 16 16" enable-background="new -297 389 16 16" xml:space="preserve">
<g>
	<path fill="#B20000" d="M-288.5,390c-4.1,0-7.5,3.4-7.5,7.5c0,4.1,3.4,7.5,7.5,7.5c4.1,0,7.5-3.4,7.5-7.5
		C-281,393.4-284.4,390-288.5,390z M-288.5,404c-3.6,0-6.5-2.9-6.5-6.5s2.9-6.5,6.5-6.5c3.6,0,6.5,2.9,6.5,6.5
		C-282,401.1-284.9,404-288.5,404z"/>
	<path fill="#B20000" d="M-285.7,394l-2.7,2.7l-2.5-2.7c-0.2-0.2-0.5-0.2-0.7,0c-0.2,0.2-0.2,0.5,0,0.7l2.5,2.7l-2.8,2.8
		c-0.2,0.2-0.2,0.5,0,0.7s0.5,0.2,0.7,0l2.7-2.7l2.5,2.7c0.2,0.2,0.5,0.2,0.7,0c0.2-0.2,0.2-0.5,0-0.7l-2.5-2.7l2.8-2.8
		c0.2-0.2,0.2-0.5,0-0.7C-285.2,393.8-285.5,393.8-285.7,394z"/>
</g>
</svg>
