<?xml version="1.0" encoding="utf-8"?>
<!-- Generator: Adobe Illustrator 18.1.1, SVG Export Plug-In . SVG Version: 6.00 Build 0)  -->
<svg version="1.1" id="Capa_1" xmlns="http://www.w3.org/2000/svg" xmlns:xlink="http://www.w3.org/1999/xlink" x="0px" y="0px"
	 viewBox="-297 389 16 16" enable-background="new -297 389 16 16" xml:space="preserve">
<path fill="#002BFF" d="M-282.5,389h-5.3c-0.2,0-0.5,0.2-0.5,0.3l-6.4,6.4c-0.4,0.4-0.4,1,0,1.4l0.8,0.8l-0.8,0.8
	c-0.4,0.4-0.4,1,0,1.4l4.6,4.6c0.2,0.2,0.5,0.3,0.7,0.3c0.3,0,0.5-0.1,0.7-0.3l6.4-6.4c0,0,0.3-0.4,0.3-0.5v-8.3
	C-282,389.2-282.2,389-282.5,389z M-283,397.6L-283,397.6l-6.4,6.4l-4.6-4.6l0.8-0.8l3.1,3.1c0.2,0.2,0.4,0.3,0.7,0.3
	s0.5-0.1,0.7-0.3l5.7-5.7V397.6z M-283.5,391c-0.3,0-0.5-0.2-0.5-0.5s0.2-0.5,0.5-0.5s0.5,0.2,0.5,0.5S-283.2,391-283.5,391z"/>
</svg>
