<?xml version="1.0" standalone="no"?>
<!DOCTYPE svg PUBLIC "-//W3C//DTD SVG 1.1//EN" "http://www.w3.org/Graphics/SVG/1.1/DTD/svg11.dtd" >
<svg xmlns="http://www.w3.org/2000/svg">
<metadata></metadata>
<defs>
<font id="fira_sans_condensedmedium" horiz-adv-x="1048" >
<font-face units-per-em="2048" ascent="1638" descent="-410" />
<missing-glyph horiz-adv-x="428" />
<glyph unicode="&#xfb01;" d="M10 901v182h146v136q0 142 92 233.5t278 91.5q163 0 301 -78l-71 -161q-99 47 -203 47q-80 0 -112.5 -33t-32.5 -107v-129h518v-1083h-252v901h-266v-901h-252v901h-146z" />
<glyph unicode="&#xfb02;" horiz-adv-x="1110" d="M14 901v182h146v140q0 142 89 231.5t259 89.5q108 0 209 -37l229 25v-1296q0 -64 51 -64q20 0 50 10l51 -174q-80 -39 -162 -39q-114 0 -178 68.5t-64 187.5v1108q-90 23 -149 23q-75 0 -104 -31.5t-29 -103.5v-138h186l-29 -182h-157v-901h-252v901h-146z" />
<glyph horiz-adv-x="0" />
<glyph horiz-adv-x="682" />
<glyph unicode="&#xd;" horiz-adv-x="428" />
<glyph unicode=" "  horiz-adv-x="428" />
<glyph unicode="&#x09;" horiz-adv-x="428" />
<glyph unicode="&#xa0;" horiz-adv-x="428" />
<glyph unicode="!" horiz-adv-x="460" d="M74 131q0 65 43.5 112.5t111.5 47.5q69 0 113.5 -47.5t44.5 -112.5q0 -66 -44.5 -114t-113.5 -48t-112 47.5t-43 114.5zM94 1415h268l-32 -919h-201z" />
<glyph unicode="&#x22;" horiz-adv-x="819" d="M98 1415h230l-31 -553h-168zM492 1415h227l-29 -553h-168z" />
<glyph unicode="#" horiz-adv-x="964" d="M27 317v172h120l56 420h-113v174h135l39 295h203l-39 -295h209l39 295h203l-39 -295h98v-174h-123l-55 -420h114v-172h-137l-41 -317h-200l41 317h-211l-41 -317h-201l41 317h-98zM348 489h211l55 420h-211z" />
<glyph unicode="$" horiz-adv-x="960" d="M18 162l127 139q144 -131 295 -131q99 0 155 56t56 155q0 86 -48.5 138.5t-178.5 98.5q-190 73 -273 166.5t-83 239.5q0 143 91 243.5t238 125.5v301h187v-301q167 -28 293 -160l-121 -137q-121 112 -254 112q-83 0 -130.5 -45.5t-47.5 -122.5q0 -75 49.5 -122.5 t189.5 -100.5q86 -33 144 -67t107 -82.5t72 -116t23 -156.5q0 -151 -86.5 -259.5t-238.5 -143.5v-316h-187v304q-220 16 -379 182z" />
<glyph unicode="%" horiz-adv-x="1521" d="M70 1044q0 169 86.5 264t220.5 95q135 0 220 -94.5t85 -264.5q0 -168 -85 -262t-220 -94q-134 0 -220.5 94t-86.5 262zM256 1044q0 -98 27 -150t94 -52t93 51t26 151q0 99 -26.5 151t-92.5 52q-67 0 -94 -52t-27 -151zM274 20l820 1444l157 -92l-819 -1444zM838 326 q0 169 86.5 263.5t222.5 94.5q134 0 219.5 -94.5t85.5 -263.5q0 -168 -85 -262.5t-220 -94.5t-222 94.5t-87 262.5zM1024 326q0 -98 27.5 -149.5t95.5 -51.5q67 0 93 50.5t26 150.5t-26 151t-93 51q-68 0 -95.5 -51t-27.5 -151z" />
<glyph unicode="&#x26;" horiz-adv-x="1396" d="M121 360q0 124 60 217t186 185q-96 100 -135 177t-39 177q0 143 94 236.5t268 93.5q168 0 266.5 -90.5t98.5 -233.5q0 -119 -62.5 -208.5t-179.5 -172.5l266 -303q56 156 90 316l205 -54q-59 -223 -160 -395l211 -217l-200 -119l-154 178q-166 -178 -393 -178 q-188 0 -305 108t-117 283zM383 371q0 -104 54 -159.5t145 -55.5q132 0 227 118l-303 351q-65 -54 -94 -114.5t-29 -139.5zM432 1116q0 -69 25.5 -122t87.5 -126q72 64 104.5 117.5t32.5 128.5q0 160 -125 160q-59 0 -92 -40.5t-33 -117.5z" />
<glyph unicode="'" horiz-adv-x="428" d="M98 1415h230l-31 -553h-168z" />
<glyph unicode="(" horiz-adv-x="585" d="M43 717q0 141 19.5 269t47.5 223.5t77 198.5t90 171.5t104 163.5l162 -107q-88 -146 -138 -267t-79 -282.5t-29 -369.5q0 -207 29 -368.5t79 -283.5t138 -268l-162 -106q-63 95 -104 163.5t-90 171.5t-77 198.5t-47.5 223.5t-19.5 269z" />
<glyph unicode=")" horiz-adv-x="585" d="M43 -203q87 146 137.5 269t79.5 285t29 366q0 299 -57.5 499.5t-188.5 419.5l160 107q47 -74 75 -119.5t68.5 -119t64.5 -130t52 -136t43 -155t25 -170.5t10 -196t-10 -196t-25 -170.5t-43 -155t-52 -136t-64.5 -130t-68.5 -119t-75 -119.5z" />
<glyph unicode="*" horiz-adv-x="819" d="M35 1124l67 193l234 -117l-35 318h217l-35 -318l232 119l69 -195l-254 -57l189 -225l-184 -117l-125 258l-123 -260l-183 117l185 227z" />
<glyph unicode="+" horiz-adv-x="923" d="M90 578v200h266v309h209v-309h266v-200h-266v-306h-209v306h-266z" />
<glyph unicode="," horiz-adv-x="444" d="M63 -350l78 348q-71 49 -71 135q0 68 43 113t110 45q66 0 109 -45t43 -113q0 -54 -51 -182l-115 -301h-146z" />
<glyph unicode="-" horiz-adv-x="733" d="M92 541v200h549v-200h-549z" />
<glyph unicode="." horiz-adv-x="452" d="M70 131q0 65 43.5 112.5t111.5 47.5q69 0 113.5 -47.5t44.5 -112.5q0 -66 -44.5 -114t-113.5 -48t-112 47.5t-43 114.5z" />
<glyph unicode="/" horiz-adv-x="915" d="M141 -174l422 1835l211 -47l-420 -1835z" />
<glyph unicode="0" horiz-adv-x="1058" d="M92 688q0 715 438 715q215 0 326 -180t111 -535q0 -719 -437 -719q-438 0 -438 719zM352 688q0 -205 19.5 -321t57 -160.5t101.5 -44.5t101.5 44.5t57.5 160.5t20 321q0 203 -20 318t-57.5 159.5t-101.5 44.5t-101.5 -45.5t-57 -160.5t-19.5 -316z" />
<glyph unicode="1" horiz-adv-x="802" d="M25 1104l393 272h225v-1376h-248v1124l-258 -182z" />
<glyph unicode="2" horiz-adv-x="890" d="M6 1180q155 223 397 223q186 0 292 -107t106 -270q0 -89 -22 -166.5t-82.5 -176.5t-147 -206.5t-234.5 -275.5h512l-26 -201h-758v186q215 253 315 388.5t142.5 234.5t42.5 203q0 92 -44 142t-120 50q-64 0 -113 -32.5t-108 -106.5z" />
<glyph unicode="3" horiz-adv-x="909" d="M0 166l141 127q64 -67 119 -97t123 -30q91 0 146 62t55 175q0 122 -56.5 175t-167.5 53h-88l29 178h57q92 0 147.5 56t55.5 159q0 89 -47.5 138.5t-128.5 49.5q-124 0 -229 -114l-129 131q171 174 387 174q177 0 282 -102.5t105 -249.5q0 -251 -260 -322 q138 -16 218.5 -100t80.5 -236q0 -115 -51 -210.5t-153.5 -154.5t-238.5 -59q-236 0 -397 197z" />
<glyph unicode="4" horiz-adv-x="983" d="M53 319v175l342 911l213 -78l-301 -815h260l27 350h209v-350h139v-193h-139v-319h-238v319h-512z" />
<glyph unicode="5" horiz-adv-x="935" d="M31 162l141 129q55 -63 110.5 -94t125.5 -31q98 0 152 72t54 211q0 142 -46.5 201t-131.5 59q-76 0 -151 -47h-174v716h708l-31 -188h-440v-352q87 51 184 51q151 0 244.5 -116t93.5 -324q0 -215 -124 -347.5t-328 -132.5q-125 0 -217.5 49.5t-169.5 143.5z" />
<glyph unicode="6" horiz-adv-x="1009" d="M92 637q0 352 135.5 559t368.5 207q148 0 264 -88l-92 -152q-79 51 -164 51q-110 0 -177 -115t-77 -335q102 151 266 151q145 0 239.5 -117t94.5 -329q0 -230 -113.5 -365t-304.5 -135q-225 0 -332.5 173.5t-107.5 494.5zM350 582q3 -232 44 -328t138 -96q165 0 168 307 q0 147 -39 208.5t-110 61.5q-115 0 -201 -153z" />
<glyph unicode="7" horiz-adv-x="815" d="M27 1182v196h753v-178l-440 -1227l-225 74l411 1135h-499z" />
<glyph unicode="8" horiz-adv-x="1011" d="M57 365q0 238 240 350q-102 62 -146.5 141.5t-44.5 183.5q0 168 112.5 265.5t285.5 97.5q176 0 289.5 -92.5t113.5 -259.5q0 -99 -50.5 -175.5t-160.5 -136.5q133 -66 195.5 -155.5t62.5 -212.5q0 -180 -122 -291t-332 -111q-204 0 -323.5 110.5t-119.5 285.5zM307 373 q0 -217 201 -217q96 0 146.5 54.5t50.5 160.5q0 97 -45 150.5t-164 105.5l-50 22q-139 -89 -139 -276zM348 1036q0 -85 38 -133t128 -88l33 -14q67 51 93 105.5t26 131.5q0 189 -160 189q-77 0 -117.5 -44.5t-40.5 -146.5z" />
<glyph unicode="9" horiz-adv-x="989" d="M57 936q0 220 120 343.5t306 123.5q212 0 322 -141t110 -396q0 -211 -41.5 -362.5t-133 -258.5t-220.5 -175.5t-321 -120.5l-54 180q117 36 200.5 78t149 100.5t104 137.5t52.5 182q-103 -138 -252 -138q-142 0 -242 123t-100 324zM309 940q0 -136 43.5 -202t118.5 -66 q109 0 188 141q1 153 -17 242t-55.5 126.5t-101.5 37.5q-176 0 -176 -279z" />
<glyph unicode=":" horiz-adv-x="452" d="M70 131q0 65 43.5 112.5t111.5 47.5q69 0 113.5 -47.5t44.5 -112.5q0 -66 -44.5 -114t-113.5 -48t-112 47.5t-43 114.5zM70 860q0 65 43.5 112.5t111.5 47.5q69 0 113.5 -47.5t44.5 -112.5q0 -66 -44.5 -114t-113.5 -48t-112 47.5t-43 114.5z" />
<glyph unicode=";" horiz-adv-x="452" d="M63 -350l78 348q-71 49 -71 135q0 68 43 113t110 45q66 0 109 -45t43 -113q0 -54 -51 -182l-115 -301h-146zM70 860q0 65 43.5 112.5t111.5 47.5q69 0 113.5 -47.5t44.5 -112.5q0 -66 -44.5 -114t-113.5 -48t-112 47.5t-43 114.5z" />
<glyph unicode="&#x3c;" horiz-adv-x="907" d="M63 569v226l693 348l86 -180l-576 -281l576 -279l-86 -184z" />
<glyph unicode="=" horiz-adv-x="905" d="M90 375v194h725v-194h-725zM90 786v195h725v-195h-725z" />
<glyph unicode="&#x3e;" horiz-adv-x="907" d="M63 403l578 279l-578 281l89 180l690 -348v-226l-690 -350z" />
<glyph unicode="?" horiz-adv-x="856" d="M41 1235q154 211 399 211q91 0 164 -27.5t118 -74.5t69 -105.5t24 -122.5t-17.5 -115.5t-45.5 -86.5t-62 -65t-67.5 -57.5t-61.5 -57.5t-45.5 -72.5t-17.5 -94.5v-71h-232v84q0 70 16 125.5t42 91.5t57 65.5t62.5 54t57.5 49.5t42 60t16 78q0 67 -38 103t-105 36 q-117 0 -221 -127zM229 131q0 65 44.5 112.5t111.5 47.5q69 0 113.5 -47.5t44.5 -112.5q0 -66 -44.5 -114t-113.5 -48q-67 0 -111.5 48t-44.5 114z" />
<glyph unicode="@" horiz-adv-x="1812" d="M102 494q0 273 106 490t296.5 338.5t431.5 121.5q147 0 272 -41.5t216.5 -116t156.5 -175.5t97 -221.5t32 -252.5q0 -178 -45 -319t-131 -222.5t-199 -81.5q-95 0 -154.5 59t-74.5 140q-82 -195 -256 -195q-153 0 -235.5 121.5t-82.5 335.5q0 262 106.5 402.5 t295.5 140.5q161 0 301 -88v-516q0 -131 21.5 -180.5t70.5 -49.5q158 0 158 449q0 298 -138 460t-411 162q-284 0 -444 -207t-160 -554q0 -358 156.5 -552t449.5 -194q173 0 342 68l61 -176q-197 -84 -407 -84q-383 0 -607.5 251t-224.5 687zM762 475q0 -160 29 -225.5 t92 -65.5q80 0 137 107v545q-41 18 -92 18q-86 0 -126 -86t-40 -293z" />
<glyph unicode="A" horiz-adv-x="1056" d="M-4 0l375 1415h317l373 -1415h-266l-74 332h-391l-74 -332h-260zM373 528h305l-154 689z" />
<glyph unicode="B" horiz-adv-x="1087" d="M133 0v1415h324q252 0 389 -90.5t137 -269.5q0 -120 -69 -197.5t-179 -107.5q65 -14 115 -37t93.5 -62t67 -100.5t23.5 -142.5q0 -107 -38.5 -186.5t-109.5 -127.5t-165.5 -71t-214.5 -23h-373zM395 197h113q126 0 192 49.5t66 169.5t-61.5 175.5t-184.5 55.5h-125v-450z M395 831h107q107 0 161 51.5t54 149.5q0 101 -57 146t-177 45h-88v-392z" />
<glyph unicode="C" horiz-adv-x="1015" d="M78 711q0 182 41 323.5t115 230.5t172.5 135t216.5 46q110 0 195 -37t167 -111l-127 -151q-112 98 -223 98q-285 0 -285 -534q0 -533 287 -533q68 0 120.5 28t116.5 81l123 -148q-66 -74 -161 -122t-211 -48q-252 0 -399.5 188.5t-147.5 553.5z" />
<glyph unicode="D" horiz-adv-x="1159" d="M133 0v1415h322q75 0 137.5 -7t128 -27t117 -53t98.5 -87t78 -125.5t49 -173.5t18 -227q0 -715 -598 -715h-350zM395 195h105q56 0 99.5 12.5t84.5 47.5t68 92t43 150t16 218q0 127 -17 219.5t-44 147t-69.5 86.5t-85 42.5t-99.5 10.5h-101v-1026z" />
<glyph unicode="E" horiz-adv-x="931" d="M133 0v1415h729l-28 -194h-439v-406h383v-192h-383v-426h469v-197h-731z" />
<glyph unicode="F" horiz-adv-x="866" d="M133 0v1415h709l-27 -194h-420v-433h365v-194h-365v-594h-262z" />
<glyph unicode="G" horiz-adv-x="1146" d="M78 709q0 176 45 318t123.5 232.5t181 138.5t221.5 48q123 0 218 -42.5t180 -123.5l-134 -137q-64 55 -122.5 79.5t-131.5 24.5q-54 0 -99 -17.5t-84.5 -58t-67 -101.5t-43 -153t-15.5 -208q0 -197 31.5 -317t90 -171t151.5 -51q100 0 182 55v379h-174l-27 195h449v-693 q-194 -135 -428 -135q-270 0 -408.5 186.5t-138.5 551.5z" />
<glyph unicode="H" horiz-adv-x="1187" d="M133 0v1415h262v-571h400v571h260v-1415h-260v635h-400v-635h-262z" />
<glyph unicode="I" horiz-adv-x="528" d="M133 0v1415h262v-1415h-262z" />
<glyph unicode="J" horiz-adv-x="557" d="M-14 -127q114 55 148 124.5t34 217.5v1200h262v-1210q0 -117 -28.5 -205.5t-83.5 -147t-116 -95t-147 -68.5z" />
<glyph unicode="K" horiz-adv-x="1105" d="M133 0v1415h262v-1415h-262zM403 756l414 659h268l-409 -641l442 -774h-293z" />
<glyph unicode="L" horiz-adv-x="894" d="M133 0v1415h262v-1200h479l-26 -215h-715z" />
<glyph unicode="M" horiz-adv-x="1413" d="M84 0l96 1415h330l201 -997l188 997h336l94 -1415h-250l-26 598q-15 318 -15 512v61l-209 -1015h-245l-222 1018q3 -86 3 -187q0 -176 -9 -397l-26 -590h-246z" />
<glyph unicode="N" horiz-adv-x="1185" d="M133 0v1415h330l393 -1159q-35 239 -35 481v678h232v-1415h-332l-391 1157q35 -318 35 -565v-592h-232z" />
<glyph unicode="O" horiz-adv-x="1236" d="M78 707q0 361 142.5 550t397.5 189q258 0 399.5 -185.5t141.5 -551.5q0 -363 -142.5 -551.5t-398.5 -188.5t-398 186t-142 552zM350 707q0 -290 67 -413.5t201 -123.5q90 0 147.5 50t89.5 170.5t32 318.5q0 194 -31.5 314t-89.5 171t-148 51q-89 0 -146.5 -51 t-89.5 -171.5t-32 -315.5z" />
<glyph unicode="P" d="M133 0v1415h344q261 0 398 -113.5t137 -334.5q0 -235 -136 -352t-380 -117h-101v-498h-262zM395 692h86q134 0 197 61.5t63 211.5q0 134 -62.5 196t-195.5 62h-88v-531z" />
<glyph unicode="Q" horiz-adv-x="1236" d="M78 707q0 359 143 549t397 190q257 0 399 -187t142 -550q0 -131 -22 -235t-64 -177t-91.5 -122.5t-115.5 -88.5q115 -1 202.5 -36t164.5 -103l-164 -201q-94 117 -199.5 173t-265.5 56q-244 0 -385 187.5t-141 544.5zM350 707q0 -195 32.5 -316t90 -171t145.5 -50 q136 0 202.5 124t66.5 415q0 288 -66.5 412t-202.5 124q-89 0 -146.5 -50.5t-89.5 -171t-32 -316.5z" />
<glyph unicode="R" horiz-adv-x="1091" d="M133 0v1415h354q262 0 391.5 -106t129.5 -310q0 -139 -59 -228.5t-185 -145.5l317 -625h-284l-267 571h-135v-571h-262zM395 760h105q123 0 180 57.5t57 181.5q0 117 -59.5 171.5t-192.5 54.5h-90v-465z" />
<glyph unicode="S" horiz-adv-x="995" d="M18 162l134 143q152 -135 305 -135q100 0 157.5 58.5t57.5 158.5q0 89 -50 143.5t-184 104.5q-195 74 -281.5 171.5t-86.5 248.5q0 171 121.5 281t308.5 110q130 0 227 -43t182 -131l-125 -142q-127 115 -264 115q-83 0 -132.5 -46.5t-49.5 -125.5q0 -77 50.5 -126 t195.5 -103q89 -35 149.5 -70.5t110.5 -86.5t74 -121t24 -163q0 -189 -128 -311.5t-343 -122.5q-267 0 -453 193z" />
<glyph unicode="T" horiz-adv-x="942" d="M18 1210v205h918l-27 -205h-309v-1210h-260v1210h-322z" />
<glyph unicode="U" horiz-adv-x="1155" d="M113 420v995h262v-981q0 -133 49 -196.5t154 -63.5t153.5 64t48.5 196v981h262v-995q0 -200 -120 -324.5t-344 -124.5q-226 0 -345.5 122.5t-119.5 326.5z" />
<glyph unicode="V" horiz-adv-x="1021" d="M-4 1415h266l258 -1184l250 1184h256l-348 -1415h-322z" />
<glyph unicode="W" horiz-adv-x="1499" d="M31 1415h252l145 -1206l184 1206h277l180 -1206l158 1206h241l-213 -1415h-340l-167 1139l-175 -1139h-333z" />
<glyph unicode="X" horiz-adv-x="1005" d="M-4 0l346 754l-319 661h278l199 -497l209 497h268l-324 -651l357 -764h-279l-235 588l-230 -588h-270z" />
<glyph unicode="Y" horiz-adv-x="1028" d="M-8 1415h276l250 -665l250 665h268l-391 -876v-539h-262v537z" />
<glyph unicode="Z" horiz-adv-x="942" d="M35 0v201l571 1005h-514v209h797v-203l-570 -999h576l-27 -213h-833z" />
<glyph unicode="[" horiz-adv-x="573" d="M76 -244v1921h442v-194h-205v-1534h205v-193h-442z" />
<glyph unicode="\" horiz-adv-x="915" d="M141 1612l213 47l420 -1833l-213 -47z" />
<glyph unicode="]" horiz-adv-x="573" d="M55 -51h207v1534h-207v194h443v-1921h-443v193z" />
<glyph unicode="^" horiz-adv-x="983" d="M45 1079l332 645h227l334 -645h-250l-201 445l-192 -445h-250z" />
<glyph unicode="_" horiz-adv-x="923" d="M25 -115h874v-202h-874v202z" />
<glyph unicode="`" horiz-adv-x="600" d="M70 1477l102 188l375 -250l-72 -123z" />
<glyph unicode="a" horiz-adv-x="972" d="M57 303q0 175 113 268t328 93h96v71q0 104 -38.5 147.5t-125.5 43.5q-100 0 -250 -56l-57 166q179 78 350 78q369 0 369 -364v-484q0 -56 15 -82.5t50 -42.5l-51 -168q-85 9 -137.5 44.5t-77.5 109.5q-98 -158 -279 -158q-140 0 -222.5 92t-82.5 242zM309 322 q0 -84 32 -127t91 -43q104 0 162 135v227h-72q-108 0 -160.5 -47.5t-52.5 -144.5z" />
<glyph unicode="b" horiz-adv-x="1058" d="M127 0v1516l252 26v-575q45 69 111.5 108t146.5 39q165 0 254.5 -145t89.5 -426q0 -264 -100.5 -419t-270.5 -155q-149 0 -243 137l-17 -106h-223zM379 276q67 -116 164 -116q54 0 91.5 33.5t61 121t23.5 228.5q0 112 -11.5 188.5t-34.5 117t-50.5 57t-65.5 16.5 q-98 0 -178 -142v-504z" />
<glyph unicode="c" horiz-adv-x="849" d="M76 532q0 271 121 426.5t329 155.5q177 0 308 -125l-109 -145q-93 74 -182 74q-98 0 -149.5 -89t-51.5 -292q0 -200 51.5 -282.5t147.5 -82.5q50 0 90.5 16.5t91.5 53.5l111 -148q-131 -125 -306 -125q-212 0 -332 148t-120 415z" />
<glyph unicode="d" horiz-adv-x="1062" d="M78 541q0 258 104.5 415.5t272.5 157.5q139 0 229 -115v545l252 -26v-1518h-223l-13 129q-100 -160 -262 -160q-176 0 -268 150.5t-92 421.5zM340 543q0 -140 22 -227t57.5 -121.5t88.5 -34.5q101 0 176 131v520q-73 113 -164 113q-180 0 -180 -381z" />
<glyph unicode="e" horiz-adv-x="987" d="M76 532q0 266 112.5 424t317.5 158q198 0 307 -140t109 -407q0 -46 -4 -104h-586q10 -166 64 -233.5t151 -67.5q64 0 118.5 21.5t116.5 68.5l105 -139q-154 -144 -357 -144q-219 0 -336.5 148t-117.5 415zM332 627h346v14q0 152 -40.5 223.5t-129.5 71.5q-81 0 -125 -70 t-51 -239z" />
<glyph unicode="f" horiz-adv-x="628" d="M14 901v182h146v134q0 149 88 238t252 89q128 0 250 -61l-70 -166q-77 35 -150 35q-62 0 -90 -31t-28 -98v-140h223l-29 -182h-194v-901h-252v901h-146z" />
<glyph unicode="g" horiz-adv-x="952" d="M18 -106h224q0 -87 45 -124.5t170 -37.5q120 0 170.5 38.5t50.5 110.5q0 135 -166 135h-98q-154 0 -225.5 56.5t-71.5 150.5q0 114 112 195q-88 52 -128 126t-40 181q0 178 111.5 282.5t296.5 104.5h11q92 0 170 16q83 18 127.5 38t113.5 59l65 -197q-87 -37 -268 -37 q89 -43 132.5 -110.5t43.5 -167.5q0 -164 -104 -264.5t-283 -100.5q-51 0 -110 17q-39 -31 -39 -84q0 -39 24.5 -59.5t87.5 -20.5h125q168 0 266.5 -85.5t98.5 -217.5q0 -158 -122.5 -250t-352.5 -92q-126 0 -212.5 23t-135 68.5t-69 105t-20.5 141.5zM309 729 q0 -104 41 -160.5t115 -56.5q78 0 117 51.5t39 167.5q0 211 -154 211q-158 0 -158 -213z" />
<glyph unicode="h" horiz-adv-x="1032" d="M127 0v1516l252 26v-590q55 80 119.5 121t148.5 41q123 0 193.5 -87.5t70.5 -242.5v-784h-252v754q0 91 -24.5 128.5t-73.5 37.5q-91 0 -182 -162v-758h-252z" />
<glyph unicode="i" horiz-adv-x="507" d="M98 1473q0 65 43.5 109t110.5 44q68 0 111 -44t43 -109q0 -67 -43 -110.5t-111 -43.5q-67 0 -110.5 44t-43.5 110zM127 0v1083h252v-1083h-252z" />
<glyph unicode="j" horiz-adv-x="505" d="M-61 -260q51 28 80.5 51t57 61t39 92.5t11.5 133.5v1005h252v-991q0 -96 -17.5 -172.5t-46.5 -129.5t-77.5 -97.5t-97.5 -73.5t-120 -61zM98 1473q0 65 43.5 109t110.5 44q68 0 111 -44t43 -109q0 -67 -43 -110.5t-111 -43.5q-67 0 -110.5 44t-43.5 110z" />
<glyph unicode="k" horiz-adv-x="964" d="M127 0v1518l252 26v-1544h-252zM389 592l309 491h250l-305 -477l332 -606h-275z" />
<glyph unicode="l" horiz-adv-x="532" d="M117 225v1293l252 26v-1308q0 -64 53 -64q17 0 47 10l51 -174q-76 -39 -158 -39q-114 0 -179.5 68.5t-65.5 187.5z" />
<glyph unicode="m" horiz-adv-x="1503" d="M127 0v1083h219l16 -141q112 172 269 172q82 0 140.5 -47.5t86.5 -134.5q115 182 277 182q113 0 181 -88.5t68 -241.5v-784h-247v756q0 91 -23 128.5t-67 37.5q-88 0 -168 -154v-768h-246v756q0 166 -90 166q-91 0 -168 -154v-768h-248z" />
<glyph unicode="n" horiz-adv-x="1032" d="M127 0v1083h219l21 -143q55 86 122.5 130t157.5 44q124 0 194 -87.5t70 -242.5v-784h-252v754q0 91 -24 128.5t-72 37.5q-51 0 -95.5 -41.5t-88.5 -120.5v-758h-252z" />
<glyph unicode="o" d="M76 543q0 273 118 422t330 149t329.5 -146t117.5 -425q0 -267 -119 -420.5t-328 -153.5q-212 0 -330 149t-118 425zM338 543q0 -204 45.5 -292.5t140.5 -88.5q94 0 139.5 89t45.5 292t-45 291t-140 88q-94 0 -140 -89t-46 -290z" />
<glyph unicode="p" horiz-adv-x="1058" d="M127 -444v1527h223l12 -131q107 162 277 162q169 0 255.5 -147.5t86.5 -421.5q0 -264 -99 -420t-272 -156q-140 0 -231 117v-502zM379 268q67 -106 164 -106q176 0 176 381q0 208 -39.5 293.5t-120.5 85.5q-100 0 -180 -138v-516z" />
<glyph unicode="q" horiz-adv-x="1062" d="M78 541q0 260 104 416.5t275 156.5q148 0 248 -135l12 104h219v-1527l-252 28v529q-94 -144 -248 -144q-171 0 -264.5 150.5t-93.5 421.5zM340 543q0 -143 22.5 -230.5t58 -120t87.5 -32.5q55 0 97 34t79 101v516q-73 113 -166 113q-81 0 -129.5 -91.5t-48.5 -289.5z" />
<glyph unicode="r" horiz-adv-x="706" d="M127 0v1083h219l21 -192q79 221 247 221q44 0 91 -14l-43 -244q-41 12 -80 12q-81 0 -128 -66.5t-75 -199.5v-600h-252z" />
<glyph unicode="s" horiz-adv-x="849" d="M20 121l123 137q120 -102 248 -102q73 0 114.5 35.5t41.5 99.5q0 68 -41 106t-166 82q-147 54 -212 129t-65 189q0 138 102 227.5t269 89.5q198 0 340 -129l-96 -141q-120 84 -227 84q-63 0 -99.5 -31.5t-36.5 -85.5q0 -56 40 -90t159 -76q148 -54 219.5 -130t71.5 -204 q0 -160 -115 -251t-291 -91q-227 0 -379 152z" />
<glyph unicode="t" horiz-adv-x="673" d="M10 901v182h137v240l252 31v-271h215l-24 -182h-191v-618q0 -111 95 -111q40 0 104 33l88 -156q-106 -80 -244 -80q-144 0 -219.5 83.5t-75.5 228.5v620h-137z" />
<glyph unicode="u" horiz-adv-x="1024" d="M119 281v802h252v-786q0 -137 98 -137q99 0 176 147v776h252v-1083h-221l-12 141q-52 -87 -119.5 -129.5t-159.5 -42.5q-123 0 -194.5 85.5t-71.5 226.5z" />
<glyph unicode="v" horiz-adv-x="909" d="M4 1083h260l195 -880l196 880h250l-297 -1083h-299z" />
<glyph unicode="w" horiz-adv-x="1327" d="M25 1083h245l121 -897l150 897h256l143 -897l127 897h236l-197 -1083h-309l-133 856l-132 -856h-305z" />
<glyph unicode="x" horiz-adv-x="901" d="M-6 0l307 571l-276 512h266l160 -374l153 374h260l-266 -503l309 -580h-270l-193 436l-186 -436h-264z" />
<glyph unicode="y" horiz-adv-x="917" d="M4 1083h256l197 -915l205 915h251l-303 -1087q-55 -197 -175.5 -308.5t-325.5 -131.5l-29 180q135 24 200.5 82.5t106.5 181.5h-94z" />
<glyph unicode="z" horiz-adv-x="800" d="M29 0v182l454 703h-415v198h690v-182l-453 -702h461l-25 -199h-712z" />
<glyph unicode="{" horiz-adv-x="571" d="M29 612v207q66 0 91 35.5t25 120.5v422q0 84 17.5 141t59.5 98.5t115 60.5t183 19v-180q-82 0 -113.5 -28.5t-31.5 -102.5v-440q0 -119 -40 -171.5t-132 -78.5q61 -17 96.5 -41.5t56.5 -74.5t21 -130v-440q0 -74 31 -102.5t112 -28.5v-181q-110 0 -183 19t-115 61 t-59.5 99t-17.5 141v422q0 85 -25 119t-91 34z" />
<glyph unicode="|" horiz-adv-x="671" d="M219 -213v1870h234v-1870h-234z" />
<glyph unicode="}" horiz-adv-x="571" d="M51 -102q80 0 112 29t32 102v440q0 80 21 129.5t56.5 74t96.5 42.5q-94 28 -133 79.5t-39 170.5v440q0 73 -32 102t-112 29l-2 180q110 0 183 -19t115 -60.5t59.5 -98.5t17.5 -141v-422q0 -85 25.5 -120.5t91.5 -35.5v-207q-66 0 -91.5 -34t-25.5 -119v-422 q0 -84 -17.5 -141t-59.5 -99t-115 -61t-183 -19v181z" />
<glyph unicode="~" horiz-adv-x="905" d="M43 584q103 223 268 223q48 0 93 -18.5t74 -41t63.5 -41t62.5 -18.5q39 0 68 25t59 71l133 -69q-105 -215 -264 -215q-50 0 -96.5 19t-76 41.5t-64 41.5t-62.5 19t-53 -17.5t-39 -36.5t-35 -53z" />
<glyph unicode="&#xa1;" horiz-adv-x="460" d="M74 866q0 67 43.5 113.5t113.5 46.5q68 0 112 -47t44 -113t-44 -112.5t-112 -46.5q-70 0 -113.5 46t-43.5 113zM98 -422l33 920h201l35 -920h-269z" />
<glyph unicode="&#xa2;" horiz-adv-x="849" d="M76 532q0 232 90.5 380.5t251.5 187.5v309h184v-301q127 -20 232 -119l-109 -145q-93 74 -182 74q-98 0 -149.5 -89t-51.5 -292q0 -200 51.5 -282.5t147.5 -82.5q50 0 90.5 16.5t91.5 53.5l111 -148q-107 -99 -232 -119v-299h-186v306q-161 37 -250.5 179.5t-89.5 370.5z " />
<glyph unicode="&#xa3;" horiz-adv-x="960" d="M53 0v188q94 35 121 86t27 170v205h-119v144h119v223q0 170 96.5 278.5t269.5 108.5q218 0 348 -186l-153 -113q-39 55 -78 79.5t-92 24.5q-146 0 -146 -188v-227h336v-144h-336v-194q0 -102 -25 -158t-102 -98h562l-27 -199h-801z" />
<glyph unicode="&#xa4;" horiz-adv-x="987" d="M23 1118l131 111l133 -158q91 62 205 62q116 0 210 -62l136 158l123 -113l-146 -168q62 -108 62 -250q0 -135 -60 -245l148 -172l-131 -109l-132 154q-94 -62 -210 -62q-117 0 -209 64l-133 -156l-123 113l145 166q-59 103 -59 247q0 143 59 246zM313 700 q0 -133 45 -195.5t136 -62.5t135.5 62.5t44.5 195.5q0 258 -180 258q-181 0 -181 -258z" />
<glyph unicode="&#xa5;" horiz-adv-x="987" d="M-8 1378h258l248 -594l245 594h252l-323 -663h184v-148h-235v-166h235v-143h-235v-258h-252v258h-236v143h236v166h-236v148h182z" />
<glyph unicode="&#xa6;" horiz-adv-x="671" d="M219 -213v750h234v-750h-234zM219 907v750h234v-750h-234z" />
<glyph unicode="&#xa7;" horiz-adv-x="962" d="M100 623q0 77 38.5 141.5t105.5 107.5q-99 83 -99 215q0 139 101 225.5t264 86.5q193 0 332 -113l-88 -143q-113 76 -226 76q-71 0 -108 -31.5t-37 -87.5q0 -62 39 -98t170 -87q139 -53 204.5 -119t65.5 -175q0 -160 -141 -259q53 -40 76.5 -88.5t23.5 -115.5 q0 -142 -104 -229t-271 -87q-192 0 -331 107l88 149q110 -73 233 -73q68 0 108 30.5t40 87.5q0 60 -39.5 93.5t-173.5 85.5q-143 53 -207 118t-64 183zM319 662q0 -66 33 -102t125 -73q51 -19 113 -49q53 69 53 142q0 63 -36.5 100.5t-143.5 79.5q-16 5 -32 12t-34 15 t-28 12q-50 -65 -50 -137z" />
<glyph unicode="&#xa8;" horiz-adv-x="790" d="M70 1464q0 58 38.5 98t96.5 40t95.5 -40t37.5 -98q0 -59 -37.5 -98t-95.5 -39t-96.5 39t-38.5 98zM469 1464q0 58 38 98t95 40q59 0 97 -40t38 -98q0 -59 -38 -98t-97 -39q-57 0 -95 39t-38 98z" />
<glyph unicode="&#xa9;" horiz-adv-x="1425" d="M129 887q0 148 46 273t125 210t186 132.5t229 47.5t228.5 -47.5t185 -132.5t124 -210t45.5 -273q0 -196 -78 -347.5t-210 -232t-295 -80.5q-122 0 -229 47.5t-186 132t-125 209t-46 271.5zM279 887q0 -241 122.5 -384t313.5 -143t313.5 143t122.5 384q0 243 -122 385.5 t-314 142.5t-314 -142.5t-122 -385.5zM416 889q0 188 84.5 291.5t222.5 103.5q124 0 219 -92l-78 -105q-68 50 -129 50q-137 0 -137 -248q0 -244 139 -244q67 0 137 57l74 -108q-100 -100 -229 -100q-137 0 -220 102.5t-83 292.5z" />
<glyph unicode="&#xab;" horiz-adv-x="1120" d="M84 502v166l328 446l153 -100l-237 -428l237 -430l-153 -101zM555 502v166l328 446l153 -100l-239 -428l239 -430l-153 -101z" />
<glyph unicode="&#xac;" horiz-adv-x="923" d="M90 569v195h744v-500h-211v305h-533z" />
<glyph unicode="&#xad;" horiz-adv-x="733" d="M92 541v200h549v-200h-549z" />
<glyph unicode="&#xae;" horiz-adv-x="1124" d="M88 1001q0 237 135.5 390t339.5 153t338.5 -152t134.5 -391q0 -237 -134.5 -387.5t-338.5 -150.5q-205 0 -340 150.5t-135 387.5zM215 1001q0 -195 96.5 -308t251.5 -113t250.5 113t95.5 308q0 196 -96 311t-250 115q-155 0 -251.5 -115.5t-96.5 -310.5zM385 729v569h143 q232 0 232 -176q0 -55 -29 -94t-76 -59l129 -240h-137l-100 213h-43v-213h-119zM504 1047h51q82 0 82 77q0 76 -84 76h-49v-153z" />
<glyph unicode="&#xaf;" horiz-adv-x="645" d="M70 1358v174h522v-174h-522z" />
<glyph unicode="&#xb0;" horiz-adv-x="917" d="M76 1108q0 81 26 146.5t69.5 106.5t97.5 63t114 22q128 0 218.5 -89.5t90.5 -248.5q0 -160 -90 -249t-219 -89q-60 0 -114 22t-97.5 63t-69.5 106.5t-26 146.5zM254 1108q0 -94 35 -139t94 -45q131 0 131 184q0 182 -131 182q-129 0 -129 -182z" />
<glyph unicode="&#xb1;" horiz-adv-x="923" d="M90 680v199h266v309h211v-309h267v-199h-267v-307h-211v307h-266zM98 0v195h725v-195h-725z" />
<glyph unicode="&#xb2;" horiz-adv-x="704" d="M72 1384q109 148 274 148q124 0 196 -71.5t72 -178.5q0 -99 -63 -195t-248 -278h330l-21 -152h-512v142q202 220 261 304.5t59 166.5q0 53 -25.5 81.5t-70.5 28.5q-74 0 -144 -82z" />
<glyph unicode="&#xb3;" horiz-adv-x="704" d="M66 766l102 94q76 -76 156 -76q55 0 87.5 34.5t32.5 96.5q0 66 -33 94.5t-100 28.5h-59l22 136h39q55 0 85 28.5t30 81.5q0 52 -27 79.5t-75 27.5q-78 0 -154 -70l-92 98q115 115 268 115q125 0 194.5 -64t69.5 -161q0 -155 -172 -197q93 -8 146 -60t53 -149 q0 -114 -79.5 -191t-221.5 -77q-172 0 -272 131z" />
<glyph unicode="&#xb4;" horiz-adv-x="600" d="M70 1415l372 250l105 -188l-408 -185z" />
<glyph unicode="&#xb5;" horiz-adv-x="1032" d="M127 -442v1525h252v-766q0 -143 100 -143q101 0 168 160v749h252v-712q0 -210 43 -371l-231 -29q-28 73 -43 183q-39 -77 -92.5 -125.5t-116.5 -48.5q-97 0 -152 96q31 -69 45.5 -132.5t14.5 -160.5v-201z" />
<glyph unicode="&#xb6;" horiz-adv-x="1368" d="M125 989q0 202 121.5 314t343.5 112h565v-1831l-221 -33v1680h-174v-1647l-219 -33v1008q-204 9 -310 126t-106 304z" />
<glyph unicode="&#xb7;" horiz-adv-x="452" d="M70 633q0 65 43.5 112.5t111.5 47.5q69 0 113.5 -47.5t44.5 -112.5q0 -66 -44.5 -114t-113.5 -48t-112 47.5t-43 114.5z" />
<glyph unicode="&#xb8;" horiz-adv-x="563" d="M70 -459l61 119q56 -27 111 -27q37 0 59.5 17.5t22.5 52.5q0 42 -38 62t-122 20l26 248h142v-146q178 -26 178 -184q0 -100 -68.5 -157.5t-183.5 -57.5q-111 0 -188 53z" />
<glyph unicode="&#xb9;" horiz-adv-x="704" d="M80 1339l266 177h170v-859h-186v670l-164 -110z" />
<glyph unicode="&#xbb;" horiz-adv-x="1116" d="M84 156l240 430l-240 428l156 100l325 -446v-166l-325 -447zM551 156l240 430l-240 428l154 100l327 -446v-166l-327 -447z" />
<glyph unicode="&#xbc;" horiz-adv-x="1691" d="M80 1239l266 176h170v-858h-186v670l-164 -111zM410 -100l720 1644l150 -65l-717 -1645zM1036 184v135l217 558l160 -62l-186 -483h149l35 207h143v-207h86v-148h-86v-184h-178l-2 184h-338z" />
<glyph unicode="&#xbd;" horiz-adv-x="1691" d="M80 1239l266 176h170v-858h-186v670l-164 -111zM410 -100l720 1644l150 -65l-717 -1645zM1059 727q108 147 274 147q124 0 196.5 -71.5t72.5 -177.5q0 -98 -63 -194t-249 -279h330l-21 -152h-512v141q202 220 261 304.5t59 166.5q0 53 -25.5 82t-70.5 29q-74 0 -144 -82z " />
<glyph unicode="&#xbe;" horiz-adv-x="1691" d="M66 666l102 94q76 -76 156 -76q55 0 87.5 34.5t32.5 96.5q0 66 -33 94.5t-100 28.5h-59l22 135h39q54 0 84.5 28.5t30.5 82.5q0 52 -27 79t-75 27q-79 0 -154 -69l-92 98q115 115 268 115q125 0 194.5 -64.5t69.5 -161.5q0 -154 -172 -196q93 -8 146 -60t53 -149 q0 -114 -79.5 -191t-221.5 -77q-172 0 -272 131zM410 -100l720 1644l150 -65l-717 -1645zM1036 184v135l217 558l160 -62l-186 -483h149l35 207h143v-207h86v-148h-86v-184h-178l-2 184h-338z" />
<glyph unicode="&#xbf;" horiz-adv-x="856" d="M41 -119q0 65 17.5 117t45.5 87t61.5 65t67.5 57.5t62 57t45.5 71.5t17.5 94v64h232v-74q0 -70 -16 -125.5t-41.5 -91.5t-57 -65.5t-62.5 -54.5t-56.5 -50.5t-41.5 -61t-16 -80.5q0 -67 37.5 -103t105.5 -36q116 0 220 127l153 -119q-153 -209 -399 -209 q-91 0 -163.5 27.5t-118 74t-69.5 105t-24 123.5zM313 864q0 66 44.5 114t113.5 48t112.5 -47.5t43.5 -114.5q0 -65 -43.5 -112t-112.5 -47t-113.5 47t-44.5 112z" />
<glyph unicode="&#xc0;" horiz-adv-x="1056" d="M-4 0l375 1415h317l373 -1415h-266l-74 332h-391l-74 -332h-260zM283 1710l98 193l377 -234l-64 -127zM373 528h305l-154 689z" />
<glyph unicode="&#xc1;" horiz-adv-x="1056" d="M-4 0l375 1415h317l373 -1415h-266l-74 332h-391l-74 -332h-260zM291 1669l375 234l100 -193l-410 -168zM373 528h305l-154 689z" />
<glyph unicode="&#xc2;" horiz-adv-x="1056" d="M-4 0l375 1415h317l373 -1415h-266l-74 332h-391l-74 -332h-260zM205 1655l248 250h153l246 -250l-92 -99l-232 168l-231 -168zM373 528h305l-154 689z" />
<glyph unicode="&#xc3;" horiz-adv-x="1056" d="M-4 0l375 1415h317l373 -1415h-266l-74 332h-391l-74 -332h-260zM207 1649q34 93 89.5 148.5t125.5 55.5q44 0 83 -22.5t71 -45t57 -22.5q26 0 46.5 21t43.5 67l129 -61q-34 -97 -90 -150t-125 -53q-44 0 -83.5 22t-71 44t-54.5 22q-30 0 -50 -20.5t-44 -67.5zM373 528 h305l-154 689z" />
<glyph unicode="&#xc4;" horiz-adv-x="1056" d="M-4 0l375 1415h317l373 -1415h-266l-74 332h-391l-74 -332h-260zM203 1722q0 58 38.5 98t96.5 40t95.5 -40t37.5 -98q0 -59 -37.5 -98t-95.5 -39t-96.5 39t-38.5 98zM373 528h305l-154 689zM600 1722q0 57 39 97.5t96 40.5q59 0 97 -40t38 -98q0 -59 -38 -98t-97 -39 q-57 0 -96 39.5t-39 97.5z" />
<glyph unicode="&#xc5;" horiz-adv-x="1056" d="M-4 0l375 1415h317l373 -1415h-266l-74 332h-391l-74 -332h-260zM295 1759q0 107 64 174.5t171 67.5q106 0 170 -67.5t64 -174.5q0 -108 -63.5 -174.5t-170.5 -66.5q-108 0 -171.5 66.5t-63.5 174.5zM373 528h305l-154 689zM444 1759q0 -112 86 -112q84 0 84 112 q0 113 -84 113q-86 0 -86 -113z" />
<glyph unicode="&#xc6;" horiz-adv-x="1476" d="M-33 0l479 1415h900l-29 -194h-490l72 -408h430v-192h-395l74 -424h405v-197h-622l-54 332h-399l-98 -332h-273zM395 528h312l-109 691z" />
<glyph unicode="&#xc7;" horiz-adv-x="1015" d="M78 711q0 182 41 323.5t115 230.5t172.5 135t216.5 46q110 0 195 -37t167 -111l-127 -151q-112 98 -223 98q-285 0 -285 -534q0 -533 287 -533q68 0 120.5 28t116.5 81l123 -148q-130 -145 -315 -166v-86q178 -26 178 -184q0 -100 -68.5 -157.5t-183.5 -57.5 q-111 0 -188 53l61 119q56 -27 111 -27q82 0 82 70q0 42 -38 62t-122 20l21 190q-213 33 -335 219t-122 517z" />
<glyph unicode="&#xc8;" horiz-adv-x="931" d="M133 0v1415h729l-28 -194h-439v-406h383v-192h-383v-426h469v-197h-731zM254 1710l98 193l377 -234l-63 -127z" />
<glyph unicode="&#xc9;" horiz-adv-x="931" d="M133 0v1415h729l-28 -194h-439v-406h383v-192h-383v-426h469v-197h-731zM262 1669l375 234l100 -193l-409 -168z" />
<glyph unicode="&#xca;" horiz-adv-x="931" d="M133 0v1415h729l-28 -194h-439v-406h383v-192h-383v-426h469v-197h-731zM176 1655l248 250h154l245 -250l-92 -99l-231 168l-232 -168z" />
<glyph unicode="&#xcb;" horiz-adv-x="931" d="M133 0v1415h729l-28 -194h-439v-406h383v-192h-383v-426h469v-197h-731zM174 1722q0 58 38.5 98t96.5 40t95.5 -40t37.5 -98q0 -59 -37.5 -98t-95.5 -39t-96.5 39t-38.5 98zM571 1722q0 57 39.5 97.5t96.5 40.5q59 0 97 -40t38 -98q0 -59 -38 -98t-97 -39 q-57 0 -96.5 39.5t-39.5 97.5z" />
<glyph unicode="&#xcc;" horiz-adv-x="528" d="M16 1710l99 193l377 -234l-64 -127zM133 0v1415h262v-1415h-262z" />
<glyph unicode="&#xcd;" horiz-adv-x="528" d="M25 1669l374 234l101 -193l-410 -168zM133 0v1415h262v-1415h-262z" />
<glyph unicode="&#xce;" horiz-adv-x="528" d="M-61 1655l247 250h154l246 -250l-92 -99l-232 168l-231 -168zM133 0v1415h262v-1415h-262z" />
<glyph unicode="&#xcf;" horiz-adv-x="528" d="M-61 1722q0 58 38.5 98t96.5 40t95.5 -40t37.5 -98q0 -59 -37.5 -98t-95.5 -39t-96.5 39t-38.5 98zM133 0v1415h262v-1415h-262zM336 1722q0 57 39 97.5t96 40.5q59 0 97 -40t38 -98q0 -59 -38 -98t-97 -39q-57 0 -96 39.5t-39 97.5z" />
<glyph unicode="&#xd0;" horiz-adv-x="1191" d="M35 637v172h131v606h321q75 0 137.5 -7t128.5 -27t117.5 -53t98.5 -87t78 -125.5t49 -173.5t18 -227q0 -715 -598 -715h-350v637h-131zM426 195h106q56 0 99.5 12.5t85 47.5t68.5 92t43 150t16 218q0 127 -17 220t-44.5 147t-70.5 86t-86 42.5t-100 10.5h-100v-412h221 v-172h-221v-442z" />
<glyph unicode="&#xd1;" horiz-adv-x="1185" d="M133 0v1415h330l393 -1159q-35 239 -35 481v678h232v-1415h-332l-391 1157q35 -318 35 -565v-592h-232zM283 1649q34 93 89.5 148.5t125.5 55.5q44 0 83 -22.5t71 -45t57 -22.5q26 0 46.5 21t43.5 67l129 -61q-34 -97 -90 -150t-125 -53q-44 0 -83.5 22t-71 44t-54.5 22 q-30 0 -50 -20.5t-44 -67.5z" />
<glyph unicode="&#xd2;" horiz-adv-x="1236" d="M78 707q0 361 142.5 550t397.5 189q258 0 399.5 -185.5t141.5 -551.5q0 -363 -142.5 -551.5t-398.5 -188.5t-398 186t-142 552zM350 707q0 -290 67 -413.5t201 -123.5q90 0 147.5 50t89.5 170.5t32 318.5q0 194 -31.5 314t-89.5 171t-148 51q-89 0 -146.5 -51 t-89.5 -171.5t-32 -315.5zM373 1710l98 193l377 -234l-64 -127z" />
<glyph unicode="&#xd3;" horiz-adv-x="1236" d="M78 707q0 361 142.5 550t397.5 189q258 0 399.5 -185.5t141.5 -551.5q0 -363 -142.5 -551.5t-398.5 -188.5t-398 186t-142 552zM350 707q0 -290 67 -413.5t201 -123.5q90 0 147.5 50t89.5 170.5t32 318.5q0 194 -31.5 314t-89.5 171t-148 51q-89 0 -146.5 -51 t-89.5 -171.5t-32 -315.5zM381 1669l375 234l100 -193l-410 -168z" />
<glyph unicode="&#xd4;" horiz-adv-x="1236" d="M78 707q0 361 142.5 550t397.5 189q258 0 399.5 -185.5t141.5 -551.5q0 -363 -142.5 -551.5t-398.5 -188.5t-398 186t-142 552zM293 1655l248 250h153l246 -250l-92 -99l-232 168l-231 -168zM350 707q0 -290 67 -413.5t201 -123.5q90 0 147.5 50t89.5 170.5t32 318.5 q0 194 -31.5 314t-89.5 171t-148 51q-89 0 -146.5 -51t-89.5 -171.5t-32 -315.5z" />
<glyph unicode="&#xd5;" horiz-adv-x="1236" d="M78 707q0 361 142.5 550t397.5 189q258 0 399.5 -185.5t141.5 -551.5q0 -363 -142.5 -551.5t-398.5 -188.5t-398 186t-142 552zM297 1649q34 93 89.5 148.5t125.5 55.5q44 0 83 -22.5t71 -45t57 -22.5q26 0 46.5 21t43.5 67l129 -61q-34 -97 -90 -150t-125 -53 q-44 0 -83.5 22t-71 44t-54.5 22q-30 0 -50 -20.5t-44 -67.5zM350 707q0 -290 67 -413.5t201 -123.5q90 0 147.5 50t89.5 170.5t32 318.5q0 194 -31.5 314t-89.5 171t-148 51q-89 0 -146.5 -51t-89.5 -171.5t-32 -315.5z" />
<glyph unicode="&#xd6;" horiz-adv-x="1236" d="M78 707q0 361 142.5 550t397.5 189q258 0 399.5 -185.5t141.5 -551.5q0 -363 -142.5 -551.5t-398.5 -188.5t-398 186t-142 552zM293 1722q0 58 38.5 98t96.5 40t95.5 -40t37.5 -98q0 -59 -37.5 -98t-95.5 -39t-96.5 39t-38.5 98zM350 707q0 -290 67 -413.5t201 -123.5 q90 0 147.5 50t89.5 170.5t32 318.5q0 194 -31.5 314t-89.5 171t-148 51q-89 0 -146.5 -51t-89.5 -171.5t-32 -315.5zM690 1722q0 57 39 97.5t96 40.5q59 0 97.5 -40t38.5 -98q0 -59 -38 -98t-98 -39q-57 0 -96 39.5t-39 97.5z" />
<glyph unicode="&#xd7;" horiz-adv-x="905" d="M92 362l221 265l-221 266l152 125l207 -260l211 260l151 -125l-221 -264l221 -267l-151 -122l-209 258l-209 -258z" />
<glyph unicode="&#xd8;" horiz-adv-x="1236" d="M78 707q0 360 142.5 548.5t397.5 188.5q48 0 89 -6l65 248l199 -54l-72 -262q260 -163 260 -661q0 -363 -142 -550.5t-399 -187.5q-46 0 -90 6l-61 -243l-201 53l72 258q-260 166 -260 662zM340 707q0 -351 96 -467l246 1003q-20 4 -64 4q-94 0 -153.5 -51t-92 -171.5 t-32.5 -317.5zM557 172q18 -4 61 -4q95 0 154 50t90.5 170t32.5 321q0 345 -94 462z" />
<glyph unicode="&#xd9;" horiz-adv-x="1155" d="M113 420v995h262v-981q0 -133 49 -196.5t154 -63.5t153.5 64t48.5 196v981h262v-995q0 -200 -120 -324.5t-344 -124.5q-226 0 -345.5 122.5t-119.5 326.5zM332 1710l98 193l377 -234l-64 -127z" />
<glyph unicode="&#xda;" horiz-adv-x="1155" d="M113 420v995h262v-981q0 -133 49 -196.5t154 -63.5t153.5 64t48.5 196v981h262v-995q0 -200 -120 -324.5t-344 -124.5q-226 0 -345.5 122.5t-119.5 326.5zM340 1669l375 234l100 -193l-409 -168z" />
<glyph unicode="&#xdb;" horiz-adv-x="1155" d="M113 420v995h262v-981q0 -133 49 -196.5t154 -63.5t153.5 64t48.5 196v981h262v-995q0 -200 -120 -324.5t-344 -124.5q-226 0 -345.5 122.5t-119.5 326.5zM252 1655l248 250h153l246 -250l-92 -99l-232 168l-231 -168z" />
<glyph unicode="&#xdc;" horiz-adv-x="1155" d="M113 420v995h262v-981q0 -133 49 -196.5t154 -63.5t153.5 64t48.5 196v981h262v-995q0 -200 -120 -324.5t-344 -124.5q-226 0 -345.5 122.5t-119.5 326.5zM252 1722q0 58 38.5 98t96.5 40t95.5 -40t37.5 -98q0 -59 -37.5 -98t-95.5 -39t-96.5 39t-38.5 98zM649 1722 q0 57 39 97.5t96 40.5q59 0 97.5 -40t38.5 -98q0 -59 -38 -98t-98 -39q-57 0 -96 39.5t-39 97.5z" />
<glyph unicode="&#xdd;" horiz-adv-x="1028" d="M-8 1415h276l250 -665l250 665h268l-391 -876v-539h-262v537zM274 1669l375 234l101 -193l-410 -168z" />
<glyph unicode="&#xde;" d="M133 0v1415h262v-233h97q252 0 386 -114.5t134 -340.5q0 -241 -134 -360t-370 -119h-113v-248h-262zM395 442h92q131 0 194.5 64t63.5 221q0 139 -64.5 201.5t-195.5 62.5h-90v-549z" />
<glyph unicode="&#xdf;" horiz-adv-x="1071" d="M127 0v1141q0 183 107 293t296 110q163 0 258 -84.5t95 -210.5q0 -57 -17.5 -104t-43 -79t-51 -60t-43 -60t-17.5 -67q0 -32 17.5 -61.5t45 -56t61 -55t67.5 -64t61.5 -77t45 -101t17.5 -128.5q0 -167 -97.5 -267t-244.5 -100q-117 0 -201 51l74 166q41 -18 90 -18 q56 0 90.5 43.5t34.5 126.5q0 49 -15.5 92t-40 75.5t-54.5 62l-60 59t-54.5 60.5t-40 72.5t-15.5 88.5q0 48 16 89t39 70.5t46.5 59t39.5 70t16 88.5q0 65 -34.5 100t-90.5 35q-145 0 -145 -209v-1151h-252z" />
<glyph unicode="&#xe0;" horiz-adv-x="972" d="M57 303q0 175 113 268t328 93h96v71q0 104 -38.5 147.5t-125.5 43.5q-100 0 -250 -56l-57 166q179 78 350 78q369 0 369 -364v-484q0 -56 15 -82.5t50 -42.5l-51 -168q-85 9 -137.5 44.5t-77.5 109.5q-98 -158 -279 -158q-140 0 -222.5 92t-82.5 242zM256 1477l102 188 l375 -250l-71 -123zM309 322q0 -84 32 -127t91 -43q104 0 162 135v227h-72q-108 0 -160.5 -47.5t-52.5 -144.5z" />
<glyph unicode="&#xe1;" horiz-adv-x="972" d="M57 303q0 175 113 268t328 93h96v71q0 104 -38.5 147.5t-125.5 43.5q-100 0 -250 -56l-57 166q179 78 350 78q369 0 369 -364v-484q0 -56 15 -82.5t50 -42.5l-51 -168q-85 9 -137.5 44.5t-77.5 109.5q-98 -158 -279 -158q-140 0 -222.5 92t-82.5 242zM229 1415l373 250 l105 -188l-408 -185zM309 322q0 -84 32 -127t91 -43q104 0 162 135v227h-72q-108 0 -160.5 -47.5t-52.5 -144.5z" />
<glyph unicode="&#xe2;" horiz-adv-x="972" d="M57 303q0 175 113 268t328 93h96v71q0 104 -38.5 147.5t-125.5 43.5q-100 0 -250 -56l-57 166q179 78 350 78q369 0 369 -364v-484q0 -56 15 -82.5t50 -42.5l-51 -168q-85 9 -137.5 44.5t-77.5 109.5q-98 -158 -279 -158q-140 0 -222.5 92t-82.5 242zM154 1391l245 260 h156l246 -260l-92 -101l-232 180l-231 -180zM309 322q0 -84 32 -127t91 -43q104 0 162 135v227h-72q-108 0 -160.5 -47.5t-52.5 -144.5z" />
<glyph unicode="&#xe3;" horiz-adv-x="972" d="M57 303q0 175 113 268t328 93h96v71q0 104 -38.5 147.5t-125.5 43.5q-100 0 -250 -56l-57 166q179 78 350 78q369 0 369 -364v-484q0 -56 15 -82.5t50 -42.5l-51 -168q-85 9 -137.5 44.5t-77.5 109.5q-98 -158 -279 -158q-140 0 -222.5 92t-82.5 242zM156 1391 q34 93 89.5 148.5t125.5 55.5q44 0 83 -22.5t71 -45t57 -22.5q26 0 46.5 21t43.5 67l129 -61q-34 -97 -90 -150t-125 -53q-44 0 -83.5 22t-71 44t-54.5 22q-30 0 -50 -20.5t-44 -67.5zM309 322q0 -84 32 -127t91 -43q104 0 162 135v227h-72q-108 0 -160.5 -47.5 t-52.5 -144.5z" />
<glyph unicode="&#xe4;" horiz-adv-x="972" d="M57 303q0 175 113 268t328 93h96v71q0 104 -38.5 147.5t-125.5 43.5q-100 0 -250 -56l-57 166q179 78 350 78q369 0 369 -364v-484q0 -56 15 -82.5t50 -42.5l-51 -168q-85 9 -137.5 44.5t-77.5 109.5q-98 -158 -279 -158q-140 0 -222.5 92t-82.5 242zM143 1464 q0 58 39 98t97 40t95.5 -40t37.5 -98q0 -59 -37.5 -98t-95.5 -39t-97 39t-39 98zM309 322q0 -84 32 -127t91 -43q104 0 162 135v227h-72q-108 0 -160.5 -47.5t-52.5 -144.5zM541 1464q0 57 39 97.5t96 40.5q59 0 97 -40t38 -98q0 -59 -38 -98t-97 -39q-57 0 -96 39.5 t-39 97.5z" />
<glyph unicode="&#xe5;" horiz-adv-x="972" d="M57 303q0 175 113 268t328 93h96v71q0 104 -38.5 147.5t-125.5 43.5q-100 0 -250 -56l-57 166q179 78 350 78q369 0 369 -364v-484q0 -56 15 -82.5t50 -42.5l-51 -168q-85 9 -137.5 44.5t-77.5 109.5q-98 -158 -279 -158q-140 0 -222.5 92t-82.5 242zM242 1501 q0 107 64 174.5t171 67.5q106 0 170 -67.5t64 -174.5q0 -108 -63.5 -174.5t-170.5 -66.5q-108 0 -171.5 66.5t-63.5 174.5zM309 322q0 -84 32 -127t91 -43q104 0 162 135v227h-72q-108 0 -160.5 -47.5t-52.5 -144.5zM391 1501q0 -112 86 -112q84 0 84 112q0 113 -84 113 q-86 0 -86 -113z" />
<glyph unicode="&#xe6;" horiz-adv-x="1517" d="M57 303q0 171 116 263.5t333 92.5h98v68q0 109 -38.5 154t-127.5 45q-101 0 -248 -58l-57 168q179 78 344 78q108 0 175.5 -38t107.5 -111q110 149 293 149q185 0 291 -141.5t106 -405.5q0 -61 -6 -104h-584q11 -161 68 -231t155 -70q107 0 226 90l106 -139 q-154 -144 -354 -144q-238 0 -361 189q-124 -189 -325 -189q-145 0 -231.5 92.5t-86.5 241.5zM317 319q0 -165 125 -165q112 0 191 159q-24 85 -27 193v4h-74q-215 0 -215 -191zM860 627h346v14q0 293 -168 293q-81 0 -125 -71.5t-53 -235.5z" />
<glyph unicode="&#xe7;" horiz-adv-x="849" d="M76 532q0 271 121 426.5t329 155.5q177 0 308 -125l-109 -145q-93 74 -182 74q-98 0 -149.5 -89t-51.5 -292q0 -200 51.5 -282.5t147.5 -82.5q50 0 90.5 16.5t91.5 53.5l111 -148q-115 -109 -261 -123v-84q179 -27 179 -184q0 -100 -68.5 -157.5t-183.5 -57.5 q-112 0 -189 53l62 119q56 -27 110 -27q82 0 82 70q0 42 -37.5 62t-121.5 20l20 195q-166 34 -258 177t-92 375z" />
<glyph unicode="&#xe8;" horiz-adv-x="987" d="M76 532q0 266 112.5 424t317.5 158q198 0 307 -140t109 -407q0 -46 -4 -104h-586q10 -166 64 -233.5t151 -67.5q64 0 118.5 21.5t116.5 68.5l105 -139q-154 -144 -357 -144q-219 0 -336.5 148t-117.5 415zM285 1477l102 188l375 -250l-72 -123zM332 627h346v14 q0 152 -40.5 223.5t-129.5 71.5q-81 0 -125 -70t-51 -239z" />
<glyph unicode="&#xe9;" horiz-adv-x="987" d="M76 532q0 266 112.5 424t317.5 158q198 0 307 -140t109 -407q0 -46 -4 -104h-586q10 -166 64 -233.5t151 -67.5q64 0 118.5 21.5t116.5 68.5l105 -139q-154 -144 -357 -144q-219 0 -336.5 148t-117.5 415zM258 1415l373 250l104 -188l-407 -185zM332 627h346v14 q0 152 -40.5 223.5t-129.5 71.5q-81 0 -125 -70t-51 -239z" />
<glyph unicode="&#xea;" horiz-adv-x="987" d="M76 532q0 266 112.5 424t317.5 158q198 0 307 -140t109 -407q0 -46 -4 -104h-586q10 -166 64 -233.5t151 -67.5q64 0 118.5 21.5t116.5 68.5l105 -139q-154 -144 -357 -144q-219 0 -336.5 148t-117.5 415zM182 1391l246 260h156l245 -260l-92 -101l-231 180l-232 -180z M332 627h346v14q0 152 -40.5 223.5t-129.5 71.5q-81 0 -125 -70t-51 -239z" />
<glyph unicode="&#xeb;" horiz-adv-x="987" d="M76 532q0 266 112.5 424t317.5 158q198 0 307 -140t109 -407q0 -46 -4 -104h-586q10 -166 64 -233.5t151 -67.5q64 0 118.5 21.5t116.5 68.5l105 -139q-154 -144 -357 -144q-219 0 -336.5 148t-117.5 415zM172 1464q0 58 38.5 98t96.5 40t95.5 -40t37.5 -98 q0 -59 -37.5 -98t-95.5 -39t-96.5 39t-38.5 98zM332 627h346v14q0 152 -40.5 223.5t-129.5 71.5q-81 0 -125 -70t-51 -239zM569 1464q0 57 39.5 97.5t96.5 40.5q59 0 97 -40t38 -98q0 -59 -38 -98t-97 -39q-57 0 -96.5 39.5t-39.5 97.5z" />
<glyph unicode="&#xec;" horiz-adv-x="507" d="M33 1477l102 188l375 -250l-72 -123zM127 0v1083h252v-1083h-252z" />
<glyph unicode="&#xed;" horiz-adv-x="507" d="M6 1415l373 250l104 -188l-407 -185zM127 0v1083h252v-1083h-252z" />
<glyph unicode="&#xee;" horiz-adv-x="507" d="M-70 1391l246 260h156l246 -260l-93 -101l-231 180l-231 -180zM127 0v1083h252v-1083h-252z" />
<glyph unicode="&#xef;" horiz-adv-x="507" d="M-80 1464q0 58 38.5 98t96.5 40t95.5 -40t37.5 -98q0 -59 -37.5 -98t-95.5 -39t-96.5 39t-38.5 98zM127 0v1083h252v-1083h-252zM317 1464q0 57 39.5 97.5t96.5 40.5q59 0 97 -40t38 -98q0 -59 -38 -98t-97 -39q-57 0 -96.5 39.5t-39.5 97.5z" />
<glyph unicode="&#xf0;" horiz-adv-x="1036" d="M76 479q0 215 101.5 356.5t258.5 141.5q144 0 244 -111q-27 119 -69 203.5t-119 153.5l-115 -133l-158 79l127 146q-91 37 -178 57l47 172q143 -33 264 -88l129 154l140 -107l-117 -139q173 -140 246 -335.5t73 -471.5q0 -267 -118 -426.5t-326 -159.5q-190 0 -310 133.5 t-120 374.5zM330 485q0 -325 178 -325q188 0 188 364q0 62 -4 148q-73 121 -188 121q-174 0 -174 -308z" />
<glyph unicode="&#xf1;" horiz-adv-x="1032" d="M127 0v1083h219l21 -143q55 86 122.5 130t157.5 44q124 0 194 -87.5t70 -242.5v-784h-252v754q0 91 -24 128.5t-72 37.5q-51 0 -95.5 -41.5t-88.5 -120.5v-758h-252zM203 1391q34 93 89.5 148.5t125.5 55.5q44 0 83 -22.5t71 -45t57 -22.5q26 0 46.5 21t43.5 67l129 -61 q-34 -97 -90 -150t-125 -53q-44 0 -83.5 22t-71 44t-54.5 22q-30 0 -50 -20.5t-44 -67.5z" />
<glyph unicode="&#xf2;" d="M76 543q0 273 118 422t330 149t329.5 -146t117.5 -425q0 -267 -119 -420.5t-328 -153.5q-212 0 -330 149t-118 425zM303 1477l103 188l374 -250l-71 -123zM338 543q0 -204 45.5 -292.5t140.5 -88.5q94 0 139.5 89t45.5 292t-45 291t-140 88q-94 0 -140 -89t-46 -290z" />
<glyph unicode="&#xf3;" d="M76 543q0 273 118 422t330 149t329.5 -146t117.5 -425q0 -267 -119 -420.5t-328 -153.5q-212 0 -330 149t-118 425zM276 1415l373 250l105 -188l-408 -185zM338 543q0 -204 45.5 -292.5t140.5 -88.5q94 0 139.5 89t45.5 292t-45 291t-140 88q-94 0 -140 -89t-46 -290z " />
<glyph unicode="&#xf4;" d="M76 543q0 273 118 422t330 149t329.5 -146t117.5 -425q0 -267 -119 -420.5t-328 -153.5q-212 0 -330 149t-118 425zM199 1391l245 260h156l246 -260l-92 -101l-232 180l-231 -180zM338 543q0 -204 45.5 -292.5t140.5 -88.5q94 0 139.5 89t45.5 292t-45 291t-140 88 q-94 0 -140 -89t-46 -290z" />
<glyph unicode="&#xf5;" d="M76 543q0 273 118 422t330 149t329.5 -146t117.5 -425q0 -267 -119 -420.5t-328 -153.5q-212 0 -330 149t-118 425zM201 1391q34 93 89.5 148.5t125.5 55.5q44 0 83 -22.5t71 -45t57 -22.5q26 0 46.5 21t43.5 67l129 -61q-34 -97 -90 -150t-125 -53q-44 0 -83.5 22 t-71 44t-54.5 22q-30 0 -50 -20.5t-44 -67.5zM338 543q0 -204 45.5 -292.5t140.5 -88.5q94 0 139.5 89t45.5 292t-45 291t-140 88q-94 0 -140 -89t-46 -290z" />
<glyph unicode="&#xf6;" d="M76 543q0 273 118 422t330 149t329.5 -146t117.5 -425q0 -267 -119 -420.5t-328 -153.5q-212 0 -330 149t-118 425zM188 1464q0 58 39 98t97 40t95.5 -40t37.5 -98q0 -59 -37.5 -98t-95.5 -39t-97 39t-39 98zM338 543q0 -204 45.5 -292.5t140.5 -88.5q94 0 139.5 89 t45.5 292t-45 291t-140 88q-94 0 -140 -89t-46 -290zM586 1464q0 57 39 97.5t96 40.5q59 0 97 -40t38 -98q0 -59 -38 -98t-97 -39q-57 0 -96 39.5t-39 97.5z" />
<glyph unicode="&#xf7;" horiz-adv-x="905" d="M90 584v194h725v-194h-725zM295 199q0 66 44.5 113.5t113.5 47.5t113 -47.5t44 -113.5q0 -65 -44 -112.5t-113 -47.5t-113.5 47.5t-44.5 112.5zM295 1159q0 65 44.5 112.5t113.5 47.5t113 -47.5t44 -112.5q0 -66 -44 -114t-113 -48t-113.5 48t-44.5 114z" />
<glyph unicode="&#xf8;" d="M76 543q0 273 118 422t330 149q38 0 68 -6l67 246l187 -54l-76 -258q201 -136 201 -499q0 -267 -119 -420.5t-328 -153.5q-25 0 -65 4l-66 -243l-188 53l76 258q-98 67 -151.5 194.5t-53.5 307.5zM313 543q0 -239 62 -322l188 703q-6 0 -19 1t-20 1q-107 0 -159 -89.5 t-52 -293.5zM489 160q10 -2 35 -2q106 0 157.5 90t51.5 295q0 232 -59 315z" />
<glyph unicode="&#xf9;" horiz-adv-x="1024" d="M119 281v802h252v-786q0 -137 98 -137q99 0 176 147v776h252v-1083h-221l-12 141q-52 -87 -119.5 -129.5t-159.5 -42.5q-123 0 -194.5 85.5t-71.5 226.5zM289 1477l102 188l375 -250l-72 -123z" />
<glyph unicode="&#xfa;" horiz-adv-x="1024" d="M119 281v802h252v-786q0 -137 98 -137q99 0 176 147v776h252v-1083h-221l-12 141q-52 -87 -119.5 -129.5t-159.5 -42.5q-123 0 -194.5 85.5t-71.5 226.5zM262 1415l373 250l104 -188l-407 -185z" />
<glyph unicode="&#xfb;" horiz-adv-x="1024" d="M119 281v802h252v-786q0 -137 98 -137q99 0 176 147v776h252v-1083h-221l-12 141q-52 -87 -119.5 -129.5t-159.5 -42.5q-123 0 -194.5 85.5t-71.5 226.5zM184 1391l246 260h156l245 -260l-92 -101l-231 180l-232 -180z" />
<glyph unicode="&#xfc;" horiz-adv-x="1024" d="M119 281v802h252v-786q0 -137 98 -137q99 0 176 147v776h252v-1083h-221l-12 141q-52 -87 -119.5 -129.5t-159.5 -42.5q-123 0 -194.5 85.5t-71.5 226.5zM174 1464q0 58 38.5 98t96.5 40t95.5 -40t37.5 -98q0 -59 -37.5 -98t-95.5 -39t-96.5 39t-38.5 98zM571 1464 q0 57 39.5 97.5t96.5 40.5q59 0 97 -40t38 -98q0 -59 -38 -98t-97 -39q-57 0 -96.5 39.5t-39.5 97.5z" />
<glyph unicode="&#xfd;" horiz-adv-x="917" d="M4 1083h256l197 -915l205 915h251l-303 -1087q-55 -197 -175.5 -308.5t-325.5 -131.5l-29 180q135 24 200.5 82.5t106.5 181.5h-94zM211 1415l373 250l104 -188l-407 -185z" />
<glyph unicode="&#xfe;" horiz-adv-x="1058" d="M127 -444v1962l252 26v-573q102 143 258 143q171 0 257.5 -147.5t86.5 -421.5q0 -264 -99 -420t-272 -156q-143 0 -231 125v-506zM379 268q67 -106 164 -106q176 0 176 381q0 208 -39.5 293.5t-120.5 85.5q-100 0 -180 -138v-516z" />
<glyph unicode="&#xff;" horiz-adv-x="917" d="M4 1083h256l197 -915l205 915h251l-303 -1087q-55 -197 -175.5 -308.5t-325.5 -131.5l-29 180q135 24 200.5 82.5t106.5 181.5h-94zM123 1464q0 58 38.5 98t96.5 40t95.5 -40t37.5 -98q0 -59 -37.5 -98t-95.5 -39t-96.5 39t-38.5 98zM520 1464q0 57 39 97.5t96 40.5 q59 0 97.5 -40t38.5 -98q0 -59 -38 -98t-98 -39q-57 0 -96 39.5t-39 97.5z" />
<glyph unicode="&#x152;" horiz-adv-x="1603" d="M78 707q0 351 139.5 545t372.5 194q86 0 162 -31h776l-29 -194h-518q119 -151 137 -404h326v-194h-324q-18 -265 -145 -426h555v-197h-778q-76 -31 -162 -31q-234 0 -373 192.5t-139 545.5zM350 707q0 -145 17.5 -250t51 -167t78 -91t103.5 -29q124 0 188 126t64 413 q0 284 -64.5 410t-187.5 126q-122 0 -186 -126t-64 -412z" />
<glyph unicode="&#x153;" horiz-adv-x="1611" d="M72 543q0 265 118.5 418t327.5 153q196 0 318 -178q118 178 309 178q189 0 297 -142.5t108 -404.5q0 -46 -4 -104h-585q11 -161 67.5 -231t151.5 -70q64 0 118.5 21.5t114.5 68.5l107 -137q-156 -146 -357 -146q-213 0 -332 185q-119 -185 -317 -185q-207 0 -324.5 150 t-117.5 424zM334 543q0 -204 45.5 -292.5t138.5 -88.5t138.5 91t45.5 290q0 197 -45 288t-137 91q-94 0 -140 -89t-46 -290zM961 627h346v14q0 148 -40.5 220.5t-125.5 72.5q-82 0 -126.5 -72.5t-53.5 -234.5z" />
<glyph unicode="&#x178;" horiz-adv-x="1028" d="M-8 1415h276l250 -665l250 665h268l-391 -876v-539h-262v537zM188 1722q0 58 39 98t97 40t95.5 -40t37.5 -98q0 -59 -37.5 -98t-95.5 -39t-97 39t-39 98zM586 1722q0 57 39 97.5t96 40.5q59 0 97 -40t38 -98q0 -59 -38 -98t-97 -39q-57 0 -96 39.5t-39 97.5z" />
<glyph unicode="&#x2c6;" horiz-adv-x="770" d="M70 1391l245 260h156l246 -260l-92 -101l-232 180l-231 -180z" />
<glyph unicode="&#x2dc;" horiz-adv-x="768" d="M70 1391q34 93 89.5 148.5t125.5 55.5q44 0 83 -22.5t71 -45t57 -22.5q26 0 46.5 21t43.5 67l129 -61q-34 -97 -90.5 -150t-126.5 -53q-43 0 -82 22t-70.5 44t-54.5 22q-30 0 -50 -20.5t-44 -67.5z" />
<glyph unicode="&#x2000;" horiz-adv-x="1000" />
<glyph unicode="&#x2001;" horiz-adv-x="2001" />
<glyph unicode="&#x2002;" horiz-adv-x="1000" />
<glyph unicode="&#x2003;" horiz-adv-x="2001" />
<glyph unicode="&#x2004;" horiz-adv-x="667" />
<glyph unicode="&#x2005;" horiz-adv-x="500" />
<glyph unicode="&#x2006;" horiz-adv-x="333" />
<glyph unicode="&#x2007;" horiz-adv-x="333" />
<glyph unicode="&#x2008;" horiz-adv-x="250" />
<glyph unicode="&#x2009;" horiz-adv-x="400" />
<glyph unicode="&#x200a;" horiz-adv-x="111" />
<glyph unicode="&#x2010;" horiz-adv-x="733" d="M92 541v200h549v-200h-549z" />
<glyph unicode="&#x2011;" horiz-adv-x="733" d="M92 541v200h549v-200h-549z" />
<glyph unicode="&#x2012;" horiz-adv-x="733" d="M92 541v200h549v-200h-549z" />
<glyph unicode="&#x2013;" horiz-adv-x="935" d="M51 541v200h832v-200h-832z" />
<glyph unicode="&#x2014;" horiz-adv-x="1419" d="M51 541v200h1317v-200h-1317z" />
<glyph unicode="&#x2018;" horiz-adv-x="442" d="M80 1120q0 50 45 160l115 274h131l-74 -311q63 -47 63 -121q0 -61 -40 -102t-103 -41q-62 0 -99.5 40.5t-37.5 100.5z" />
<glyph unicode="&#x2019;" horiz-adv-x="442" d="M72 977l73 313q-61 45 -61 119q0 63 39 104t102 41q62 0 99.5 -41t37.5 -102q0 -51 -45 -158l-114 -276h-131z" />
<glyph unicode="&#x201a;" horiz-adv-x="442" d="M72 -326l73 314q-61 45 -61 118q0 63 39 104.5t102 41.5q62 0 99.5 -41t37.5 -102q0 -51 -45 -158l-114 -277h-131z" />
<glyph unicode="&#x201c;" horiz-adv-x="837" d="M80 1122q0 51 45 158l115 276h131l-72 -313q61 -48 61 -119q0 -62 -39.5 -103.5t-101.5 -41.5q-63 0 -101 40.5t-38 102.5zM475 1120q0 47 43 160l115 274h133l-74 -311q62 -46 62 -121q0 -61 -40 -102t-102 -41q-63 0 -100 40.5t-37 100.5z" />
<glyph unicode="&#x201d;" horiz-adv-x="837" d="M72 977l73 313q-61 45 -61 119q0 63 39 104t102 41q62 0 99.5 -41t37.5 -102q0 -51 -45 -158l-114 -276h-131zM467 977l72 313q-62 49 -62 119q0 62 39.5 103.5t101.5 41.5q63 0 101.5 -41t38.5 -102q0 -51 -45 -158l-115 -276h-131z" />
<glyph unicode="&#x201e;" horiz-adv-x="837" d="M72 -326l73 314q-61 45 -61 118q0 63 39 104.5t102 41.5q62 0 99.5 -41t37.5 -102q0 -51 -45 -158l-114 -277h-131zM467 -326l72 314q-62 49 -62 118q0 62 39.5 104t101.5 42q63 0 101.5 -41t38.5 -102q0 -51 -45 -158l-115 -277h-131z" />
<glyph unicode="&#x2022;" horiz-adv-x="651" d="M78 700q0 108 70 180t178 72t177.5 -73t69.5 -181t-69.5 -178.5t-177.5 -70.5t-178 71.5t-70 179.5z" />
<glyph unicode="&#x2026;" horiz-adv-x="1366" d="M70 131q0 65 43.5 112.5t111.5 47.5q69 0 113.5 -47.5t44.5 -112.5q0 -66 -44.5 -114t-113.5 -48t-112 47.5t-43 114.5zM524 131q0 65 44.5 112.5t113.5 47.5t113.5 -47.5t44.5 -112.5q0 -66 -44.5 -114t-113.5 -48t-113.5 48t-44.5 114zM981 131q0 65 44.5 112.5 t113.5 47.5t113 -47.5t44 -112.5q0 -66 -44 -114t-113 -48t-113.5 48t-44.5 114z" />
<glyph unicode="&#x202f;" horiz-adv-x="400" />
<glyph unicode="&#x2039;" horiz-adv-x="651" d="M84 502v166l328 446l153 -100l-237 -428l237 -430l-153 -101z" />
<glyph unicode="&#x203a;" horiz-adv-x="651" d="M84 156l240 430l-240 428l156 100l325 -446v-166l-325 -447z" />
<glyph unicode="&#x205f;" horiz-adv-x="500" />
<glyph unicode="&#x20ac;" horiz-adv-x="1038" d="M25 463l34 145h109v166h-143l34 148h117q50 233 184.5 357t321.5 124q186 0 332 -117l-90 -158q-113 82 -232 82q-207 0 -258 -288h434l-34 -148h-410v-166h381l-33 -145h-342q21 -161 87.5 -231t182.5 -70t254 82v-197q-146 -78 -284 -78q-200 0 -327.5 124.5 t-168.5 369.5h-149z" />
<glyph unicode="&#x2122;" horiz-adv-x="1585" d="M53 1260v155h619l-27 -155h-196v-652h-189v652h-207zM700 608l27 807h244l125 -536l112 536h252l27 -807h-180l-11 381q-2 118 11 268h-4l-134 -565h-147l-148 563h-2q12 -133 9 -266l-9 -381h-172z" />
<glyph unicode="&#x25fc;" horiz-adv-x="1085" d="M0 0v1085h1085v-1085h-1085z" />
</font>
</defs>
</svg>
