<?xml version="1.0" standalone="no"?>
<!DOCTYPE svg PUBLIC "-//W3C//DTD SVG 1.1//EN" "http://www.w3.org/Graphics/SVG/1.1/DTD/svg11.dtd" >
<svg xmlns="http://www.w3.org/2000/svg">
<metadata></metadata>
<defs>
<font id="fira_sans_condensedeight" horiz-adv-x="1001" >
<font-face units-per-em="2048" ascent="1638" descent="-410" />
<missing-glyph horiz-adv-x="538" />
<glyph unicode="&#xfb01;" horiz-adv-x="956" d="M59 1044v17h160v211q0 231 219 231q118 0 230 -73l-9 -13q-113 72 -221 72q-102 0 -152 -52t-50 -167v-209h503v-1061h-16v1044h-487v-1044h-17v1044h-160z" />
<glyph unicode="&#xfb02;" horiz-adv-x="1003" d="M59 1044v17h160v221q0 106 60 163.5t167 57.5q133 0 281 -61l14 2v-1327q0 -58 25 -89.5t74 -31.5q37 0 69 16l4 -14q-32 -16 -75 -16q-54 0 -83.5 35.5t-29.5 97.5v1312q-151 62 -279 62q-101 0 -155.5 -53t-54.5 -156v-219h264l-2 -17h-262v-1044h-17v1044h-160z" />
<glyph horiz-adv-x="0" />
<glyph horiz-adv-x="682" />
<glyph unicode="&#xd;" horiz-adv-x="538" />
<glyph unicode=" "  horiz-adv-x="538" />
<glyph unicode="&#x09;" horiz-adv-x="538" />
<glyph unicode="&#xa0;" horiz-adv-x="538" />
<glyph unicode="!" horiz-adv-x="444" d="M199 12q0 11 7 18t17 7t16.5 -7t6.5 -18q0 -9 -6.5 -15.5t-16.5 -6.5t-17 6.5t-7 15.5zM215 393v1000h16l-2 -1000h-14z" />
<glyph unicode="&#x22;" horiz-adv-x="618" d="M164 911v482h16l-2 -482h-14zM440 911v482h17l-2 -482h-15z" />
<glyph unicode="#" horiz-adv-x="847" d="M27 430v14h155l66 506h-158v15h160l51 391h16l-51 -391h396l51 391h16l-51 -391h143v-15h-145l-66 -506h148v-14h-150l-57 -430h-16l57 430h-395l-58 -430h-16l57 430h-153zM199 444h395l65 506h-395z" />
<glyph unicode="$" horiz-adv-x="927" d="M109 139l10 11q70 -77 144.5 -115.5t182.5 -38.5q148 0 239 101.5t91 258.5q0 147 -71.5 226t-241.5 143q-179 66 -247.5 139.5t-68.5 200.5q0 126 85 215t219 92v281h14v-281q95 -1 162 -34.5t127 -96.5l-11 -10q-59 63 -126 94t-160 31q-131 0 -212 -84t-81 -207 q0 -122 65 -191.5t238 -134.5q175 -64 250.5 -147.5t75.5 -235.5q0 -159 -92.5 -264.5t-241.5 -109.5v-279h-15v279q-110 0 -187.5 39.5t-147.5 117.5z" />
<glyph unicode="%" horiz-adv-x="1335" d="M125 1059q0 152 58.5 233.5t166.5 81.5q104 0 164.5 -80.5t60.5 -228.5q0 -150 -59 -233.5t-166 -83.5q-105 0 -165 82t-60 229zM141 1059q0 -140 55 -218.5t154 -78.5q100 0 154.5 80.5t54.5 222.5t-55 218.5t-154 76.5q-101 0 -155 -77.5t-54 -223.5zM262 -16l805 1433 l14 -6l-805 -1434zM760 293q0 153 58.5 234t166.5 81q105 0 165 -79.5t60 -229.5t-59 -233.5t-166 -83.5q-105 0 -165 82t-60 229zM776 293q0 -141 54 -219t155 -78q100 0 154.5 80.5t54.5 222.5t-55 218.5t-154 76.5q-101 0 -155 -77.5t-54 -223.5z" />
<glyph unicode="&#x26;" horiz-adv-x="1306" d="M209 328q0 139 64 233t200 180q-109 119 -147.5 194t-38.5 187q0 133 72 213t186 80t182 -79t68 -212q0 -52 -14 -96.5t-36.5 -79.5t-63.5 -72.5t-80.5 -66t-102.5 -70.5l442 -487q83 190 127 463l14 -4q-45 -280 -131 -469l217 -238l-14 -10l-211 235 q-138 -247 -391 -247q-153 0 -247.5 95t-94.5 251zM225 328q0 -149 90 -240.5t236 -91.5q128 0 220.5 61.5t160.5 182.5l-449 491q-133 -83 -195.5 -176.5t-62.5 -226.5zM303 1122q0 -105 36.5 -177t147.5 -195q79 53 124 87.5t88 80.5t61 95.5t18 110.5q0 128 -64 202.5 t-169 74.5q-107 0 -174.5 -76.5t-67.5 -202.5z" />
<glyph unicode="'" horiz-adv-x="342" d="M164 911v482h16l-2 -482h-14z" />
<glyph unicode="(" horiz-adv-x="575" d="M133 717q0 135 17 256t40.5 209t68 187t79 161.5t94.5 161.5l10 -6q-50 -86 -77 -135t-67 -130.5t-61.5 -148t-44.5 -155.5t-32.5 -188t-9.5 -212t9.5 -212t32.5 -188.5t44 -155.5t62 -148t67 -130t77 -135l-10 -6q-60 99 -94.5 161.5t-79 161.5t-68 187t-40.5 209 t-17 256z" />
<glyph unicode=")" horiz-adv-x="575" d="M133 -252q50 84 78 134.5t67.5 131t61.5 148t44.5 156t32 187.5t9.5 212t-9.5 212.5t-32 188t-44.5 156t-62 148t-67.5 130t-77.5 134.5l12 6q60 -100 94 -161.5t78.5 -161.5t67.5 -187t40 -208.5t17 -256.5t-17 -256.5t-40 -208.5t-67.5 -187t-78.5 -161.5t-94 -161.5z " />
<glyph unicode="*" horiz-adv-x="774" d="M109 1251l6 15l266 -103v330h14v-330l264 103l7 -15l-269 -98l166 -262l-14 -8l-162 260l-164 -260l-12 8l166 260z" />
<glyph unicode="+" horiz-adv-x="845" d="M145 670v16h271v313h16v-313h268v-16h-268v-314h-16v314h-271z" />
<glyph unicode="," horiz-adv-x="262" d="M66 -236l61 228q-16 6 -16 20q0 11 7 18t17 7t16.5 -7t6.5 -16q0 -10 -8 -34l-70 -216h-14z" />
<glyph unicode="-" horiz-adv-x="704" d="M145 631v16h414v-16h-414z" />
<glyph unicode="." horiz-adv-x="256" d="M104 12q0 11 6.5 18t16.5 7q11 0 18 -7.5t7 -17.5q0 -9 -7.5 -15.5t-17.5 -6.5t-16.5 6.5t-6.5 15.5z" />
<glyph unicode="/" horiz-adv-x="915" d="M246 -186l409 1814l15 -4l-410 -1814z" />
<glyph unicode="0" horiz-adv-x="962" d="M145 678q0 357 83 526.5t253 169.5t253 -169.5t83 -526.5q0 -356 -83 -526t-253 -170t-253 170t-83 526zM162 678q0 -349 78.5 -515.5t240.5 -166.5t241 166t79 516q0 349 -79 514.5t-241 165.5t-240.5 -165t-78.5 -515z" />
<glyph unicode="1" horiz-adv-x="684" d="M94 1112l326 240h14v-1352h-16v1333l-316 -233z" />
<glyph unicode="2" horiz-adv-x="800" d="M70 0v16q168 221 240.5 318t158 221.5t113 190.5t47.5 142t20 159q0 138 -73.5 224.5t-202.5 86.5q-93 0 -161 -43t-130 -131l-12 8q64 92 135.5 137t167.5 45q136 0 214.5 -92.5t78.5 -234.5q0 -58 -9 -110.5t-23.5 -102t-48.5 -112t-68.5 -118.5t-99 -146 t-124.5 -170.5t-161 -213.5q-29 -38 -44 -58h594l-2 -16h-610z" />
<glyph unicode="3" horiz-adv-x="829" d="M57 147l13 9q68 -87 136.5 -123.5t166.5 -36.5q140 0 225.5 103t85.5 270q0 170 -86.5 258t-239.5 88h-59l2 14h61q57 0 107.5 19.5t92 57.5t65.5 101t24 142q0 143 -72.5 227t-197.5 84q-158 0 -279 -141l-10 8q124 147 289 147q133 0 210 -88t77 -237 q0 -150 -75 -231.5t-192 -94.5q136 -8 217.5 -97t81.5 -257q0 -172 -89.5 -279.5t-235.5 -107.5q-104 0 -176.5 38.5t-141.5 126.5z" />
<glyph unicode="4" horiz-adv-x="874" d="M94 395v17l367 962l14 -6l-364 -956h512l2 444h14v-444h166v-17h-166v-395h-16v395h-529z" />
<glyph unicode="5" horiz-adv-x="829" d="M84 131l12 8q110 -143 285 -143q149 0 232 121t83 319q0 185 -78.5 287t-218.5 102q-121 0 -227 -92h-14v619h518l-2 -15h-500v-587q102 92 227 92q147 0 229.5 -107.5t82.5 -298.5q0 -204 -88 -329t-246 -125q-184 0 -295 149z" />
<glyph unicode="6" horiz-adv-x="903" d="M145 588q0 238 44 414t132 274t211 98q106 0 187 -74l-10 -12q-73 70 -177 70q-176 0 -272 -203.5t-98 -548.5q136 262 332 262q136 0 215 -103t79 -310q0 -233 -78.5 -353t-224.5 -120q-90 0 -156.5 45t-106 128t-58.5 191t-19 242zM162 582q1 -131 19.5 -235.5 t56 -184.5t100.5 -123t147 -43q139 0 213 118t74 341q0 199 -74.5 299t-203.5 100q-191 0 -332 -272z" />
<glyph unicode="7" horiz-adv-x="765" d="M76 1337v15h606v-13l-496 -1349l-14 6l494 1341h-590z" />
<glyph unicode="8" horiz-adv-x="931" d="M123 346q0 141 69 237t209 162q-124 59 -174.5 129t-50.5 179q0 152 83.5 236.5t207.5 84.5q126 0 208.5 -81.5t82.5 -241.5q0 -118 -51.5 -197.5t-174.5 -155.5q152 -71 214.5 -149.5t62.5 -210.5q0 -168 -91.5 -262t-248.5 -94q-162 0 -254 95t-92 269zM139 346 q0 -168 88 -259t242 -91q150 0 237 90t87 252q0 73 -17.5 126.5t-59 96.5t-94 75t-137.5 71l-71 30q-141 -67 -208 -160.5t-67 -230.5zM193 1053q0 -111 53 -178.5t186 -129.5l86 -40q121 73 172 150.5t51 195.5q0 153 -77 231t-197 78q-118 0 -196 -80.5t-78 -226.5z" />
<glyph unicode="9" horiz-adv-x="888" d="M113 942q0 206 88.5 319t232.5 113q168 0 245 -142t77 -425q0 -148 -23.5 -266.5t-67 -206.5t-111 -157t-148.5 -116.5t-187 -85.5l-4 15q102 37 180 82.5t143.5 110.5t107.5 148t65.5 194.5t25.5 250.5q-120 -246 -319 -246q-136 0 -220.5 109.5t-84.5 302.5zM129 940 q0 -186 79.5 -289.5t211.5 -103.5q190 0 319 254q-2 282 -73 419.5t-232 137.5q-138 0 -221.5 -107.5t-83.5 -310.5z" />
<glyph unicode=":" horiz-adv-x="256" d="M104 12q0 11 6.5 18t16.5 7q11 0 18 -7.5t7 -17.5q0 -9 -7.5 -15.5t-17.5 -6.5t-16.5 6.5t-6.5 15.5zM104 883q0 24 23 24q11 0 18 -7t7 -17q0 -9 -7.5 -17t-17.5 -8t-16.5 7.5t-6.5 17.5z" />
<glyph unicode=";" horiz-adv-x="260" d="M66 -236l61 228q-16 6 -16 20q0 11 7 18t17 7t16.5 -7t6.5 -16q0 -10 -8 -34l-70 -216h-14zM104 883q0 24 23 24q11 0 18 -7t7 -17q0 -9 -7.5 -17t-17.5 -8t-16.5 7.5t-6.5 17.5z" />
<glyph unicode="&#x3c;" horiz-adv-x="872" d="M152 676v12l561 320l8 -15l-553 -311l553 -320l-8 -14z" />
<glyph unicode="=" horiz-adv-x="845" d="M145 514v16h555v-16h-555zM145 825v17h555v-17h-555z" />
<glyph unicode="&#x3e;" horiz-adv-x="872" d="M152 362l553 320l-553 311l8 15l561 -320v-12l-561 -328z" />
<glyph unicode="?" horiz-adv-x="808" d="M127 1247q123 166 295 166q118 0 189 -75t71 -197q0 -60 -18 -108.5t-46.5 -81.5t-63.5 -62.5t-70 -60t-63.5 -65.5t-46.5 -88.5t-18 -119.5v-162h-14v164q0 68 18 122t46.5 89.5t63 66t69 59.5t63 61t46.5 79.5t18 106.5q0 117 -67.5 187.5t-176.5 70.5 q-88 0 -156 -39.5t-127 -122.5zM324 12q0 11 7 18t17 7t17.5 -7.5t7.5 -17.5q0 -9 -7.5 -15.5t-17.5 -6.5t-17 6.5t-7 15.5z" />
<glyph unicode="@" horiz-adv-x="1812" d="M193 500q0 253 91.5 460.5t263 331t390.5 123.5q133 0 245 -40.5t192 -112t135.5 -170t82.5 -214.5t27 -245q0 -114 -11 -207.5t-31.5 -158t-46.5 -112t-58 -74.5t-64.5 -39.5t-67.5 -12.5q-90 0 -143.5 74t-62.5 208q-39 -135 -105.5 -206.5t-157.5 -71.5 q-127 0 -204.5 113t-77.5 327q0 128 28 226t76 156.5t107.5 88t128.5 29.5q112 0 217 -64v-544q0 -155 51 -238.5t143 -83.5q51 0 95 28.5t82.5 92.5t61 184t22.5 285q0 127 -26 241t-80 210.5t-132 167t-187 110t-239 39.5q-129 0 -243.5 -46t-202.5 -129t-152 -194.5 t-97.5 -247.5t-33.5 -284q0 -213 54.5 -381.5t152 -277t229.5 -165.5t289 -57q173 0 317 64l4 -15q-147 -65 -321 -65q-159 0 -294 58t-235 168.5t-156 282.5t-56 388zM608 473q0 -208 71.5 -316t192.5 -108q93 0 159 78t102 221v-4v2l2 2l-5 4v549q-96 55 -200 55 q-140 0 -231 -122t-91 -361z" />
<glyph unicode="A" d="M68 0l421 1393h21l424 -1393h-16l-132 430h-573l-129 -430h-16zM217 446h565l-282 934z" />
<glyph unicode="B" horiz-adv-x="1026" d="M223 0v1393h217q202 0 306 -88.5t104 -253.5q0 -130 -75.5 -214.5t-203.5 -99.5q154 -6 249 -100t95 -262q0 -375 -430 -375h-262zM242 16h245q410 0 410 359q0 167 -99.5 260.5t-269.5 93.5h-286v-713zM242 745h276q146 0 231 86.5t85 219.5q0 157 -99 242t-293 85h-200 v-633z" />
<glyph unicode="C" horiz-adv-x="937" d="M145 694q0 180 34 319t96 225.5t145 130.5t184 44q91 0 155 -30.5t120 -86.5l-11 -12q-56 56 -116.5 85.5t-147.5 29.5q-200 0 -320 -177.5t-120 -527.5q0 -336 119.5 -516t318.5 -180q158 0 281 119l10 -13q-122 -122 -291 -122q-208 0 -332.5 185t-124.5 527z" />
<glyph unicode="D" horiz-adv-x="1085" d="M223 0v1393h195q59 0 110 -7.5t105 -28t97.5 -53t83 -85.5t66.5 -122.5t42.5 -167t15.5 -216.5q0 -166 -30 -293.5t-78.5 -205.5t-117 -127.5t-137 -68t-147.5 -18.5h-205zM242 16h186q78 0 145 18t133 66.5t112.5 124.5t75 201t28.5 287q0 117 -15.5 213t-41.5 164 t-65 120t-81 83.5t-94.5 51t-101.5 26.5t-105 7h-176v-1362z" />
<glyph unicode="E" horiz-adv-x="872" d="M223 0v1393h547l-2 -15h-526v-633h452v-14h-452v-715h546v-16h-565z" />
<glyph unicode="F" horiz-adv-x="829" d="M223 0v1393h539l-2 -15h-518v-661h448v-17h-448v-700h-19z" />
<glyph unicode="G" horiz-adv-x="1058" d="M145 707q0 141 26.5 259t71 199.5t104 138t125 83t134.5 26.5q84 0 151 -28t134 -87l-10 -12q-128 113 -275 113q-66 0 -128.5 -25.5t-120 -81t-100 -134.5t-68 -195.5t-25.5 -255.5q0 -343 122.5 -526t336.5 -183q153 0 284 92v602h-262l-4 17h283v-627 q-147 -100 -301 -100q-221 0 -349.5 187.5t-128.5 537.5z" />
<glyph unicode="H" horiz-adv-x="1155" d="M223 0v1393h19v-648h671v648h17v-1393h-17v731h-671v-731h-19z" />
<glyph unicode="I" horiz-adv-x="464" d="M223 0v1393h19v-1393h-19z" />
<glyph unicode="J" horiz-adv-x="485" d="M47 -180q125 63 166 136.5t41 219.5v1217h16v-1217q0 -151 -43 -228t-174 -141z" />
<glyph unicode="K" horiz-adv-x="905" d="M223 2v1391h19v-1391h-19zM246 750l579 643h19l-578 -643l606 -750h-20z" />
<glyph unicode="L" horiz-adv-x="788" d="M223 0v1393h19v-1377h506l-3 -16h-522z" />
<glyph unicode="M" horiz-adv-x="1339" d="M147 0l136 1393h24l361 -1198l362 1198h25l137 -1393h-16l-72 719l-64 657l-364 -1202h-17l-362 1202q-2 -20 -64 -641l-71 -735h-15z" />
<glyph unicode="N" horiz-adv-x="1155" d="M223 0v1393h23l672 -1375q-3 126 -3 304v1071h17v-1393h-23l-669 1374v-256v-1118h-17z" />
<glyph unicode="O" horiz-adv-x="1212" d="M145 692q0 347 125 534t336 187q217 0 339 -182t122 -535q0 -351 -119.5 -532.5t-341.5 -181.5q-217 0 -339 181.5t-122 528.5zM164 692q0 -341 117 -517.5t325 -176.5q216 0 329.5 176t113.5 522q0 348 -116.5 525.5t-326.5 177.5q-204 0 -323 -182.5t-119 -524.5z" />
<glyph unicode="P" horiz-adv-x="966" d="M223 0v1393h172q248 0 359.5 -96t111.5 -304t-119.5 -305.5t-357.5 -97.5h-147v-590h-19zM242 606h149q229 0 343 92t114 293q0 203 -106.5 295t-346.5 92h-153v-772z" />
<glyph unicode="Q" horiz-adv-x="1212" d="M145 692q0 347 125 534t336 187q217 0 339 -182t122 -535q0 -326 -100.5 -501.5t-286.5 -200.5q142 -2 239.5 -31.5t176.5 -105.5l-15 -11q-83 78 -186 108q-97 28 -259 28h-22h-8q-217 0 -339 181t-122 529zM164 692q0 -341 117 -517.5t325 -176.5q216 0 329.5 176 t113.5 522q0 348 -116.5 525.5t-326.5 177.5q-204 0 -323 -182.5t-119 -524.5z" />
<glyph unicode="R" horiz-adv-x="995" d="M223 0v1393h230q217 0 311 -92.5t94 -266.5q0 -157 -80.5 -245.5t-212.5 -106.5l338 -682h-18l-338 680q-14 -2 -45 -2h-260v-678h-19zM242 694h256q155 0 248.5 84.5t93.5 255.5q0 167 -89 255.5t-298 88.5h-211v-684z" />
<glyph unicode="S" horiz-adv-x="948" d="M109 143l10 11q71 -77 149 -116.5t189 -39.5q152 0 247 104.5t95 264.5q0 151 -75 233t-251 148q-184 68 -253.5 143.5t-69.5 208.5q0 131 89 222t230 91q100 0 171 -34t134 -99l-10 -12q-62 65 -130.5 98t-164.5 33q-135 0 -219 -87t-84 -212q0 -127 67 -199.5 t244 -138.5q90 -33 150 -67t104 -80.5t64 -106.5t20 -141q0 -166 -99.5 -275.5t-258.5 -109.5q-115 0 -195.5 40.5t-152.5 120.5z" />
<glyph unicode="T" horiz-adv-x="833" d="M33 1378v15h770l-2 -15h-375v-1378h-18v1378h-375z" />
<glyph unicode="U" horiz-adv-x="1114" d="M203 375v1018h18v-1016q0 -84 18 -150.5t56.5 -119t105 -81t156.5 -28.5t156 28.5t104.5 81t57 119.5t18.5 150v1016h16v-1018q0 -86 -19.5 -155.5t-60 -123.5t-110 -84t-162.5 -30q-94 0 -163.5 30t-110.5 84t-60.5 123.5t-19.5 155.5z" />
<glyph unicode="V" horiz-adv-x="927" d="M57 1393h17l393 -1377l387 1377h16l-395 -1393h-18z" />
<glyph unicode="W" horiz-adv-x="1386" d="M80 1393h18l273 -1377l313 1377h21l311 -1375l274 1375h17l-281 -1393h-20l-312 1376l-313 -1376h-21z" />
<glyph unicode="X" horiz-adv-x="833" d="M33 0l370 758l-319 635h16l314 -625l315 625h16l-319 -635l375 -758h-17l-370 748l-365 -748h-16z" />
<glyph unicode="Y" horiz-adv-x="851" d="M41 1393h18l369 -822l367 822h16l-375 -838v-555h-16v555z" />
<glyph unicode="Z" horiz-adv-x="890" d="M78 0v16l708 1362h-645v15h662v-15l-709 -1362h682l-2 -16h-696z" />
<glyph unicode="[" horiz-adv-x="546" d="M188 -209v1831h205v-14h-190v-1803h190v-14h-205z" />
<glyph unicode="\" horiz-adv-x="915" d="M246 1624l14 4l410 -1814l-15 -4z" />
<glyph unicode="]" horiz-adv-x="546" d="M154 -195h190v1803h-190v14h204v-1831h-204v14z" />
<glyph unicode="^" horiz-adv-x="929" d="M150 1079l303 598h12l301 -598h-21l-286 578l-289 -578h-20z" />
<glyph unicode="_" horiz-adv-x="921" d="M90 -170h741v-16h-741v16z" />
<glyph unicode="`" horiz-adv-x="430" d="M70 1520l10 16l297 -174l-6 -10z" />
<glyph unicode="a" horiz-adv-x="923" d="M121 297q0 157 96.5 242.5t271.5 85.5h199v141q0 146 -55 222.5t-182 76.5q-116 0 -261 -68l-4 15q147 69 265 69q133 0 193.5 -80.5t60.5 -234.5v-549q0 -107 18.5 -155t71.5 -68l-4 -12q-58 20 -79.5 69.5t-21.5 153.5q-97 -223 -297 -223q-129 0 -200.5 86.5 t-71.5 228.5zM137 297q0 -137 67.5 -219t190.5 -82q104 0 175 58.5t118 174.5v381h-196q-170 0 -262.5 -81t-92.5 -232z" />
<glyph unicode="b" horiz-adv-x="993" d="M215 0v1497l16 2v-627q62 99 135 154t173 55q154 0 235.5 -137t81.5 -403q0 -270 -83.5 -414.5t-242.5 -144.5q-183 0 -299 206l-2 -188h-14zM231 211q120 -215 297 -215q153 0 231.5 140.5t78.5 404.5q0 524 -299 524q-98 0 -170.5 -54t-137.5 -159v-641z" />
<glyph unicode="c" horiz-adv-x="815" d="M135 524q0 270 96 413.5t267 143.5q130 0 229 -102l-10 -10q-93 96 -219 96q-161 0 -252.5 -138.5t-91.5 -402.5q0 -258 93 -393t247 -135q132 0 229 104l10 -10q-101 -108 -239 -108q-161 0 -260 139.5t-99 402.5z" />
<glyph unicode="d" d="M139 526q0 256 93 405.5t257 149.5q100 0 171 -57t110 -139v614l16 -2v-1497h-14l-2 197q-48 -100 -118 -157.5t-177 -57.5q-157 0 -246.5 140.5t-89.5 403.5zM156 526q0 -257 85 -393.5t234 -136.5q107 0 175.5 59.5t119.5 169.5v635q-40 88 -111 146.5t-170 58.5 q-156 0 -244.5 -144t-88.5 -395z" />
<glyph unicode="e" horiz-adv-x="927" d="M135 520q0 264 94.5 412.5t255.5 148.5q157 0 237.5 -134t80.5 -359q0 -49 -2 -76h-647q1 -250 90.5 -383t242.5 -133q81 0 142 29t125 90l8 -13q-64 -61 -127 -90.5t-146 -29.5q-164 0 -259 140.5t-95 397.5zM154 526h630q2 25 2 66q0 141 -31 245t-100 166t-170 62 q-152 0 -241 -140.5t-90 -398.5z" />
<glyph unicode="f" horiz-adv-x="532" d="M59 1044v17h160v221q0 106 56.5 163.5t148.5 57.5q107 0 199 -65l-9 -15q-90 66 -188 66q-86 0 -138 -54t-52 -155v-219h264l-2 -17h-262v-1044h-17v1044h-160z" />
<glyph unicode="g" horiz-adv-x="858" d="M90 -121h16q0 -143 78.5 -201.5t259.5 -58.5q168 0 254 69.5t86 190.5q0 105 -68 165t-192 60h-127q-109 0 -163 41.5t-54 114.5q0 101 99 178q-152 90 -152 293q0 162 82.5 256t216.5 94q185 0 257 8.5t132 28.5l6 -18q-104 -33 -317 -33q117 -23 177 -111.5t60 -226.5 q0 -161 -81 -247.5t-218 -86.5q-80 0 -149 37q-96 -68 -96 -170q0 -143 202 -143h127q130 0 202.5 -64.5t72.5 -173.5q0 -129 -90.5 -203.5t-266.5 -74.5q-188 0 -271 63.5t-83 212.5zM143 731q0 -152 87.5 -236.5t211.5 -84.5q130 0 206.5 81.5t76.5 237.5q0 169 -85 252.5 t-214 83.5q-130 0 -206.5 -90.5t-76.5 -243.5z" />
<glyph unicode="h" horiz-adv-x="1021" d="M215 0v1497l16 2v-684q136 266 347 266q237 0 237 -327v-754h-16v754q0 311 -224 311q-209 0 -344 -277v-788h-16z" />
<glyph unicode="i" horiz-adv-x="446" d="M203 1436q0 20 20 20q21 0 21 -20q0 -8 -6 -14.5t-15 -6.5t-14.5 6.5t-5.5 14.5zM215 0v1061h16v-1061h-16z" />
<glyph unicode="j" horiz-adv-x="448" d="M45 -381q65 40 99.5 80.5t53.5 114t19 192.5v1055h16v-1055q0 -123 -20.5 -198.5t-56.5 -117t-105 -83.5zM203 1436q0 20 20 20q21 0 21 -20q0 -8 -6 -14.5t-15 -6.5t-14.5 6.5t-5.5 14.5z" />
<glyph unicode="k" horiz-adv-x="798" d="M215 0v1497l16 2v-1499h-16zM242 580l450 481h21l-451 -481l498 -580h-21z" />
<glyph unicode="l" horiz-adv-x="483" d="M205 115v1382l16 2v-1382q0 -121 98 -121q38 0 70 16l4 -14q-37 -16 -76 -16q-55 0 -83.5 35t-28.5 98z" />
<glyph unicode="m" horiz-adv-x="1488" d="M215 0v1061h14l2 -244q121 264 304 264q99 0 156 -70.5t65 -195.5q120 266 305 266q108 0 164.5 -86.5t56.5 -240.5v-754h-16v754q0 149 -52 230t-155 81q-182 0 -301 -274v-791h-17v768q0 139 -52 218t-154 79q-182 0 -304 -274v-791h-16z" />
<glyph unicode="n" horiz-adv-x="1021" d="M215 0v1061h14l2 -246q136 266 347 266q237 0 237 -327v-754h-16v754q0 311 -224 311q-209 0 -344 -277v-788h-16z" />
<glyph unicode="o" horiz-adv-x="985" d="M135 528q0 274 96.5 413.5t264.5 139.5q167 0 259.5 -137t92.5 -407q0 -275 -94 -415t-262 -140q-169 0 -263 139.5t-94 406.5zM154 528q0 -263 88.5 -397.5t249.5 -134.5t250 136t89 405q0 262 -87.5 395t-247.5 133q-161 0 -251.5 -134t-90.5 -403z" />
<glyph unicode="p" horiz-adv-x="993" d="M215 -393v1454h14l2 -189q128 209 310 209q154 0 234.5 -136t80.5 -404q0 -270 -83.5 -414.5t-240.5 -144.5q-183 0 -301 206v-579zM231 211q123 -215 299 -215q150 0 229 140t79 405q0 524 -297 524q-98 0 -172 -54.5t-138 -158.5v-641z" />
<glyph unicode="q" d="M139 526q0 257 92 406t256 149q101 0 171.5 -55.5t111.5 -138.5l2 174h14v-1454l-16 2v586q-49 -99 -118 -156t-175 -57q-158 0 -248 141t-90 403zM156 526q0 -256 85 -393t234 -137q105 0 174.5 59t120.5 166v639q-43 89 -113 147t-170 58q-156 0 -243.5 -143 t-87.5 -396z" />
<glyph unicode="r" horiz-adv-x="636" d="M215 0v1061h14l2 -277q43 157 110 227t173 70q42 0 82 -12l-2 -12q-38 10 -80 10q-106 0 -172.5 -76t-110.5 -248v-743h-16z" />
<glyph unicode="s" horiz-adv-x="806" d="M100 117l11 10q63 -64 128.5 -97.5t159.5 -33.5q119 0 196 74t77 198q0 60 -13.5 101t-48.5 74.5t-81.5 57.5t-127.5 56q-150 59 -210 116.5t-60 153.5q0 111 77 182.5t189 71.5q83 0 145.5 -26.5t119.5 -81.5l-9 -12q-57 55 -115.5 79.5t-140.5 24.5q-105 0 -177.5 -67 t-72.5 -171q0 -90 58.5 -145.5t204.5 -112.5q81 -31 129 -56.5t84.5 -60.5t50.5 -78.5t14 -105.5q0 -130 -81 -208t-208 -78q-97 0 -166 34.5t-133 100.5z" />
<glyph unicode="t" horiz-adv-x="569" d="M51 1044v17h152v272h16v-272h256l-2 -17h-254v-841q0 -98 45 -152.5t127 -54.5q86 0 162 55l8 -12q-83 -57 -170 -57q-88 0 -138 58t-50 163v841h-152z" />
<glyph unicode="u" horiz-adv-x="1013" d="M207 283v778h16v-778q0 -135 63 -211t175 -76q195 0 321 258v807h17v-1061h-17v229q-118 -247 -321 -247q-120 0 -187 80t-67 221z" />
<glyph unicode="v" horiz-adv-x="786" d="M55 1061h17l329 -1047l314 1047h16l-319 -1061h-19z" />
<glyph unicode="w" horiz-adv-x="1200" d="M72 1061h16l242 -1045l262 1045h18l262 -1045l240 1045h16l-245 -1061h-21l-262 1044l-260 -1044h-21z" />
<glyph unicode="x" horiz-adv-x="768" d="M47 0l324 569l-277 492h17l270 -481l274 481h19l-285 -492l332 -569h-19l-321 561l-315 -561h-19z" />
<glyph unicode="y" horiz-adv-x="782" d="M55 1061h17l329 -1051l310 1051h16l-313 -1061q-23 -77 -40.5 -124t-41.5 -94t-53 -75.5t-69.5 -53.5t-96.5 -44l-2 14q54 18 93 42.5t65.5 51t49.5 73t39 90t39 120.5h-8z" />
<glyph unicode="z" horiz-adv-x="724" d="M59 0v14l578 1030h-524v17h542v-14l-577 -1031h561l-2 -16h-578z" />
<glyph unicode="{" horiz-adv-x="575" d="M125 707v16q64 0 99.5 38.5t35.5 117.5v583q0 199 154 199v-12q-140 0 -140 -187v-579q0 -162 -135 -168q135 -6 135 -168v-580q0 -186 140 -186v-12q-154 0 -154 198v586q0 77 -35.5 115.5t-99.5 38.5z" />
<glyph unicode="|" horiz-adv-x="735" d="M360 -199v1837h15v-1837h-15z" />
<glyph unicode="}" horiz-adv-x="575" d="M162 -219q139 0 139 186v584q0 78 35 119.5t100 44.5q-65 3 -100 44.5t-35 119.5v583q0 187 -139 187v12q153 0 153 -199v-583q0 -156 136 -156v-16q-65 0 -100.5 -38t-35.5 -116v-586q0 -198 -153 -198v12z" />
<glyph unicode="~" horiz-adv-x="800" d="M141 621q55 96 133 96q30 0 66 -17.5t64.5 -38t63.5 -38t64 -17.5q69 0 115 86l12 -4q-46 -98 -127 -98q-37 0 -83.5 28t-92.5 56t-82 28q-39 0 -65.5 -22.5t-54.5 -65.5z" />
<glyph unicode="&#xa1;" horiz-adv-x="444" d="M199 883q0 11 6.5 17.5t17.5 6.5q23 0 23 -24q0 -9 -6.5 -16t-16.5 -7t-17 7t-7 16zM215 -387v905h14l2 -905h-16z" />
<glyph unicode="&#xa2;" horiz-adv-x="815" d="M135 524q0 266 93.5 409t260.5 148v297h15v-297q128 -3 223 -102l-10 -10q-93 96 -219 96q-161 0 -252.5 -138.5t-91.5 -402.5q0 -258 93 -393t247 -135q132 0 229 104l10 -10q-101 -108 -237 -108v-279h-15v279q-157 6 -251.5 145.5t-94.5 396.5z" />
<glyph unicode="&#xa3;" horiz-adv-x="870" d="M119 0v16q77 37 109 87.5t32 148.5v467h-102v14h102v307q0 148 67.5 241t194.5 93q146 0 240 -129l-12 -8q-90 123 -228 123q-120 0 -183 -89t-63 -231v-307h371v-14h-371v-465q0 -100 -31 -152.5t-102 -85.5h609l-2 -16h-631z" />
<glyph unicode="&#xa4;" horiz-adv-x="987" d="M147 276l138 156q-88 98 -88 262q0 159 82 260l-132 156l13 8l129 -153q83 86 203 86q124 0 204 -86l131 153l13 -8l-133 -158q81 -93 81 -258q0 -161 -86 -260l138 -158l-13 -8l-135 156q-82 -82 -200 -82q-117 0 -197 80l-135 -154zM213 694q0 -158 78 -248t201 -90 q124 0 202 90.5t78 247.5t-76 249.5t-204 92.5q-126 0 -202.5 -92.5t-76.5 -249.5z" />
<glyph unicode="&#xa5;" horiz-adv-x="835" d="M41 1352h18l359 -688l358 688h19l-363 -690h230v-17h-236v-262h236v-16h-236v-367h-16v367h-228v16h228v262h-228v17h221z" />
<glyph unicode="&#xa6;" horiz-adv-x="735" d="M360 -199v736h15v-736h-15zM360 907v731h15v-731h-15z" />
<glyph unicode="&#xa7;" horiz-adv-x="935" d="M186 657q0 80 39.5 145t122.5 128q-65 39 -90 84t-25 114q0 112 72.5 179t179.5 67q67 0 123 -20.5t119 -63.5l-8 -14q-113 82 -234 82q-101 0 -168 -62.5t-67 -167.5q0 -90 50 -142.5t198 -111.5q140 -57 195 -118.5t55 -171.5q0 -161 -146 -262q58 -36 82.5 -81.5 t24.5 -115.5q0 -114 -72 -182t-184 -68q-143 0 -258 86l10 14q106 -84 248 -84q107 0 173 64t66 170q0 92 -49.5 144t-189.5 106q-148 57 -207.5 115t-59.5 167zM203 657q0 -102 54.5 -157t199.5 -111q88 -33 133 -59q141 97 141 254q0 104 -51.5 163t-185.5 113 q-95 40 -134 62q-81 -61 -119 -124t-38 -141z" />
<glyph unicode="&#xa8;" horiz-adv-x="436" d="M72 1407q0 20 20 20q21 0 21 -20q0 -8 -6 -14.5t-15 -6.5q-20 0 -20 21zM344 1407q0 20 21 20q20 0 20 -20q0 -8 -5.5 -14.5t-14.5 -6.5t-15 6.5t-6 14.5z" />
<glyph unicode="&#xa9;" horiz-adv-x="1425" d="M236 891q0 263 133.5 417t343.5 154q212 0 344.5 -152.5t132.5 -418.5q0 -264 -133 -418t-344 -154t-344 153t-133 419zM252 891q0 -261 127.5 -409t333.5 -148q205 0 334 149.5t129 407.5q0 261 -128.5 409t-334.5 148q-205 0 -333 -149.5t-128 -407.5zM483 895 q0 89 21 157.5t55 107t72 57t78 18.5q88 0 143 -55l-8 -11q-56 52 -135 52q-37 0 -72 -17.5t-66.5 -54t-51 -102.5t-19.5 -152q0 -164 58.5 -246t152.5 -82q87 0 151 60l8 -13q-63 -63 -161 -63q-99 0 -162.5 87.5t-63.5 256.5z" />
<glyph unicode="&#xab;" horiz-adv-x="960" d="M176 584v12l256 422l12 -8l-249 -420l251 -418l-12 -8zM514 584v12l256 422l12 -8l-252 -420l252 -418l-10 -8z" />
<glyph unicode="&#xac;" horiz-adv-x="864" d="M145 649v17h574v-236h-19v219h-555z" />
<glyph unicode="&#xad;" horiz-adv-x="704" d="M145 631v16h414v-16h-414z" />
<glyph unicode="&#xae;" horiz-adv-x="1118" d="M186 1022q0 197 99 317.5t274 120.5q168 0 271.5 -117.5t103.5 -312.5q0 -197 -100 -317.5t-275 -120.5q-168 0 -270.5 117t-102.5 313zM201 1022q0 -190 98 -303t260 -113q169 0 265 116t96 308q0 190 -99 303t-262 113q-169 0 -263.5 -115.5t-94.5 -308.5zM438 760v549 h101q79 0 123.5 -39t44.5 -113q0 -66 -32.5 -102.5t-82.5 -44.5l129 -252h-16l-130 252h-122v-250h-15zM453 1024h116q54 0 87.5 33.5t33.5 99.5q0 135 -149 135h-88v-268z" />
<glyph unicode="&#xaf;" horiz-adv-x="468" d="M70 1409v14h346v-14h-346z" />
<glyph unicode="&#xb0;" horiz-adv-x="892" d="M160 1137q0 125 64 200.5t163 75.5q106 0 167.5 -74.5t61.5 -203.5q0 -131 -61.5 -205t-167.5 -74q-98 0 -162.5 75.5t-64.5 205.5zM176 1137q0 -125 59 -196t152 -71q100 0 156.5 69.5t56.5 195.5q0 123 -56.5 193.5t-156.5 70.5q-92 0 -151.5 -71.5t-59.5 -190.5z" />
<glyph unicode="&#xb1;" horiz-adv-x="847" d="M145 0v16h555v-16h-555zM145 670v16h271v313h16v-313h268v-16h-268v-314h-16v314h-271z" />
<glyph unicode="&#xb2;" horiz-adv-x="704" d="M152 653v15q79 99 115 144.5t86 111t69 96t44 73t32.5 71t13.5 62t6 70.5q0 90 -44 142.5t-124 52.5q-109 0 -186 -107l-12 9q83 112 198 112q89 0 137 -57t48 -152q0 -43 -5 -77.5t-24.5 -78.5t-37.5 -76t-65.5 -97t-85 -113t-118.5 -150q-18 -22 -27 -34h383l-2 -17 h-401z" />
<glyph unicode="&#xb3;" horiz-adv-x="704" d="M141 745l13 9q41 -54 85.5 -76.5t106.5 -22.5q91 0 146 62.5t55 163.5q0 104 -53.5 158.5t-145.5 54.5h-41v14h43q72 0 124 50.5t52 144.5q0 85 -46.5 136.5t-125.5 51.5q-104 0 -182 -86l-10 8q85 94 192 94q86 0 137.5 -56.5t51.5 -145.5q0 -91 -47.5 -143t-118.5 -60 q83 -5 134.5 -60.5t51.5 -158.5q0 -107 -60 -174.5t-157 -67.5q-126 0 -205 104z" />
<glyph unicode="&#xb4;" horiz-adv-x="430" d="M70 1362l297 174l10 -16l-301 -168z" />
<glyph unicode="&#xb5;" horiz-adv-x="1024" d="M215 -391v1452h16v-782q0 -146 61 -214.5t159 -68.5q110 0 192 84t135 229v752h17v-727q0 -168 49 -334l-15 -2q-44 146 -49 287q-50 -139 -133 -221t-196 -82q-93 0 -151 54t-71 157q2 -135 2 -314v-270h-16z" />
<glyph unicode="&#xb6;" horiz-adv-x="1204" d="M219 1014q0 179 103 279t276 100h285v-1784l-17 -2v1771h-256v-1769l-16 -2v1028q-100 1 -174.5 32t-117 84.5t-63 119t-20.5 143.5z" />
<glyph unicode="&#xb7;" horiz-adv-x="256" d="M104 672q0 24 23 24q11 0 18 -7t7 -17q0 -9 -7.5 -17t-17.5 -8t-16.5 7.5t-6.5 17.5z" />
<glyph unicode="&#xb8;" horiz-adv-x="364" d="M70 -385l8 12q45 -33 102 -33q49 0 82 28.5t33 88.5q0 57 -37.5 84.5t-122.5 28.5l10 170h13l-6 -158q79 -3 119 -32.5t40 -92.5q0 -66 -38 -98.5t-93 -32.5q-59 0 -110 35z" />
<glyph unicode="&#xb9;" horiz-adv-x="704" d="M225 1343l215 148h13v-838h-15v822l-205 -144z" />
<glyph unicode="&#xbb;" horiz-adv-x="956" d="M176 172l254 418l-252 420l12 8l256 -422v-12l-258 -420zM510 172l254 418l-252 420l12 8l256 -422v-12l-258 -420z" />
<glyph unicode="&#xbc;" horiz-adv-x="1546" d="M184 1245l215 148h13v-838h-15v821l-204 -143zM410 -131l712 1638l15 -6l-713 -1638zM963 242v16l237 596l12 -6l-235 -590h328l2 272h14v-272h106v-16h-106v-242h-16v242h-342z" />
<glyph unicode="&#xbd;" horiz-adv-x="1548" d="M184 1245l215 148h13v-838h-15v821l-204 -143zM410 -131l712 1638l15 -6l-713 -1638zM995 0v14q92 115 132 166t93.5 122.5t71.5 103.5t39 78.5t26 80.5t5 78q0 90 -44 142.5t-124 52.5q-109 0 -186 -107l-13 8q84 113 199 113q88 0 136 -57t48 -152q0 -121 -60.5 -221.5 t-284.5 -383.5q-11 -15 -17 -22h383l-2 -16h-402z" />
<glyph unicode="&#xbe;" horiz-adv-x="1546" d="M141 647l13 8q41 -53 85.5 -75.5t106.5 -22.5q92 0 146.5 62t54.5 163q0 104 -53.5 158.5t-145.5 54.5h-41v15h43q72 0 124 50t52 144q0 85 -46.5 137t-125.5 52q-104 0 -182 -86l-10 8q85 94 192 94q86 0 137.5 -57t51.5 -146q0 -91 -47 -142.5t-119 -59.5 q82 -5 134 -61t52 -159q0 -107 -59.5 -174t-157.5 -67q-126 0 -205 104zM410 -131l712 1638l15 -6l-713 -1638zM961 242v16l237 596l12 -6l-235 -590h328l2 272h14v-272h106v-16h-106v-242h-16v242h-342z" />
<glyph unicode="&#xbf;" horiz-adv-x="808" d="M127 -137q0 60 18 108t46.5 80.5t63.5 62t70 59.5t63.5 65.5t46.5 88.5t18 119v74h14v-76q0 -68 -18 -121.5t-46.5 -89t-63 -65.5t-69 -59t-63 -60.5t-46.5 -79t-18 -106.5q0 -104 68.5 -174t173.5 -70q89 0 157.5 39.5t127.5 122.5l12 -10q-124 -168 -297 -168 q-112 0 -185 75.5t-73 184.5zM436 883q0 10 7 17t18 7q22 0 22 -24q0 -9 -6 -16t-16 -7t-17.5 7t-7.5 16z" />
<glyph unicode="&#xc0;" d="M68 0l421 1393h21l424 -1393h-16l-132 430h-573l-129 -430h-16zM217 446h565l-282 934zM356 1718l9 17l297 -150l-7 -10z" />
<glyph unicode="&#xc1;" d="M68 0l421 1393h21l424 -1393h-16l-132 430h-573l-129 -430h-16zM217 446h565l-282 934zM344 1587l297 148l8 -17l-299 -143z" />
<glyph unicode="&#xc2;" d="M68 0l421 1393h21l424 -1393h-16l-132 430h-573l-129 -430h-16zM217 446h565l-282 934zM297 1583l195 170h12l196 -170l-8 -8l-194 162l-191 -162z" />
<glyph unicode="&#xc3;" d="M68 0l421 1393h21l424 -1393h-16l-132 430h-573l-129 -430h-16zM217 446h565l-282 934zM279 1683q33 43 59 61.5t59 18.5q36 0 100 -45t101 -45q34 0 58 17.5t53 60.5l12 -6q-30 -46 -57.5 -66t-65.5 -20q-33 0 -69.5 22.5t-70.5 45t-61 22.5q-31 0 -53.5 -16.5 t-52.5 -55.5z" />
<glyph unicode="&#xc4;" d="M68 0l421 1393h21l424 -1393h-16l-132 430h-573l-129 -430h-16zM217 446h565l-282 934zM352 1665q0 9 6 15t15 6q20 0 20 -21q0 -8 -5.5 -14t-14.5 -6t-15 6t-6 14zM625 1665q0 21 20 21q21 0 21 -21q0 -20 -21 -20q-9 0 -14.5 6t-5.5 14z" />
<glyph unicode="&#xc5;" d="M68 0l421 1393h21l424 -1393h-16l-132 430h-573l-129 -430h-16zM217 446h565l-282 934zM379 1731q0 65 33 103t88 38q56 0 88.5 -37.5t32.5 -101.5t-32.5 -102t-88.5 -38q-58 0 -89.5 37t-31.5 101zM393 1731q0 -59 28 -92t79 -33q49 0 77.5 34t28.5 93q0 60 -27.5 92.5 t-78.5 32.5q-49 0 -78 -34t-29 -93z" />
<glyph unicode="&#xc6;" horiz-adv-x="1325" d="M33 0l463 1393h649l-2 -15h-621l144 -633h462v-14h-460l161 -715h412v-16h-426l-92 414h-537l-137 -414h-16zM190 430h529l-213 950z" />
<glyph unicode="&#xc7;" horiz-adv-x="937" d="M145 694q0 180 34 319t96 225.5t145 130.5t184 44q91 0 155 -30.5t120 -86.5l-11 -12q-56 56 -116.5 85.5t-147.5 29.5q-200 0 -320 -177.5t-120 -527.5q0 -336 119.5 -516t318.5 -180q158 0 281 119l10 -13q-122 -122 -291 -122h-2l-6 -146q160 -6 160 -125 q0 -66 -38 -98.5t-91 -32.5q-62 0 -113 35l8 12q48 -33 105 -33q48 0 80 28.5t32 88.5q0 57 -37 84.5t-122 28.5l10 158q-202 6 -322.5 191.5t-120.5 520.5z" />
<glyph unicode="&#xc8;" horiz-adv-x="872" d="M223 0v1393h547l-2 -15h-526v-633h452v-14h-452v-715h546v-16h-565zM356 1718l9 17l297 -150l-7 -10z" />
<glyph unicode="&#xc9;" horiz-adv-x="872" d="M223 0v1393h547l-2 -15h-526v-633h452v-14h-452v-715h546v-16h-565zM344 1587l297 148l8 -17l-299 -143z" />
<glyph unicode="&#xca;" horiz-adv-x="872" d="M223 0v1393h547l-2 -15h-526v-633h452v-14h-452v-715h546v-16h-565zM299 1583l195 170h12l196 -170l-8 -8l-194 162l-191 -162z" />
<glyph unicode="&#xcb;" horiz-adv-x="872" d="M223 0v1393h547l-2 -15h-526v-633h452v-14h-452v-715h546v-16h-565zM352 1665q0 9 6 15t15 6q20 0 20 -21q0 -8 -5.5 -14t-14.5 -6t-15 6t-6 14zM625 1665q0 21 20 21q21 0 21 -21q0 -20 -21 -20q-9 0 -14.5 6t-5.5 14z" />
<glyph unicode="&#xcc;" horiz-adv-x="464" d="M88 1718l8 17l297 -150l-6 -10zM223 0v1393h19v-1393h-19z" />
<glyph unicode="&#xcd;" horiz-adv-x="464" d="M76 1587l297 148l8 -17l-299 -143zM223 0v1393h19v-1393h-19z" />
<glyph unicode="&#xce;" horiz-adv-x="464" d="M29 1583l194 170h13l196 -170l-8 -8l-195 162l-190 -162zM223 0v1393h19v-1393h-19z" />
<glyph unicode="&#xcf;" horiz-adv-x="464" d="M84 1665q0 21 20 21q9 0 15 -6t6 -15q0 -8 -6 -14t-15 -6t-14.5 6t-5.5 14zM223 0v1393h19v-1393h-19zM356 1665q0 9 6 15t15 6q20 0 20 -21q0 -20 -20 -20q-9 0 -15 6t-6 14z" />
<glyph unicode="&#xd0;" horiz-adv-x="1077" d="M51 715v16h166v662h193q59 0 110 -7.5t105 -28t98 -53t84 -85.5t66.5 -122.5t42.5 -167t16 -216.5q0 -166 -30 -293.5t-78.5 -205.5t-117 -127.5t-137 -68t-147.5 -18.5h-205v715h-166zM233 16h189q54 0 103 9t99 31.5t92 57t79 89.5t62.5 126t40.5 169t15 215t-15 213 t-41 164t-64.5 120t-81 83.5t-94.5 51t-101 26.5t-106 7h-177v-647h342v-16h-342v-699z" />
<glyph unicode="&#xd1;" horiz-adv-x="1155" d="M223 0v1393h23l672 -1375q-3 126 -3 304v1071h17v-1393h-23l-669 1374v-256v-1118h-17zM365 1683q33 43 59 61.5t59 18.5q36 0 100 -45t101 -45q34 0 58 17.5t53 60.5l12 -6q-30 -46 -57.5 -66t-65.5 -20q-33 0 -69.5 22.5t-70.5 45t-61 22.5q-31 0 -53.5 -16.5 t-52.5 -55.5z" />
<glyph unicode="&#xd2;" horiz-adv-x="1212" d="M145 692q0 347 125 534t336 187q217 0 339 -182t122 -535q0 -351 -119.5 -532.5t-341.5 -181.5q-217 0 -339 181.5t-122 528.5zM164 692q0 -341 117 -517.5t325 -176.5q216 0 329.5 176t113.5 522q0 348 -116.5 525.5t-326.5 177.5q-204 0 -323 -182.5t-119 -524.5z M463 1718l8 17l297 -150l-6 -10z" />
<glyph unicode="&#xd3;" horiz-adv-x="1212" d="M145 692q0 347 125 534t336 187q217 0 339 -182t122 -535q0 -351 -119.5 -532.5t-341.5 -181.5q-217 0 -339 181.5t-122 528.5zM164 692q0 -341 117 -517.5t325 -176.5q216 0 329.5 176t113.5 522q0 348 -116.5 525.5t-326.5 177.5q-204 0 -323 -182.5t-119 -524.5z M451 1587l297 148l8 -17l-299 -143z" />
<glyph unicode="&#xd4;" horiz-adv-x="1212" d="M145 692q0 347 125 534t336 187q217 0 339 -182t122 -535q0 -351 -119.5 -532.5t-341.5 -181.5q-217 0 -339 181.5t-122 528.5zM164 692q0 -341 117 -517.5t325 -176.5q216 0 329.5 176t113.5 522q0 348 -116.5 525.5t-326.5 177.5q-204 0 -323 -182.5t-119 -524.5z M406 1583l194 170h12l197 -170l-8 -8l-195 162l-190 -162z" />
<glyph unicode="&#xd5;" horiz-adv-x="1212" d="M145 692q0 347 125 534t336 187q217 0 339 -182t122 -535q0 -351 -119.5 -532.5t-341.5 -181.5q-217 0 -339 181.5t-122 528.5zM164 692q0 -341 117 -517.5t325 -176.5q216 0 329.5 176t113.5 522q0 348 -116.5 525.5t-326.5 177.5q-204 0 -323 -182.5t-119 -524.5z M385 1683q33 42 59 61t60 19q36 0 100 -45t101 -45q34 0 57.5 17.5t52.5 60.5l12 -6q-30 -47 -57 -66.5t-65 -19.5q-41 0 -105 45t-96 45q-31 0 -54.5 -16.5t-52.5 -55.5z" />
<glyph unicode="&#xd6;" horiz-adv-x="1212" d="M145 692q0 347 125 534t336 187q217 0 339 -182t122 -535q0 -351 -119.5 -532.5t-341.5 -181.5q-217 0 -339 181.5t-122 528.5zM164 692q0 -341 117 -517.5t325 -176.5q216 0 329.5 176t113.5 522q0 348 -116.5 525.5t-326.5 177.5q-204 0 -323 -182.5t-119 -524.5z M459 1665q0 21 20 21q9 0 15 -6t6 -15q0 -8 -6 -14t-15 -6t-14.5 6t-5.5 14zM731 1665q0 9 6 15t15 6q20 0 20 -21q0 -20 -20 -20q-9 0 -15 6t-6 14z" />
<glyph unicode="&#xd7;" horiz-adv-x="845" d="M180 352l232 279l-232 276l13 8l229 -276l231 276l13 -8l-232 -276l232 -279l-13 -8l-231 274l-229 -274z" />
<glyph unicode="&#xd8;" horiz-adv-x="1212" d="M145 692q0 347 125 534t336 187q88 0 164 -31l59 236l17 -4l-62 -238q136 -64 209.5 -235.5t73.5 -444.5q0 -351 -119.5 -532.5t-341.5 -181.5q-90 0 -164 30l-59 -227l-16 4l61 229q-135 64 -209 235.5t-74 438.5zM164 692q0 -263 70 -428.5t200 -228.5l334 1331 q-81 33 -162 33q-204 0 -323 -182.5t-119 -524.5zM446 29q76 -31 160 -31q216 0 329.5 176t113.5 522q0 267 -69.5 434t-199.5 230z" />
<glyph unicode="&#xd9;" horiz-adv-x="1114" d="M203 375v1018h18v-1016q0 -84 18 -150.5t56.5 -119t105 -81t156.5 -28.5t156 28.5t104.5 81t57 119.5t18.5 150v1016h16v-1018q0 -86 -19.5 -155.5t-60 -123.5t-110 -84t-162.5 -30q-94 0 -163.5 30t-110.5 84t-60.5 123.5t-19.5 155.5zM414 1718l8 17l297 -150l-6 -10z " />
<glyph unicode="&#xda;" horiz-adv-x="1114" d="M203 375v1018h18v-1016q0 -84 18 -150.5t56.5 -119t105 -81t156.5 -28.5t156 28.5t104.5 81t57 119.5t18.5 150v1016h16v-1018q0 -86 -19.5 -155.5t-60 -123.5t-110 -84t-162.5 -30q-94 0 -163.5 30t-110.5 84t-60.5 123.5t-19.5 155.5zM401 1587l297 148l9 -17 l-299 -143z" />
<glyph unicode="&#xdb;" horiz-adv-x="1114" d="M203 375v1018h18v-1016q0 -84 18 -150.5t56.5 -119t105 -81t156.5 -28.5t156 28.5t104.5 81t57 119.5t18.5 150v1016h16v-1018q0 -86 -19.5 -155.5t-60 -123.5t-110 -84t-162.5 -30q-94 0 -163.5 30t-110.5 84t-60.5 123.5t-19.5 155.5zM354 1583l195 170h12l197 -170 l-8 -8l-195 162l-190 -162z" />
<glyph unicode="&#xdc;" horiz-adv-x="1114" d="M203 375v1018h18v-1016q0 -84 18 -150.5t56.5 -119t105 -81t156.5 -28.5t156 28.5t104.5 81t57 119.5t18.5 150v1016h16v-1018q0 -86 -19.5 -155.5t-60 -123.5t-110 -84t-162.5 -30q-94 0 -163.5 30t-110.5 84t-60.5 123.5t-19.5 155.5zM410 1665q0 21 20 21q9 0 15 -6 t6 -15q0 -8 -6 -14t-15 -6t-14.5 6t-5.5 14zM682 1665q0 21 20 21q21 0 21 -21q0 -20 -21 -20q-9 0 -14.5 6t-5.5 14z" />
<glyph unicode="&#xdd;" horiz-adv-x="851" d="M41 1393h18l369 -822l367 822h16l-375 -838v-555h-16v555zM270 1587l297 148l8 -17l-299 -143z" />
<glyph unicode="&#xde;" horiz-adv-x="966" d="M223 0v1393h19v-265h161q243 0 353 -96t110 -311q0 -216 -117.5 -313t-351.5 -97h-155v-311h-19zM242 328h155q227 0 339 92t112 301q0 210 -104.5 301.5t-340.5 91.5h-161v-786z" />
<glyph unicode="&#xdf;" horiz-adv-x="1005" d="M215 0v1155q0 159 82 253.5t213 94.5q118 0 185 -67.5t67 -182.5q0 -51 -15.5 -94.5t-39 -72.5t-51 -58.5t-51 -52.5t-39 -54t-15.5 -65q0 -43 25.5 -80t63.5 -64t83 -65t83 -80t63.5 -113t25.5 -159q0 -144 -65 -229.5t-179 -85.5q-86 0 -162 45l7 14q67 -43 153 -43 q107 0 168.5 80.5t61.5 218.5q0 75 -19 137t-49.5 102.5t-67 74.5t-73 61t-67 53t-49.5 59.5t-19 73.5q0 41 21.5 78t52.5 67t62 63t52.5 81.5t21.5 107.5q0 109 -62 172.5t-173 63.5q-124 0 -201.5 -90.5t-77.5 -245.5v-1153h-16z" />
<glyph unicode="&#xe0;" horiz-adv-x="923" d="M121 297q0 157 96.5 242.5t271.5 85.5h199v141q0 146 -55 222.5t-182 76.5q-116 0 -261 -68l-4 15q147 69 265 69q133 0 193.5 -80.5t60.5 -234.5v-549q0 -107 18.5 -155t71.5 -68l-4 -12q-58 20 -79.5 69.5t-21.5 153.5q-97 -223 -297 -223q-129 0 -200.5 86.5 t-71.5 228.5zM137 297q0 -137 67.5 -219t190.5 -82q104 0 175 58.5t118 174.5v381h-196q-170 0 -262.5 -81t-92.5 -232zM297 1520l10 16l297 -174l-6 -10z" />
<glyph unicode="&#xe1;" horiz-adv-x="923" d="M121 297q0 157 96.5 242.5t271.5 85.5h199v141q0 146 -55 222.5t-182 76.5q-116 0 -261 -68l-4 15q147 69 265 69q133 0 193.5 -80.5t60.5 -234.5v-549q0 -107 18.5 -155t71.5 -68l-4 -12q-58 20 -79.5 69.5t-21.5 153.5q-97 -223 -297 -223q-129 0 -200.5 86.5 t-71.5 228.5zM137 297q0 -137 67.5 -219t190.5 -82q104 0 175 58.5t118 174.5v381h-196q-170 0 -262.5 -81t-92.5 -232zM279 1362l299 174l8 -16l-301 -168z" />
<glyph unicode="&#xe2;" horiz-adv-x="923" d="M121 297q0 157 96.5 242.5t271.5 85.5h199v141q0 146 -55 222.5t-182 76.5q-116 0 -261 -68l-4 15q147 69 265 69q133 0 193.5 -80.5t60.5 -234.5v-549q0 -107 18.5 -155t71.5 -68l-4 -12q-58 20 -79.5 69.5t-21.5 153.5q-97 -223 -297 -223q-129 0 -200.5 86.5 t-71.5 228.5zM137 297q0 -137 67.5 -219t190.5 -82q104 0 175 58.5t118 174.5v381h-196q-170 0 -262.5 -81t-92.5 -232zM240 1356l196 180h13l194 -180l-10 -6l-191 170l-192 -170z" />
<glyph unicode="&#xe3;" horiz-adv-x="923" d="M121 297q0 157 96.5 242.5t271.5 85.5h199v141q0 146 -55 222.5t-182 76.5q-116 0 -261 -68l-4 15q147 69 265 69q133 0 193.5 -80.5t60.5 -234.5v-549q0 -107 18.5 -155t71.5 -68l-4 -12q-58 20 -79.5 69.5t-21.5 153.5q-97 -223 -297 -223q-129 0 -200.5 86.5 t-71.5 228.5zM137 297q0 -137 67.5 -219t190.5 -82q104 0 175 58.5t118 174.5v381h-196q-170 0 -262.5 -81t-92.5 -232zM225 1425q33 42 59 61t60 19q36 0 100 -45t101 -45q34 0 57.5 17.5t52.5 60.5l13 -6q-30 -46 -57.5 -66t-65.5 -20q-41 0 -105 45t-96 45 q-31 0 -53.5 -16.5t-52.5 -55.5z" />
<glyph unicode="&#xe4;" horiz-adv-x="923" d="M121 297q0 157 96.5 242.5t271.5 85.5h199v141q0 146 -55 222.5t-182 76.5q-116 0 -261 -68l-4 15q147 69 265 69q133 0 193.5 -80.5t60.5 -234.5v-549q0 -107 18.5 -155t71.5 -68l-4 -12q-58 20 -79.5 69.5t-21.5 153.5q-97 -223 -297 -223q-129 0 -200.5 86.5 t-71.5 228.5zM137 297q0 -137 67.5 -219t190.5 -82q104 0 175 58.5t118 174.5v381h-196q-170 0 -262.5 -81t-92.5 -232zM285 1407q0 20 20 20q21 0 21 -20q0 -8 -6 -14.5t-15 -6.5t-14.5 6.5t-5.5 14.5zM557 1407q0 20 21 20q20 0 20 -20q0 -21 -20 -21q-9 0 -15 6.5 t-6 14.5z" />
<glyph unicode="&#xe5;" horiz-adv-x="923" d="M121 297q0 157 96.5 242.5t271.5 85.5h199v141q0 146 -55 222.5t-182 76.5q-116 0 -261 -68l-4 15q147 69 265 69q133 0 193.5 -80.5t60.5 -234.5v-549q0 -107 18.5 -155t71.5 -68l-4 -12q-58 20 -79.5 69.5t-21.5 153.5q-97 -223 -297 -223q-129 0 -200.5 86.5 t-71.5 228.5zM137 297q0 -137 67.5 -219t190.5 -82q104 0 175 58.5t118 174.5v381h-196q-170 0 -262.5 -81t-92.5 -232zM322 1473q0 65 32.5 103t87.5 38q56 0 88.5 -37.5t32.5 -101.5t-32.5 -102t-88.5 -38q-58 0 -89 37t-31 101zM336 1473q0 -59 27.5 -92t78.5 -33 q49 0 78 34t29 93q0 60 -28 92t-79 32q-49 0 -77.5 -33.5t-28.5 -92.5z" />
<glyph unicode="&#xe6;" horiz-adv-x="1480" d="M121 297q0 156 96 242t270 86h201v135q0 149 -56 227t-183 78q-114 0 -259 -68l-4 15q147 69 263 69q135 0 194.5 -81t61.5 -238v-62q31 183 117 282t216 99q160 0 239 -130.5t79 -362.5q0 -22 -4 -76h-645q1 -254 90 -385t243 -131q81 0 142 29t125 90l8 -13 q-64 -61 -127 -90.5t-148 -29.5q-111 0 -192.5 66t-122.5 194q-72 -139 -150 -199.5t-186 -60.5q-126 0 -197 87t-71 228zM137 297q0 -135 66.5 -218t185.5 -83q107 0 183 62.5t149 201.5q-33 119 -33 260v90h-201q-166 0 -258 -81.5t-92 -231.5zM707 526h630q2 25 2 66 q0 222 -74.5 347.5t-226.5 125.5q-153 0 -242 -141.5t-89 -397.5z" />
<glyph unicode="&#xe7;" horiz-adv-x="815" d="M135 524q0 270 96 413.5t267 143.5q130 0 229 -102l-10 -10q-93 96 -219 96q-161 0 -252.5 -138.5t-91.5 -402.5q0 -258 93 -393t247 -135q132 0 229 104l10 -10q-101 -108 -237 -108l-7 -148q160 -6 160 -125q0 -66 -38 -98.5t-91 -32.5q-61 0 -112 35l8 12 q48 -33 104 -33q48 0 80.5 28.5t32.5 88.5q0 57 -37.5 84.5t-122.5 28.5l10 160q-158 5 -253 144t-95 398z" />
<glyph unicode="&#xe8;" horiz-adv-x="927" d="M135 520q0 264 94.5 412.5t255.5 148.5q157 0 237.5 -134t80.5 -359q0 -49 -2 -76h-647q1 -250 90.5 -383t242.5 -133q81 0 142 29t125 90l8 -13q-64 -61 -127 -90.5t-146 -29.5q-164 0 -259 140.5t-95 397.5zM154 526h630q2 25 2 66q0 141 -31 245t-100 166t-170 62 q-152 0 -241 -140.5t-90 -398.5zM338 1520l10 16l297 -174l-6 -10z" />
<glyph unicode="&#xe9;" horiz-adv-x="927" d="M135 520q0 264 94.5 412.5t255.5 148.5q157 0 237.5 -134t80.5 -359q0 -49 -2 -76h-647q1 -250 90.5 -383t242.5 -133q81 0 142 29t125 90l8 -13q-64 -61 -127 -90.5t-146 -29.5q-164 0 -259 140.5t-95 397.5zM154 526h630q2 25 2 66q0 141 -31 245t-100 166t-170 62 q-152 0 -241 -140.5t-90 -398.5zM322 1362l299 174l8 -16l-301 -168z" />
<glyph unicode="&#xea;" horiz-adv-x="927" d="M135 520q0 264 94.5 412.5t255.5 148.5q157 0 237.5 -134t80.5 -359q0 -49 -2 -76h-647q1 -250 90.5 -383t242.5 -133q81 0 142 29t125 90l8 -13q-64 -61 -127 -90.5t-146 -29.5q-164 0 -259 140.5t-95 397.5zM154 526h630q2 25 2 66q0 141 -31 245t-100 166t-170 62 q-152 0 -241 -140.5t-90 -398.5zM283 1356l196 180h13l194 -180l-10 -6l-191 170l-192 -170z" />
<glyph unicode="&#xeb;" horiz-adv-x="927" d="M135 520q0 264 94.5 412.5t255.5 148.5q157 0 237.5 -134t80.5 -359q0 -49 -2 -76h-647q1 -250 90.5 -383t242.5 -133q81 0 142 29t125 90l8 -13q-64 -61 -127 -90.5t-146 -29.5q-164 0 -259 140.5t-95 397.5zM154 526h630q2 25 2 66q0 141 -31 245t-100 166t-170 62 q-152 0 -241 -140.5t-90 -398.5zM328 1407q0 20 20 20q21 0 21 -20q0 -8 -6 -14.5t-15 -6.5t-14.5 6.5t-5.5 14.5zM600 1407q0 20 21 20q20 0 20 -20q0 -21 -20 -21q-9 0 -15 6.5t-6 14.5z" />
<glyph unicode="&#xec;" horiz-adv-x="446" d="M78 1520l10 16l297 -174l-6 -10zM215 0v1061h16v-1061h-16z" />
<glyph unicode="&#xed;" horiz-adv-x="446" d="M59 1362l299 174l9 -16l-301 -168zM215 0v1061h16v-1061h-16z" />
<glyph unicode="&#xee;" horiz-adv-x="446" d="M20 1356l197 180h12l195 -180l-10 -6l-191 170l-192 -170zM215 0v1061h16v-1061h-16z" />
<glyph unicode="&#xef;" horiz-adv-x="446" d="M66 1407q0 20 20 20t20 -20q0 -8 -5.5 -14.5t-14.5 -6.5t-14.5 6.5t-5.5 14.5zM215 0v1061h16v-1061h-16zM338 1407q0 20 20 20q21 0 21 -20q0 -8 -5.5 -14.5t-15.5 -6.5q-9 0 -14.5 6.5t-5.5 14.5z" />
<glyph unicode="&#xf0;" horiz-adv-x="954" d="M135 469q0 132 37 237.5t111.5 168.5t175.5 63q192 0 332 -231q-7 222 -73.5 380t-197.5 271l-153 -184l-13 6l156 186q-115 89 -248 125l2 14q142 -37 254 -127l113 138l12 -9l-113 -139q138 -115 207.5 -291t69.5 -430q0 -345 -86.5 -505t-253.5 -160 q-155 0 -243.5 130.5t-88.5 356.5zM154 467q0 -220 83 -345.5t230 -125.5q159 0 241.5 157.5t82.5 493.5v37q-141 240 -332 240q-142 0 -223.5 -128t-81.5 -329z" />
<glyph unicode="&#xf1;" horiz-adv-x="1021" d="M215 0v1061h14l2 -246q136 266 347 266q237 0 237 -327v-754h-16v754q0 311 -224 311q-209 0 -344 -277v-788h-16zM303 1425q33 42 59 61t60 19q36 0 100 -45t101 -45q34 0 57.5 17.5t52.5 60.5l12 -6q-30 -47 -57 -66.5t-65 -19.5q-41 0 -105 45t-96 45 q-31 0 -54.5 -16.5t-52.5 -55.5z" />
<glyph unicode="&#xf2;" horiz-adv-x="985" d="M135 528q0 274 96.5 413.5t264.5 139.5q167 0 259.5 -137t92.5 -407q0 -275 -94 -415t-262 -140q-169 0 -263 139.5t-94 406.5zM154 528q0 -263 88.5 -397.5t249.5 -134.5t250 136t89 405q0 262 -87.5 395t-247.5 133q-161 0 -251.5 -134t-90.5 -403zM346 1520l10 16 l297 -174l-6 -10z" />
<glyph unicode="&#xf3;" horiz-adv-x="985" d="M135 528q0 274 96.5 413.5t264.5 139.5q167 0 259.5 -137t92.5 -407q0 -275 -94 -415t-262 -140q-169 0 -263 139.5t-94 406.5zM154 528q0 -263 88.5 -397.5t249.5 -134.5t250 136t89 405q0 262 -87.5 395t-247.5 133q-161 0 -251.5 -134t-90.5 -403zM330 1362l299 174 l8 -16l-301 -168z" />
<glyph unicode="&#xf4;" horiz-adv-x="985" d="M135 528q0 274 96.5 413.5t264.5 139.5q167 0 259.5 -137t92.5 -407q0 -275 -94 -415t-262 -140q-169 0 -263 139.5t-94 406.5zM154 528q0 -263 88.5 -397.5t249.5 -134.5t250 136t89 405q0 262 -87.5 395t-247.5 133q-161 0 -251.5 -134t-90.5 -403zM291 1356l196 180 h13l194 -180l-10 -6l-190 170l-193 -170z" />
<glyph unicode="&#xf5;" horiz-adv-x="985" d="M135 528q0 274 96.5 413.5t264.5 139.5q167 0 259.5 -137t92.5 -407q0 -275 -94 -415t-262 -140q-169 0 -263 139.5t-94 406.5zM154 528q0 -263 88.5 -397.5t249.5 -134.5t250 136t89 405q0 262 -87.5 395t-247.5 133q-161 0 -251.5 -134t-90.5 -403zM274 1425 q33 42 59 61t60 19q36 0 100 -45t101 -45q34 0 58 17.5t53 60.5l12 -6q-30 -46 -57.5 -66t-65.5 -20q-33 0 -69.5 22.5t-70.5 45t-61 22.5q-31 0 -53.5 -16.5t-52.5 -55.5z" />
<glyph unicode="&#xf6;" horiz-adv-x="985" d="M135 528q0 274 96.5 413.5t264.5 139.5q167 0 259.5 -137t92.5 -407q0 -275 -94 -415t-262 -140q-169 0 -263 139.5t-94 406.5zM154 528q0 -263 88.5 -397.5t249.5 -134.5t250 136t89 405q0 262 -87.5 395t-247.5 133q-161 0 -251.5 -134t-90.5 -403zM336 1407 q0 20 20 20q21 0 21 -20q0 -8 -6 -14.5t-15 -6.5t-14.5 6.5t-5.5 14.5zM608 1407q0 20 21 20q20 0 20 -20q0 -21 -20 -21q-9 0 -15 6.5t-6 14.5z" />
<glyph unicode="&#xf7;" horiz-adv-x="845" d="M145 670v16h555v-16h-555zM399 266q0 9 7.5 17t17.5 8t17.5 -8t7.5 -17t-7.5 -16.5t-17.5 -7.5t-17.5 7.5t-7.5 16.5zM399 1090q0 9 7.5 15.5t17.5 6.5t17.5 -6.5t7.5 -15.5q0 -10 -7.5 -17.5t-17.5 -7.5t-17.5 7.5t-7.5 17.5z" />
<glyph unicode="&#xf8;" horiz-adv-x="985" d="M135 528q0 274 96.5 413.5t264.5 139.5q71 0 135 -28l69 243l17 -4l-72 -245q97 -52 150 -181t53 -329q0 -275 -94 -415t-262 -140q-76 0 -140 28l-69 -243l-17 4l74 245q-99 55 -152 184t-53 328zM154 528q0 -388 190 -495l283 1003q-57 29 -131 29q-160 0 -251 -134.5 t-91 -402.5zM356 27q64 -31 136 -31q161 0 250 136t89 405q0 390 -192 493z" />
<glyph unicode="&#xf9;" horiz-adv-x="1013" d="M207 283v778h16v-778q0 -135 63 -211t175 -76q195 0 321 258v807h17v-1061h-17v229q-118 -247 -321 -247q-120 0 -187 80t-67 221zM362 1520l11 16l297 -174l-6 -10z" />
<glyph unicode="&#xfa;" horiz-adv-x="1013" d="M207 283v778h16v-778q0 -135 63 -211t175 -76q195 0 321 258v807h17v-1061h-17v229q-118 -247 -321 -247q-120 0 -187 80t-67 221zM344 1362l299 174l8 -16l-301 -168z" />
<glyph unicode="&#xfb;" horiz-adv-x="1013" d="M207 283v778h16v-778q0 -135 63 -211t175 -76q195 0 321 258v807h17v-1061h-17v229q-118 -247 -321 -247q-120 0 -187 80t-67 221zM305 1356l197 180h12l195 -180l-11 -6l-190 170l-193 -170z" />
<glyph unicode="&#xfc;" horiz-adv-x="1013" d="M207 283v778h16v-778q0 -135 63 -211t175 -76q195 0 321 258v807h17v-1061h-17v229q-118 -247 -321 -247q-120 0 -187 80t-67 221zM350 1407q0 20 21 20q20 0 20 -20q0 -8 -5.5 -14.5t-14.5 -6.5t-15 6.5t-6 14.5zM623 1407q0 20 20 20q21 0 21 -20q0 -8 -5.5 -14.5 t-15.5 -6.5q-9 0 -14.5 6.5t-5.5 14.5z" />
<glyph unicode="&#xfd;" horiz-adv-x="782" d="M55 1061h17l329 -1051l310 1051h16l-313 -1061q-23 -77 -40.5 -124t-41.5 -94t-53 -75.5t-69.5 -53.5t-96.5 -44l-2 14q54 18 93 42.5t65.5 51t49.5 73t39 90t39 120.5h-8zM229 1362l299 174l9 -16l-301 -168z" />
<glyph unicode="&#xfe;" horiz-adv-x="993" d="M215 -393v1890l16 2v-625q129 207 310 207q154 0 234.5 -136t80.5 -404q0 -270 -83.5 -414.5t-240.5 -144.5q-183 0 -301 206v-579zM231 211q123 -215 299 -215q150 0 229 140t79 405q0 524 -297 524q-98 0 -172 -54.5t-138 -158.5v-641z" />
<glyph unicode="&#xff;" horiz-adv-x="782" d="M55 1061h17l329 -1051l310 1051h16l-313 -1061q-23 -77 -40.5 -124t-41.5 -94t-53 -75.5t-69.5 -53.5t-96.5 -44l-2 14q54 18 93 42.5t65.5 51t49.5 73t39 90t39 120.5h-8zM233 1407q0 20 21 20q20 0 20 -20q0 -8 -5.5 -14.5t-14.5 -6.5t-15 6.5t-6 14.5zM506 1407 q0 20 20 20q21 0 21 -20q0 -8 -5.5 -14.5t-15.5 -6.5q-9 0 -14.5 6.5t-5.5 14.5z" />
<glyph unicode="&#x152;" horiz-adv-x="1482" d="M145 692q0 334 119 527.5t311 193.5q73 0 123 -20h684l-2 -15h-647q136 -63 209.5 -227t75.5 -406h287v-14h-287q0 -294 -74.5 -474t-214.5 -241h668v-16h-705l4 2q-50 -20 -121 -20q-197 0 -313.5 188t-116.5 522zM164 692q0 -326 111.5 -510t299.5 -184 q205 0 315.5 189t110.5 546q0 310 -114.5 488t-311.5 178q-186 0 -298.5 -189t-112.5 -518z" />
<glyph unicode="&#x153;" horiz-adv-x="1624" d="M135 528q0 270 97 411.5t264 141.5q141 0 231 -109.5t113 -307.5q26 198 115.5 307.5t226.5 109.5q158 0 237.5 -131.5t79.5 -361.5q0 -49 -2 -76h-649q3 -248 93.5 -382t242.5 -134q81 0 141.5 29t124.5 90l8 -13q-64 -61 -127.5 -90.5t-146.5 -29.5 q-140 0 -230.5 107.5t-113.5 303.5q-26 -197 -116.5 -304t-231.5 -107q-168 0 -262.5 141t-94.5 405zM154 528q0 -258 89 -395t249 -137q158 0 248.5 142.5t90.5 398.5q0 250 -89 389t-246 139q-160 0 -251 -136t-91 -401zM848 526h633q2 25 2 66q0 221 -74.5 347 t-226.5 126t-242.5 -141.5t-91.5 -397.5z" />
<glyph unicode="&#x178;" horiz-adv-x="851" d="M41 1393h18l369 -822l367 822h16l-375 -838v-555h-16v555zM279 1665q0 21 20 21t20 -21q0 -8 -5.5 -14t-14.5 -6t-14.5 6t-5.5 14zM551 1665q0 21 20 21q21 0 21 -21q0 -20 -21 -20q-9 0 -14.5 6t-5.5 14z" />
<glyph unicode="&#x2c6;" horiz-adv-x="526" d="M70 1356l196 180h13l194 -180l-10 -6l-191 170l-192 -170z" />
<glyph unicode="&#x2dc;" horiz-adv-x="565" d="M70 1425q33 43 59 61.5t59 18.5q36 0 100 -45t101 -45q34 0 58 17.5t53 60.5l12 -6q-30 -46 -57.5 -66t-65.5 -20q-34 0 -70.5 22.5t-70 45t-60.5 22.5q-31 0 -53.5 -16.5t-52.5 -55.5z" />
<glyph unicode="&#x2000;" horiz-adv-x="936" />
<glyph unicode="&#x2001;" horiz-adv-x="1872" />
<glyph unicode="&#x2002;" horiz-adv-x="936" />
<glyph unicode="&#x2003;" horiz-adv-x="1872" />
<glyph unicode="&#x2004;" horiz-adv-x="624" />
<glyph unicode="&#x2005;" horiz-adv-x="468" />
<glyph unicode="&#x2006;" horiz-adv-x="312" />
<glyph unicode="&#x2007;" horiz-adv-x="312" />
<glyph unicode="&#x2008;" horiz-adv-x="234" />
<glyph unicode="&#x2009;" horiz-adv-x="374" />
<glyph unicode="&#x200a;" horiz-adv-x="104" />
<glyph unicode="&#x2010;" horiz-adv-x="704" d="M145 631v16h414v-16h-414z" />
<glyph unicode="&#x2011;" horiz-adv-x="704" d="M145 631v16h414v-16h-414z" />
<glyph unicode="&#x2012;" horiz-adv-x="704" d="M145 631v16h414v-16h-414z" />
<glyph unicode="&#x2013;" horiz-adv-x="917" d="M94 631v16h727v-16h-727z" />
<glyph unicode="&#x2014;" horiz-adv-x="1361" d="M94 633v14h1174v-14h-1174z" />
<glyph unicode="&#x2018;" horiz-adv-x="403" d="M176 1188q0 7 10 37l78 231h10l-73 -250q14 -3 14 -18q0 -21 -20 -21q-8 0 -13.5 6t-5.5 15z" />
<glyph unicode="&#x2019;" horiz-adv-x="403" d="M129 1169l74 248q-17 3 -17 19q0 9 6 15.5t15 6.5q18 0 18 -22q0 -12 -10 -37l-76 -230h-10z" />
<glyph unicode="&#x201a;" horiz-adv-x="403" d="M129 -252l74 250q-17 3 -17 18q0 9 6 15t15 6q18 0 18 -21q0 -14 -10 -36l-76 -232h-10z" />
<glyph unicode="&#x201c;" horiz-adv-x="563" d="M176 1307q0 6 10 36l78 232h10l-73 -250q14 -3 14 -18q0 -21 -20 -21q-19 0 -19 21zM338 1307q0 13 10 36l76 232h10l-74 -250q17 -3 17 -18q0 -9 -6 -15t-15 -6q-18 0 -18 21z" />
<glyph unicode="&#x201d;" horiz-adv-x="563" d="M129 1169l74 248q-17 3 -17 19q0 9 6 15.5t15 6.5q18 0 18 -22q0 -12 -10 -37l-76 -230h-10zM289 1167l73 250q-14 3 -14 19q0 20 21 20q18 0 18 -20q0 -7 -10 -37l-78 -232h-10z" />
<glyph unicode="&#x201e;" horiz-adv-x="563" d="M129 -252l74 250q-17 3 -17 18q0 9 6 15t15 6q18 0 18 -21q0 -14 -10 -36l-76 -232h-10zM289 -252l73 250q-14 3 -14 18q0 21 21 21q18 0 18 -21q0 -6 -10 -36l-78 -232h-10z" />
<glyph unicode="&#x2022;" horiz-adv-x="411" d="M176 721q0 13 9 22t22 9t21 -8.5t8 -22.5q0 -12 -8 -20.5t-21 -8.5t-22 8.5t-9 20.5z" />
<glyph unicode="&#x2026;" horiz-adv-x="765" d="M104 12q0 11 6.5 18t16.5 7q11 0 18 -7.5t7 -17.5q0 -9 -7.5 -15.5t-17.5 -6.5t-16.5 6.5t-6.5 15.5zM358 12q0 10 7 17.5t18 7.5t18 -7.5t7 -17.5q0 -9 -7.5 -15.5t-17.5 -6.5t-17.5 6.5t-7.5 15.5zM614 12q0 10 7 17.5t18 7.5q10 0 16.5 -7t6.5 -18q0 -9 -6.5 -15.5 t-16.5 -6.5t-17.5 6.5t-7.5 15.5z" />
<glyph unicode="&#x202f;" horiz-adv-x="374" />
<glyph unicode="&#x2039;" horiz-adv-x="622" d="M176 584v12l256 422l12 -8l-249 -420l251 -418l-12 -8z" />
<glyph unicode="&#x203a;" horiz-adv-x="622" d="M176 172l254 418l-252 420l12 8l256 -422v-12l-258 -420z" />
<glyph unicode="&#x205f;" horiz-adv-x="468" />
<glyph unicode="&#x20ac;" horiz-adv-x="989" d="M92 543l2 16h127v262h-129l2 15h129q28 260 141 399t273 139q75 0 136 -25t124 -79l-8 -13q-61 52 -120.5 76.5t-131.5 24.5q-154 0 -260.5 -133.5t-136.5 -388.5h501l-2 -15h-501v-262h456l-4 -16h-450q24 -281 125 -413t266 -132q69 0 122 21t109 63l2 -16 q-56 -43 -110.5 -63.5t-124.5 -20.5q-171 0 -276.5 138t-131.5 423h-129z" />
<glyph unicode="&#x2122;" horiz-adv-x="1490" d="M92 1378v15h490l-2 -15h-236v-757h-14v757h-238zM670 621l43 772h20l240 -664l239 664h21l43 -772h-16l-33 606q-6 70 -6 147h-2l-238 -661h-16l-240 663h-2q0 -71 -4 -151l-33 -604h-16z" />
<glyph unicode="&#x25fc;" horiz-adv-x="1064" d="M0 0v1065h1065v-1065h-1065z" />
</font>
</defs>
</svg>
