<?xml version="1.0" standalone="no"?>
<!DOCTYPE svg PUBLIC "-//W3C//DTD SVG 1.1//EN" "http://www.w3.org/Graphics/SVG/1.1/DTD/svg11.dtd" >
<svg xmlns="http://www.w3.org/2000/svg">
<metadata></metadata>
<defs>
<font id="velino_text_light_italicLtIt" horiz-adv-x="1388" >
<font-face units-per-em="2048" ascent="1536" descent="-512" />
<missing-glyph horiz-adv-x="419" />
<glyph unicode="&#xfb01;" horiz-adv-x="1112" d="M-156 -328q0 26 17.5 42t40.5 16q32 0 77.5 -37t73.5 -37q116 0 142 190l159 1123h-143l6 37l145 18l13 88q11 73 40 138t78 121.5t127 90t175 33.5q114 0 187 -52.5t73 -105.5q0 -31 -22 -51t-50 -20q-24 0 -43 17.5t-35 43t-36 51t-54.5 43t-81.5 17.5 q-186 0 -225 -277l-21 -137h324l260 20l10 -16q-22 -64 -37 -170l-106 -754q-7 -51 29 -51h127l-4 -43q-25 -3 -73 -11.5t-85 -13.5t-62 -5q-76 0 -63 75l125 873q3 23 -4 32t-27 9h-422l-145 -1030q-21 -150 -116 -249.5t-241 -99.5q-54 0 -93.5 20.5t-39.5 61.5z" />
<glyph unicode="&#xfb02;" horiz-adv-x="1112" d="M-156 -328q0 26 17.5 42t40.5 16q32 0 77.5 -37t73.5 -37q116 0 142 190l159 1123h-143l6 37l145 18l13 88q9 58 27 110.5t51 103.5t77 87.5t108 59t140 22.5q86 0 157 -30.5t105 -59.5l88 49l11 -16q-22 -64 -37 -170l-164 -1164q-7 -51 29 -51h127l-4 -43 q-25 -3 -73 -11.5t-85 -13.5t-62 -5q-76 0 -63 75l170 1211q-84 172 -244 172q-186 0 -225 -277l-21 -137h232l-8 -55h-232l-145 -1030q-21 -150 -116 -249.5t-241 -99.5q-54 0 -93.5 20.5t-39.5 61.5z" />
<glyph unicode="&#xfb03;" horiz-adv-x="1718" d="M-156 -328q0 26 17.5 42t40.5 16q32 0 77.5 -37t73.5 -37q116 0 142 190l159 1123h-143l6 37l145 18l13 82q21 150 116 249t244 99q54 0 98 -20t44 -58q0 -28 -17.5 -44.5t-42.5 -16.5q-34 0 -83.5 37t-76.5 37q-56 2 -93.5 -45.5t-49.5 -141.5l-27 -178h482l12 88 q11 73 40 138t78 121.5t127 90t175 33.5q114 0 187 -52.5t73 -105.5q0 -31 -22 -51t-50 -20q-24 0 -43 17.5t-35 43t-36 51t-54.5 43t-81.5 17.5q-186 0 -225 -277l-20 -137h323l260 20l11 -16q-22 -64 -37 -170l-107 -754q-7 -51 29 -51h127l-4 -43q-25 -3 -73 -11.5 t-84.5 -13.5t-61.5 -5q-77 0 -64 75l125 873q3 23 -4 32t-27 9h-422l-145 -1030q-21 -150 -115.5 -249.5t-240.5 -99.5q-54 0 -93.5 20.5t-39.5 61.5q0 26 17 42t40 16q32 0 77.5 -37t73.5 -37q116 0 142 190l160 1123h-482l-145 -1030q-21 -150 -116 -249.5t-241 -99.5 q-54 0 -93.5 20.5t-39.5 61.5z" />
<glyph unicode="&#xfb04;" horiz-adv-x="1718" d="M-156 -328q0 26 17.5 42t40.5 16q32 0 77.5 -37t73.5 -37q116 0 142 190l159 1123h-143l6 37l145 18l13 82q21 150 116 249t244 99q54 0 98 -20t44 -58q0 -28 -17.5 -44.5t-42.5 -16.5q-34 0 -83.5 37t-76.5 37q-56 2 -93.5 -45.5t-49.5 -141.5l-27 -178h482l12 88 q9 58 27 110.5t51 103.5t77 87.5t108 59t140 22.5q86 0 157.5 -30.5t105.5 -59.5l88 49l10 -16q-22 -64 -37 -170l-164 -1164q-7 -51 29 -51h127l-4 -43q-25 -3 -73 -11.5t-84.5 -13.5t-61.5 -5q-77 0 -64 75l170 1211q-84 172 -244 172q-186 0 -225 -277l-20 -137h231 l-8 -55h-232l-145 -1030q-21 -150 -115.5 -249.5t-240.5 -99.5q-54 0 -93.5 20.5t-39.5 61.5q0 26 17 42t40 16q32 0 77.5 -37t73.5 -37q116 0 142 190l160 1123h-482l-145 -1030q-21 -150 -116 -249.5t-241 -99.5q-54 0 -93.5 20.5t-39.5 61.5z" />
<glyph horiz-adv-x="0" />
<glyph horiz-adv-x="682" />
<glyph unicode=" "  horiz-adv-x="419" />
<glyph unicode="&#x09;" horiz-adv-x="419" />
<glyph unicode="&#xa0;" horiz-adv-x="419" />
<glyph unicode="!" horiz-adv-x="481" d="M168 57q0 40 28.5 69.5t65.5 29.5q29 0 48.5 -22.5t19.5 -55.5q0 -38 -28.5 -68t-65.5 -30q-29 0 -48.5 22.5t-19.5 54.5zM268 324l80 997q2 39 24.5 65.5t65.5 26.5q42 0 58 -26t8 -66l-199 -997h-37z" />
<glyph unicode="&#x22;" horiz-adv-x="819" d="M344 922l21 471h127l-111 -471h-37zM696 922l21 471h127l-111 -471h-37z" />
<glyph unicode="#" horiz-adv-x="1144" d="M229 373l7 53h245l33 233h-244l6 54h244l43 293h53l-43 -293h195l43 293h53l-43 -293h246l-6 -54h-246l-33 -233h244l-6 -53h-246l-41 -295h-53l41 295h-195l-41 -295h-53l41 295h-244zM535 426h194l33 233h-195z" />
<glyph unicode="$" horiz-adv-x="1042" d="M182 86l6 336h41q12 -107 35.5 -182.5t57.5 -119.5t74.5 -65t92.5 -26l107 635q-120 75 -160 109q-120 110 -123 251q0 101 48 187.5t142.5 142.5t217.5 59l20 123h41l-20 -125q64 -3 122 -21t90 -35t79 -48l-43 -316h-41q3 189 -53 275t-162 96l-95 -565q10 -7 42.5 -28 t45 -29.5t41.5 -29t42.5 -32t36.5 -33t34.5 -38t27 -40.5t22.5 -46t12.5 -50t5.5 -57q0 -181 -127 -305.5t-318 -128.5l-20 -123h-43l20 123q-96 4 -164.5 32t-134.5 74zM449 1085q0 -83 45.5 -144t128.5 -118l90 541q-117 -3 -190.5 -86t-73.5 -193zM532 29q132 3 217 88 t85 227q0 101 -52 168t-149 129z" />
<glyph unicode="%" horiz-adv-x="1699" d="M315 1036q0 93 38 177.5t107.5 138t153.5 53.5q98 0 154.5 -78t56.5 -192q0 -145 -87 -257t-214 -112q-97 0 -153 78t-56 192zM389 1008q0 -104 38.5 -157.5t100.5 -53.5q92 0 158 94t66 272q0 104 -39.5 157.5t-102.5 53.5q-91 0 -156 -92t-65 -274zM631 -41l577 1475 h47l-575 -1475h-49zM1067 248q0 146 86.5 258t214.5 112q98 0 154.5 -78t56.5 -192q0 -145 -87 -256.5t-214 -111.5q-99 0 -155 77.5t-56 190.5zM1143 221q0 -104 38.5 -157.5t100.5 -53.5q90 0 155.5 94.5t65.5 272.5q0 104 -38.5 157.5t-100.5 53.5q-92 0 -156.5 -92.5 t-64.5 -274.5z" />
<glyph unicode="&#x26;" horiz-adv-x="1255" d="M137 279q0 47 7.5 88.5t30 92t59.5 97t101 98t150 99.5q-32 62 -47.5 93.5t-36 100t-20.5 127.5q0 141 94.5 239.5t237.5 98.5q108 0 172.5 -58t64.5 -163q0 -38 -6.5 -73.5t-27 -80t-55 -86t-93.5 -88t-139 -88.5l262 -461q112 160 186 377q26 62 -39 70l-96 14l6 43 h371l-6 -43l-94 -16q-70 -9 -95 -76q-81 -240 -209 -414l86 -147q20 -34 43 -50t64 -20l94 -10l-6 -43q-160 -12 -197 -12q-51 0 -79 16.5t-48 52.5l-55 99q-179 -176 -387 -176q-136 0 -214.5 82t-78.5 217zM264 309q0 -112 60.5 -182t167.5 -70q159 0 301 142l-283 512 q-132 -87 -189 -183.5t-57 -218.5zM498 1126q0 -130 106 -311q132 79 191 167t59 210q0 73 -36.5 122.5t-110.5 49.5q-93 0 -151 -73.5t-58 -164.5z" />
<glyph unicode="'" horiz-adv-x="466" d="M344 922l21 471h127l-111 -471h-37z" />
<glyph unicode="(" horiz-adv-x="673" d="M317 512q0 315 116 578t317 466h49q-257 -330 -330 -860q-74 -537 88 -860h-49q-89 122 -140 299t-51 377z" />
<glyph unicode=")" horiz-adv-x="675" d="M72 -164q255 328 329 860t-88 860h49q115 -162 163.5 -380.5t11.5 -479.5q-37 -262 -146 -480.5t-270 -379.5h-49z" />
<glyph unicode="*" horiz-adv-x="778" d="M299 1114q0 25 14 43.5t35 18.5q8 0 86.5 -22t100.5 -24q-25 17 -82 66t-64 59q-12 15 -8.5 36t18.5 36q14 15 33 16t31 -14q4 -8 36 -90t40 -100q2 30 1.5 63.5t-2 85.5t-1.5 64q0 27 15 44t36 17q18 0 28.5 -11.5t10.5 -31.5q0 -11 -32 -111t-36 -120q8 11 39.5 58.5 t58.5 86t35 45.5q14 15 32 15t30 -15q10 -14 7.5 -36t-18.5 -38q-7 -7 -41.5 -31t-81.5 -55.5t-57 -38.5q25 1 107 23.5t90 22.5q17 0 27 -13.5t10 -32.5q0 -24 -16.5 -41.5t-37.5 -17.5q-7 0 -83 18.5t-97 20.5q10 -8 44.5 -35.5t63.5 -51.5t34 -30q11 -15 7.5 -37.5 t-20.5 -35.5q-15 -15 -33.5 -16t-29.5 14q-4 6 -19.5 43t-33 82.5t-23.5 58.5q-1 -21 2.5 -109t3.5 -98q0 -24 -15 -41.5t-36 -17.5q-17 0 -28 12t-11 31q0 10 31 106t35 119q-9 -13 -40 -59t-57.5 -84t-31.5 -43q-14 -15 -33.5 -14t-30.5 16t-8 35.5t18 37.5q8 8 178 117 q-24 -1 -107 -20t-89 -19q-35 0 -35 43z" />
<glyph unicode="+" horiz-adv-x="968" d="M250 516l6 53h281l47 332h53l-47 -332h280l-6 -53h-282l-45 -332h-54l45 332h-278z" />
<glyph unicode="," horiz-adv-x="536" d="M131 -252q68 39 117 95t49 116q0 57 -49 57q-32 0 -51 21.5t-19 52.5q0 39 28 71t70 32q55 0 80 -46t25 -100q0 -64 -24 -121t-63 -97.5t-75 -67.5t-74 -46z" />
<glyph unicode="-" horiz-adv-x="968" d="M250 516l6 53h614l-6 -53h-614z" />
<glyph unicode="." horiz-adv-x="477" d="M166 57q0 39 29 69t65 30q29 0 49.5 -23t20.5 -55q0 -39 -30 -68.5t-67 -29.5q-28 0 -47.5 22.5t-19.5 54.5z" />
<glyph unicode="/" horiz-adv-x="774" d="M172 -41l578 1475h47l-576 -1475h-49z" />
<glyph unicode="0" horiz-adv-x="1064" d="M207 524q0 245 68 449t188.5 322t267.5 118q151 0 237.5 -150t86.5 -397q0 -245 -69 -448t-189.5 -320.5t-266.5 -117.5q-152 0 -237.5 148.5t-85.5 395.5zM338 451q0 -199 51 -310.5t148 -111.5q115 0 203 114.5t136 322t48 476.5q0 199 -51 310.5t-148 111.5 q-115 0 -203 -114.5t-136 -322t-48 -476.5z" />
<glyph unicode="1" horiz-adv-x="759" d="M84 0l4 43l201 10q35 5 41 51l164 1160q3 23 -3.5 34t-25.5 7l-197 -41v45l340 94h33l-182 -1299q-3 -24 3 -36t25 -15l193 -10l-4 -43h-592z" />
<glyph unicode="2" horiz-adv-x="952" d="M76 0l6 39q178 128 308.5 249t209.5 222.5t126.5 204.5t64 187.5t16.5 178.5q0 124 -48 203.5t-143 79.5q-24 0 -46 -3.5t-43 -12.5t-35.5 -15.5t-35 -22t-29.5 -22.5t-30.5 -26.5t-27.5 -24.5q-23 -25 -53.5 -15t-30.5 48q0 54 103.5 98.5t234.5 44.5q87 0 152.5 -32.5 t101 -87t52.5 -115t17 -127.5q0 -63 -15.5 -129.5t-62 -159.5t-121 -189.5t-204 -218.5t-299.5 -248l-2 -4h503q47 0 58 39l51 154h39l-62 -295h-755z" />
<glyph unicode="3" horiz-adv-x="937" d="M109 109q0 45 37 60t57 -13q28 -33 40.5 -46t42.5 -37t63.5 -34t74.5 -10q93 0 163.5 56.5t106 148t35.5 202.5q0 123 -59.5 202t-180.5 79h-47l9 51h36q130 0 218 104t88 261q0 107 -51 164t-144 57q-133 0 -272 -129l-27 43q153 145 334 145q134 0 215.5 -79.5 t81.5 -200.5q0 -136 -90 -241t-236 -144v-5q116 -20 193 -100.5t77 -212.5q0 -107 -40.5 -194.5t-108 -142.5t-151 -84t-173.5 -29q-119 0 -205.5 40t-86.5 89z" />
<glyph unicode="4" horiz-adv-x="974" d="M88 317l4 35l774 1051h62l-146 -1028h179l-7 -58h-178l-31 -213q-6 -46 29 -51l131 -10l-6 -43h-463l6 43l133 10q37 5 43 51l29 213h-559zM172 375h483l115 815h-2z" />
<glyph unicode="5" horiz-adv-x="937" d="M109 109q0 45 37 60t57 -13q55 -62 83 -82q61 -45 140 -45q72 0 131.5 35.5t97 94.5t58 133t20.5 154q0 51 -10 97.5t-36 92t-65.5 80.5t-102 59.5t-142.5 31.5l-94 10l98 576h567l-12 -103h-520l-72 -424l72 -6q125 -13 217 -51t144 -94.5t76 -121t24 -140.5 q0 -111 -40.5 -202.5t-108 -149.5t-151.5 -89.5t-174 -31.5q-121 0 -207.5 40t-86.5 89z" />
<glyph unicode="6" horiz-adv-x="1005" d="M188 416q0 253 91.5 466.5t266 359.5t406.5 192q4 -28 4 -43q-104 -27 -190.5 -74t-163.5 -123.5t-136.5 -191.5t-96.5 -265q0 -2 2 -2q136 127 282 127q129 0 213 -93.5t84 -252.5q0 -153 -63.5 -277t-167 -191.5t-223.5 -67.5q-105 0 -175.5 59.5t-101.5 155t-31 221.5 zM331 200.5q37 -171.5 175 -171.5q93 0 164.5 69.5t107 179t35.5 236.5q0 129 -51.5 206t-151.5 77q-64 0 -130 -34t-122 -95q-64 -296 -27 -467.5z" />
<glyph unicode="7" horiz-adv-x="858" d="M219 0q101 302 279 641t409 645v4h-522q-46 0 -57 -39l-45 -186h-41l49 328h733l-6 -27q-442 -583 -656 -1366h-143z" />
<glyph unicode="8" horiz-adv-x="1030" d="M166 285q0 123 87.5 245.5t244.5 188.5q-86 55 -130 133.5t-44 165.5q0 92 34 168.5t90 125t126 75t143 26.5q122 0 203 -78t81 -211q0 -124 -77.5 -224t-206.5 -167q244 -134 244 -340q0 -98 -40 -178.5t-105.5 -130.5t-145.5 -77t-164 -27q-144 0 -242 80.5t-98 224.5z M293 344q-19 -140 43 -227.5t182 -87.5q137 0 223 94t86 237q0 106 -67.5 178t-216.5 150q-105 -55 -170.5 -148.5t-79.5 -195.5zM449 1061q0 -101 55 -169.5t174 -133.5q107 78 161 169t54 210q0 99 -52 163t-136 64q-110 0 -183 -89.5t-73 -213.5z" />
<glyph unicode="9" horiz-adv-x="1005" d="M244 2q105 27 192.5 74t166 123t138.5 191t97 265l-2 2q-136 -127 -287 -127q-131 0 -215 94t-84 253q0 115 37.5 216t100.5 170.5t145.5 109.5t171.5 40q105 0 176 -59.5t102 -155t31 -221.5q0 -253 -91.5 -466.5t-266.5 -359.5t-408 -192q0 15 -4 43zM391 963 q-24 -166 28 -266.5t173 -100.5q63 0 132 34.5t124 94.5q64 296 25.5 467.5t-177.5 171.5q-116 0 -198 -109t-107 -292z" />
<glyph unicode=":" horiz-adv-x="477" d="M166 57q0 39 29 69t65 30q29 0 49.5 -23t20.5 -55q0 -39 -30 -68.5t-67 -29.5q-28 0 -47.5 22.5t-19.5 54.5zM260 725q0 40 29 70t65 30q29 0 49.5 -22.5t20.5 -54.5q0 -39 -29.5 -69t-66.5 -30q-28 0 -48 22.5t-20 53.5z" />
<glyph unicode=";" horiz-adv-x="536" d="M131 -252q68 39 117 95t49 116q0 57 -49 57q-32 0 -51 21.5t-19 52.5q0 39 28 71t70 32q55 0 80 -46t25 -100q0 -64 -24 -121t-63 -97.5t-75 -67.5t-74 -46zM279 725q0 41 29.5 70.5t66.5 29.5q29 0 47 -22t18 -55q0 -40 -27.5 -69.5t-62.5 -29.5q-30 0 -50.5 22.5 t-20.5 53.5z" />
<glyph unicode="&#x3c;" horiz-adv-x="845" d="M252 543l2 20l549 389l-10 -59l-467 -340l372 -340l-8 -59z" />
<glyph unicode="=" horiz-adv-x="968" d="M229 373l7 53h614l-6 -53h-615zM270 659l6 54h615l-6 -54h-615z" />
<glyph unicode="&#x3e;" horiz-adv-x="845" d="M199 154l8 59l469 340l-373 340l8 59l439 -389l-2 -20z" />
<glyph unicode="?" horiz-adv-x="858" d="M270 1270q0 35 49 68.5t131 54t173 20.5q77 0 135.5 -26t92.5 -71t50.5 -99.5t16.5 -116.5q0 -33 -4 -65t-15.5 -71t-30 -74t-50.5 -71.5t-73.5 -65.5t-102.5 -54t-134 -40l-59 -335h-41l45 364q174 43 254.5 155.5t80.5 266.5q0 113 -46 183.5t-134 70.5 q-41 0 -77.5 -10.5t-71 -33t-53.5 -38t-52 -45.5q-23 -25 -53.5 -15t-30.5 48zM311 57q0 40 27.5 69.5t64.5 29.5q29 0 48.5 -22.5t19.5 -55.5q0 -38 -27.5 -68t-64.5 -30q-29 0 -48.5 22.5t-19.5 54.5z" />
<glyph unicode="@" horiz-adv-x="1503" d="M195 342q0 131 39.5 260.5t113 239.5t171.5 195t222.5 133.5t257.5 48.5q206 0 331.5 -136t125.5 -376q0 -164 -62.5 -319.5t-163.5 -251t-208 -95.5q-68 0 -105 46.5t-32 109.5q-36 -70 -92.5 -113t-118.5 -43q-88 0 -129.5 73.5t-34 180.5t50.5 221q57 148 155.5 246 t211.5 98q48 0 83 -35t27 -104h6l93 108h26l-172 -573q-12 -45 -13.5 -83t17.5 -63.5t56 -25.5q55 0 119 47t119.5 126t92.5 197.5t37 245.5q0 101 -25 183t-66 136t-97 90.5t-116 52.5t-124 16q-190 0 -351 -114t-254 -307t-93 -417q0 -134 37 -239.5t102.5 -171.5 t152 -100t189.5 -34q108 0 228.5 48.5t218.5 131.5l8 -26q-232 -197 -500 -197q-234 0 -384 158t-150 432zM608.5 217.5q1.5 -58.5 23.5 -95t64 -36.5q67 0 123 66.5t86 171.5l88 294q15 62 15 100t-17 60t-35.5 29.5t-40.5 7.5q-142 0 -260 -330q-24 -70 -36 -139.5 t-10.5 -128z" />
<glyph unicode="A" horiz-adv-x="1267" d="M27 0l6 43l110 16q55 7 76 60l526 1284h121l232 -1294q8 -50 51 -56l98 -10l-6 -43h-453l7 43l108 10q26 3 37 20t6 40l-65 376h-451l-151 -370q-6 -16 -6 -27q0 -27 34 -33l115 -16l-6 -43h-389zM453 547h419l-120 719h-4z" />
<glyph unicode="B" horiz-adv-x="1099" d="M72 0l4 43l137 10q35 5 41 51l168 1184q1 6 1 12q0 35 -32 39l-131 11l8 43h504q173 0 262.5 -79.5t89.5 -213.5q0 -139 -91.5 -240.5t-254.5 -130.5v-4q150 -13 227.5 -105t77.5 -210q0 -181 -125.5 -295.5t-341.5 -114.5h-544zM383 53h209q75 0 134 20t98 54.5 t64.5 82.5t36.5 101t11 113q0 56 -15 102.5t-47.5 87t-93.5 63.5t-145 23h-160zM481 756h162q176 0 255 91t79 261q0 231 -242 231h-172z" />
<glyph unicode="C" horiz-adv-x="1148" d="M186 575q0 175 56.5 332t150.5 267t220 174.5t261 64.5q223 0 377 -106l-43 -316h-41q0 110 -20.5 185t-61 115t-91.5 56.5t-122 16.5q-83 0 -161 -32.5t-147.5 -100t-121.5 -163.5t-82 -231t-30 -294q0 -244 96 -376t250 -132q64 0 124.5 21t119 65t109 121t85.5 180 l47 -12q-41 -120 -100 -207t-127 -134t-135.5 -68t-139.5 -21q-216 0 -344.5 165.5t-128.5 429.5z" />
<glyph unicode="D" horiz-adv-x="1318" d="M72 0l4 43l137 10q35 5 41 51l168 1184q1 6 1 12q0 35 -32 39l-131 11l8 43h537q248 0 386 -152t138 -422q0 -175 -53 -327t-147 -260t-229 -170t-292 -62h-536zM383 53h223q111 0 206 45t162 121.5t114.5 176.5t70.5 211t23 224q0 111 -24 202t-73 160t-130 107.5 t-187 38.5h-205z" />
<glyph unicode="E" horiz-adv-x="1062" d="M72 0l4 43l137 10q35 5 41 51l168 1184q1 6 1 12q0 35 -32 39l-131 11l8 43h893l-47 -320h-41l-22 227q-5 39 -50 39h-438l-86 -606h250q46 0 59 39l60 174h39l-70 -479h-37l-10 174q-3 39 -47 39h-250l-88 -627h463q39 0 59 39l117 227h39l-80 -319h-909z" />
<glyph unicode="F" horiz-adv-x="1009" d="M72 0l4 43l137 10q35 5 41 51l168 1184q1 6 1 12q0 35 -32 39l-131 11l8 43h893l-47 -320h-39l-24 227q-5 39 -50 39h-438l-88 -626h250q46 0 59 39l58 174h39l-68 -480h-37l-12 175q-3 38 -47 38h-250l-76 -555q-1 -7 -1 -13q0 -34 30 -38l166 -10l-6 -43h-508z" />
<glyph unicode="G" horiz-adv-x="1271" d="M197 696q28 204 127 369t244 256.5t306 91.5q219 0 377 -106l-43 -316h-41q-1 110 -21.5 185t-61.5 115t-92 56.5t-122 16.5q-103 0 -199 -53t-173 -153t-123.5 -261.5t-46.5 -361.5q0 -241 98.5 -373.5t251.5 -132.5q159 0 295 90l55 399q2 10 2 17q0 32 -29 34l-129 11 l7 43h432l-6 -43l-97 -11q-21 -1 -30.5 -13t-12.5 -38l-73 -518h-31l-60 68q-166 -88 -335 -88q-162 0 -279.5 91t-168.5 255q-32 104 -32 225q0 70 11 145z" />
<glyph unicode="H" horiz-adv-x="1380" d="M72 0l4 43l137 10q35 5 41 51l168 1184q1 6 1 12q0 35 -32 39l-131 11l8 43h471l-6 -43l-135 -11q-35 -5 -41 -51l-80 -553h629l80 553q1 6 1 12q0 35 -32 39l-129 11l6 43h473l-6 -43l-137 -11q-35 -6 -41 -51l-166 -1184q-1 -7 -1 -12q0 -34 30 -39l131 -10l-6 -43 h-473l6 43l135 10q35 5 41 51l80 574h-627l-80 -574q-2 -9 -2 -16q0 -30 31 -35l129 -10l-6 -43h-471z" />
<glyph unicode="I" horiz-adv-x="614" d="M72 0l4 43l137 10q35 5 41 51l168 1184q1 6 1 12q0 35 -32 39l-131 11l8 43h471l-6 -43l-135 -11q-35 -5 -41 -51l-166 -1184q-2 -9 -2 -16q0 -30 31 -35l129 -10l-6 -43h-471z" />
<glyph unicode="J" horiz-adv-x="583" d="M8 -375q55 30 94.5 70.5t62.5 92.5t35.5 99.5t22.5 112.5l180 1288q1 7 1 14q0 33 -27 37l-131 11l6 43h473l-8 -43l-133 -11q-37 -6 -43 -51l-174 -1231q-49 -367 -347 -467z" />
<glyph unicode="K" horiz-adv-x="1314" d="M72 0l4 43l137 10q35 5 41 51l168 1184q1 6 1 12q0 35 -32 39l-131 11l8 43h471l-6 -43l-135 -11q-35 -5 -41 -51l-86 -612l608 590q21 19 20 41t-26 26l-119 17l9 43h440l-8 -43l-103 -17q-85 -12 -153 -80l-418 -405l369 -731q14 -30 41.5 -46t56.5 -18l100 -10l-6 -43 h-502l6 43l93 10q29 4 39 23t0 41l-306 624l-153 -147l-68 -490q-2 -9 -2 -16q0 -30 31 -35l129 -10l-6 -43h-471z" />
<glyph unicode="L" horiz-adv-x="1028" d="M72 0l4 43l137 10q35 5 41 51l168 1184q1 6 1 12q0 35 -32 39l-131 11l8 43h471l-6 -43l-135 -11q-35 -5 -41 -51l-174 -1235h446q41 0 58 39l119 227h38l-79 -319h-893z" />
<glyph unicode="M" horiz-adv-x="1552" d="M61 0l5 43l139 16q40 8 47 58l166 1171q1 7 1 12q0 34 -30 39l-139 11l8 43h326l235 -1145l543 1145h315l-8 -43l-133 -11q-35 -5 -41 -51l-168 -1184q-1 -7 -1 -13q0 -34 30 -38l129 -10l-4 -43h-473l6 43l135 10q37 5 43 51l160 1141l-592 -1255h-31l-260 1257 l-160 -1130q-3 -26 3.5 -40t27.5 -18l133 -16l-6 -43h-406z" />
<glyph unicode="N" horiz-adv-x="1304" d="M61 0l5 43l139 16q40 8 47 58l166 1171q1 6 1 12q0 35 -32 39l-137 11l8 43h324l487 -1127l143 1008q1 7 1 13q0 38 -33 44l-136 19l9 43h403l-8 -43l-133 -19q-41 -8 -47 -57l-183 -1284h-49l-563 1284l-164 -1157q-3 -27 3 -40.5t28 -17.5l133 -16l-6 -43h-406z" />
<glyph unicode="O" d="M186 586q0 175 59 330.5t156 263.5t226 170.5t266 62.5q222 0 364 -169t142 -439q0 -175 -59 -330t-156.5 -262.5t-226.5 -170t-267 -62.5q-221 0 -362.5 168t-141.5 438zM332 551q0 -241 102 -381.5t264 -140.5q103 0 201 54.5t177.5 154t128 256.5t48.5 346 q0 242 -103.5 383t-264.5 141q-83 0 -163 -34t-150.5 -102.5t-124 -164t-84.5 -228t-31 -284.5z" />
<glyph unicode="P" horiz-adv-x="1089" d="M72 0l4 43l137 10q35 5 41 51l168 1184q1 6 1 12q0 35 -32 39l-131 11l8 43h533q179 0 276 -95.5t97 -244.5q0 -90 -33.5 -171t-94 -142.5t-153.5 -97.5t-205 -36h-227l-70 -502q-1 -7 -1 -13q0 -34 30 -38l166 -10l-6 -43h-508zM469 662h193q97 0 169.5 34t113.5 92.5 t61 128t20 150.5q0 57 -14 103.5t-44 85.5t-84 61t-128 22h-193z" />
<glyph unicode="Q" d="M186 586q0 175 59 330.5t156 263.5t226 170.5t266 62.5q222 0 364 -169t142 -439q0 -166 -52.5 -314t-141 -254t-206.5 -173t-247 -80q-3 -25 -3 -49q0 -42 11 -78q16 -55 53.5 -86.5t88.5 -43.5q25 -6 52 -6q30 0 64 7q65 14 133 51l8 -43q-57 -42 -136.5 -65 t-150.5 -23q-54 0 -100.5 17.5t-84.5 55t-55 105.5q-11 43 -11 94q0 31 4 64q-196 25 -317.5 189t-121.5 413zM332 551q0 -241 102 -381.5t264 -140.5q103 0 201 54.5t177.5 154t128 256.5t48.5 346q0 242 -103.5 383t-264.5 141q-83 0 -163 -34t-150.5 -102.5t-124 -164 t-84.5 -228t-31 -284.5z" />
<glyph unicode="R" horiz-adv-x="1218" d="M72 0l4 43l137 10q35 5 41 51l168 1184q1 6 1 12q0 35 -32 39l-131 11l8 43h531q182 0 279.5 -90t97.5 -236q0 -179 -121 -294t-297 -126v-4q55 -17 87.5 -53t61.5 -129l105 -350q17 -52 67 -58l113 -10l-6 -43q-152 -12 -207 -12q-58 0 -81 21t-32 61l-133 458 q-15 61 -40 83t-83 22h-145l-74 -529q-2 -9 -2 -16q0 -30 31 -35l166 -10l-6 -43h-508zM473 688h191q97 0 169.5 32t113.5 87.5t61 122t20 143.5q0 118 -64.5 192t-207.5 74h-193z" />
<glyph unicode="S" horiz-adv-x="964" d="M143 86l9 336h38q13 -115 39 -194t65 -121.5t83.5 -60t103.5 -17.5q137 0 225.5 85.5t88.5 231.5q0 53 -17 99.5t-40.5 78t-62.5 63t-67.5 48t-70.5 39.5q-123 64 -192 149t-69 203q0 76 29 145.5t81 123.5t131.5 86t174.5 32q73 0 137.5 -17.5t100.5 -37t84 -51.5 l-45 -316h-39v12q0 99 -16 169q-16 74 -50.5 115t-78.5 59t-103 18q-121 0 -196.5 -84t-75.5 -195q0 -93 59.5 -165t185.5 -134q122 -62 198.5 -155.5t76.5 -216.5q0 -184 -130.5 -309t-326.5 -125q-76 0 -142 17.5t-103 37t-85 51.5z" />
<glyph unicode="T" horiz-adv-x="1058" d="M197 1073l43 320h968l-45 -320h-39l-26 227q-3 39 -47 39h-267l-172 -1235q-2 -9 -2 -16q0 -30 31 -35l129 -10l-4 -43h-473l6 43l135 10q35 6 41 51l174 1235h-266q-43 0 -59 -39l-91 -227h-36z" />
<glyph unicode="U" horiz-adv-x="1345" d="M246 1350l6 43h473l-6 -43l-135 -11q-20 -3 -30 -14.5t-13 -36.5l-111 -788q-10 -74 -10 -136q0 -130 46 -206q68 -110 247 -111q79 0 147 28.5t124 85.5t95.5 149t55.5 212l106 752q3 26 -3.5 39.5t-29.5 17.5l-133 19l4 43h416l-6 -43l-143 -19q-24 -4 -34.5 -17.5 t-13.5 -39.5l-106 -750q-37 -262 -174.5 -403t-355.5 -141q-376 0 -376 399q0 68 11 147l109 762q1 7 1 13q0 34 -30 38z" />
<glyph unicode="V" horiz-adv-x="1280" d="M217 1350l6 43h451l-4 -43l-111 -11q-43 -5 -43 -42q0 -8 2 -17l197 -1155h4l479 1149q6 15 6 26q0 27 -35 33l-114 17l4 43h389l-6 -43l-109 -17q-27 -3 -45 -16t-31 -43l-538 -1284h-119l-235 1294q-8 48 -52 55z" />
<glyph unicode="W" horiz-adv-x="1867" d="M217 1350l6 43h453l-6 -43l-107 -11q-46 -7 -46 -51q0 -6 1 -12l160 -1129h2l414 963l-25 172q-8 50 -53 57l-92 11l6 43h448l-6 -43l-106 -11q-25 -3 -37 -20.5t-10 -42.5l120 -1129h4l441 1125q6 15 6 26q0 29 -37 35l-119 17l6 43h396l-6 -43l-113 -17 q-59 -11 -76 -61l-504 -1282h-114l-117 1022l-438 -1022h-109l-194 1292q-5 50 -52 57z" />
<glyph unicode="X" horiz-adv-x="1273" d="M33 0l4 43l110 16q58 9 105 78l416 565l-232 576q-22 52 -76 61l-96 11l6 43h459l-6 -43l-78 -11q-50 -9 -50 -41q0 -10 5 -22l184 -467l344 453q18 22 11 44.5t-37 26.5l-98 17l6 43h391l-8 -43l-103 -19q-49 -8 -102 -74l-381 -503l274 -643q12 -29 27.5 -42t42.5 -16 l96 -10l-6 -43h-457l7 43l79 10q31 4 42.5 22t0.5 42l-223 528l-377 -512q-18 -25 -11 -47.5t38 -28.5l92 -14l-6 -43h-393z" />
<glyph unicode="Y" horiz-adv-x="1243" d="M217 1350l6 43h449l-6 -43l-99 -11q-25 -4 -35 -24.5t-4 -42.5l217 -678h5l401 674q15 25 8.5 42.5t-31.5 22.5l-112 17l6 43h389l-4 -43l-115 -17q-49 -9 -84 -67l-444 -742l-59 -420q-3 -24 3 -36t25 -15l131 -10l-6 -43h-473l6 43l135 10q35 5 41 51l58 400l-250 772 q-20 59 -56 61z" />
<glyph unicode="Z" horiz-adv-x="1032" d="M45 0l4 27l928 1308v4h-557q-42 0 -58 -39l-90 -227h-39l48 320h876l-4 -27l-930 -1313h592q39 0 59 39l117 227h41l-82 -319h-905z" />
<glyph unicode="[" horiz-adv-x="669" d="M217 -164l242 1720h334l-7 -55h-198l-228 -1610h199l-8 -55h-334z" />
<glyph unicode="\" horiz-adv-x="774" d="M379 1434h49l162 -1475h-47z" />
<glyph unicode="]" horiz-adv-x="669" d="M74 -164l6 55h199l227 1610h-199l8 55h332l-241 -1720h-332z" />
<glyph unicode="^" horiz-adv-x="827" d="M270 717l275 336h30l183 -336h-47l-166 219l-228 -219h-47z" />
<glyph unicode="_" horiz-adv-x="1144" d="M156 -143l8 53h790l-6 -53h-792z" />
<glyph unicode="`" horiz-adv-x="669" d="M352 1298q3 35 37.5 49t63.5 -12l211 -186l-19 -25l-258 117q-40 20 -35 57z" />
<glyph unicode="a" horiz-adv-x="1040" d="M141 397q0 182 65 331t176 232.5t245 83.5q131 0 233 -79h4l111 79h24l-133 -940q-1 -7 -1 -14q0 -35 28 -37l129 -10l-6 -43q-184 -20 -215 -20q-67 0 -67 59q0 8 1 16l19 127h-4q-30 -61 -71 -103.5t-83.5 -62.5t-77.5 -28t-69 -8q-148 0 -228 110.5t-80 306.5z M274 381q0 -169 55 -251.5t154 -82.5q111 0 195 98t106 258l70 504q-91 74 -209 74q-71 0 -135.5 -35.5t-118 -106t-85.5 -189t-32 -269.5z" />
<glyph unicode="b" horiz-adv-x="1073" d="M215 -20l191 1355q6 41 -29 41h-131l8 41l291 37l12 -16q-21 -59 -37 -164l-61 -438h4q31 62 72.5 105.5t84 64.5t77.5 29.5t69 8.5q146 0 226.5 -111t80.5 -306q0 -137 -38 -257.5t-103 -205.5t-154.5 -134.5t-189.5 -49.5q-135 0 -234 79h-4l-110 -79h-25zM356 117 q102 -74 213 -74q71 0 135 36t117.5 106.5t85 189.5t31.5 270q0 169 -54.5 250.5t-152.5 81.5q-110 0 -195 -98t-108 -258z" />
<glyph unicode="c" horiz-adv-x="888" d="M152 514q14 101 51 188t87.5 149t113 106t129 65.5t133.5 21.5q120 0 201 -39.5t81 -89.5q0 -45 -37.5 -61t-56.5 12q-7 9 -23.5 29t-25.5 30.5t-26 26t-33 23.5t-39 14t-50 6q-86 0 -158 -47.5t-118.5 -126.5t-72 -177.5t-25.5 -203.5q0 -189 74.5 -285t205.5 -96 q130 0 266 125l19 -34q-62 -75 -150.5 -122.5t-197.5 -47.5q-131 0 -218 72q-88 71 -120 191q-19 72 -19 154q0 56 9 117z" />
<glyph unicode="d" horiz-adv-x="1040" d="M141 397q0 182 65 331t176 232.5t245 83.5q131 0 233 -79h4l51 370q3 22 -3 31.5t-25 9.5h-131l6 41l295 37l10 -16q-26 -77 -37 -170l-164 -1164q-1 -7 -1 -14q0 -35 28 -37l129 -10l-6 -43q-184 -20 -215 -20q-67 0 -67 59q0 8 1 16l19 131h-4q-30 -62 -71 -105 t-83.5 -63.5t-77.5 -29t-69 -8.5q-148 0 -228 110.5t-80 306.5zM274 381q0 -169 55.5 -251.5t153.5 -82.5q110 0 195 98.5t106 257.5l70 504q-91 74 -209 74q-71 0 -135.5 -35.5t-118 -106t-85.5 -189t-32 -269.5z" />
<glyph unicode="e" horiz-adv-x="858" d="M145 397q0 84 20.5 173t64 174t103 151.5t144.5 107.5t182 41q85 0 141 -49.5t56 -126.5q0 -41 -17.5 -82.5t-60 -86.5t-106.5 -85.5t-163 -78t-224 -64.5q-2 -25 -2 -50q1 -51 9 -99q12 -71 43 -131t90.5 -96t139.5 -36q133 0 269 125l18 -34q-144 -170 -348 -170 q-168 0 -263.5 115t-95.5 302zM287 520q51 14 104 33t118 53t114 73t82.5 93.5t33.5 114.5q0 49 -25.5 78.5t-66.5 29.5q-58 0 -115.5 -31.5t-107.5 -89.5t-87 -150t-50 -204z" />
<glyph unicode="f" horiz-adv-x="608" d="M-156 -328q0 26 17.5 42t40.5 16q32 0 77.5 -37t73.5 -37q116 0 142 190l159 1123h-143l6 37l145 18l13 82q21 150 116 249t244 99q54 0 98 -20t44 -58q0 -28 -17.5 -44.5t-42.5 -16.5q-34 0 -83.5 37t-76.5 37h-4q-54 0 -89 -45q-38 -48 -50 -142l-27 -178h232l-8 -55 h-232l-145 -1030q-21 -150 -116 -249.5t-241 -99.5q-54 0 -93.5 20.5t-39.5 61.5z" />
<glyph unicode="g" horiz-adv-x="1015" d="M70 -274q6 42 41 55t55 -12q5 -6 22.5 -29t24.5 -31.5t25.5 -25.5t33.5 -23.5t39 -13t51 -6.5q97 0 179 64t131 162t65 212l17 104h-4q-30 -61 -71 -103.5t-83.5 -62.5t-77.5 -28t-69 -8q-148 0 -228 110.5t-80 306.5q0 182 65 331t176 232.5t245 83.5q131 0 233 -79h4 l111 79h24l-131 -923q-18 -126 -70 -229t-124 -167.5t-155 -99.5t-167 -35q-124 0 -207 42q-76 39 -76 85q0 5 1 9zM274 381q0 -169 55 -251.5t154 -82.5q111 0 195 98t106 258l70 504q-91 74 -209 74q-71 0 -135.5 -35.5t-118 -106t-85.5 -189t-32 -269.5z" />
<glyph unicode="h" horiz-adv-x="1095" d="M219 0l187 1335q3 22 -4 31.5t-27 9.5h-127l6 41l295 37l12 -16q-26 -77 -37 -170l-73 -516h4q140 292 366 292q101 0 157 -76q41 -55 41 -153q0 -38 -7 -82l-88 -629q-1 -8 -1 -16q0 -35 29 -35h127l-4 -43q-40 -4 -114 -17t-105 -13q-66 0 -66 58q0 8 1 17l92 656 q6 39 6 72q0 167 -144 167q-64 0 -122 -40.5t-98.5 -105t-67.5 -138t-37 -144.5l-74 -522h-127z" />
<glyph unicode="i" horiz-adv-x="530" d="M190 967l7 41l292 36l15 -16q-23 -59 -39 -170l-107 -754q-1 -8 -1 -15q0 -36 30 -36h127l-4 -43q-25 -3 -73 -11.5t-84.5 -13.5t-61.5 -5q-66 0 -66 55q0 9 2 20l121 871q3 22 -4 31.5t-27 9.5h-127zM383 1319q5 37 32 61.5t64 24.5q34 0 55 -25q16 -19 17 -46 q0 -7 -2 -15q-6 -38 -32.5 -62t-61.5 -24q-37 0 -57 24q-16 19 -16 46q0 7 1 16z" />
<glyph unicode="j" horiz-adv-x="479" d="M6 -377q52 27 91 68.5t63 92.5t37.5 102.5t21.5 113.5l131 926q3 22 -4 31.5t-27 9.5h-129l7 41l292 36l13 -16q-23 -59 -39 -170l-113 -807q-9 -64 -23 -116t-39.5 -107.5t-60.5 -98t-88 -79.5t-121 -60zM379 1307q0 42 28.5 70t67.5 28q34 0 54 -21t20 -55 q0 -42 -28.5 -69t-67.5 -27q-33 0 -53.5 20.5t-20.5 53.5z" />
<glyph unicode="k" horiz-adv-x="1091" d="M215 0l191 1335q3 22 -4 31.5t-27 9.5h-129l6 41l295 37l12 -16q-26 -77 -37 -170l-104 -731l442 364q22 19 22.5 38t-28.5 28l-84 14l8 43h387l-6 -43l-96 -20q-72 -12 -160 -84l-264 -220l285 -573q7 -18 17.5 -24.5t31.5 -6.5h117l-5 -43q-10 -2 -43 -8.5t-53 -10.5 t-48.5 -7.5t-49.5 -3.5q-42 0 -66 15.5t-39 51.5l-254 522l-122 -102l-68 -467h-127z" />
<glyph unicode="l" horiz-adv-x="530" d="M225 55l181 1280q3 22 -4 31.5t-27 9.5h-129l6 41l295 37l12 -16q-26 -77 -37 -170l-164 -1164q-1 -8 -1 -15q0 -36 30 -36h127l-4 -43q-25 -3 -73 -11.5t-84.5 -13.5t-61.5 -5q-67 0 -67 59q0 7 1 16z" />
<glyph unicode="m" horiz-adv-x="1660" d="M188 967l7 41l294 36l13 -16q-26 -77 -37 -170l-14 -106h2q140 292 366 292q99 0 154 -71q43 -55 43 -157q0 -30 -4 -64h4q140 292 366 292q100 0 156 -76q41 -55 42 -153q0 -38 -7 -82l-88 -629q-1 -8 -1 -16q0 -35 29 -35h127l-4 -43q-25 -3 -73 -11.5t-84.5 -13.5 t-61.5 -5q-65 0 -65 55q0 9 2 20l90 656q6 39 6 73q0 62 -20 103q-30 63 -123 63q-64 0 -122 -40.5t-98.5 -105t-67.5 -137.5t-38 -145l-76 -522h-127l103 711q6 39 6 72q0 167 -144 167q-64 0 -122 -40.5t-98.5 -105t-67.5 -138t-37 -144.5l-76 -522h-127l131 926 q3 22 -3 31.5t-26 9.5h-129z" />
<glyph unicode="n" horiz-adv-x="1095" d="M188 967l7 41l294 36l13 -16q-26 -77 -37 -170l-14 -106h2q140 292 366 292q101 0 157 -76q41 -55 41 -153q0 -38 -7 -82l-88 -629q-1 -8 -1 -16q0 -35 29 -35h127l-4 -43q-25 -3 -73 -11.5t-84.5 -13.5t-61.5 -5q-65 0 -65 55q0 9 2 20l90 656q6 39 6 72q0 167 -144 167 q-64 0 -122 -40.5t-98.5 -105t-67.5 -138t-37 -144.5l-76 -522h-125l129 926q3 22 -3 31.5t-26 9.5h-129z" />
<glyph unicode="o" horiz-adv-x="993" d="M143 428q0 117 37.5 228.5t102.5 197t159.5 138t200.5 52.5q110 0 191 -62.5t121 -163.5t40 -224q0 -156 -63 -296t-179.5 -229t-258.5 -89q-110 0 -191 62.5t-120.5 163t-39.5 222.5zM274 381q0 -175 62.5 -263.5t165.5 -88.5q69 0 132.5 37.5t115.5 110t83 193.5 t31 273q0 174 -62.5 263t-164.5 89q-56 0 -108 -22t-99 -70.5t-81.5 -119t-54.5 -174t-20 -228.5z" />
<glyph unicode="p" horiz-adv-x="1071" d="M-4 -410l6 43l131 11q37 5 43 51l172 1231q6 41 -29 41h-131l7 41l292 36l13 -16q-26 -72 -37 -164l-4 -28h4q30 62 71.5 105.5t84 64.5t78 29.5t69.5 8.5q146 0 225.5 -110.5t79.5 -306.5q0 -182 -64 -331t-175 -232.5t-244 -83.5q-134 0 -236 79h-4l-49 -364 q-2 -9 -2 -16q0 -30 29 -35l163 -11l-6 -43h-487zM356 117q102 -74 213 -74q71 0 135 36t117.5 106.5t85 189.5t31.5 270q0 169 -55.5 250.5t-153.5 81.5q-110 0 -194 -98t-107 -258z" />
<glyph unicode="q" horiz-adv-x="1015" d="M141 397q0 182 65 331t176 232.5t245 83.5q131 0 233 -79h4l111 79h24l-190 -1349q-1 -7 -1 -13q0 -34 28 -38l129 -11l-7 -43h-487l6 43l166 11q35 6 41 51l70 487h-4q-30 -61 -71 -103.5t-83.5 -62.5t-77.5 -28t-69 -8q-148 0 -228 110.5t-80 306.5zM274 381 q0 -169 55 -251.5t154 -82.5q111 0 195 98t106 258l70 504q-91 74 -209 74q-71 0 -135.5 -35.5t-118 -106t-85.5 -189t-32 -269.5z" />
<glyph unicode="r" horiz-adv-x="716" d="M188 967l7 41l294 36l13 -16q-26 -77 -37 -170l-16 -119h2q63 147 148.5 226t152.5 79q36 0 56.5 -16.5t20.5 -48.5q0 -35 -21 -57.5t-54 -24.5q-16 0 -40 11.5t-38 11.5q-51 0 -106 -56.5t-96.5 -149t-55.5 -192.5l-74 -522h-127l129 926q3 22 -3 31.5t-26 9.5h-129z " />
<glyph unicode="s" horiz-adv-x="788" d="M90 109q0 27 18.5 46t43.5 19q16 0 31.5 -15t31 -36t35.5 -42.5t54.5 -36.5t78.5 -15q103 0 169 62t66 169q0 51 -23 91t-59 65.5t-80 48t-88.5 46.5t-80.5 53t-59 74.5t-23 104.5q0 132 97 216.5t241 84.5q117 0 197.5 -39t80.5 -87q0 -28 -17 -48t-42 -20q-18 0 -34 15 t-30.5 36t-33 42.5t-51 36.5t-74.5 15q-96 0 -153.5 -57t-57.5 -143q0 -41 18 -74.5t47.5 -56t67.5 -45t77 -40.5t77 -43.5t67.5 -54t47.5 -71.5t18 -95q0 -150 -106.5 -242.5t-264.5 -92.5q-118 0 -202.5 40t-84.5 89z" />
<glyph unicode="t" horiz-adv-x="606" d="M195 969l6 37l135 18q40 5 63 59l90 187h33l-35 -246h252l-8 -55h-252l-110 -779q-3 -26 -4 -47q0 -45 17 -65q24 -28 87 -29q61 0 143 43l4 -41q-109 -71 -223 -71q-89 0 -128 40q-28 28 -28 93q0 26 5 59l112 797h-159z" />
<glyph unicode="u" horiz-adv-x="1097" d="M190 967l7 41l292 36l15 -16q-26 -68 -41 -170l-76 -545q-5 -41 -4 -75q0 -26 2 -49q6 -53 40.5 -84t98.5 -31t122.5 40.5t99.5 105t69.5 138t38.5 144.5l59 424q3 22 -3.5 31.5t-26.5 9.5h-162l6 41l326 36l14 -16q-23 -59 -39 -170l-104 -754q-3 -25 2 -37.5t24 -13.5 l129 -10l-8 -43q-180 -20 -215 -20q-66 0 -66 58q0 8 1 17l30 217h-2q-140 -292 -370 -292q-99 0 -155 76q-40 55 -40 152q0 38 6 83l90 635q3 22 -4 31.5t-27 9.5h-129z" />
<glyph unicode="v" horiz-adv-x="1048" d="M152 971l6 43q123 30 182 30q80 0 94 -69l168 -862h4l74 153q27 57 49 111.5t38.5 98t29.5 90.5t21.5 77.5t15 72t9.5 61t5 57.5t2.5 48t1 46t0.5 39q0 35 19 56t51 21q30 0 48.5 -20.5t17.5 -56.5q0 -143 -214 -607l-178 -370h-98l-197 948q-8 33 -49 33h-100z" />
<glyph unicode="w" horiz-adv-x="1548" d="M152 971l6 43q123 30 182 30q80 0 94 -69l168 -862h4l268 575l-51 250q-8 33 -49 33h-100l6 43q123 30 182 30q80 0 94 -69l168 -862h4l74 153q27 57 49 111.5t38.5 98t29.5 90.5t21.5 77.5t15 72t9.5 61t5 57.5t2.5 48t1 46t0.5 39q0 35 19 56t51 21q30 0 48.5 -20.5 t17.5 -56.5q0 -143 -214 -607l-178 -370h-98l-131 622l-293 -622h-98l-197 948q-8 33 -49 33h-100z" />
<glyph unicode="x" horiz-adv-x="995" d="M39 0l6 43l86 16q45 7 98 74l279 375l-174 430q-6 18 -17.5 25.5t-33.5 7.5h-97l7 43q135 30 176 30q42 0 62.5 -16t35.5 -53l141 -373l219 291q17 23 10.5 44t-34.5 28l-78 22l6 37h356l-8 -43l-96 -18q-49 -7 -100 -72l-252 -338l186 -467q13 -33 51 -33h97l-4 -43 q-7 -1 -38.5 -8.5t-48.5 -11t-44 -7t-46 -3.5q-43 0 -64.5 15t-35.5 52l-156 410l-239 -326q-19 -23 -15 -44.5t33 -27.5l82 -16l-4 -43h-346z" />
<glyph unicode="y" horiz-adv-x="1048" d="M84 -328q6 36 36 46.5t58 -9.5q55 -30 103 -30q44 0 81 25q79 52 148 226l-209 1008q-8 33 -49 33h-100l6 43q123 30 182 30q80 0 94 -69l168 -862h4l74 153q27 57 49 111.5t38.5 98t29.5 90.5t21.5 77.5t15 72t9.5 61t5 57.5t2.5 48t1 46t0.5 39q0 35 19 56t51 21 q30 0 48.5 -20.5t18.5 -56.5q0 -143 -215 -607l-182 -383q-20 -41 -27.5 -56t-27.5 -54t-30.5 -55.5t-31 -49.5t-35.5 -48.5t-37 -39.5t-42.5 -36t-45.5 -25t-52 -18t-56 -5q-49 0 -88 22q-35 19 -35 53v7z" />
<glyph unicode="z" horiz-adv-x="876" d="M53 25l735 876v4h-477q-34 0 -51 -39l-53 -102h-35l57 260h711v-25l-760 -907l2 -4q125 47 269 47q61 0 143 -15q77 -14 105 -14h3q59 0 97 60l57 94h35l-62 -164q-25 -65 -67.5 -90.5t-108.5 -25.5q-45 0 -177 23.5t-214 23.5q-104 0 -199 -27z" />
<glyph unicode="{" horiz-adv-x="688" d="M248 59q0 73 28.5 165.5t57 178t28.5 140.5q0 65 -24.5 97t-77.5 32l6 49q83 0 117.5 59t34.5 166q0 28 -4 113.5t-4 130.5q0 200 96.5 283t284.5 83l-7 -49q-126 0 -183.5 -73.5t-57.5 -225.5q0 -40 4 -122t4 -119q0 -43 -8.5 -81.5t-28 -76t-57 -66t-90.5 -43.5v-6 q66 -17 95.5 -65.5t29.5 -104.5q0 -52 -18 -114.5t-39.5 -112t-39.5 -116t-18 -126.5q0 -170 180 -170l-8 -49q-301 0 -301 223z" />
<glyph unicode="|" horiz-adv-x="395" d="M166 -41l207 1475h51l-207 -1475h-51z" />
<glyph unicode="}" horiz-adv-x="688" d="M92 -164l8 49q124 0 182 73.5t58 221.5q0 42 -4 126.5t-4 119.5q0 96 43.5 169t142.5 99v6q-66 19 -96.5 65.5t-30.5 100.5q0 53 18 116t39.5 112t39.5 116t18 127q0 170 -178 170l6 49q303 0 303 -223q0 -73 -29.5 -165t-58.5 -177.5t-29 -140.5q0 -65 25 -97t80 -32 l-9 -49q-84 0 -117.5 -58.5t-33.5 -164.5q0 -29 4 -116.5t4 -133.5q0 -195 -97 -279t-284 -84z" />
<glyph unicode="~" horiz-adv-x="929" d="M279 772q22 46 39.5 76.5t44.5 67.5t57 56t63 19q35 0 83.5 -28.5t95.5 -57t79 -28.5t59.5 24.5t63.5 79.5l29 -18q-43 -92 -82.5 -140.5t-93.5 -48.5q-38 0 -86.5 29t-94 57.5t-75.5 28.5q-28 0 -52.5 -15.5t-41 -36.5t-47.5 -65q-7 -11 -11 -16z" />
<glyph unicode="&#xa1;" horiz-adv-x="481" d="M121 -297l201 997h36l-79 -997q-3 -40 -27 -66t-66 -26t-57.5 26t-7.5 66zM295 946q0 38 27.5 68t64.5 30q29 0 48.5 -22.5t19.5 -54.5q0 -39 -28.5 -69t-64.5 -30q-30 0 -48.5 22.5t-18.5 55.5z" />
<glyph unicode="&#xa2;" horiz-adv-x="1056" d="M180 465q0 136 44.5 258t119.5 209t176.5 139.5t212.5 56.5l15 101h38l-14 -99q165 -5 291 -88l-37 -256h-35q-4 84 -23.5 143.5t-51 91.5t-68 47t-82.5 17l-148 -1052q102 8 191 83.5t141 227.5l41 -12q-59 -173 -160 -255.5t-219 -90.5l-14 -101h-39l12 99 q-180 3 -285.5 135.5t-105.5 345.5zM322 432q0 -186 70.5 -289.5t187.5 -109.5l147 1050q-80 -5 -152.5 -49.5t-129 -124t-90 -203t-33.5 -274.5z" />
<glyph unicode="&#xa3;" horiz-adv-x="1044" d="M102 0l9 63q77 58 129 127t77 146t34 147t9 156h-165l6 53h159q-1 33 -5.5 110t-4.5 116q-4 105 20 191t64.5 141.5t94.5 93t108 53.5t106 16q73 0 137 -18t97.5 -36.5t83.5 -51.5l-43 -316h-39q1 106 -16 180t-50.5 115.5t-77.5 59.5t-104 18q-109 0 -184.5 -94 t-71.5 -266q0 -24 4.5 -137.5t3.5 -174.5h318l-6 -53h-316q-10 -166 -73 -303.5t-211 -257.5l-2 -4h573q43 0 59 39l93 206h38l-79 -319h-775z" />
<glyph unicode="&#xa4;" horiz-adv-x="903" d="M141 100l158 176q-55 74 -55 189q0 160 121 278l-111 185l16 16l113 -184q87 74 186 74q93 0 164 -74l164 184l12 -16l-161 -183q59 -78 59 -194q0 -78 -33.5 -149.5t-89.5 -125.5l109 -176l-19 -18l-110 178q-88 -72 -185 -72q-100 0 -166 72l-157 -178zM264 471 q0 -107 62.5 -182.5t156.5 -75.5q114 0 207.5 101.5t93.5 234.5q0 107 -63 183.5t-154 76.5q-117 0 -210 -102t-93 -236z" />
<glyph unicode="&#xa5;" horiz-adv-x="1243" d="M217 1350l6 43h449l-6 -43l-99 -11q-25 -4 -35 -24.5t-4 -42.5l217 -678h5l401 674q15 25 8.5 42.5t-31.5 22.5l-112 17l6 43h389l-4 -43l-115 -17q-49 -9 -84 -67l-444 -742l-8 -57h250l-9 -51h-249l-43 -312q-3 -24 3 -36t25 -15l131 -10l-6 -43h-473l6 43l135 10 q35 5 41 51l45 312h-260l8 51h258l7 37l-250 772q-20 59 -56 61z" />
<glyph unicode="&#xa6;" horiz-adv-x="395" d="M166 -41l92 655h51l-92 -655h-51zM281 778l92 656h51l-92 -656h-51z" />
<glyph unicode="&#xa7;" horiz-adv-x="907" d="M213 37l25 246h41q9 -254 176 -254q83 0 147 55t64 139q0 43 -23.5 87t-59.5 82t-79.5 78t-82 78.5t-69.5 80t-40 86t5 92.5t67.5 103.5t145.5 115.5l25 -22q-69 -45 -105 -88t-40 -81t12 -75t49.5 -73t73 -72t81.5 -76.5t76 -81t56 -90.5t22 -101q0 -124 -93.5 -205 t-240.5 -81q-96 0 -233 57zM356 1372q0 124 93.5 205.5t242.5 81.5q92 0 232 -57l-27 -246h-39q-6 129 -49.5 191.5t-128.5 62.5q-82 0 -145.5 -55.5t-63.5 -139.5q0 -43 23.5 -87t59 -82t79.5 -78t82.5 -78.5t69.5 -80t40 -86t-5.5 -92.5t-68 -103.5t-145.5 -115.5l-26 23 q70 45 106 88t40 81t-12 74.5t-49.5 73t-73 72t-81.5 76t-76 81t-56 90.5t-22 101z" />
<glyph unicode="&#xa8;" horiz-adv-x="835" d="M342 1274q0 39 26.5 65.5t63.5 26.5q31 0 50.5 -19.5t19.5 -50.5q0 -39 -27.5 -65.5t-64.5 -26.5q-29 0 -48.5 19.5t-19.5 50.5zM694 1274q0 39 26.5 65.5t63.5 26.5q31 0 50.5 -19.5t19.5 -50.5q0 -39 -27.5 -65.5t-64.5 -26.5q-29 0 -48.5 19.5t-19.5 50.5z" />
<glyph unicode="&#xa9;" horiz-adv-x="1409" d="M197 604q0 208 99 391t261.5 290.5t343.5 107.5q146 0 263 -80.5t181 -218.5t64 -306q0 -156 -59 -302t-155.5 -252t-225.5 -170t-264 -64q-146 0 -263 80.5t-181 218t-64 305.5zM233 606q0 -158 60 -287.5t170 -205.5t248 -76q127 0 248 60.5t211.5 161t146 239.5 t55.5 288q0 158 -60 288t-169.5 206t-247.5 76q-171 0 -323.5 -102t-245.5 -276t-93 -372zM526 635q0 177 102 298.5t242 121.5q109 0 189 -54l-21 -157h-20q-6 106 -44.5 146t-105.5 40q-111 0 -192.5 -108t-81.5 -301q0 -123 49.5 -188.5t126.5 -65.5q68 0 126 45t91 145 l27 -4q-27 -79 -71 -129.5t-88 -68t-93 -17.5q-108 0 -172 82.5t-64 214.5z" />
<glyph unicode="&#xaa;" horiz-adv-x="612" d="M145 612l7 39h489l-4 -39h-492zM147 1085q19 139 98.5 229.5t186.5 90.5q82 0 139 -49h4l66 49h14l-77 -565q-7 -31 16 -31h76l-4 -25q-12 -2 -41.5 -7t-51 -8t-36.5 -3q-48 0 -39 45l10 78h-2q-34 -69 -84 -96t-96 -27q-106 0 -153.5 85t-25.5 234zM225 1085 q-21 -142 13.5 -210t109.5 -68q65 0 115.5 59.5t62.5 153.5l43 303q-57 43 -127 43q-74 0 -135.5 -70.5t-81.5 -210.5z" />
<glyph unicode="&#xab;" horiz-adv-x="1140" d="M252 530l6 45l440 377l21 -37l-346 -362l245 -363l-30 -36zM627 530l6 45l442 377l19 -37l-346 -362l243 -363l-28 -36z" />
<glyph unicode="&#xac;" horiz-adv-x="1028" d="M252 545l8 49h676l-55 -404h-52l50 355h-627z" />
<glyph unicode="&#xad;" horiz-adv-x="968" d="M250 516l6 53h614l-6 -53h-614z" />
<glyph unicode="&#xae;" horiz-adv-x="1409" d="M197 604q0 208 99 391t261.5 290.5t343.5 107.5q146 0 263 -80.5t181 -218.5t64 -306q0 -156 -59 -302t-155.5 -252t-225.5 -170t-264 -64q-146 0 -263 80.5t-181 218t-64 305.5zM233 606q0 -158 60 -287.5t170 -205.5t248 -76q127 0 248 60.5t211.5 161t146 239.5 t55.5 288q0 158 -60 288t-169.5 206t-247.5 76q-171 0 -323.5 -102t-245.5 -276t-93 -372zM485 346l2 21l70 4q18 3 21 26l81 592q3 22 -12 25l-67 6l4 22h266q91 0 139.5 -45t48.5 -118q0 -90 -60.5 -147t-148.5 -62l-2 -2q29 -10 45.5 -28.5t30.5 -64.5l53 -176 q8 -25 35 -28l56 -4l-3 -21q-52 -8 -102 -8q-21 0 -34 7t-17 14t-8 20l-66 229q-9 32 -21 43t-40 11h-74l-37 -265q-3 -26 14 -26l82 -4l-2 -21h-254zM686 688h96q93 0 138 56t45 139q0 58 -32.5 94.5t-103.5 36.5h-96z" />
<glyph unicode="&#xaf;" horiz-adv-x="827" d="M346 1212l6 54h475l-6 -54h-475z" />
<glyph unicode="&#xb0;" horiz-adv-x="643" d="M354 1257q0 86 48 141.5t122 55.5q57 0 91 -39t34 -102q0 -84 -50 -140.5t-122 -56.5q-57 0 -90 38.5t-33 102.5zM395 1262q0 -43 20.5 -74t65.5 -31t74.5 27t40 59t10.5 66q0 44 -20.5 74t-67.5 30q-44 0 -73 -26t-39.5 -58t-10.5 -67z" />
<glyph unicode="&#xb1;" horiz-adv-x="968" d="M186 82l9 53h614l-6 -53h-617zM248 516l8 53h281l47 332h53l-49 -332h282l-6 -53h-282l-47 -332h-52l45 332h-280z" />
<glyph unicode="&#xb2;" horiz-adv-x="565" d="M233 1055l5 22q110 79 184 152t110 137.5t50 116.5t14 110q0 101 -51 127q-24 12 -53 9q-14 -1 -26 -4.5t-24.5 -12t-18.5 -13.5t-19.5 -18t-16.5 -16q-17 -17 -34.5 -6.5t-12.5 31.5q3 28 53 49.5t115 21.5q86 0 126 -54t40 -126q0 -215 -344 -465h243q24 0 29 19l27 73 h20l-31 -153h-385z" />
<glyph unicode="&#xb3;" horiz-adv-x="540" d="M244 1112q0 25 21.5 34t33.5 -7t14.5 -19.5t15 -17t20.5 -17.5t23 -9t31 -5q66 0 108 58t42 143q0 61 -30 100t-87 39h-24l4 27h18q63 0 106.5 51t43.5 129q0 53 -26 82t-71 29q-63 0 -135 -64l-12 21q75 75 168 75q69 0 110 -40t41 -101q0 -68 -45 -121t-122 -72 q62 -11 101.5 -51t39.5 -106q0 -105 -71 -165.5t-169 -60.5q-64 0 -106.5 20.5t-42.5 47.5z" />
<glyph unicode="&#xb4;" horiz-adv-x="669" d="M328 1149l264 186q34 24 62 14t28 -42q0 -46 -51 -66l-293 -117z" />
<glyph unicode="&#xb5;" horiz-adv-x="1064" d="M-18 -387q53 27 92 68.5t62.5 93t37 102t21.5 113.5l131 936q3 22 -3 31.5t-26 9.5h-129l6 41l293 36l12 -16q-23 -59 -39 -170l-78 -545q-8 -71 -1.5 -124t42 -84t99.5 -31q84 0 157 70t115 165.5t55 192.5l60 424q3 22 -3 31.5t-26 9.5h-162l4 41l328 36l12 -16 q-20 -59 -36 -170l-107 -754q-6 -48 29 -51l127 -10l-6 -43q-184 -20 -215 -20q-79 0 -66 75l31 217h-2q-144 -292 -371 -292q-59 0 -104 26q-13 -74 -35 -134t-59.5 -118.5t-97 -102.5t-138.5 -71z" />
<glyph unicode="&#xb6;" horiz-adv-x="1224" d="M186 582q0 187 52.5 339.5t147 256t229 159.5t296.5 56h35l-196 -1393h-35q-248 0 -388.5 157t-140.5 425zM856 0l197 1393h295l-7 -43l-135 -11q-37 -6 -43 -51l-166 -1184q-6 -45 29 -51l131 -10l-6 -43h-295z" />
<glyph unicode="&#xb7;" horiz-adv-x="491" d="M246 537q0 39 26.5 65.5t63.5 26.5q28 0 46.5 -19.5t18.5 -50.5q0 -39 -26.5 -64.5t-61.5 -25.5q-31 0 -49 18.5t-18 49.5z" />
<glyph unicode="&#xb8;" horiz-adv-x="638" d="M117 -385l12 31q55 -19 90 -19q61 0 94 45t33 103q0 46 -22 79.5t-68 41.5l14 104h35l-12 -86q55 -5 99 -41.5t44 -101.5q0 -80 -55 -130.5t-148 -50.5q-64 0 -116 25z" />
<glyph unicode="&#xb9;" horiz-adv-x="520" d="M233 1055l5 24l118 4q19 0 23 27l80 569q2 11 -2 16.5t-13 4.5l-112 -19v25l192 49h19l-90 -645q-3 -27 14 -27l119 -4l-4 -24h-349z" />
<glyph unicode="&#xba;" horiz-adv-x="618" d="M152 612l4 39h489l-4 -39h-489zM209 1034q0 95 37 179.5t106 138t154 53.5q98 0 153.5 -77.5t55.5 -190.5q0 -94 -37.5 -179t-107 -138.5t-154.5 -53.5q-97 0 -152 77.5t-55 190.5zM283 1006q0 -103 38 -156t99 -53q90 0 154.5 94.5t64.5 271.5q0 106 -37.5 158.5 t-99.5 52.5q-92 0 -155.5 -92.5t-63.5 -275.5z" />
<glyph unicode="&#xbb;" horiz-adv-x="1140" d="M203 190l348 363l-246 362l31 37l336 -377l-6 -45l-443 -376zM578 190l348 363l-246 362l31 37l336 -377l-7 -45l-442 -376z" />
<glyph unicode="&#xbc;" horiz-adv-x="1402" d="M184 696l4 25l119 4q19 0 23 27l80 569q2 11 -2 16t-13 4l-112 -18v25l192 49h19l-91 -645q-3 -27 15 -27l119 -4l-5 -25h-348zM524 -41l574 1475h43l-574 -1475h-43zM901 160l2 18l391 522h35l-72 -510h84l-4 -30h-84l-14 -105q-3 -26 14 -26l62 -4l-4 -25h-236l4 25 l64 4q18 0 22 26l15 105h-279zM946 190h238l55 396l-293 -393v-3z" />
<glyph unicode="&#xbd;" horiz-adv-x="1404" d="M184 696l4 25l119 4q19 0 23 27l80 569q2 11 -2 16t-13 4l-112 -18v25l192 49h19l-91 -645q-3 -27 15 -27l119 -4l-5 -25h-348zM483 -41l576 1475h43l-576 -1475h-43zM924 0l2 23q110 79 184 152t111 137.5t51 117.5t14 111q0 60 -23.5 98.5t-68.5 38.5q-13 0 -26 -3.5 t-21 -6.5t-21 -13t-17 -13t-18.5 -17t-15.5 -15q-15 -15 -32.5 -6t-14.5 29q2 28 53 51t117 23q45 0 79 -16.5t52 -44t26.5 -57.5t8.5 -63q0 -217 -346 -465h246q21 0 26 19l27 74h20l-30 -154h-383z" />
<glyph unicode="&#xbe;" horiz-adv-x="1402" d="M193 754q0 25 21.5 33.5t33.5 -7.5q17 -23 25.5 -33t30.5 -22t48 -12q66 0 108 57.5t42 142.5q0 61 -30 100.5t-87 39.5h-25l5 26h18q62 0 105.5 51.5t43.5 129.5q0 53 -25.5 81.5t-70.5 28.5q-64 0 -135 -63l-12 20q76 76 168 76q69 0 110 -40t41 -101q0 -68 -45.5 -121 t-122.5 -72q62 -11 102 -51t40 -107q0 -105 -70.5 -165t-169.5 -60q-64 0 -106.5 20.5t-42.5 47.5zM528 -41l574 1475h43l-574 -1475h-43zM899 160l4 18l391 522h35l-72 -510h84l-4 -30h-84l-14 -105q-7 -26 14 -26l62 -4l-4 -25h-236l4 25l64 4q16 0 20 26l15 105h-279z M946 190h238l53 396l-291 -393v-3z" />
<glyph unicode="&#xbf;" horiz-adv-x="858" d="M84 -76q0 33 4 65t15.5 71t30 74t50.5 71.5t73.5 65.5t102.5 54t134 40l59 335h41l-43 -364q-119 -29 -197 -94.5t-109.5 -146.5t-31.5 -181q0 -111 46.5 -182.5t133.5 -71.5q41 0 77.5 10.5t71 33t53.5 38t52 45.5q25 25 54.5 15t29.5 -48q0 -35 -48.5 -68.5t-130.5 -54 t-173 -20.5q-76 0 -134.5 26t-92.5 71t-51 99.5t-17 116.5zM530 946q0 38 29 68t64 30q30 0 49.5 -22t19.5 -55q0 -40 -28.5 -69.5t-65.5 -29.5q-29 0 -48.5 22.5t-19.5 55.5z" />
<glyph unicode="&#xc0;" horiz-adv-x="1267" d="M27 0l6 43l110 16q55 7 76 60l526 1284h121l232 -1294q8 -50 51 -56l98 -10l-6 -43h-453l7 43l108 10q26 3 37 20t6 40l-65 376h-451l-151 -370q-21 -52 28 -60l115 -16l-6 -43h-389zM453 547h419l-120 719h-4zM555 1667q3 35 37 49t63 -12l211 -186l-18 -25l-258 117 q-40 20 -35 57z" />
<glyph unicode="&#xc1;" horiz-adv-x="1267" d="M27 0l6 43l110 16q55 7 76 60l526 1284h121l232 -1294q8 -50 51 -56l98 -10l-6 -43h-453l7 43l108 10q26 3 37 20t6 40l-65 376h-451l-151 -370q-21 -52 28 -60l115 -16l-6 -43h-389zM453 547h419l-120 719h-4zM788 1518l265 186q34 25 62 14t28 -43q0 -45 -51 -65 l-293 -117z" />
<glyph unicode="&#xc2;" horiz-adv-x="1267" d="M27 0l6 43l110 16q55 7 76 60l526 1284h121l232 -1294q8 -50 51 -56l98 -10l-6 -43h-453l7 43l108 10q26 3 37 20t6 40l-65 376h-451l-151 -370q-21 -52 28 -60l115 -16l-6 -43h-389zM453 547h419l-120 719h-4zM594 1495l274 336h31l182 -336h-47l-166 219l-227 -219h-47 z" />
<glyph unicode="&#xc3;" horiz-adv-x="1267" d="M27 0l6 43l110 16q55 7 76 60l526 1284h121l232 -1294q8 -50 51 -56l98 -10l-6 -43h-453l7 43l108 10q26 3 37 20t6 40l-65 376h-451l-151 -370q-21 -52 28 -60l115 -16l-6 -43h-389zM453 547h419l-120 719h-4zM559 1550q17 35 30.5 60t35 57.5t41.5 52.5t46 34.5 t52 14.5q35 0 83 -28.5t95 -57t80 -28.5q32 0 59.5 24.5t63.5 79.5l29 -18q-43 -91 -83 -140t-94 -49q-38 0 -86.5 29t-94 57.5t-75.5 28.5q-21 0 -37 -5.5t-36.5 -27t-28 -31.5t-36.5 -51q-9 -12 -13 -18z" />
<glyph unicode="&#xc4;" horiz-adv-x="1267" d="M27 0l6 43l110 16q55 7 76 60l526 1284h121l232 -1294q8 -50 51 -56l98 -10l-6 -43h-453l7 43l108 10q26 3 37 20t6 40l-65 376h-451l-151 -370q-21 -52 28 -60l115 -16l-6 -43h-389zM453 547h419l-120 719h-4zM604 1642q0 39 26.5 66t63.5 27q30 0 50 -20t20 -50 q0 -39 -27.5 -65.5t-64.5 -26.5q-30 0 -49 19.5t-19 49.5zM956 1642q0 39 27 66t64 27q29 0 49 -19.5t20 -50.5q0 -39 -27.5 -65.5t-64.5 -26.5q-30 0 -49 19.5t-19 49.5z" />
<glyph unicode="&#xc5;" horiz-adv-x="1267" d="M27 0l6 43l110 16q55 7 76 60l526 1284h121l232 -1294q8 -50 51 -56l98 -10l-6 -43h-453l7 43l108 10q26 3 37 20t6 40l-65 376h-451l-151 -370q-21 -52 28 -60l115 -16l-6 -43h-389zM453 547h419l-120 719h-4zM696 1626q0 86 52.5 146.5t132.5 60.5q60 0 95.5 -44 t35.5 -110q0 -87 -52 -145.5t-131 -58.5q-62 0 -97.5 42.5t-35.5 108.5zM756 1622q0 -52 20 -82.5t58 -30.5q55 0 86.5 51.5t31.5 125.5q0 53 -19.5 82.5t-58.5 29.5q-55 0 -86.5 -51t-31.5 -125z" />
<glyph unicode="&#xc6;" horiz-adv-x="1679" d="M27 0l6 43l110 16q24 4 40.5 17t35.5 43l799 1274h758l-47 -320h-41l-25 227q-3 39 -47 39h-438l-86 -606h251q48 0 58 39l59 174h39l-67 -479h-39l-9 174q-3 39 -49 39h-250l-88 -627h465q40 0 60 39l116 227h39l-80 -319h-913l6 43l137 10q35 5 41 51l56 388h-412 l-231 -373q-14 -23 -6.5 -39t32.5 -21l115 -16l-6 -43h-389zM549 549h383l108 784h-2z" />
<glyph unicode="&#xc7;" horiz-adv-x="1148" d="M186 575q0 175 56.5 332t150.5 267t220 174.5t261 64.5q223 0 377 -106l-43 -316h-41q0 110 -20.5 185t-61 115t-91.5 56.5t-122 16.5q-83 0 -161 -32.5t-147.5 -100t-121.5 -163.5t-82 -231t-30 -294q0 -244 96 -376t250 -132q64 0 124.5 21t119 65t109 121t85.5 180 l47 -12q-40 -117 -97 -202.5t-122 -132.5t-130.5 -70t-135.5 -25l-10 -66q54 -5 97.5 -41t43.5 -102q0 -81 -54.5 -131t-146.5 -50q-65 0 -117 25l15 31q48 -19 88 -19q61 0 95 45.5t34 102.5q0 45 -22.5 79t-69.5 42l12 84q-138 5 -242 82t-158.5 210t-54.5 303z" />
<glyph unicode="&#xc8;" horiz-adv-x="1062" d="M72 0l4 43l137 10q35 5 41 51l168 1184q6 46 -31 51l-131 11l8 43h893l-47 -320h-41l-22 227q-5 39 -50 39h-438l-86 -606h250q46 0 59 39l60 174h39l-70 -479h-37l-10 174q-3 39 -47 39h-250l-88 -627h463q39 0 59 39l117 227h39l-80 -319h-909zM567 1667q3 35 37.5 49 t63.5 -12l211 -186l-19 -25l-258 117q-40 20 -35 57z" />
<glyph unicode="&#xc9;" horiz-adv-x="1062" d="M72 0l4 43l137 10q35 5 41 51l168 1184q6 46 -31 51l-131 11l8 43h893l-47 -320h-41l-22 227q-5 39 -50 39h-438l-86 -606h250q46 0 59 39l60 174h39l-70 -479h-37l-10 174q-3 39 -47 39h-250l-88 -627h463q39 0 59 39l117 227h39l-80 -319h-909zM741 1518l265 186 q34 25 62 14t28 -43q0 -44 -52 -65l-292 -117z" />
<glyph unicode="&#xca;" horiz-adv-x="1062" d="M72 0l4 43l137 10q35 5 41 51l168 1184q6 46 -31 51l-131 11l8 43h893l-47 -320h-41l-22 227q-5 39 -50 39h-438l-86 -606h250q46 0 59 39l60 174h39l-70 -479h-37l-10 174q-3 39 -47 39h-250l-88 -627h463q39 0 59 39l117 227h39l-80 -319h-909zM545 1495l274 336h31 l182 -336h-47l-166 219l-227 -219h-47z" />
<glyph unicode="&#xcb;" horiz-adv-x="1062" d="M72 0l4 43l137 10q35 5 41 51l168 1184q6 46 -31 51l-131 11l8 43h893l-47 -320h-41l-22 227q-5 39 -50 39h-438l-86 -606h250q46 0 59 39l60 174h39l-70 -479h-37l-10 174q-3 39 -47 39h-250l-88 -627h463q39 0 59 39l117 227h39l-80 -319h-909zM563 1642q0 39 26.5 66 t63.5 27q30 0 50 -20t20 -50q0 -39 -27.5 -65.5t-64.5 -26.5q-29 0 -48.5 19.5t-19.5 49.5zM915 1642q0 39 27 66t64 27q30 0 49.5 -19.5t19.5 -50.5q0 -39 -27.5 -65.5t-64.5 -26.5q-29 0 -48.5 19.5t-19.5 49.5z" />
<glyph unicode="&#xcc;" horiz-adv-x="614" d="M72 0l4 43l137 10q35 5 41 51l168 1184q6 46 -31 51l-131 11l8 43h471l-6 -43l-135 -11q-35 -5 -41 -51l-166 -1184q-9 -45 29 -51l129 -10l-6 -43h-471zM238 1667q3 35 37 49t63 -12l211 -186l-19 -25l-258 117q-39 19 -34 57z" />
<glyph unicode="&#xcd;" horiz-adv-x="614" d="M72 0l4 43l137 10q35 5 41 51l168 1184q6 46 -31 51l-131 11l8 43h471l-6 -43l-135 -11q-35 -5 -41 -51l-166 -1184q-9 -45 29 -51l129 -10l-6 -43h-471zM492 1518l264 186q34 25 62 14t28 -43q0 -45 -51 -65l-293 -117z" />
<glyph unicode="&#xce;" horiz-adv-x="614" d="M72 0l4 43l137 10q35 5 41 51l168 1184q6 46 -31 51l-131 11l8 43h471l-6 -43l-135 -11q-35 -5 -41 -51l-166 -1184q-9 -45 29 -51l129 -10l-6 -43h-471zM274 1495l275 336h31l182 -336h-47l-166 219l-227 -219h-48z" />
<glyph unicode="&#xcf;" horiz-adv-x="614" d="M72 0l4 43l137 10q35 5 41 51l168 1184q6 46 -31 51l-131 11l8 43h471l-6 -43l-135 -11q-35 -5 -41 -51l-166 -1184q-9 -45 29 -51l129 -10l-6 -43h-471zM287 1642q0 39 26.5 66t63.5 27q29 0 49 -19.5t20 -50.5q0 -39 -27.5 -65.5t-64.5 -26.5q-29 0 -48 19t-19 50z M639 1642q0 39 26.5 66t63.5 27q30 0 50 -20t20 -50q0 -39 -27.5 -65.5t-64.5 -26.5q-29 0 -48.5 19.5t-19.5 49.5z" />
<glyph unicode="&#xd0;" horiz-adv-x="1318" d="M72 0l4 43l137 10q35 5 41 51l78 555h-162l8 54h162l82 575q6 46 -31 51l-131 11l8 43h537q248 0 386 -152t138 -422q0 -175 -53 -327t-147 -260t-229 -170t-292 -62h-536zM383 53h223q111 0 206 45t162 121.5t114.5 176.5t70.5 211t23 224q0 111 -24 202t-73 160 t-130 107.5t-187 38.5h-205l-88 -626h191l-9 -54h-190z" />
<glyph unicode="&#xd1;" horiz-adv-x="1304" d="M61 0l5 43l139 16q40 8 47 58l166 1171q6 46 -31 51l-137 11l8 43h324l487 -1127l143 1008q6 50 -32 57l-136 19l9 43h403l-8 -43l-133 -19q-41 -8 -47 -57l-183 -1284h-49l-563 1284l-164 -1157q-3 -27 3 -40.5t28 -17.5l133 -16l-6 -43h-406zM575 1550q17 35 30.5 60 t35 57.5t41.5 52.5t46 34.5t52 14.5q35 0 83 -28.5t95 -57t80 -28.5q32 0 59.5 24.5t63.5 79.5l29 -18q-43 -92 -82.5 -140.5t-93.5 -48.5q-38 0 -86.5 29t-94 57.5t-75.5 28.5q-28 0 -52.5 -15.5t-41 -36.5t-47.5 -65q-7 -11 -11 -16z" />
<glyph unicode="&#xd2;" d="M186 586q0 175 59 330.5t156 263.5t226 170.5t266 62.5q222 0 364 -169t142 -439q0 -175 -59 -330t-156.5 -262.5t-226.5 -170t-267 -62.5q-221 0 -362.5 168t-141.5 438zM332 551q0 -241 102 -381.5t264 -140.5q103 0 201 54.5t177.5 154t128 256.5t48.5 346 q0 242 -103.5 383t-264.5 141q-83 0 -163 -34t-150.5 -102.5t-124 -164t-84.5 -228t-31 -284.5zM625 1667q3 35 37 49t63 -12l211 -186l-18 -25l-259 117q-39 19 -34 57z" />
<glyph unicode="&#xd3;" d="M186 586q0 175 59 330.5t156 263.5t226 170.5t266 62.5q222 0 364 -169t142 -439q0 -175 -59 -330t-156.5 -262.5t-226.5 -170t-267 -62.5q-221 0 -362.5 168t-141.5 438zM332 551q0 -241 102 -381.5t264 -140.5q103 0 201 54.5t177.5 154t128 256.5t48.5 346 q0 242 -103.5 383t-264.5 141q-83 0 -163 -34t-150.5 -102.5t-124 -164t-84.5 -228t-31 -284.5zM860 1518l264 186q34 25 62 14t28 -43q0 -45 -51 -65l-293 -117z" />
<glyph unicode="&#xd4;" d="M186 586q0 175 59 330.5t156 263.5t226 170.5t266 62.5q222 0 364 -169t142 -439q0 -175 -59 -330t-156.5 -262.5t-226.5 -170t-267 -62.5q-221 0 -362.5 168t-141.5 438zM332 551q0 -241 102 -381.5t264 -140.5q103 0 201 54.5t177.5 154t128 256.5t48.5 346 q0 242 -103.5 383t-264.5 141q-83 0 -163 -34t-150.5 -102.5t-124 -164t-84.5 -228t-31 -284.5zM659 1495l275 336h31l182 -336h-47l-166 219l-227 -219h-48z" />
<glyph unicode="&#xd5;" d="M186 586q0 175 59 330.5t156 263.5t226 170.5t266 62.5q222 0 364 -169t142 -439q0 -175 -59 -330t-156.5 -262.5t-226.5 -170t-267 -62.5q-221 0 -362.5 168t-141.5 438zM332 551q0 -241 102 -381.5t264 -140.5q103 0 201 54.5t177.5 154t128 256.5t48.5 346 q0 242 -103.5 383t-264.5 141q-83 0 -163 -34t-150.5 -102.5t-124 -164t-84.5 -228t-31 -284.5zM616 1550q17 35 30.5 60t35 57.5t41.5 52.5t46 34.5t52 14.5q35 0 83 -28.5t95 -57t80 -28.5q32 0 59.5 24.5t63.5 79.5l29 -18q-43 -92 -82.5 -140.5t-93.5 -48.5 q-38 0 -86.5 29t-94 57.5t-75.5 28.5q-28 0 -52.5 -15.5t-41 -36.5t-47.5 -65q-7 -11 -11 -16z" />
<glyph unicode="&#xd6;" d="M186 586q0 175 59 330.5t156 263.5t226 170.5t266 62.5q222 0 364 -169t142 -439q0 -175 -59 -330t-156.5 -262.5t-226.5 -170t-267 -62.5q-221 0 -362.5 168t-141.5 438zM332 551q0 -241 102 -381.5t264 -140.5q103 0 201 54.5t177.5 154t128 256.5t48.5 346 q0 242 -103.5 383t-264.5 141q-83 0 -163 -34t-150.5 -102.5t-124 -164t-84.5 -228t-31 -284.5zM672 1642q0 39 26.5 66t63.5 27q30 0 49.5 -19.5t19.5 -50.5q0 -39 -27.5 -65.5t-64.5 -26.5q-29 0 -48 19t-19 50zM1024 1642q0 39 26.5 66t63.5 27q30 0 50 -20t20 -50 q0 -39 -27.5 -65.5t-64.5 -26.5q-30 0 -49 19.5t-19 49.5z" />
<glyph unicode="&#xd7;" horiz-adv-x="911" d="M219 264l279 279l-199 278l39 37l199 -276l276 276l29 -37l-279 -278l201 -279l-39 -37l-199 279l-278 -279z" />
<glyph unicode="&#xd8;" d="M186 586q0 175 59 330.5t156 263.5t226 170.5t266 62.5q164 0 291 -100l92 139l35 -25l-94 -141q86 -81 134 -205t48 -276q0 -175 -59 -330t-156.5 -262.5t-226.5 -170t-267 -62.5q-158 0 -278 88l-84 -127l-35 24l86 129q-92 81 -142.5 207.5t-50.5 284.5zM330 551 q0 -236 100 -379l707 1069q-101 123 -252 123q-83 0 -163 -34t-151 -102.5t-124.5 -164t-85 -228t-31.5 -284.5zM459 137q97 -108 239 -108q103 0 201 54.5t177.5 154t128 256.5t48.5 346q0 220 -92 362z" />
<glyph unicode="&#xd9;" horiz-adv-x="1345" d="M246 1350l6 43h473l-6 -43l-135 -11q-20 -3 -30 -14.5t-13 -36.5l-111 -788q-32 -232 36 -342.5t247 -110.5q79 0 147 28.5t124 85.5t95.5 149t55.5 212l106 752q3 26 -3.5 39.5t-29.5 17.5l-133 19l4 43h416l-6 -43l-143 -19q-24 -4 -34.5 -17.5t-13.5 -39.5l-106 -750 q-37 -262 -174.5 -403t-355.5 -141q-440 0 -365 546l109 762q6 46 -29 51zM655 1667q3 35 37.5 49t63.5 -12l211 -186l-19 -25l-258 117q-40 20 -35 57z" />
<glyph unicode="&#xda;" horiz-adv-x="1345" d="M246 1350l6 43h473l-6 -43l-135 -11q-20 -3 -30 -14.5t-13 -36.5l-111 -788q-32 -232 36 -342.5t247 -110.5q79 0 147 28.5t124 85.5t95.5 149t55.5 212l106 752q3 26 -3.5 39.5t-29.5 17.5l-133 19l4 43h416l-6 -43l-143 -19q-24 -4 -34.5 -17.5t-13.5 -39.5l-106 -750 q-37 -262 -174.5 -403t-355.5 -141q-440 0 -365 546l109 762q6 46 -29 51zM897 1518l264 186q34 25 62 14t28 -43q0 -45 -51 -65l-293 -117z" />
<glyph unicode="&#xdb;" horiz-adv-x="1345" d="M246 1350l6 43h473l-6 -43l-135 -11q-20 -3 -30 -14.5t-13 -36.5l-111 -788q-32 -232 36 -342.5t247 -110.5q79 0 147 28.5t124 85.5t95.5 149t55.5 212l106 752q3 26 -3.5 39.5t-29.5 17.5l-133 19l4 43h416l-6 -43l-143 -19q-24 -4 -34.5 -17.5t-13.5 -39.5l-106 -750 q-37 -262 -174.5 -403t-355.5 -141q-440 0 -365 546l109 762q6 46 -29 51zM670 1495l274 336h31l182 -336h-47l-166 219l-227 -219h-47z" />
<glyph unicode="&#xdc;" horiz-adv-x="1345" d="M246 1350l6 43h473l-6 -43l-135 -11q-20 -3 -30 -14.5t-13 -36.5l-111 -788q-32 -232 36 -342.5t247 -110.5q79 0 147 28.5t124 85.5t95.5 149t55.5 212l106 752q3 26 -3.5 39.5t-29.5 17.5l-133 19l4 43h416l-6 -43l-143 -19q-24 -4 -34.5 -17.5t-13.5 -39.5l-106 -750 q-37 -262 -174.5 -403t-355.5 -141q-440 0 -365 546l109 762q6 46 -29 51zM682 1642q0 39 26.5 66t63.5 27q30 0 50 -20t20 -50q0 -39 -27.5 -65.5t-64.5 -26.5q-30 0 -49 19.5t-19 49.5zM1034 1642q0 39 26.5 66t63.5 27q30 0 50 -20t20 -50q0 -39 -27.5 -65.5t-64.5 -26.5 q-30 0 -49 19.5t-19 49.5z" />
<glyph unicode="&#xdd;" horiz-adv-x="1243" d="M217 1350l6 43h449l-6 -43l-99 -11q-25 -4 -35 -24.5t-4 -42.5l217 -678h5l401 674q15 25 8.5 42.5t-31.5 22.5l-112 17l6 43h389l-4 -43l-115 -17q-49 -9 -84 -67l-444 -742l-59 -420q-3 -24 3 -36t25 -15l131 -10l-6 -43h-473l6 43l135 10q35 5 41 51l58 400l-250 772 q-20 59 -56 61zM838 1518l264 186q34 25 62 14t28 -43q0 -45 -51 -65l-293 -117z" />
<glyph unicode="&#xde;" horiz-adv-x="1089" d="M72 0l4 43l137 10q35 5 41 51l168 1184q6 46 -31 51l-131 11l8 43h471l-6 -43l-135 -11q-35 -5 -41 -51l-31 -203h230q180 0 277 -95.5t97 -244.5q0 -90 -33 -170t-94 -140.5t-153.5 -96t-204.5 -35.5h-227l-27 -199q-6 -46 29 -51l129 -10l-6 -43h-471zM426 356h190 q97 0 170.5 33.5t115.5 91.5t62.5 127.5t20.5 149.5q0 56 -14 103.5t-44.5 87t-85 61.5t-128.5 22h-193z" />
<glyph unicode="&#xdf;" horiz-adv-x="1095" d="M-156 -328q0 26 17.5 42t40.5 16q32 0 77.5 -37t73.5 -37q116 0 142 190l159 1121h-143l6 39l145 18l11 72q22 157 124.5 257.5t250.5 100.5q130 0 197 -59t67 -148q0 -65 -26 -117.5t-62.5 -86.5t-73 -64.5t-62.5 -67.5t-26 -80q0 -57 59 -126l123 -146 q109 -129 109 -248q0 -141 -98 -236t-240 -95q-137 0 -242 57l-4 258h39q17 -139 77 -202.5t140 -63.5q91 0 150 63.5t59 161.5q0 100 -92 209l-119 141q-25 30 -39 59t-19.5 53.5t0 53t14 50t28.5 52t36.5 52t44.5 55.5q51 63 81 136.5t30 137.5q0 69 -40.5 110.5 t-119.5 41.5q-84 0 -150.5 -66.5t-82.5 -187.5l-172 -1212q-21 -150 -116 -249.5t-241 -99.5q-54 0 -93.5 20.5t-39.5 61.5z" />
<glyph unicode="&#xe0;" horiz-adv-x="1040" d="M141 397q0 182 65 331t176 232.5t245 83.5q131 0 233 -79h4l111 79h24l-133 -940q-6 -48 27 -51l129 -10l-6 -43q-184 -20 -215 -20q-76 0 -66 75l19 127h-4q-30 -61 -71 -103.5t-83.5 -62.5t-77.5 -28t-69 -8q-148 0 -228 110.5t-80 306.5zM274 381q0 -169 55 -251.5 t154 -82.5q111 0 195 98t106 258l70 504q-91 74 -209 74q-71 0 -135.5 -35.5t-118 -106t-85.5 -189t-32 -269.5zM481 1298q3 35 37.5 49t63.5 -12l211 -186l-19 -25l-258 117q-40 20 -35 57z" />
<glyph unicode="&#xe1;" horiz-adv-x="1040" d="M141 397q0 182 65 331t176 232.5t245 83.5q131 0 233 -79h4l111 79h24l-133 -940q-6 -48 27 -51l129 -10l-6 -43q-184 -20 -215 -20q-76 0 -66 75l19 127h-4q-30 -61 -71 -103.5t-83.5 -62.5t-77.5 -28t-69 -8q-148 0 -228 110.5t-80 306.5zM274 381q0 -169 55 -251.5 t154 -82.5q111 0 195 98t106 258l70 504q-91 74 -209 74q-71 0 -135.5 -35.5t-118 -106t-85.5 -189t-32 -269.5zM641 1149l264 186q34 24 62 14t28 -42q0 -46 -51 -66l-293 -117z" />
<glyph unicode="&#xe2;" horiz-adv-x="1040" d="M141 397q0 182 65 331t176 232.5t245 83.5q131 0 233 -79h4l111 79h24l-133 -940q-6 -48 27 -51l129 -10l-6 -43q-184 -20 -215 -20q-76 0 -66 75l19 127h-4q-30 -61 -71 -103.5t-83.5 -62.5t-77.5 -28t-69 -8q-148 0 -228 110.5t-80 306.5zM274 381q0 -169 55 -251.5 t154 -82.5q111 0 195 98t106 258l70 504q-91 74 -209 74q-71 0 -135.5 -35.5t-118 -106t-85.5 -189t-32 -269.5zM436 1126l275 336h30l183 -336h-47l-166 220l-228 -220h-47z" />
<glyph unicode="&#xe3;" horiz-adv-x="1040" d="M141 397q0 182 65 331t176 232.5t245 83.5q131 0 233 -79h4l111 79h24l-133 -940q-6 -48 27 -51l129 -10l-6 -43q-184 -20 -215 -20q-76 0 -66 75l19 127h-4q-30 -61 -71 -103.5t-83.5 -62.5t-77.5 -28t-69 -8q-148 0 -228 110.5t-80 306.5zM274 381q0 -169 55 -251.5 t154 -82.5q111 0 195 98t106 258l70 504q-91 74 -209 74q-71 0 -135.5 -35.5t-118 -106t-85.5 -189t-32 -269.5zM418 1182q17 35 30.5 60t35 57.5t41.5 52.5t46 34.5t52 14.5q28 0 64.5 -18t66 -39.5t65 -39.5t62.5 -18q32 0 59.5 24.5t63.5 80.5l28 -19 q-43 -91 -82.5 -139.5t-93.5 -48.5q-38 0 -86.5 28.5t-94 57t-75.5 28.5q-21 0 -37 -5.5t-36.5 -27t-28 -31.5t-36.5 -51q-9 -12 -13 -18z" />
<glyph unicode="&#xe4;" horiz-adv-x="1040" d="M141 397q0 182 65 331t176 232.5t245 83.5q131 0 233 -79h4l111 79h24l-133 -940q-6 -48 27 -51l129 -10l-6 -43q-184 -20 -215 -20q-76 0 -66 75l19 127h-4q-30 -61 -71 -103.5t-83.5 -62.5t-77.5 -28t-69 -8q-148 0 -228 110.5t-80 306.5zM274 381q0 -169 55 -251.5 t154 -82.5q111 0 195 98t106 258l70 504q-91 74 -209 74q-71 0 -135.5 -35.5t-118 -106t-85.5 -189t-32 -269.5zM469 1274q0 39 26.5 65.5t63.5 26.5q31 0 50.5 -19.5t19.5 -50.5q0 -39 -27.5 -65.5t-64.5 -26.5q-29 0 -48.5 19.5t-19.5 50.5zM821 1274q0 39 26.5 65.5 t63.5 26.5q31 0 50.5 -19.5t19.5 -50.5q0 -39 -27.5 -65.5t-64.5 -26.5q-29 0 -48.5 19.5t-19.5 50.5z" />
<glyph unicode="&#xe5;" horiz-adv-x="1040" d="M141 397q0 182 65 331t176 232.5t245 83.5q131 0 233 -79h4l111 79h24l-133 -940q-6 -48 27 -51l129 -10l-6 -43q-184 -20 -215 -20q-76 0 -66 75l19 127h-4q-30 -61 -71 -103.5t-83.5 -62.5t-77.5 -28t-69 -8q-148 0 -228 110.5t-80 306.5zM274 381q0 -169 55 -251.5 t154 -82.5q111 0 195 98t106 258l70 504q-91 74 -209 74q-71 0 -135.5 -35.5t-118 -106t-85.5 -189t-32 -269.5zM559 1257q0 86 52 146.5t132 60.5q60 0 95.5 -43.5t35.5 -109.5q0 -87 -51.5 -146t-130.5 -59q-62 0 -97.5 42.5t-35.5 108.5zM618 1253q0 -52 20 -82t58 -30 q55 0 87 51t32 125q0 53 -19.5 83t-58.5 30q-55 0 -87 -51.5t-32 -125.5z" />
<glyph unicode="&#xe6;" horiz-adv-x="1392" d="M109 188q0 121 76 200.5t261 133.5l250 74l23 156q13 93 -26 153t-138 60q-125 0 -272 -101l-17 31q27 28 69.5 58.5t120.5 60.5t156 30q101 0 162.5 -45t73.5 -127q145 172 346 172q85 0 141 -49.5t56 -126.5q0 -52 -30 -105t-93.5 -107t-179 -102.5t-269.5 -82.5 q-6 -78 6.5 -149t44 -131t91 -96t139.5 -36q132 0 268 125l18 -34q-144 -170 -348 -170q-145 0 -235.5 84.5t-114.5 228.5q-116 -313 -371 -313q-99 0 -153.5 59t-54.5 149zM238 209q0 -72 38 -112t107 -40q104 0 185 99.5t102 244.5l20 148l-229 -76q-223 -71 -223 -264z M821 520q51 14 104 33t118 53t114.5 73t83 93.5t33.5 114.5q0 49 -25.5 78.5t-66.5 29.5q-58 0 -115.5 -31.5t-108 -89.5t-87.5 -150t-50 -204z" />
<glyph unicode="&#xe7;" horiz-adv-x="888" d="M143 420q0 118 30.5 220.5t82.5 175t119.5 125t141.5 78t149 25.5q119 0 200.5 -40t81.5 -89q0 -45 -37.5 -61t-56.5 12q-7 9 -23.5 29t-25.5 30.5t-26 26t-33 23.5t-39 14t-50 6q-87 0 -159 -47.5t-118.5 -126.5t-71.5 -177.5t-25 -203.5q0 -189 74.5 -285t205.5 -96 q130 0 266 125l19 -34q-60 -71 -144 -118.5t-186 -51.5l-10 -66q55 -5 99 -41.5t44 -101.5q0 -80 -54.5 -130.5t-145.5 -50.5q-69 0 -117 25l12 31q55 -19 88 -19q61 0 95 45.5t34 102.5q0 45 -22.5 79t-69.5 42l12 84q-162 6 -251 127.5t-89 312.5z" />
<glyph unicode="&#xe8;" horiz-adv-x="858" d="M143 397q0 84 20.5 173t64 174t103 151.5t144.5 107.5t182 41q85 0 141 -49.5t56 -126.5q0 -41 -17.5 -82.5t-60 -86.5t-106.5 -85.5t-163 -78t-224 -64.5q-6 -78 6.5 -149t43.5 -131t90.5 -96t139.5 -36q132 0 268 125l19 -34q-144 -170 -348 -170q-168 0 -263.5 115 t-95.5 302zM285 520q51 14 104 33t118 53t114 73t82.5 93.5t33.5 114.5q0 49 -25.5 78.5t-66.5 29.5q-58 0 -115.5 -31.5t-107.5 -89.5t-87 -150t-50 -204zM449 1298q3 35 37 49t63 -12l211 -186l-19 -25l-258 117q-39 19 -34 57z" />
<glyph unicode="&#xe9;" horiz-adv-x="858" d="M143 397q0 84 20.5 173t64 174t103 151.5t144.5 107.5t182 41q85 0 141 -49.5t56 -126.5q0 -41 -17.5 -82.5t-60 -86.5t-106.5 -85.5t-163 -78t-224 -64.5q-6 -78 6.5 -149t43.5 -131t90.5 -96t139.5 -36q132 0 268 125l19 -34q-144 -170 -348 -170q-168 0 -263.5 115 t-95.5 302zM285 520q51 14 104 33t118 53t114 73t82.5 93.5t33.5 114.5q0 49 -25.5 78.5t-66.5 29.5q-58 0 -115.5 -31.5t-107.5 -89.5t-87 -150t-50 -204zM600 1149l264 186q34 24 62 14t28 -42q0 -46 -51 -66l-293 -117z" />
<glyph unicode="&#xea;" horiz-adv-x="858" d="M143 397q0 84 20.5 173t64 174t103 151.5t144.5 107.5t182 41q85 0 141 -49.5t56 -126.5q0 -41 -17.5 -82.5t-60 -86.5t-106.5 -85.5t-163 -78t-224 -64.5q-6 -78 6.5 -149t43.5 -131t90.5 -96t139.5 -36q132 0 268 125l19 -34q-144 -170 -348 -170q-168 0 -263.5 115 t-95.5 302zM285 520q51 14 104 33t118 53t114 73t82.5 93.5t33.5 114.5q0 49 -25.5 78.5t-66.5 29.5q-58 0 -115.5 -31.5t-107.5 -89.5t-87 -150t-50 -204zM383 1126l274 336h31l182 -336h-47l-166 220l-227 -220h-47z" />
<glyph unicode="&#xeb;" horiz-adv-x="858" d="M143 397q0 84 20.5 173t64 174t103 151.5t144.5 107.5t182 41q85 0 141 -49.5t56 -126.5q0 -41 -17.5 -82.5t-60 -86.5t-106.5 -85.5t-163 -78t-224 -64.5q-6 -78 6.5 -149t43.5 -131t90.5 -96t139.5 -36q132 0 268 125l19 -34q-144 -170 -348 -170q-168 0 -263.5 115 t-95.5 302zM285 520q51 14 104 33t118 53t114 73t82.5 93.5t33.5 114.5q0 49 -25.5 78.5t-66.5 29.5q-58 0 -115.5 -31.5t-107.5 -89.5t-87 -150t-50 -204zM395 1274q0 39 26.5 65.5t63.5 26.5q31 0 50.5 -19.5t19.5 -50.5q0 -39 -27.5 -65.5t-64.5 -26.5q-29 0 -48.5 19.5 t-19.5 50.5zM748 1274q0 39 26.5 65.5t63.5 26.5q31 0 50 -19.5t19 -50.5q0 -39 -27.5 -65.5t-64.5 -26.5q-29 0 -48 19.5t-19 50.5z" />
<glyph unicode="&#xec;" horiz-adv-x="530" d="M172 1298q3 35 37 49t63 -12l211 -186l-18 -25l-258 117q-40 20 -35 57zM190 967l7 41l292 36l15 -16q-23 -59 -39 -170l-107 -754q-7 -51 29 -51h127l-4 -43q-25 -3 -73 -11.5t-84.5 -13.5t-61.5 -5q-77 0 -64 75l121 871q3 22 -4 31.5t-27 9.5h-127z" />
<glyph unicode="&#xed;" horiz-adv-x="530" d="M190 967l7 41l292 36l15 -16q-23 -59 -39 -170l-107 -754q-7 -51 29 -51h127l-4 -43q-25 -3 -73 -11.5t-84.5 -13.5t-61.5 -5q-77 0 -64 75l121 871q3 22 -4 31.5t-27 9.5h-127zM352 1149l264 186q34 24 62.5 14t28.5 -42q0 -45 -52 -66l-293 -117z" />
<glyph unicode="&#xee;" horiz-adv-x="530" d="M176 1126l275 336h30l183 -336h-48l-165 220l-228 -220h-47zM190 967l7 41l292 36l15 -16q-23 -59 -39 -170l-107 -754q-7 -51 29 -51h127l-4 -43q-25 -3 -73 -11.5t-84.5 -13.5t-61.5 -5q-77 0 -64 75l121 871q3 22 -4 31.5t-27 9.5h-127z" />
<glyph unicode="&#xef;" horiz-adv-x="530" d="M188 967l7 41l292 36l15 -16q-23 -59 -39 -170l-107 -754q-7 -51 29 -51h127l-4 -43q-25 -3 -73 -11.5t-84.5 -13.5t-61.5 -5q-77 0 -64 75l121 871q3 22 -4 31.5t-27 9.5h-127zM197 1274q0 39 26.5 65.5t63.5 26.5q31 0 50 -19.5t19 -50.5q0 -39 -27.5 -65.5 t-64.5 -26.5q-29 0 -48 19.5t-19 50.5zM549 1274q0 39 26.5 65.5t63.5 26.5q31 0 50.5 -19.5t19.5 -50.5q0 -39 -27.5 -65.5t-65.5 -26.5q-29 0 -48 19.5t-19 50.5z" />
<glyph unicode="&#xf0;" horiz-adv-x="995" d="M143 428q0 117 37.5 228.5t102.5 197t159.5 138t200.5 52.5q127 0 205 -96l4 2q-37 172 -137 289l-230 -149l-14 43l215 139q-99 99 -246 139l17 43q164 -37 284 -145l174 114l15 -43l-158 -104q109 -114 168 -278t59 -351q0 -181 -64.5 -333.5t-181 -243t-259.5 -90.5 q-110 0 -191 62.5t-120.5 163t-39.5 222.5zM274 381q0 -175 62.5 -263.5t165.5 -88.5q69 0 132.5 37.5t115.5 110t83 193.5t31 273q0 174 -62.5 263t-164.5 89q-56 0 -108 -22t-99 -70.5t-81.5 -119t-54.5 -174t-20 -228.5z" />
<glyph unicode="&#xf1;" horiz-adv-x="1095" d="M188 967l7 41l294 36l13 -16q-26 -77 -37 -170l-14 -106h2q140 292 366 292q100 0 156.5 -76.5t34.5 -234.5l-88 -629q-7 -51 28 -51h127l-4 -43q-25 -3 -73 -11.5t-84.5 -13.5t-61.5 -5q-76 0 -63 75l90 656q34 239 -138 239q-64 0 -122 -40.5t-98.5 -105t-67.5 -138 t-37 -144.5l-76 -522h-125l129 926q3 22 -3 31.5t-26 9.5h-129zM436 1182q17 35 30.5 60t35 57.5t41.5 52.5t46 34.5t52 14.5q28 0 64.5 -18t66 -39.5t65 -39.5t62.5 -18q32 0 59.5 24.5t63.5 80.5l29 -19q-43 -91 -83 -139.5t-94 -48.5q-38 0 -86.5 28.5t-94 57t-75.5 28.5 q-21 0 -37 -5.5t-36.5 -27t-28 -31.5t-36.5 -51q-9 -12 -13 -18z" />
<glyph unicode="&#xf2;" horiz-adv-x="995" d="M143 428q0 117 37.5 228.5t102.5 197t159.5 138t200.5 52.5q110 0 191 -62.5t121 -163.5t40 -224q0 -156 -63 -296t-179.5 -229t-258.5 -89q-110 0 -191 62.5t-120.5 163t-39.5 222.5zM274 381q0 -175 62.5 -263.5t165.5 -88.5q69 0 132.5 37.5t115.5 110t83 193.5 t31 273q0 174 -62.5 263t-164.5 89q-56 0 -108 -22t-99 -70.5t-81.5 -119t-54.5 -174t-20 -228.5zM440 1298q3 35 37.5 49t63.5 -12l211 -186l-19 -25l-258 117q-40 20 -35 57z" />
<glyph unicode="&#xf3;" horiz-adv-x="995" d="M143 428q0 117 37.5 228.5t102.5 197t159.5 138t200.5 52.5q110 0 191 -62.5t121 -163.5t40 -224q0 -156 -63 -296t-179.5 -229t-258.5 -89q-110 0 -191 62.5t-120.5 163t-39.5 222.5zM274 381q0 -175 62.5 -263.5t165.5 -88.5q69 0 132.5 37.5t115.5 110t83 193.5 t31 273q0 174 -62.5 263t-164.5 89q-56 0 -108 -22t-99 -70.5t-81.5 -119t-54.5 -174t-20 -228.5zM608 1149l264 186q34 24 62.5 14t28.5 -42q0 -45 -52 -66l-293 -117z" />
<glyph unicode="&#xf4;" horiz-adv-x="995" d="M143 428q0 117 37.5 228.5t102.5 197t159.5 138t200.5 52.5q110 0 191 -62.5t121 -163.5t40 -224q0 -156 -63 -296t-179.5 -229t-258.5 -89q-110 0 -191 62.5t-120.5 163t-39.5 222.5zM274 381q0 -175 62.5 -263.5t165.5 -88.5q69 0 132.5 37.5t115.5 110t83 193.5 t31 273q0 174 -62.5 263t-164.5 89q-56 0 -108 -22t-99 -70.5t-81.5 -119t-54.5 -174t-20 -228.5zM410 1126l274 336h31l182 -336h-47l-166 220l-227 -220h-47z" />
<glyph unicode="&#xf5;" horiz-adv-x="995" d="M143 428q0 117 37.5 228.5t102.5 197t159.5 138t200.5 52.5q110 0 191 -62.5t121 -163.5t40 -224q0 -156 -63 -296t-179.5 -229t-258.5 -89q-110 0 -191 62.5t-120.5 163t-39.5 222.5zM274 381q0 -175 62.5 -263.5t165.5 -88.5q69 0 132.5 37.5t115.5 110t83 193.5 t31 273q0 174 -62.5 263t-164.5 89q-56 0 -108 -22t-99 -70.5t-81.5 -119t-54.5 -174t-20 -228.5zM369 1182q22 46 39.5 76.5t44.5 67.5t57 56t63 19q28 0 64.5 -18t66 -39.5t65 -39.5t62.5 -18q32 0 59.5 24.5t63.5 80.5l29 -19q-43 -91 -82.5 -139.5t-93.5 -48.5 q-38 0 -86.5 28.5t-94 57t-75.5 28.5q-28 0 -52.5 -15.5t-41 -36.5t-47.5 -65q-7 -11 -11 -16z" />
<glyph unicode="&#xf6;" horiz-adv-x="995" d="M143 428q0 117 37.5 228.5t102.5 197t159.5 138t200.5 52.5q110 0 191 -62.5t121 -163.5t40 -224q0 -156 -63 -296t-179.5 -229t-258.5 -89q-110 0 -191 62.5t-120.5 163t-39.5 222.5zM274 381q0 -175 62.5 -263.5t165.5 -88.5q69 0 132.5 37.5t115.5 110t83 193.5 t31 273q0 174 -62.5 263t-164.5 89q-56 0 -108 -22t-99 -70.5t-81.5 -119t-54.5 -174t-20 -228.5zM422 1274q0 39 26.5 65.5t63.5 26.5q31 0 50.5 -19.5t19.5 -50.5q0 -39 -27.5 -65.5t-65.5 -26.5q-29 0 -48 19.5t-19 50.5zM774 1274q0 39 26.5 65.5t63.5 26.5 q31 0 50.5 -19.5t19.5 -50.5q0 -39 -27.5 -65.5t-64.5 -26.5q-29 0 -48.5 19.5t-19.5 50.5z" />
<glyph unicode="&#xf7;" horiz-adv-x="1003" d="M250 516l6 53h651l-8 -53h-649zM457 227q0 39 28 69t64 30q30 0 48.5 -22t18.5 -54q0 -40 -27.5 -70t-64.5 -30q-29 0 -48 22t-19 55zM543 836q0 41 27.5 70.5t64.5 29.5q29 0 48 -22.5t19 -55.5q0 -39 -28 -68.5t-64 -29.5q-30 0 -48.5 22t-18.5 54z" />
<glyph unicode="&#xf8;" horiz-adv-x="993" d="M143 428q0 117 37.5 228.5t102.5 197t159.5 138t200.5 52.5q120 0 205 -75l76 114l39 -24l-80 -121q112 -127 112 -344q0 -156 -63 -296t-179.5 -229t-258.5 -89q-116 0 -199 67l-70 -106l-39 24l76 113v2q-58 62 -88.5 153t-30.5 195zM274 381q0 -144 39 -223l490 743 q-61 94 -166 94q-56 0 -108 -22t-99 -70.5t-81.5 -119t-54.5 -174t-20 -228.5zM340 113q57 -84 162 -84q69 0 132.5 37.5t115.5 110t83 193.5t31 273q0 125 -37 213z" />
<glyph unicode="&#xf9;" horiz-adv-x="1097" d="M190 967l7 41l292 36l15 -16q-26 -68 -41 -170l-76 -545q-8 -71 -2 -124t40.5 -84t98.5 -31t122.5 40.5t99.5 105t69.5 138t38.5 144.5l59 424q3 22 -3.5 31.5t-26.5 9.5h-162l6 41l326 36l14 -16q-23 -59 -39 -170l-104 -754q-3 -25 2 -37.5t24 -13.5l129 -10l-8 -43 q-180 -20 -215 -20q-75 0 -65 75l30 217h-2q-140 -292 -370 -292q-100 0 -155.5 76.5t-33.5 234.5l90 635q3 22 -4 31.5t-27 9.5h-129zM381 1298q3 35 37 49t63 -12l211 -186l-18 -25l-258 117q-40 20 -35 57z" />
<glyph unicode="&#xfa;" horiz-adv-x="1097" d="M190 967l7 41l292 36l15 -16q-26 -68 -41 -170l-76 -545q-8 -71 -2 -124t40.5 -84t98.5 -31t122.5 40.5t99.5 105t69.5 138t38.5 144.5l59 424q3 22 -3.5 31.5t-26.5 9.5h-162l6 41l326 36l14 -16q-23 -59 -39 -170l-104 -754q-3 -25 2 -37.5t24 -13.5l129 -10l-8 -43 q-180 -20 -215 -20q-75 0 -65 75l30 217h-2q-140 -292 -370 -292q-100 0 -155.5 76.5t-33.5 234.5l90 635q3 22 -4 31.5t-27 9.5h-129zM598 1149l264 186q34 24 62 14t28 -42q0 -46 -51 -66l-293 -117z" />
<glyph unicode="&#xfb;" horiz-adv-x="1097" d="M190 967l7 41l292 36l15 -16q-26 -68 -41 -170l-76 -545q-8 -71 -2 -124t40.5 -84t98.5 -31t122.5 40.5t99.5 105t69.5 138t38.5 144.5l59 424q3 22 -3.5 31.5t-26.5 9.5h-162l6 41l326 36l14 -16q-23 -59 -39 -170l-104 -754q-3 -25 2 -37.5t24 -13.5l129 -10l-8 -43 q-180 -20 -215 -20q-75 0 -65 75l30 217h-2q-140 -292 -370 -292q-100 0 -155.5 76.5t-33.5 234.5l90 635q3 22 -4 31.5t-27 9.5h-129zM451 1126l274 336h31l182 -336h-47l-166 220l-227 -220h-47z" />
<glyph unicode="&#xfc;" horiz-adv-x="1097" d="M190 967l7 41l292 36l15 -16q-26 -68 -41 -170l-76 -545q-8 -71 -2 -124t40.5 -84t98.5 -31t122.5 40.5t99.5 105t69.5 138t38.5 144.5l59 424q3 22 -3.5 31.5t-26.5 9.5h-162l6 41l326 36l14 -16q-23 -59 -39 -170l-104 -754q-3 -25 2 -37.5t24 -13.5l129 -10l-8 -43 q-180 -20 -215 -20q-75 0 -65 75l30 217h-2q-140 -292 -370 -292q-100 0 -155.5 76.5t-33.5 234.5l90 635q3 22 -4 31.5t-27 9.5h-129zM461 1274q0 39 26.5 65.5t63.5 26.5q31 0 50.5 -19.5t19.5 -50.5q0 -39 -27.5 -65.5t-65.5 -26.5q-29 0 -48 19.5t-19 50.5zM813 1274 q0 39 26.5 65.5t63.5 26.5q31 0 50.5 -19.5t19.5 -50.5q0 -39 -27.5 -65.5t-64.5 -26.5q-29 0 -48.5 19.5t-19.5 50.5z" />
<glyph unicode="&#xfd;" horiz-adv-x="1048" d="M84 -328q6 36 36 46.5t58 -9.5q106 -57 184.5 -5t147.5 226l-209 1008q-8 33 -49 33h-100l6 43q123 30 182 30q80 0 94 -69l168 -862h4l74 153q27 57 49 111.5t38.5 98t29.5 90.5t21.5 77.5t15 72t9.5 61t5 57.5t2.5 48t1 46t0.5 39q0 35 19 56t51 21q30 0 48.5 -20.5 t18.5 -56.5q0 -143 -215 -607l-182 -383q-20 -41 -27.5 -56t-27.5 -54t-30.5 -55.5t-31 -49.5t-35.5 -48.5t-37 -39.5t-42.5 -36t-45.5 -25t-52 -18t-56 -5q-49 0 -88 21.5t-35 60.5zM707 1149l264 186q34 24 62 14t28 -42q0 -46 -51 -66l-293 -117z" />
<glyph unicode="&#xfe;" horiz-adv-x="1069" d="M-6 -410l6 43l131 11q37 5 43 51l229 1640q3 22 -3 31.5t-25 9.5h-131l6 41l293 37l12 -16q-26 -72 -37 -164l-61 -438h4q30 62 71.5 105.5t84 64.5t78 29.5t69.5 8.5q146 0 225.5 -110.5t79.5 -306.5q0 -182 -64 -331t-175 -232.5t-244 -83.5q-134 0 -236 79h-4 l-49 -364q-9 -45 27 -51l163 -11l-6 -43h-487zM354 117q102 -74 213 -74q71 0 135 36t117.5 106.5t85 189.5t31.5 270q0 169 -55.5 250.5t-153.5 81.5q-110 0 -194 -98t-107 -258z" />
<glyph unicode="&#xff;" horiz-adv-x="1048" d="M84 -328q6 36 36 46.5t58 -9.5q106 -57 184.5 -5t147.5 226l-209 1008q-8 33 -49 33h-100l6 43q123 30 182 30q80 0 94 -69l168 -862h4l74 153q27 57 49 111.5t38.5 98t29.5 90.5t21.5 77.5t15 72t9.5 61t5 57.5t2.5 48t1 46t0.5 39q0 35 19 56t51 21q30 0 48.5 -20.5 t18.5 -56.5q0 -143 -215 -607l-182 -383q-20 -41 -27.5 -56t-27.5 -54t-30.5 -55.5t-31 -49.5t-35.5 -48.5t-37 -39.5t-42.5 -36t-45.5 -25t-52 -18t-56 -5q-49 0 -88 21.5t-35 60.5zM500 1274q0 39 26.5 65.5t63.5 26.5q31 0 50 -19.5t19 -50.5q0 -39 -27.5 -65.5 t-64.5 -26.5q-29 0 -48 19.5t-19 50.5zM852 1274q0 39 26.5 65.5t63.5 26.5q31 0 50.5 -19.5t19.5 -50.5q0 -39 -27.5 -65.5t-64.5 -26.5q-29 0 -48.5 19.5t-19.5 50.5z" />
<glyph unicode="&#x152;" horiz-adv-x="1701" d="M184 573q0 241 92.5 434t251 299.5t351.5 106.5q74 0 129 -20h788l-45 -320h-39l-26 227q-3 39 -48 39h-438l-84 -606h250q46 0 59 39l58 174h39l-68 -479h-39l-10 174q-3 39 -47 39h-250l-88 -627h465q39 0 59 39l117 227h39l-80 -319h-809q-58 -20 -133 -20 q-227 0 -360.5 162t-133.5 431zM328 545q0 -244 99 -380t257 -136q109 0 163 68.5t71 189.5l116 817q35 260 -162 260q-108 0 -205.5 -55.5t-173 -157t-120.5 -258.5t-45 -348z" />
<glyph unicode="&#x153;" horiz-adv-x="1574" d="M145 430q0 116 37.5 227t102.5 196.5t159.5 138t200.5 52.5q119 0 202.5 -70.5t121.5 -189.5q69 118 172.5 189t234.5 71q87 0 143 -49t56 -127q0 -52 -30 -105t-94 -107t-179.5 -102.5t-270.5 -82.5q-6 -78 6.5 -149t44 -131t91 -96t139.5 -36q132 0 268 125l19 -34 q-144 -170 -348 -170q-124 0 -209 63t-123 174q-68 -109 -170 -173t-223 -64q-110 0 -191 62.5t-120.5 163.5t-39.5 224zM274 381q0 -174 64 -263t166 -89q55 0 107 22.5t99.5 71.5t83.5 119.5t57 173.5t21 225q0 175 -64.5 264.5t-168.5 89.5q-71 0 -135 -36.5t-116 -108.5 t-83 -193t-31 -276zM1006 520q41 11 84.5 26.5t97 39t99.5 54.5t85.5 67.5t62.5 83t23 96.5q0 49 -26 78.5t-66 29.5q-124 0 -229.5 -127.5t-130.5 -347.5z" />
<glyph unicode="&#x178;" horiz-adv-x="1243" d="M217 1350l6 43h449l-6 -43l-99 -11q-25 -4 -35 -24.5t-4 -42.5l217 -678h5l401 674q15 25 8.5 42.5t-31.5 22.5l-112 17l6 43h389l-4 -43l-115 -17q-49 -9 -84 -67l-444 -742l-59 -420q-3 -24 3 -36t25 -15l131 -10l-6 -43h-473l6 43l135 10q35 5 41 51l58 400l-250 772 q-20 59 -56 61zM629 1642q0 39 26.5 66t63.5 27q29 0 49 -19.5t20 -50.5q0 -39 -27.5 -65.5t-64.5 -26.5q-29 0 -48 19t-19 50zM981 1642q0 39 26.5 66t63.5 27q30 0 50 -20t20 -50q0 -39 -27.5 -65.5t-64.5 -26.5q-29 0 -48.5 19.5t-19.5 49.5z" />
<glyph unicode="&#x2c6;" horiz-adv-x="827" d="M328 1126l274 336h31l182 -336h-47l-166 220l-227 -220h-47z" />
<glyph unicode="&#x2dc;" horiz-adv-x="929" d="M338 1182q17 35 30.5 60t35 57.5t41.5 52.5t46 34.5t52 14.5q28 0 64.5 -18t66 -39.5t65 -39.5t62.5 -18q32 0 59.5 24.5t63.5 80.5l28 -19q-43 -91 -82.5 -139.5t-93.5 -48.5q-38 0 -86.5 28.5t-94 57t-75.5 28.5q-21 0 -37 -5.5t-36.5 -27t-28 -31.5t-36.5 -51 q-9 -12 -13 -18z" />
<glyph unicode="&#x2000;" horiz-adv-x="916" />
<glyph unicode="&#x2001;" horiz-adv-x="1833" />
<glyph unicode="&#x2002;" horiz-adv-x="916" />
<glyph unicode="&#x2003;" horiz-adv-x="1833" />
<glyph unicode="&#x2004;" horiz-adv-x="611" />
<glyph unicode="&#x2005;" horiz-adv-x="458" />
<glyph unicode="&#x2006;" horiz-adv-x="305" />
<glyph unicode="&#x2007;" horiz-adv-x="305" />
<glyph unicode="&#x2008;" horiz-adv-x="229" />
<glyph unicode="&#x2009;" horiz-adv-x="366" />
<glyph unicode="&#x200a;" horiz-adv-x="101" />
<glyph unicode="&#x2010;" horiz-adv-x="968" d="M250 516l6 53h614l-6 -53h-614z" />
<glyph unicode="&#x2011;" horiz-adv-x="968" d="M250 516l6 53h614l-6 -53h-614z" />
<glyph unicode="&#x2012;" horiz-adv-x="968" d="M250 516l6 53h614l-6 -53h-614z" />
<glyph unicode="&#x2013;" horiz-adv-x="1144" d="M250 516l6 53h791l-7 -53h-790z" />
<glyph unicode="&#x2014;" horiz-adv-x="1320" d="M250 516l6 53h967l-6 -53h-967z" />
<glyph unicode="&#x2018;" horiz-adv-x="536" d="M315 1100q0 52 16.5 100.5t41.5 83.5t58 66t62 50t58 34l14 -35q-68 -38 -118 -93.5t-50 -115.5q0 -25 13 -41t39 -16q32 0 49.5 -21.5t17.5 -54.5q0 -38 -26.5 -69.5t-69.5 -31.5q-38 0 -63 25.5t-33.5 56t-8.5 62.5z" />
<glyph unicode="&#x2019;" horiz-adv-x="536" d="M305 989q67 37 116.5 93.5t49.5 115.5t-49 59q-33 0 -51.5 21t-18.5 53q0 39 28.5 71t70.5 32q37 0 62 -25.5t33.5 -56.5t8.5 -64q0 -63 -24 -120.5t-63.5 -98t-75.5 -67.5t-73 -46z" />
<glyph unicode="&#x201a;" horiz-adv-x="536" d="M131 -252q68 39 117 95t49 116q0 57 -49 57q-32 0 -51 21.5t-19 52.5q0 39 28 71t70 32q55 0 80 -46t25 -100q0 -64 -24 -121t-63 -97.5t-75 -67.5t-74 -46z" />
<glyph unicode="&#x201c;" horiz-adv-x="888" d="M315 1100q0 52 16.5 100.5t41.5 83.5t58 66t62 50t58 34l14 -35q-68 -38 -118 -93.5t-50 -115.5q0 -25 13 -41t39 -16q32 0 49.5 -21.5t17.5 -54.5q0 -38 -26.5 -69.5t-69.5 -31.5q-38 0 -63 25.5t-33.5 56t-8.5 62.5zM668 1100q0 64 23.5 121.5t62.5 98.5t75 68t74 46 l15 -35q-68 -38 -118 -93.5t-50 -115.5q0 -57 51 -57q32 0 49.5 -21.5t17.5 -54.5q0 -38 -26.5 -69.5t-69.5 -31.5q-38 0 -63 25.5t-33 56t-8 62.5z" />
<glyph unicode="&#x201d;" horiz-adv-x="888" d="M305 989q67 37 116.5 93.5t49.5 115.5t-49 59q-33 0 -51.5 21t-18.5 53q0 39 28.5 71t70.5 32q37 0 62 -25.5t33.5 -56.5t8.5 -64q0 -63 -24 -120.5t-63.5 -98t-75.5 -67.5t-73 -46zM657 989q67 37 116.5 93.5t49.5 115.5t-49 59q-33 0 -51 21t-18 53q0 39 28 71t70 32 q37 0 62 -25.5t33.5 -56.5t8.5 -64q0 -63 -24 -120.5t-63 -98t-75 -67.5t-73 -46z" />
<glyph unicode="&#x201e;" horiz-adv-x="888" d="M131 -252q68 39 117 95t49 116q0 57 -49 57q-32 0 -51 21.5t-19 52.5q0 39 28 71t70 32q55 0 80 -46t25 -100q0 -64 -24 -121t-63 -97.5t-75 -67.5t-74 -46zM483 -252q68 39 117 95t49 116q0 57 -49 57q-32 0 -51 21.5t-19 52.5q0 39 28.5 71t70.5 32q38 0 63 -26 t33 -56.5t8 -63.5q0 -51 -16.5 -99t-41 -83t-58 -66t-62 -50t-57.5 -34z" />
<glyph unicode="&#x2022;" horiz-adv-x="698" d="M244 475q11 85 69 144t131 59q64 0 106 -50t42 -124q0 -94 -62 -162t-143 -68q-73 0 -114 58t-29 143z" />
<glyph unicode="&#x2026;" horiz-adv-x="1181" d="M166 57q0 39 29 69t65 30q29 0 49.5 -23t20.5 -55q0 -39 -30 -68.5t-67 -29.5q-28 0 -47.5 22.5t-19.5 54.5zM518 57q0 39 29 69t65 30q29 0 49.5 -23t20.5 -55q0 -39 -29.5 -68.5t-66.5 -29.5q-28 0 -48 22.5t-20 54.5zM870 57q0 39 29.5 69t65.5 30q29 0 49 -23t20 -55 q0 -39 -29.5 -68.5t-66.5 -29.5q-28 0 -48 22.5t-20 54.5z" />
<glyph unicode="&#x202f;" horiz-adv-x="366" />
<glyph unicode="&#x2039;" horiz-adv-x="768" d="M252 530l6 45l440 377l21 -37l-346 -362l245 -363l-30 -36z" />
<glyph unicode="&#x203a;" horiz-adv-x="768" d="M203 190l346 363l-244 362l29 37l338 -377l-6 -45l-445 -376z" />
<glyph unicode="&#x205f;" horiz-adv-x="458" />
<glyph unicode="&#x20ac;" horiz-adv-x="1306" d="M145 526l7 54h106q0 108 27 233h-99l7 53h108q74 245 252 396t393 151q219 0 377 -106l-43 -316h-41q1 89 -15 156.5t-42.5 108t-66 65.5t-80.5 34t-91 9q-168 0 -307.5 -129t-200.5 -369h371l-6 -53h-377q-22 -114 -25 -233h367l-6 -54h-361q3 -237 99.5 -364 t249.5 -127q63 0 123.5 21t119 65t109 121t84.5 180l47 -12q-40 -120 -98.5 -207t-127 -134t-136 -68t-140.5 -21q-203 0 -331 151t-140 395h-113z" />
<glyph unicode="&#x2122;" horiz-adv-x="1308" d="M256 1247l20 146h437l-23 -146h-16l-12 103q-3 18 -21 18h-121l-78 -555q-3 -22 13 -25l59 -4l-2 -18h-213l2 18l61 4q15 3 19 25l78 555h-119q-19 0 -27 -18l-41 -103h-16zM700 766l2 18l60 9q18 3 22 24l74 529q3 19 -12 22l-62 4l4 21h144l106 -519l246 519h141 l-4 -21l-59 -4q-20 -3 -23 -22l-73 -533q-3 -22 14 -25l59 -4l-2 -18h-213l2 18l60 4q14 2 18 25l72 514l-264 -567h-15l-118 567l-70 -510q-3 -24 12 -24l62 -9l-2 -18h-181z" />
<glyph unicode="&#x25fc;" horiz-adv-x="1044" d="M0 0v1044h1044v-1044h-1044z" />
</font>
</defs>
</svg>
