<?xml version="1.0" encoding="iso-8859-1"?>
<svg version="1.1" id="Capa_1" xmlns="http://www.w3.org/2000/svg" xmlns:xlink="http://www.w3.org/1999/xlink" x="0px" y="0px"
	 fill="#ffffff" viewBox="0 0 16 16" xml:space="preserve">
<g>
	<g>
		<path d="M14.15,4.449c-0.437-3.162-3.588-4.772-6.95-4.395c-2.658,0.298-5.308,2.447-5.418,5.52
			C1.715,7.45,2.247,8.857,4.032,9.253c0.773-1.368-0.249-1.667-0.409-2.658c-0.655-4.05,4.672-6.816,7.462-3.986
			c1.932,1.96,0.659,7.986-2.453,7.359c-2.981-0.598,1.46-5.395-0.919-6.336c-1.934-0.766-2.961,2.34-2.044,3.884
			C5.131,10.171,3.973,12.671,4.442,16c1.52-1.104,2.033-3.215,2.453-5.418c0.764,0.465,1.173,0.946,2.147,1.021
			C12.634,11.882,14.643,8.017,14.15,4.449z"/>
	</g>
</g>
</svg>
